<svg width="60" height="50" fill="#fff" xmlns="http://www.w3.org/2000/svg"><path d="M31.9 23.7h-.5v-7.2c0-2.5-2-4.5-4.5-4.5H10.1c-2.5 0-4.5 2-4.5 4.5v7.2H5c-2.5 0-4.5 2-4.5 4.5v20.1c0 .6.5 1.2 1.2 1.2.6 0 1.2-.5 1.2-1.2v-3.9H34v3.9c0 .6.5 1.2 1.2 1.2s1.2-.5 1.2-1.2V28.2c0-2.4-2-4.5-4.5-4.5zm0 2.4c1.2 0 2.2 1 2.2 2.2v7.2h-2.7v-9.4h.5zm-24-9.6c0-1.2 1-2.2 2.2-2.2h16.8c1.2 0 2.2 1 2.2 2.2v18.9H7.9V16.5zM5 26.1h.5v9.4H2.8v-7.2c0-1.2 1-2.2 2.2-2.2zM2.8 42.2v-4.4H34v4.4H2.8z"/><path d="M12.6 22h.8v.8c0 .6.5 1.2 1.2 1.2.6 0 1.2-.5 1.2-1.2V22h.8c.6 0 1.2-.5 1.2-1.2 0-.6-.5-1.2-1.2-1.2h-.8v-.8c0-.6-.5-1.2-1.2-1.2-.6 0-1.2.5-1.2 1.2v.8h-.8c-.6 0-1.2.5-1.2 1.2S12 22 12.6 22zm7.8 0h.8v.8c0 .6.5 1.2 1.2 1.2.6 0 1.2-.5 1.2-1.2V22h.8c.6 0 1.2-.5 1.2-1.2 0-.6-.5-1.2-1.2-1.2h-.8v-.8c0-.6-.5-1.2-1.2-1.2-.6 0-1.2.5-1.2 1.2v.8h-.8c-.6 0-1.2.5-1.2 1.2s.5 1.2 1.2 1.2zm-7.8 8.1h.8v.8c0 .6.5 1.2 1.2 1.2.6 0 1.2-.5 1.2-1.2v-.8h.8c.6 0 1.2-.5 1.2-1.2 0-.6-.5-1.2-1.2-1.2h-.8V27c0-.6-.5-1.2-1.2-1.2-.6 0-1.2.5-1.2 1.2v.8h-.8c-.6 0-1.2.5-1.2 1.2 0 .6.6 1.1 1.2 1.1zm7.8 0h.8v.8c0 .6.5 1.2 1.2 1.2.6 0 1.2-.5 1.2-1.2v-.8h.8c.6 0 1.2-.5 1.2-1.2 0-.6-.5-1.2-1.2-1.2h-.8V27c0-.6-.5-1.2-1.2-1.2-.6 0-1.2.5-1.2 1.2v.8h-.8c-.6 0-1.2.5-1.2 1.2 0 .6.5 1.1 1.2 1.1zm39.1-12.4L57.2 1.4c-.1-.6-.6-1-1.2-1H41.4c-.6 0-1.1.4-1.2 1L38 17.7c0 .3.1.7.3.9.2.3.5.4.9.4h8.4v27.9h-6.4c-.6 0-1.2.5-1.2 1.2 0 .6.5 1.2 1.2 1.2h15.1c.6 0 1.2-.5 1.2-1.2 0-.6-.5-1.2-1.2-1.2h-6.4V19h8.4c.3 0 .7-.1.9-.4.2-.3.3-.6.3-.9zm-19-1l1.9-13.9H55l2 13.9H40.5z"/></svg>