<svg width="80" height="48" fill="#fff" xmlns="http://www.w3.org/2000/svg"><path d="M27.8 48c-.6 0-1.3-.2-1.8-.6-.9-.7-1.4-1.8-1.2-3l2.1-12c0-.1 0-.2-.1-.3l-8.7-8.5c-.8-.8-1.1-2-.8-3.1s1.3-1.9 2.5-2.1l12.1-1.8c.1 0 .2-.1.2-.2l5.4-10.9c.5-1 1.6-1.7 2.7-1.7 1.2 0 2.2.6 2.7 1.7l5.4 10.9c0 .1.1.2.2.2l12.1 1.8c1.2.2 2.1 1 2.5 2.1.4 1.1.1 2.3-.8 3.1l-8.7 8.5c-.1.1-.1.2-.1.3l2.1 12c.2 1.1-.3 2.3-1.2 3-.9.7-2.2.8-3.2.2l-10.8-5.7h-.3l-10.8 5.7c-.5.2-1 .4-1.5.4zm12.4-8.8c.5 0 1 .1 1.4.3l10.8 5.7c.1.1.2.1.3 0 .1-.1.1-.2.1-.3l-2.1-12c-.2-1 .2-2 .9-2.7l8.7-8.5c.1-.1.1-.2.1-.3 0-.1-.1-.2-.2-.2l-12.1-1.8c-1-.1-1.8-.8-2.3-1.7L40.5 6.8c-.1-.2-.4-.2-.6 0l-5.4 10.9c-.4.9-1.3 1.5-2.3 1.7l-12.1 1.8c-.1 0-.2.1-.2.2s0 .2.1.3l8.7 8.5c.7.7 1 1.7.9 2.7l-2.1 12c0 .1 0 .2.1.3.1.1.2.1.3 0l10.8-5.7c.5-.2 1-.3 1.5-.3z"/><path d="M8.2 31.9c-.6 0-1.3-.2-1.8-.6-.9-.7-1.4-1.8-1.2-3l1.3-7.6c0-.1 0-.2-.1-.3L.9 15c-.8-.8-1.1-2-.8-3.1.4-1.1 1.3-1.9 2.5-2.1l7.6-1.1c.1 0 .2-.1.2-.2l3.4-6.9c.5-1 1.6-1.7 2.7-1.7 1.2 0 2.2.6 2.7 1.7l3.4 6.9c0 .1.1.2.2.2l6.6 1-.4 2.7-6.6-1c-1-.1-1.8-.8-2.3-1.7l-3.4-6.9c-.1-.2-.4-.2-.6 0l-3.4 6.9c-.4.9-1.3 1.5-2.3 1.7L3 12.6c-.1 0-.2.1-.2.2s0 .2.1.3l5.5 5.4c.7.7 1 1.7.9 2.7L8 28.8c0 .1 0 .2.1.3.1.1.2.1.3 0l7.6-4 1.3 2.4-7.6 4c-.5.3-1 .4-1.5.4zm63.6 0c-.5 0-1-.1-1.4-.4l-7.6-4 1.3-2.4 7.6 4c.1.1.2.1.3 0 .1-.1.1-.2.1-.3l-1.3-7.6c-.2-1 .2-2 .9-2.7l5.5-5.4c.1-.1.1-.2.1-.3 0-.1-.1-.2-.2-.2l-7.6-1.1c-1-.1-1.8-.8-2.3-1.7l-3.4-6.9c-.1-.1-.1-.2-.3-.2-.1 0-.2.1-.3.2l-3.4 6.9c-.4.9-1.3 1.5-2.3 1.7l-6.6 1-.4-2.7 6.6-1c.1 0 .2-.1.2-.2l3.4-6.9c.5-1 1.6-1.7 2.7-1.7 1.2 0 2.2.6 2.7 1.7l3.4 6.9c0 .1.1.2.2.2l7.6 1.1c1.2.2 2.1 1 2.5 2.1.4 1.1.1 2.3-.8 3.1l-5.5 5.4c-.1.1-.1.2-.1.3l1.3 7.6c.2 1.1-.3 2.3-1.2 3-.5.3-1.1.5-1.7.5z"/></svg>