<svg width="52" height="60" fill="#fff" xmlns="http://www.w3.org/2000/svg"><path d="M26 32.9c-6.5 0-12.7-.5-17.4-1.4-5.5-1.1-8-2.5-8-4.5 0-1 .7-1.9 2.1-2.7.5-.3 1.3-.1 1.6.5.3.6.1 1.3-.5 1.6-.5.3-.7.5-.8.6.9 1.3 9.1 3.5 23 3.5s22-2.2 23-3.5c-.1-.1-.3-.3-.9-.6-.6-.3-.8-1-.5-1.6.3-.6 1-.8 1.6-.5 1.5.8 2.2 1.7 2.2 2.7 0 2-2.6 3.4-8.1 4.5-4.6.9-10.8 1.4-17.3 1.4z"/><path d="M26 59.5c-5.5 0-11.1-1.8-11.1-5.3 0-.4.1-.9.4-1.5C6.2 48.2.5 38.4.5 27.4c0-.7.5-1.2 1.2-1.2s1.2.5 1.2 1.2c0 10.5 6 20 14.8 23.7.4.2.7.5.7 1 .1.4-.1.8-.4 1.1-.2.2-.7.6-.7 1 0 1.2 3.4 2.9 8.6 2.9s8.6-1.7 8.6-2.9c0-.4-.4-.8-.7-1-.3-.3-.5-.7-.4-1.1.1-.4.3-.8.7-1 8.9-3.8 14.8-13.3 14.8-23.7 0-.7.5-1.2 1.2-1.2s1.2.5 1.2 1.2c0 11-5.8 20.8-14.8 25.3.3.6.4 1.1.4 1.5.2 3.5-5.4 5.3-10.9 5.3z"/><path d="M30.8 32.8h-.1c-.7-.1-1.1-.7-1.1-1.3 1.2-10.7.2-15.3-1-16-.8-.4-1.2-.3-1.5-.2-1.4.6-2.5 3.3-2.9 4.8-.1.5-.5.9-1 .9-.5.1-1-.2-1.2-.7-.1-.1-1.6-3.1-5-2.6-.8.1-1.4.4-1.8 1-.8 1.1-.8 2.8-.7 3.4.1.4-.1.8-.4 1.1-.3.3-.8.4-1.2.2-1.5-.5-3-.3-3.8.4-.4.4-.6 1-.4 1.7.5 1.9 1.2 2.5 2.2 3.3.2.2.4.3.6.5.5.4.5 1.2.1 1.7s-1.2.5-1.7.1c-.2-.2-.4-.3-.6-.5-1.1-.9-2.3-1.9-3-4.5-.5-1.6-.1-3.1 1-4.1 1.1-1.1 2.8-1.5 4.6-1.3.1-1.1.3-2.4 1.2-3.5.8-1.1 2-1.7 3.4-1.9 2.8-.4 4.8.8 6 2 .7-1.6 1.8-3.5 3.6-4.3.8-.3 2.1-.6 3.7.4 1 .6 4 2.3 2.2 18.4-.1.5-.6 1-1.2 1z"/><path d="M40.9 31.7c-.3 0-.6-.1-.8-.3-.5-.4-.6-1.2-.1-1.7 1.9-2.2 6.7-8.8 6.6-12.9-.1-2.6-2.1-4.4-4-4.9-.8-.2-2.9-.5-4.1 1.4-1.6 2.5-4.1 7.3-5.9 10.9-.3.6-1 .8-1.6.5-.6-.3-.8-1-.5-1.6 1.8-3.6 4.3-8.5 6-11.1 1.4-2.3 4-3.2 6.8-2.5 3.3.9 5.7 3.8 5.8 7.1.2 5.9-6.9 14.3-7.2 14.6-.3.3-.7.5-1 .5z"/><path d="M44.9 11.8c-.8 0-1.3-.6-1.2-1.3l.6-8.9c0-.7.6-1.2 1.3-1.1.7 0 1.2.6 1.1 1.3l-.6 8.9c0 .6-.5 1.1-1.2 1.1z"/><path d="M45.1 12.9c-.3 0-.6-.1-.9-.4-.5-.5-.4-1.3 0-1.7l4.3-4.1c.5-.5 1.3-.4 1.7 0 .5.5.4 1.3 0 1.7L46 12.5c-.3.2-.6.4-.9.4zm-4.7 7.3c-.3 0-.7-.1-.9-.4-.5-.6-2.3-2.1-3.5-1.6-.6.2-1.3-.1-1.6-.7-.2-.6.1-1.3.7-1.6 3.1-1.2 6.1 2.1 6.2 2.3.4.5.4 1.3-.1 1.7-.3.2-.6.3-.8.3zm1.7 8.2c-.4 0-.8-.2-1-.5-1.3-1.9-2.7-1.7-2.7-1.7-.7.1-1.3-.3-1.4-1-.1-.7.3-1.3 1-1.4.1 0 3-.5 5.1 2.7.4.6.2 1.3-.3 1.7-.2.1-.4.2-.7.2zm-24 3.8c-.5 0-.9-.3-1.1-.7l-2.3-4.9c-.3-.6 0-1.3.6-1.6.6-.3 1.3 0 1.6.6l2.3 4.9c.3.6 0 1.3-.6 1.6-.1.1-.3.1-.5.1zm6.6-.2c-.6 0-1.1-.4-1.2-1.1l-.9-7c-.1-.7.4-1.3 1-1.4.7-.1 1.3.4 1.4 1l.9 7c.1.7-.4 1.3-1 1.4-.1.1-.1.1-.2.1z"/><path class="st0" d="M26.4 55.3c-5.4 0-9.5-1.8-9.8-1.9-.6-.3-.9-1-.6-1.6.3-.6 1-.9 1.6-.6.1 0 9.1 3.8 17.3-.2.6-.3 1.3-.1 1.6.5.3.6.1 1.3-.5 1.6-3.3 1.6-6.7 2.2-9.6 2.2z"/></svg>