<svg width="64" height="45" xmlns="http://www.w3.org/2000/svg"><g fill="#fff"><path d="M62.9 22.3c-.1-.4-.3-.6-.7-.8l-13.1-5.6h-7.9c.7-1.9 1.2-3.6 1.2-4.8C42.4 5.3 37.7.6 31.9.6S21.4 5.3 21.4 11.1v.5l-2.7-1.2c-.5-.2-1.1-.1-1.4.4l-16 20.6c-.2.3-.3.7-.2 1 .1.4.3.6.7.8l13.1 5.6h17.6l12.8 5.5c.2.1.3.1.5.1.4 0 .7-.2.9-.5l16.1-20.7c.2-.2.2-.5.1-.9zm-16.6-4.1L32.1 36.6H17.7L27 24.7c1.9 3.4 3.7 6.2 4.1 6.9.2.3.6.5 1 .5s.8-.2 1-.5c.7-1 4.7-7.5 7.3-13.3l5.9-.1zM32 2.9c4.5 0 8.1 3.7 8.1 8.1 0 3.5-5.2 12.8-8.1 17.6-1.1-1.8-2.5-4.2-3.9-6.7-1.7-3.1-3.2-6.4-3.9-8.8-.2-.8-.4-1.5-.4-2 .1-4.6 3.7-8.2 8.2-8.2zm-13.3 10l3.5 1.5c.8 2.4 2.1 5.3 3.6 8L14.9 36.3 4.1 31.6l14.6-18.7zm26.6 29l-10.8-4.6 14.6-18.8 10.8 4.6-14.6 18.8z"/><path d="M32 17c3.3 0 6-2.7 6-6s-2.7-6-6-6-6 2.7-6 6 2.7 6 6 6zm0-9.7c2 0 3.7 1.6 3.7 3.7 0 2-1.6 3.7-3.7 3.7-2 0-3.7-1.6-3.7-3.7 0-2 1.7-3.7 3.7-3.7z"/></g></svg>