<svg width="100" height="100" xmlns="http://www.w3.org/2000/svg"><path d="M50 2c26.5 0 48 21.5 48 48S76.5 98 50 98 2 76.5 2 50 23.5 2 50 2m0-2C22.4 0 0 22.4 0 50s22.4 50 50 50 50-22.4 50-50S77.6 0 50 0z" fill="#40b7ae"/><g fill="#1c3877"><path d="M49.5 28.6c-.4 0-.7-.3-.7-.7 0-1.2-1-2.1-2.1-2.1-1.2 0-2.1 1-2.1 2.1 0 .4-.3.7-.7.7-.4 0-.7-.3-.7-.7 0-2 1.6-3.6 3.6-3.6s3.6 1.6 3.6 3.6c-.1.4-.5.7-.9.7zm4.7 7.3h-15c-.4 0-.7-.3-.7-.7V30c0-.4.3-.7.7-.7h15c.4 0 .7.3.7.7v5.1c0 .4-.3.8-.7.8zm-14.3-1.5h13.6v-3.7H39.9v3.7zm10 36H32.2c-.4 0-.7-.3-.7-.7v-38c0-.4.3-.7.7-.7H36c.4 0 .7.3.7.7 0 .4-.3.7-.7.7h-3.1V69h17c.4 0 .7.3.7.7 0 .4-.3.7-.7.7zM61 57.7c-.4 0-.7-.3-.7-.7V32.4h-3.4c-.4 0-.7-.3-.7-.7 0-.4.3-.7.7-.7H61c.4 0 .7.3.7.7V57c0 .4-.3.7-.7.7z"/><path d="M39.3 46.5c-.2 0-.4-.1-.5-.2l-2.4-2.4c-.3-.3-.3-.7 0-1 .3-.3.7-.3 1 0l1.9 1.9 3.6-3.6c.3-.3.7-.3 1 0 .3.3.3.7 0 1l-4.1 4.1c-.2.1-.3.2-.5.2zm0 8.3c-.2 0-.4-.1-.5-.2l-2.4-2.4c-.3-.3-.3-.7 0-1 .3-.3.7-.3 1 0l1.9 1.9 3.6-3.6c.3-.3.7-.3 1 0 .3.3.3.7 0 1l-4.1 4.1c-.2.1-.3.2-.5.2zm0 8.3c-.2 0-.4-.1-.5-.2l-2.4-2.4c-.3-.3-.3-.7 0-1 .3-.3.7-.3 1 0l1.9 1.9 3.6-3.6c.3-.3.7-.3 1 0 .3.3.3.7 0 1l-4.1 4.1c-.2.2-.3.2-.5.2zm16.8-18.7h-9c-.4 0-.7-.3-.7-.7 0-.4.3-.7.7-.7h9c.4 0 .7.3.7.7 0 .4-.3.7-.7.7zm0 8.4h-9c-.4 0-.7-.3-.7-.7 0-.4.3-.7.7-.7h9c.4 0 .7.3.7.7 0 .4-.3.7-.7.7zm-4.5 8.3h-4.5c-.4 0-.7-.3-.7-.7 0-.4.3-.7.7-.7h4.5c.4 0 .7.3.7.7 0 .4-.3.7-.7.7zM60 75.6c-4.7 0-8.5-3.8-8.5-8.5s3.8-8.5 8.5-8.5 8.5 3.8 8.5 8.5-3.8 8.5-8.5 8.5zm0-15.5c-3.9 0-7 3.2-7 7 0 3.9 3.2 7 7 7 3.9 0 7-3.2 7-7 .1-3.8-3.1-7-7-7z"/><path d="M59 70.9c-.2 0-.4-.1-.5-.2l-3.1-3.1c-.3-.3-.3-.7 0-1 .3-.3.7-.3 1 0l2.6 2.6 4.7-4.7c.3-.3.7-.3 1 0 .3.3.3.7 0 1l-5.2 5.2c-.2.1-.4.2-.5.2z"/></g></svg>