<svg width="100" height="100" xmlns="http://www.w3.org/2000/svg"><path d="M50 2c26.5 0 48 21.5 48 48S76.5 98 50 98 2 76.5 2 50 23.5 2 50 2m0-2C22.4 0 0 22.4 0 50s22.4 50 50 50 50-22.4 50-50S77.6 0 50 0z" fill="#40b7ae"/><path d="M36.4 51.9c-.5.4-.9.7-1.3 1.1-3.5 2.7-3.5 2.7-3.2 13.5 0 1.7.1 3.7.1 5.9 0 .5-.4.9-.9.9s-.9-.4-.9-.9c0-2.3-.1-4.2-.1-5.9-.3-11.2-.3-11.6 3.9-14.9.7-.5 1.5-1.2 2.4-1.9v2.2zm8.4 17.9c-.9.4-.9 1.2-.9 1.7 0 .2 0 .4-.1.7-.1.5.3.9.8 1h.1c.4 0 .8-.3.9-.8 0-.4.1-.7.1-.9v-.3c2.4-1.2 3.9-3 4.5-5.4h-1.8c-.9 2.7-2.9 3.6-3.6 4zm-.4-7.8c-.1-.4-.1-.9-.1-1 1.5-1.5 1.8-1.9 2.6-3.3 1-1.6.3-3.6-.8-4.7-.9-.8-2.1-.9-3.1-.2-1.4 1.1-2.7 2.4-4 3.8-1.1 1.2-2.3 2.4-3.6 3.6-.4.3-.4.9-.1 1.2.3.4.9.4 1.2.1 1.4-1.2 2.6-2.5 3.7-3.7 1.3-1.3 2.4-2.6 3.8-3.6.1-.1.4-.3.8.1.5.5 1 1.6.4 2.5-.7 1.3-1 1.6-2.4 3-.7.7-.5 1.6-.4 2.5.1.9.3 2-.3 3.1-.7 1.4-1.7 2.1-2.4 2.5-.4.2-.6.8-.3 1.2.2.3.5.5.8.5.1 0 .3 0 .4-.1.9-.5 2.2-1.5 3.1-3.3 1.1-1.7.9-3.1.7-4.2zm18.9-4.6v5.1c0 .2-.2.4-.4.4H45.3c0 .5 0 1.1-.1 1.7h17.7c1.2 0 2.1-1 2.1-2.1v-7.2l-1.7 2.1zm-23.9-2.3V28.9c0-.2.2-.4.4-.4H63c.2 0 .4.2.4.4v15.6l1.7-2.1V28.9c0-1.2-1-2.1-2.1-2.1H39.7c-1.2 0-2.1 1-2.1 2.1V57c.3-.3.6-.6.9-1l.9-.9zm30-7.9L61 57.3c-.4.5-1.1.8-1.7.9h-.1c-.6 0-1.2-.2-1.7-.7l-6.1-5.8c-1-.9-1-2.4-.1-3.4s2.4-1 3.4-.1l4.2 4 6.8-8.1c.9-1 2.4-1.2 3.4-.3 1.1.9 1.2 2.4.3 3.4zM68.1 45c-.4-.3-.9-.3-1.2.1L59 54.5l-5.4-5.2c-.3-.3-.9-.3-1.2 0-.3.3-.3.9 0 1.2l6.1 5.8c.2.1.4.2.6.2.2 0 .4-.1.6-.3l8.5-10.1c.3-.3.3-.8-.1-1.1zm-8.7-9.5c0-.5-.4-.9-.9-.9H44.1c-.5 0-.9.4-.9.9s.4.9.9.9h14.4c.5 0 .9-.4.9-.9zm-15.3 5c-.5 0-.9.4-.9.9s.4.9.9.9h10.5c.5 0 .9-.4.9-.9s-.4-.9-.9-.9H44.1z" fill="#1c3877"/></svg>