<svg width="100" height="100" xmlns="http://www.w3.org/2000/svg"><path d="M50 2c26.5 0 48 21.5 48 48S76.5 98 50 98 2 76.5 2 50 23.5 2 50 2m0-2C22.4 0 0 22.4 0 50s22.4 50 50 50 50-22.4 50-50S77.6 0 50 0z" fill="#40b7ae"/><path d="M41 27.7c-3.3 0-6 3.7-6 8.2v4.6c0 3.3 1.4 6 3.4 7.4v24.7h5.2V47.8c2-1.3 3.4-4.1 3.4-7.4v-4.6c0-4.5-2.7-8.1-6-8.1zm12-.2v13c0 3.3 1.4 6 3.4 7.4v24.7h5.2V47.8c2-1.3 3.4-4.1 3.4-7.4v-13M53.4 37h11.1m-7.5-.8v-8.6m4 8.6v-8.6" fill="none" stroke="#1c3877" stroke-width="2" stroke-linecap="round" stroke-linejoin="round" stroke-miterlimit="10"/></svg>