<svg width="100" height="100" xmlns="http://www.w3.org/2000/svg"><path d="M50 2c26.5 0 48 21.5 48 48S76.5 98 50 98 2 76.5 2 50 23.5 2 50 2m0-2C22.4 0 0 22.4 0 50s22.4 50 50 50 50-22.4 50-50S77.6 0 50 0z" fill="#40b7ae"/><path d="M65.9 66.8c1.7-2.6 2.6-5.6 2.6-8.7 0-3.5-1.1-6.9-3.3-9.7-2-2.6-4.8-4.6-7.9-5.6-.9-1.6-2.4-2.7-4.3-3l1.2-2.2c.2-.4.1-1-.4-1.2h-.1l1-1.9h.1c.2.1.5.1.7.1.2-.1.4-.2.5-.5l2.2-4.3c.1-.2.1-.5.1-.7-.1-.2-.2-.4-.5-.5l-6.2-3.2c-.2-.1-.5-.1-.7-.1-.2.1-.4.2-.5.5L48.1 30c-.2.4-.1 1 .4 1.2h.1l-1 1.9h-.1c-.2-.1-.4-.1-.6-.1-.2.1-.4.2-.5.5l-8.7 16.9c-.2.4-.1 1 .4 1.2l6.2 3.2c.1.1.3.1.4.1h.3c.2-.1.4-.2.5-.5l2.2-4.2c1.1 1.1 2.6 1.8 4.3 1.8 1.4 0 2.8-.5 3.8-1.3 2.8 1.4 4.6 4.3 4.6 7.5 0 4.6-3.8 8.4-8.4 8.4h-8.3v-2.2h3.1c.5 0 .9-.4.9-.9s-.4-.9-.9-.9H32.5c-.5 0-.9.4-.9.9s.4.9.9.9h3.1v2.2h-.1c-2.2 0-4 1.8-4 4V74c0 .5.4.9.9.9h35.2c.5 0 .9-.4.9-.9v-3.4c0-1.8-1.1-3.3-2.6-3.8zm-21.6-14l-4.6-2.4 7.8-15.2h.1c.2.1.5.1.7.1.2-.1.4-.2.5-.5l1.8-3.5c.2-.4.1-1-.4-1.2h-.1l1.4-2.6 4.6 2.4-1.4 2.6h-.1c-.2-.1-.5-.1-.7-.1-.2.1-.4.2-.5.5l-1.8 3.5c-.2.4-.1 1 .4 1.2h.1L51 39.8c-2.9.5-5.1 3-5.1 6 0 1 .2 1.9.6 2.7l-2.2 4.3zm7.7-2.7c-2.4 0-4.3-1.9-4.3-4.3s1.9-4.3 4.3-4.3 4.3 1.9 4.3 4.3-2 4.3-4.3 4.3zm10.2 8c0-3.7-2-7.1-5.1-8.9.6-1 1-2.1 1-3.4 0-.3 0-.5-.1-.8 2.2 1 4.2 2.5 5.7 4.5 1.9 2.5 2.9 5.5 2.9 8.6 0 3.1-1 6-2.8 8.4h-6.1c2.7-1.8 4.5-4.9 4.5-8.4zm-24.8 6.2h4.5v2.2h-4.5v-2.2zm29.3 8.6H33.3v-2.4c0-1.2 1-2.1 2.1-2.1h29.1c1.2 0 2.1 1 2.1 2.1v2.4z" fill="#1c3877"/></svg>