<svg width="100" height="100" xmlns="http://www.w3.org/2000/svg" viewBox="0 0 100 100">
<style type="text/css">
	.st0{fill:#40B7AE;}
	.st1{fill:none;stroke:#1c3877;stroke-width:2;stroke-linecap:round;stroke-linejoin:round;stroke-miterlimit:10;}
</style>
<path class="st0" d="M50,2c26.5,0,48,21.5,48,48S76.5,98,50,98S2,76.5,2,50C2,23.5,23.5,2,50,2 M50,0C22.4,0,0,22.4,0,50s22.4,50,50,50s50-22.4,50-50S77.6,0,50,0L50,0z"/>
<g>
	<path class="st1" d="M41,27.7c-3.3,0-6,3.7-6,8.2v4.6c0,3.3,1.4,6,3.4,7.4v24.7h5.2V47.8c2-1.3,3.4-4.1,3.4-7.4v-4.6C47,31.3,44.3,27.7,41,27.7z"/>
	<path class="st1" d="M53,27.5v13c0,3.3,1.4,6,3.4,7.4v24.7h5.2V47.8c2-1.3,3.4-4.1,3.4-7.4v-13"/>
	<line class="st1" x1="53.4" y1="37" x2="64.5" y2="37"/>
	<line class="st1" x1="57" y1="36.2" x2="57" y2="27.6"/>
	<line class="st1" x1="61" y1="36.2" x2="61" y2="27.6"/>
</g>
</svg>
