<svg width="100" height="100" xmlns="http://www.w3.org/2000/svg" viewBox="0 0 100 100">
<style type="text/css">
	.st0{fill:#40B7AE;}
	.st1{fill:#1c3877;}
</style>
<path class="st0" d="M50,2c26.5,0,48,21.5,48,48S76.5,98,50,98S2,76.5,2,50C2,23.5,23.5,2,50,2 M50,0C22.4,0,0,22.4,0,50s22.4,50,50,50s50-22.4,50-50S77.6,0,50,0L50,0z"/>
<path class="st1" d="M36.4,51.9c-0.5,0.4-0.9,0.7-1.3,1.1c-3.5,2.7-3.5,2.7-3.2,13.5c0,1.7,0.1,3.7,0.1,5.9c0,0.5-0.4,0.9-0.9,0.9c0,0,0,0,0,0c-0.5,0-0.9-0.4-0.9-0.9c0-2.3-0.1-4.2-0.1-5.9c-0.3-11.2-0.3-11.6,3.9-14.9c0.7-0.5,1.5-1.2,2.4-1.9V51.9z M44.8,69.8c-0.9,0.4-0.9,1.2-0.9,1.7c0,0.2,0,0.4-0.1,0.7c-0.1,0.5,0.3,0.9,0.8,1c0,0,0.1,0,0.1,0c0.4,0,0.8-0.3,0.9-0.8c0-0.4,0.1-0.7,0.1-0.9c0-0.1,0-0.2,0-0.3c2.4-1.2,3.9-3,4.5-5.4h-1.8C47.5,68.5,45.5,69.4,44.8,69.8z M44.4,62c-0.1-0.4-0.1-0.9-0.1-1c1.5-1.5,1.8-1.9,2.6-3.3c1-1.6,0.3-3.6-0.8-4.7c-0.9-0.8-2.1-0.9-3.1-0.2c-1.4,1.1-2.7,2.4-4,3.8c-1.1,1.2-2.3,2.4-3.6,3.6c-0.4,0.3-0.4,0.9-0.1,1.2c0.3,0.4,0.9,0.4,1.2,0.1c1.4-1.2,2.6-2.5,3.7-3.7c1.3-1.3,2.4-2.6,3.8-3.6c0.1-0.1,0.4-0.3,0.8,0.1c0.5,0.5,1,1.6,0.4,2.5c-0.7,1.3-1,1.6-2.4,3c-0.7,0.7-0.5,1.6-0.4,2.5c0.1,0.9,0.3,2-0.3,3.1c-0.7,1.4-1.7,2.1-2.4,2.5c-0.4,0.2-0.6,0.8-0.3,1.2c0.2,0.3,0.5,0.5,0.8,0.5c0.1,0,0.3,0,0.4-0.1c0.9-0.5,2.2-1.5,3.1-3.3C44.8,64.5,44.6,63.1,44.4,62z M63.3,57.4v5.1c0,0.2-0.2,0.4-0.4,0.4H45.3c0,0.5,0,1.1-0.1,1.7h17.7c1.2,0,2.1-1,2.1-2.1v-7.2L63.3,57.4C63.3,57.4,63.3,57.4,63.3,57.4z M39.4,55.1V28.9c0-0.2,0.2-0.4,0.4-0.4h23.2c0.2,0,0.4,0.2,0.4,0.4v15.6l1.7-2.1V28.9c0-1.2-1-2.1-2.1-2.1H39.7c-1.2,0-2.1,1-2.1,2.1V57c0.3-0.3,0.6-0.6,0.9-1C38.8,55.7,39.1,55.4,39.4,55.1z M69.4,47.2L61,57.3c-0.4,0.5-1.1,0.8-1.7,0.9c0,0-0.1,0-0.1,0c-0.6,0-1.2-0.2-1.7-0.7l-6.1-5.8c-1-0.9-1-2.4-0.1-3.4c0.9-1,2.4-1,3.4-0.1l4.2,4l6.8-8.1c0.9-1,2.4-1.2,3.4-0.3C70.2,44.7,70.3,46.2,69.4,47.2z M68.1,45c-0.4-0.3-0.9-0.3-1.2,0.1l-7.9,9.4l-5.4-5.2c-0.3-0.3-0.9-0.3-1.2,0c-0.3,0.3-0.3,0.9,0,1.2l6.1,5.8c0.2,0.1,0.4,0.2,0.6,0.2c0,0,0,0,0,0c0.2,0,0.4-0.1,0.6-0.3l8.5-10.1C68.5,45.8,68.5,45.3,68.1,45z M59.4,35.5c0-0.5-0.4-0.9-0.9-0.9H44.1c-0.5,0-0.9,0.4-0.9,0.9c0,0.5,0.4,0.9,0.9,0.9h14.4C59,36.4,59.4,36,59.4,35.5z M44.1,40.5c-0.5,0-0.9,0.4-0.9,0.9s0.4,0.9,0.9,0.9h10.5c0.5,0,0.9-0.4,0.9-0.9s-0.4-0.9-0.9-0.9H44.1z"/>
</svg>
