<svg width="100" height="100" xmlns="http://www.w3.org/2000/svg" viewBox="0 0 100 100">
<style type="text/css">
	.st0{fill:#40B7AE;}
	.st1{fill:#1c3877;}
</style>
<path class="st0" d="M50,2c26.5,0,48,21.5,48,48S76.5,98,50,98S2,76.5,2,50C2,23.5,23.5,2,50,2 M50,0C22.4,0,0,22.4,0,50s22.4,50,50,50s50-22.4,50-50S77.6,0,50,0L50,0z"/>
<path class="st1" d="M65.9,66.8c1.7-2.6,2.6-5.6,2.6-8.7c0-3.5-1.1-6.9-3.3-9.7c-2-2.6-4.8-4.6-7.9-5.6c-0.9-1.6-2.4-2.7-4.3-3l1.2-2.2c0.2-0.4,0.1-1-0.4-1.2l-0.1,0l1-1.9l0.1,0c0.2,0.1,0.5,0.1,0.7,0.1c0.2-0.1,0.4-0.2,0.5-0.5l2.2-4.3c0.1-0.2,0.1-0.5,0.1-0.7c-0.1-0.2-0.2-0.4-0.5-0.5l-6.2-3.2c-0.2-0.1-0.5-0.1-0.7-0.1c-0.2,0.1-0.4,0.2-0.5,0.5L48.1,30c-0.2,0.4-0.1,1,0.4,1.2l0.1,0l-1,1.9l-0.1,0C47.3,33,47.1,33,46.9,33c-0.2,0.1-0.4,0.2-0.5,0.5l-8.7,16.9c-0.2,0.4-0.1,1,0.4,1.2l6.2,3.2c0.1,0.1,0.3,0.1,0.4,0.1c0.1,0,0.2,0,0.3,0c0.2-0.1,0.4-0.2,0.5-0.5l2.2-4.2c1.1,1.1,2.6,1.8,4.3,1.8c1.4,0,2.8-0.5,3.8-1.3c2.8,1.4,4.6,4.3,4.6,7.5c0,4.6-3.8,8.4-8.4,8.4h-8.3v-2.2h3.1c0.5,0,0.9-0.4,0.9-0.9c0-0.5-0.4-0.9-0.9-0.9H32.5c-0.5,0-0.9,0.4-0.9,0.9c0,0.5,0.4,0.9,0.9,0.9h3.1v2.2h-0.1c-2.2,0-4,1.8-4,4v3.4c0,0.5,0.4,0.9,0.9,0.9h35.2c0.5,0,0.9-0.4,0.9-0.9v-3.4C68.5,68.8,67.4,67.3,65.9,66.8z M44.3,52.8l-4.6-2.4l7.8-15.2l0.1,0c0.2,0.1,0.5,0.1,0.7,0.1c0.2-0.1,0.4-0.2,0.5-0.5l1.8-3.5c0.2-0.4,0.1-1-0.4-1.2l-0.1,0l1.4-2.6l4.6,2.4l-1.4,2.6l-0.1,0c-0.2-0.1-0.5-0.1-0.7-0.1c-0.2,0.1-0.4,0.2-0.5,0.5l-1.8,3.5c-0.2,0.4-0.1,1,0.4,1.2l0.1,0L51,39.8c-2.9,0.5-5.1,3-5.1,6c0,1,0.2,1.9,0.6,2.7L44.3,52.8z M52,50.1c-2.4,0-4.3-1.9-4.3-4.3c0-2.4,1.9-4.3,4.3-4.3s4.3,1.9,4.3,4.3C56.3,48.2,54.3,50.1,52,50.1z M62.2,58.1c0-3.7-2-7.1-5.1-8.9c0.6-1,1-2.1,1-3.4c0-0.3,0-0.5-0.1-0.8c2.2,1,4.2,2.5,5.7,4.5c1.9,2.5,2.9,5.5,2.9,8.6c0,3.1-1,6-2.8,8.4h-6.1C60.4,64.7,62.2,61.6,62.2,58.1z M37.4,64.3h4.5v2.2h-4.5V64.3z M66.7,72.9H33.3v-2.4c0-1.2,1-2.1,2.1-2.1h16.5c0,0,0,0,0,0c0,0,0,0,0,0h12.4c0,0,0,0,0,0c0,0,0,0,0,0h0.2c1.2,0,2.1,1,2.1,2.1V72.9z"/>
</svg>
