<svg width="100" height="100" xmlns="http://www.w3.org/2000/svg" viewBox="0 0 100 100">
<style type="text/css">
	.st0{fill:#40B7AE;}
</style>
<path class="st0" d="M50,2c26.5,0,48,21.5,48,48S76.5,98,50,98S2,76.5,2,50C2,23.5,23.5,2,50,2 M50,0C22.4,0,0,22.4,0,50s22.4,50,50,50s50-22.4,50-50S77.6,0,50,0L50,0z"/>
<g fill="#1c3877">
	<path d="M49.5,28.6c-0.4,0-0.7-0.3-0.7-0.7c0-1.2-1-2.1-2.1-2.1c-1.2,0-2.1,1-2.1,2.1c0,0.4-0.3,0.7-0.7,0.7c-0.4,0-0.7-0.3-0.7-0.7c0-2,1.6-3.6,3.6-3.6c2,0,3.6,1.6,3.6,3.6C50.3,28.3,49.9,28.6,49.5,28.6z"/>
	<path d="M54.2,35.9h-15c-0.4,0-0.7-0.3-0.7-0.7V30c0-0.4,0.3-0.7,0.7-0.7h15c0.4,0,0.7,0.3,0.7,0.7v5.1C54.9,35.5,54.6,35.9,54.2,35.9z M39.9,34.4h13.6v-3.7H39.9V34.4z"/>
	<path d="M49.9,70.4H32.2c-0.4,0-0.7-0.3-0.7-0.7v-38c0-0.4,0.3-0.7,0.7-0.7H36c0.4,0,0.7,0.3,0.7,0.7c0,0.4-0.3,0.7-0.7,0.7h-3.1V69h17c0.4,0,0.7,0.3,0.7,0.7C50.6,70.1,50.3,70.4,49.9,70.4z"/>
	<path d="M61,57.7c-0.4,0-0.7-0.3-0.7-0.7V32.4h-3.4c-0.4,0-0.7-0.3-0.7-0.7c0-0.4,0.3-0.7,0.7-0.7H61c0.4,0,0.7,0.3,0.7,0.7V57C61.7,57.4,61.4,57.7,61,57.7z"/>
	<path d="M39.3,46.5c-0.2,0-0.4-0.1-0.5-0.2l-2.4-2.4c-0.3-0.3-0.3-0.7,0-1c0.3-0.3,0.7-0.3,1,0l1.9,1.9l3.6-3.6c0.3-0.3,0.7-0.3,1,0c0.3,0.3,0.3,0.7,0,1l-4.1,4.1C39.6,46.4,39.5,46.5,39.3,46.5z"/>
	<path d="M39.3,54.8c-0.2,0-0.4-0.1-0.5-0.2l-2.4-2.4c-0.3-0.3-0.3-0.7,0-1c0.3-0.3,0.7-0.3,1,0l1.9,1.9l3.6-3.6c0.3-0.3,0.7-0.3,1,0c0.3,0.3,0.3,0.7,0,1l-4.1,4.1C39.6,54.7,39.5,54.8,39.3,54.8z"/>
	<path d="M39.3,63.1c-0.2,0-0.4-0.1-0.5-0.2l-2.4-2.4c-0.3-0.3-0.3-0.7,0-1c0.3-0.3,0.7-0.3,1,0l1.9,1.9l3.6-3.6c0.3-0.3,0.7-0.3,1,0c0.3,0.3,0.3,0.7,0,1l-4.1,4.1C39.6,63.1,39.5,63.1,39.3,63.1z"/>
	<path d="M56.1,44.4h-9c-0.4,0-0.7-0.3-0.7-0.7c0-0.4,0.3-0.7,0.7-0.7h9c0.4,0,0.7,0.3,0.7,0.7C56.8,44.1,56.5,44.4,56.1,44.4z"/>
	<path d="M56.1,52.8h-9c-0.4,0-0.7-0.3-0.7-0.7c0-0.4,0.3-0.7,0.7-0.7h9c0.4,0,0.7,0.3,0.7,0.7C56.8,52.5,56.5,52.8,56.1,52.8z"/>
	<path d="M51.6,61.1h-4.5c-0.4,0-0.7-0.3-0.7-0.7c0-0.4,0.3-0.7,0.7-0.7h4.5c0.4,0,0.7,0.3,0.7,0.7C52.3,60.8,52,61.1,51.6,61.1z"/>
	<path d="M60,75.6c-4.7,0-8.5-3.8-8.5-8.5s3.8-8.5,8.5-8.5c4.7,0,8.5,3.8,8.5,8.5S64.7,75.6,60,75.6z M60,60.1c-3.9,0-7,3.2-7,7c0,3.9,3.2,7,7,7c3.9,0,7-3.2,7-7C67.1,63.3,63.9,60.1,60,60.1z"/>
	<path d="M59,70.9c-0.2,0-0.4-0.1-0.5-0.2l-3.1-3.1c-0.3-0.3-0.3-0.7,0-1c0.3-0.3,0.7-0.3,1,0l2.6,2.6l4.7-4.7c0.3-0.3,0.7-0.3,1,0c0.3,0.3,0.3,0.7,0,1l-5.2,5.2C59.3,70.8,59.1,70.9,59,70.9z"/>
</g>
</svg>
