<svg width="50" height="50" xmlns="http://www.w3.org/2000/svg"><g fill="#fff"><path d="M10.8 33.5c-.5 0-.9-.4-.9-.9V10.3c0-2.5 2-4.5 4.5-4.5s4.5 2 4.5 4.5v.5c0 .5-.4.9-.9.9s-.9-.4-.9-.9v-.5c0-1.5-1.2-2.8-2.8-2.8s-2.8 1.2-2.8 2.8v22.4c.2.4-.2.8-.7.8zm18.9 0c-.5 0-.9-.4-.9-.9V10.3c0-2.5 2-4.5 4.5-4.5s4.5 2 4.5 4.5v.5c0 .5-.4.9-.9.9s-.9-.4-.9-.9v-.5c0-1.5-1.2-2.8-2.8-2.8-1.5 0-2.8 1.2-2.8 2.8v22.4c.2.4-.2.8-.7.8z"/><path d="M29.7 15.6H10.8c-.5 0-.9-.4-.9-.9s.4-.9.9-.9h18.9c.5 0 .9.4.9.9s-.4.9-.9.9zm0 6H10.8c-.5 0-.9-.4-.9-.9s.4-.9.9-.9h18.9c.5 0 .9.4.9.9s-.4.9-.9.9zm0 6H10.8c-.5 0-.9-.4-.9-.9s.4-.9.9-.9h18.9c.5 0 .9.4.9.9s-.4.9-.9.9zm4.8 8.6c-1.8 0-3.5-.8-4.7-2.1-1.2 1.3-2.9 2.1-4.7 2.1-1.8 0-3.5-.8-4.7-2.1-1.2 1.3-2.9 2.1-4.7 2.1-1.8 0-3.5-.8-4.7-2.1-1.2 1.3-2.9 2.1-4.7 2.1-2.2 0-4.3-1.1-5.5-3-.3-.4-.1-1 .3-1.2.4-.3 1-.1 1.2.3a4.734 4.734 0 008 0c.2-.3.4-.4.8-.4.3 0 .6.2.8.4a4.734 4.734 0 008 0c.2-.3.4-.4.8-.4.3 0 .6.2.8.4a4.734 4.734 0 008 0c.3-.5 1.2-.5 1.5 0a4.734 4.734 0 008 0c.3-.4.8-.5 1.2-.3.4.3.5.8.3 1.2-1.8 1.8-3.8 3-6 3zm9.4 8.1c-1.8 0-3.5-.8-4.7-2.1-1.2 1.3-2.9 2.1-4.7 2.1-1.8 0-3.5-.8-4.7-2.1-1.2 1.3-2.9 2.1-4.7 2.1s-3.5-.8-4.7-2.1c-1.2 1.3-2.9 2.1-4.7 2.1-2.2 0-4.3-1.1-5.5-3-.3-.4-.1-1 .3-1.2.4-.3 1-.1 1.2.3a4.734 4.734 0 008 0c.2-.3.4-.4.8-.4.3 0 .6.2.8.4a4.734 4.734 0 008 0c.3-.5 1.2-.5 1.5 0a4.734 4.734 0 008 0c.3-.5 1.2-.5 1.5 0a4.734 4.734 0 008 0c.3-.4.8-.5 1.2-.3.4.3.5.8.3 1.2-1.6 1.8-3.7 3-5.9 3z"/></g></svg>