<svg width="50" height="50" xmlns="http://www.w3.org/2000/svg"><style>.st0{fill:none;stroke:#fff;stroke-miterlimit:10}</style><path class="st0" d="M37.1 46.5h8.8m-8.6-16.9c0-2.5-2.1-4.6-4.6-4.6s-4.6 2.1-4.6 4.6v16.9h6.1v-9.2c0-2.1 3.1-5.2 3.1-7.7zm-35.8 0c0-2.5 2.1-4.6 4.6-4.6s4.6 2.1 4.6 4.6v16.9H4.6v-9.2c0-2.1-3.1-5.2-3.1-7.7zM32.2 25v-3.1c0-3.4-5.5-6.1-12.3-6.1S7.6 18.5 7.6 21.9V25"/><path class="st0" d="M10.7 34.2c0-1.7 3.9-3.1 8.7-3.1s8.7 1.4 8.7 3.1m-17.4 9.2h17.4m13.2 3.1V15.8m7.2 0H34.2v-1l4.1-11.3h6.1l4.1 11.3zm-3.1 0V24"/></svg>