<svg width="50" height="50" xmlns="http://www.w3.org/2000/svg"><style>.st0{fill:#fff}</style><path class="st0" d="M4.8 29.7c5.4 5.4 19 15.2 19.6 15.6.3.2.8.2 1.1 0 .6-.4 14.2-10.3 19.6-15.6 5.8-5.8 5.8-15.1 0-20.9-2.8-2.8-6.6-4.3-10.4-4.3-3.5 0-6.9 1.2-9.6 3.5l-.1.1-.1-.1c-2.7-2.3-6.1-3.5-9.6-3.5-4 0-7.7 1.5-10.5 4.3-5.8 5.8-5.8 15.1 0 20.9zm1.3-19.6c2.4-2.4 5.7-3.8 9.1-3.8s6.6 1.3 9 3.7c.4.4.9.4 1.3 0 2.4-2.4 5.6-3.7 9-3.7s6.7 1.3 9.1 3.8c2.4 2.4 3.8 5.7 3.8 9.1s-1.3 6.7-3.8 9.1c-4.5 4.5-15.5 12.6-18.7 15v.1l-.1-.1c-3.2-2.4-14.1-10.4-18.7-15-5-4.9-5-13.1 0-18.2z"/><path class="st0" d="M12.8 26.8h3.8c.5 0 .9-.4.9-.9v-3.7h3.7c.5 0 .9-.4.9-.9v-3.8c0-.5-.4-.9-.9-.9h-3.7v-3.9c0-.5-.4-.9-.9-.9h-3.8c-.5 0-.9.4-.9.9v3.7H8.1c-.5 0-.9.4-.9.9v3.8c0 .5.4.9.9.9h3.7v3.7c0 .7.5 1.1 1 1.1zm-3.7-6.5v-2h3.7c.5 0 .9-.4.9-.9v-3.8h2v3.7c0 .5.4.9.9.9h3.7v2h-3.7c-.5 0-.9.4-.9.9v3.7h-2v-3.7c0-.5-.4-.9-.9-.9H9.1v.1z"/></svg>