<svg xmlns="http://www.w3.org/2000/svg" viewBox="0 0 36 36"><path d="M27.1 33.8c-.4 0-.8-.1-1.1-.4l-8-5.8-8 5.8c-.3.2-.7.4-1.1.4-.4 0-.7-.1-1-.4-.3-.2-.5-.5-.6-.9-.1-.4-.1-.8 0-1.2l3.1-9.4-8-5.8c-.3-.2-.6-.6-.7-1-.1-.4-.1-.7 0-1.1.1-.4.3-.7.6-.9.3-.2.7-.4 1.1-.4h9.9l3-9.4c.1-.4.4-.7.7-.9.3-.2.7-.3 1-.3s.7.1 1 .3c.3.2.6.6.7.9l3 9.4h9.9c.4 0 .8.1 1.1.4.3.2.5.5.6.9.1.4.1.7 0 1.1-.1.4-.3.7-.7 1l-8 5.8 3.1 9.4c.1.4.1.8 0 1.2-.1.3-.3.6-.6.9-.3.2-.6.4-1 .4zM18 25.6c.4 0 .8.1 1.1.4l7.7 5.6-3-9.1c-.2-.8 0-1.6.7-2l7.7-5.6h-9.5c-.8 0-1.5-.5-1.7-1.3l-3-9-2.9 9.1c-.2.8-.9 1.3-1.7 1.3H3.9l7.7 5.6c.6.5.9 1.3.7 2l-3 9.1 7.7-5.6c.2-.4.6-.5 1-.5z"/></svg>