<svg xmlns="http://www.w3.org/2000/svg" viewBox="0 0 36 36"><path d="M34.3 34.3H30v-2H6v2H1.8v-11h32.5v11zm-2.8-1.5h1.2v-7.9H3.3v7.9h1.2v-2h27.1v2z"/><path d="M6 24.1H4.5V8.5h3.4V10H6zM16.7 8.5h2.6V10h-2.6zm14.8 15.6H30V10h-1.9V8.5h3.4z"/><path d="M14.7 13.4H9.9c-1.5 0-2.8-1.2-2.8-2.8V9.2c0-1.5 1.2-2.8 2.8-2.8h4.8c1.5 0 2.8 1.2 2.8 2.8v1.4c0 1.5-1.3 2.8-2.8 2.8zM9.9 8c-.7 0-1.3.5-1.3 1.2v1.4c0 .7.6 1.3 1.3 1.3h4.8c.7 0 1.3-.6 1.3-1.3V9.2c0-.7-.6-1.2-1.3-1.2H9.9zm16.2 5.4h-4.8c-1.5 0-2.8-1.2-2.8-2.8V9.2c0-1.5 1.2-2.8 2.8-2.8h4.8c1.5 0 2.8 1.2 2.8 2.8v1.4c-.1 1.5-1.3 2.8-2.8 2.8zM21.3 8c-.7 0-1.3.5-1.3 1.2v1.4c0 .7.6 1.3 1.3 1.3h4.8c.7 0 1.3-.6 1.3-1.3V9.2c0-.7-.6-1.3-1.3-1.3h-4.8z"/><path d="M34.3 16h-3.5v-1.5h2V3.3H3.3v11.2h1.9V16H1.8V1.8h32.5z"/><path d="M7.2 14.5h21.6V16H7.2z"/></svg>