<svg xmlns="http://www.w3.org/2000/svg" viewBox="0 0 36 36"><path d="M0 32.5h36V34H0zm26.3-4H9.7c-.2 0-.5-.1-.6-.3s-.2-.5-.1-.7l8.3-24.9c.1-.3.4-.6.7-.6.3 0 .6.2.7.5l8.3 25c.1.2 0 .5-.1.7s-.4.3-.6.3zM10.7 27h14.5L18 5.2 10.7 27z"/><path d="M34.6 28.5h-8.7V27h7.7L27.7 9.3l-3.7 11-1.4-.5L27 6.7c.1-.3.4-.5.7-.5.3 0 .6.2.7.5l6.9 20.8c.1.2 0 .5-.1.7-.1.1-.4.3-.6.3zm-24.5 0H1.4c-.2 0-.5-.1-.6-.3-.1-.2-.2-.4-.1-.7L7.6 6.7c.1-.3.4-.6.7-.6.3 0 .6.2.7.5l4.4 13.2-1.4.5-3.7-11L2.4 27h7.7v1.5zm7.2-.8h1.5v5.5h-1.5z"/><path d="M27 27.7h1.5v5.5H27zm-19.5 0H9v5.5H7.5z"/></svg>