<svg xmlns="http://www.w3.org/2000/svg" viewBox="0 0 36 36"><path d="M2 31.5h32c.6 0 1-.5 1-1v-.3c0-2-1.4-3.6-3.2-4-.4-5.9-4.5-10.9-10.3-12.4v-2.6c0-.6-.5-1-1-1H19V6.6h1.5c.6 0 1-.5 1-1 0-.6-.5-1-1-1h-5c-.6 0-1 .5-1 1 0 .6.5 1 1 1H17V10h-1.5c-.6 0-1 .5-1 1v2.6C8.8 15.1 4.6 20.1 4.2 26c-1.8.4-3.2 2.1-3.2 4v.3c0 .7.5 1.2 1 1.2zm14.5-19.4h2.9v1.1h-.2c-.4 0-.9-.1-1.3-.1s-.9 0-1.3.1h-.2v-1.1zm-.8 3.3c1.1-.2 2.3-.3 3.4-.2.4 0 .8.1 1.1.2 5.1 1 9 5.3 9.4 10.5H6.3c.5-5.1 4.3-9.4 9.4-10.5zM5.1 28h25.7c.9 0 1.7.6 1.9 1.4H3.2c.3-.8 1-1.4 1.9-1.4z"/></svg>