<svg xmlns="http://www.w3.org/2000/svg" width="23" height="23"><style>.st0{fill:#1d3e79}</style><path class="st0" d="M16.9 4.9c.4 0 .8-.4.8-.8v-3c0-.4-.4-.8-.8-.8s-.8.4-.8.8v3c0 .5.4.8.8.8z"/><path class="st0" d="M20 1.8h-1.6v1.6H20c.8 0 1.4.7 1.4 1.6v1.7H1.6V5.1c0-.9.6-1.6 1.4-1.6h1.6V1.8H3C1.3 1.8 0 3.2 0 5v14.4c0 1.8 1.4 3.2 3 3.2h17c1.7 0 3-1.4 3-3.2V5.1c0-1.8-1.4-3.3-3-3.3zm0 19.3H3c-.8 0-1.4-.7-1.4-1.6V8.4h19.8v11.1c0 .8-.7 1.6-1.4 1.6z"/><path class="st0" d="M7.5 1.8h7.9v1.6H7.5zM6.1 4.9c.4 0 .8-.4.8-.8v-3c0-.4-.4-.8-.8-.8s-.8.4-.8.8v3c0 .5.4.8.8.8zm6.8 5.1H10c-.4 0-.7.3-.7.7v2.8c0 .4.3.7.7.7h2.9c.4 0 .7-.3.7-.7v-2.8c0-.4-.3-.7-.7-.7zm-.6 2.9h-1.5v-1.5h1.5v1.5zm6.3-2.9h-2.9c-.4 0-.7.3-.7.7v2.8c0 .4.3.7.7.7h2.9c.4 0 .7-.3.7-.7v-2.8c0-.4-.3-.7-.7-.7zm-.7 2.9h-1.5v-1.5h1.5v1.5zM7.3 10H4.4c-.4 0-.7.3-.7.7v2.8c0 .4.3.7.7.7h2.9c.4 0 .7-.3.7-.7v-2.8c0-.4-.3-.7-.7-.7zm-.7 2.9H5.1v-1.5h1.5v1.5zm6.3 2.4H10c-.4 0-.7.3-.7.7v2.8c0 .4.3.7.7.7h2.9c.4 0 .7-.3.7-.7V16c0-.4-.3-.7-.7-.7zm-.6 2.9h-1.5v-1.5h1.5v1.5zm-5-2.9H4.4c-.4 0-.7.3-.7.7v2.8c0 .4.3.7.7.7h2.9c.4 0 .7-.3.7-.7V16c0-.4-.3-.7-.7-.7zm-.7 2.9H5.1v-1.5h1.5v1.5z"/></svg>