<svg width="95" height="108" xmlns="http://www.w3.org/2000/svg" viewBox="0 0 95 108">
<style type="text/css">
	.st0{fill:#1D3F7A;}
	.st1{fill:#FFFFFF;}
</style>
<g>
	<path class="st0" d="M59.9,93.3l-11.4,13.9c-0.8,1-2.2,1-3,0L33.8,93C14.2,87.1,0,69,0,47.5C0,21.3,21.3,0,47.5,0C73.7,0,95,21.3,95,47.5C95,69.4,80.1,87.9,59.9,93.3z"/>
	<polygon class="st1" points="35.5,41.6 48.2,48.9 48.2,54.5 35.5,47.1"/>
	<polygon class="st1" points="34.8,47.5 34.8,47.5 35.5,47.5 35.5,54.4 34.8,54.4"/>
	<polygon class="st1" points="59.6,29.3 59.6,29.3 60.3,29.3 60.3,36.2 59.6,36.2"/>
	<polygon class="st1" points="23.1,56.7 23.1,56.7 23.6,56.9 24.3,57.1 25.2,57.4 26.3,57.7 27.6,57.9 28.3,58.1 29.1,58.1 29.9,58.3 30.7,58.3 32.1,58.5 33.5,58.5 34.8,58.5 36.2,58.5 37.4,58.5 38.8,58.5 41.3,58.3 43.9,58 46.4,57.7 48.8,57.4 51.3,57.1 53.9,56.9 55.1,56.7 56.3,56.7 57.6,56.6 58.9,56.6 60.2,56.5 61.5,56.5 62.8,56.6 64.2,56.6 65.6,56.7 66.9,56.8 68.3,57 69.8,57.3 71.2,57.5 72.7,57.9 73,57.9 73,62.9 71.9,62.6 71.3,62.5 69.8,62.2 68.7,62 67.4,61.8 66,61.7 64.4,61.5 63.3,61.5 62.3,61.4 61.1,61.4 60.1,61.3 58,61.4 55.8,61.5 53.7,61.7 51.6,61.8 47.4,62.4 45.3,62.6 43.2,62.8 41.1,63 39,63.2 36.8,63.3 35.8,63.3 34.7,63.4 32.5,63.3 31.5,63.2 30.4,63.2 28.6,63 27,62.8 25.6,62.4 24.5,62.2 23.5,61.9 22.8,61.7 22.3,61.5 22,61.5 22,56.6"/>
	<polygon class="st1" points="23.1,62.4 23.1,62.4 23.6,62.6 24.3,62.8 25.2,63 26.3,63.3 27.6,63.5 28.3,63.6 29.1,63.8 29.9,63.8 30.7,64 32.1,64 33.5,64.1 34.8,64.2 36.2,64.1 37.4,64.1 38.8,64 41.3,63.8 43.9,63.6 46.4,63.3 48.8,63 51.3,62.7 53.9,62.4 55.1,62.4 56.3,62.2 57.6,62.2 58.9,62.1 60.2,62.1 61.5,62.1 62.8,62.1 64.2,62.2 65.6,62.3 66.9,62.4 68.3,62.6 69.8,62.8 71.2,63.2 72.7,63.5 73,63.6 73,68.5 71.9,68.2 71.3,68.1 69.8,67.8 68.7,67.7 67.4,67.5 66,67.3 64.4,67.1 63.3,67 62.3,66.9 61.1,66.9 60.1,66.9 58,67 55.8,67.1 53.7,67.3 51.6,67.5 47.4,67.9 45.3,68.2 43.2,68.4 41.1,68.6 39,68.8 36.8,68.9 35.8,68.9 34.7,68.9 32.5,68.9 31.5,68.9 30.4,68.8 28.6,68.6 27,68.3 25.6,68.1 24.5,67.8 23.5,67.5 22.8,67.3 22.3,67.1 22,67.1 22,62.1"/>
	<polygon class="st1" points="73,29.3 73,29.3 73,34.8 60.3,42.2 60.3,36.5"/>
	<polygon class="st1" points="46.8,29.3 46.8,29.3 59.6,36.5 59.6,42.2 46.8,34.8"/>
	<polygon class="st1" points="59.6,43 59.6,43 59.6,48.5 35.5,34.7 35.5,29.1"/>
	<polygon class="st1" points="59.6,49.2 59.6,49.2 59.6,54.8 35.5,40.9 35.5,35.3"/>
	<polygon class="st1" points="34.8,29.1 34.8,29.1 34.8,34.7 22.1,42 22.1,36.4"/>
	<polygon class="st1" points="34.8,35.3 34.8,35.3 34.8,40.9 22.1,48.3 22.1,42.6"/>
	<polygon class="st1" points="34.8,41.6 34.8,41.6 34.8,47.1 22.1,54.5 22.1,48.9"/>
	<polygon class="st1" points="73,35.6 73,35.6 73,41.2 60.3,48.5 60.3,43"/>
	<polygon class="st1" points="73,41.8 73,41.8 73,47.5 60.3,54.8 60.3,49.2"/>
</g>
</svg>
