<svg width="74" height="114" xmlns="http://www.w3.org/2000/svg" viewBox="0 0 74 113.5">
	<path fill="#ffffff" d="M57.3,0h16.6v15.2H57.3V0z M0,0h46.5v15.2H35.7c-3,0-5.4,2.4-5.4,5.4s2.4,5.4,5.4,5.4h10.8v10.8c0,3,2.4,5.4,5.4,5.4c3,0,5.4-2.4,5.4-5.4V26h16.6v55.6H0V0z M3.1,85.4c-0.6,0-1.7,0-2.4,0.6C0,86.7,0,87.9,0,88.4v5.8c0,0.5,0,1.7,0.7,2.4c0.7,0.6,1.8,0.6,2.4,0.6h6.5c0.6,0,1.7,0,2.4-0.6c0.7-0.7,0.7-1.9,0.7-2.4v-1.7H9.4v1.8H3.4v-6.1h6.1v1.7h3.4v-1.5c0-0.5,0-1.7-0.7-2.4c-0.7-0.6-1.8-0.6-2.4-0.6H3.1z M27.2,94.3h-7.6v-6.1h7.6V94.3z M19.4,85.4L19.4,85.4c-0.6,0-1.7,0-2.4,0.6c-0.7,0.7-0.7,1.9-0.7,2.4v5.8c0,0.5,0,1.7,0.7,2.4c0.7,0.6,1.8,0.6,2.4,0.6h8.1c0.6,0,1.7,0,2.4-0.6c0.7-0.7,0.7-1.9,0.7-2.4v-5.8c0-0.5,0-1.7-0.7-2.4c-0.7-0.6-1.8-0.6-2.4-0.6H19.4z M45.1,85.4H34.4v11.8h3.4v-9h7.8v-2.8H45.1z M51.5,88.8c0.4,0.8,1.3,2.4,1.7,3.2h-3.5C50.1,91.2,51,89.6,51.5,88.8z M52.8,85.4h-2.7l-6.7,11.8H47c0,0,1.1-2,1.2-2.4h6.5c0.2,0.4,1.3,2.4,1.3,2.4h3.8l-6.8-11.8H52.8z M64.4,85.4c-0.6,0-1.5,0.1-2,0.5c-0.7,0.6-0.7,1.6-0.7,1.9v2.1h3V88h5.2c0.3,0,0.4,0.1,0.4,0.1c0,0,0.1,0.1,0.1,0.4v0.9c0,0.3-0.1,0.3-0.1,0.3c-0.1,0.1-0.2,0.1-0.4,0.1h-4v2.6h4.1c0.3,0,0.4,0.1,0.5,0.1c0,0,0.1,0.1,0.1,0.4v1c0,0.2,0,0.3-0.1,0.4c0,0-0.1,0.1-0.5,0.1h-5.5v-1.8h-3.1v2.2c0,0.6,0.1,1.4,0.6,1.9c0.5,0.6,1.5,0.6,2.3,0.6h6c1.3,0,2.3-0.2,2.8-0.7c0.5-0.4,0.8-1.1,0.8-1.8v-1.4c0-0.9-0.3-1.4-0.6-1.7c-0.2-0.2-0.4-0.3-0.6-0.5c0.2-0.1,0.3-0.2,0.5-0.4c0.5-0.5,0.5-1,0.5-1.4v-1.3c0-0.6-0.1-1.3-0.6-1.9c-0.5-0.4-1.2-0.7-2.2-0.7H64.4z M2.6,101.9l1.8,4.3h0l1.7-4.3h2.1v5.8H7v-4.9l-2,4.9H3.8l-2-4.8v4.8H0.6v-5.8H2.6z M13.4,104.3h3v0.9h-3v1.6h3.2v0.9h-4.4v-5.8h4.4v0.9h-3.2V104.3z M20.4,106.7c0.5-0.5,0.7-1.1,0.7-2.4v-2.4h4.7v4.8h0.6v2.3h-1.2v-1.3h-4.1v1.3h-1.2v-2.3H20.4z M22.3,102.9L22.3,102.9v1.5c0,1.2-0.1,1.9-0.6,2.4h2.8v-3.9H22.3z M35.6,101.9v5.8h-1.2v-3.8c0-0.3,0-0.7,0.1-1h0l-2.7,4.8H30v-5.8h1.2v3.8c0,0.2,0,0.6-0.1,1h0l2.7-4.8H35.6z M43.8,106.7v-4.8h1.2v4.8h0.6v2.3h-1.2v-1.3h-4.9v-5.8h1.2v4.8H43.8z M54.9,101.9v5.8h-1.2v-3.8c0-0.2,0-0.6,0.1-1h0l-2.7,4.8h-1.8v-5.8h1.2v3.8c0,0.2,0,0.6-0.1,1h0l2.7-4.8H54.9z M60,104.3h3v-2.4h1.2v5.8h-1.2v-2.5h-3v2.5h-1.2v-5.8H60V104.3z M69.5,106.6l-0.4,1.1h-1.3l2.2-5.8h1.8l2.2,5.8h-1.3l-0.4-1.1H69.5z M70.9,102.8L70.9,102.8l-1.1,3H72L70.9,102.8z M73.9,113.5H0v-1.4h73.9V113.5z"/>
</svg>
