<svg width="235" height="134.8" xmlns="http://www.w3.org/2000/svg" viewBox="0 0 235 134.8">
	<path fill="#ffffff" d="M6.2,127.4l5.8-6.7l0.3-0.4l-0.6-0.5L5,127.6h0.1L0,133.5l0.6,0.5l5.6-6.5L6.2,127.4L6.2,127.4z M157,89.2h1.3l0.1,0.4l0.1,0.3h0.1L159,90l0.4,0.1l0.5-0.1l0.3-0.1l0.3-0.3v-0.4h1.3v0.3l-0.1,0.3l-0.3,0.4l-0.3,0.3l-0.4,0.3l-0.4,0.1l-0.4,0.1h-1.2l-0.3-0.1l-0.4-0.1l-0.4-0.3l-0.4-0.3l-0.1-0.4L157,89.2z M157.8,96.5L157.8,96.5l3.2-5.3h1.9v8.2H161v-5.4l-3.2,5.4h-1.9v-8.2h1.9L157.8,96.5L157.8,96.5z M73,96.5h1.9l-0.1,0.5l-0.1,0.5l-0.3,0.5L74,98.6l-0.1,0.1L73.5,99l-0.3,0.3L73,99.4l-0.4,0.1l-0.5,0.1h-1.7l-0.8-0.1L69,99.2L68.6,99l-0.3-0.3l-0.3-0.3l-0.3-0.3L67.7,98l-0.3-0.5l-0.1-0.4l-0.1-0.5v-1.8l0.1-0.6l0.1-0.6l0.3-0.5l0.1-0.4l0.4-0.4l0.3-0.3l0.4-0.3l0.3-0.3l0.4-0.1l0.6-0.1l0.5-0.1h0.9l0.5,0.1h0.4l0.4,0.1l0.4,0.3l0.3,0.1L74,92l0.4,0.5l0.1,0.5l0.3,0.5v0.5h-1.9l-0.1-0.5l-0.1-0.4l-0.3-0.3L72,92.8l-0.3-0.1h-1.2l-0.3,0.1L70,92.9l-0.3,0.4l-0.3,0.5l-0.3,0.6V96l0.1,0.5l0.1,0.4l0.3,0.4l0.3,0.4l0.4,0.3h0.4l0.4,0.1h0.5L72,98l0.3-0.3l0.3-0.1l0.1-0.3l0.1-0.3L73,96.5z M81,91.3H83l3.1,8.2H84l-0.5-1.5h-2.9L80,99.5h-2.1L81,91.3z M80.9,96.5h2.2l-1-3.1L80.9,96.5z M91.7,95.9L91.7,95.9v3.6h-1.9v-8.2h1.9v3.1h2.9v-3.1h1.9v8.2h-1.9v-3.6L91.7,95.9L91.7,95.9z M103.3,91.3h1.9l3.1,8.2h-2.1l-0.5-1.5h-2.9l-0.5,1.5h-2.1L103.3,91.3z M103.2,96.5h2.2l-1-3.1L103.2,96.5z M113.1,92.8h-2.4v-1.5h6.8v1.5H115v6.7h-1.9L113.1,92.8L113.1,92.8z M124.5,99.6h-1l-0.5-0.1l-0.4-0.3l-0.4-0.3l-0.4-0.3l-0.3-0.3l-0.3-0.3l-0.3-0.3l-0.1-0.4l-0.3-0.8l-0.1-0.8l-0.1-0.6l0.1-0.8l0.1-0.8l0.3-0.6l0.4-0.8l0.3-0.3l0.3-0.3l0.4-0.3l0.4-0.3l0.4-0.1l0.5-0.1L124,91h1l0.5,0.1l0.5,0.1l0.4,0.1l0.4,0.1l0.3,0.3l0.4,0.1l0.3,0.4l0.3,0.3l0.1,0.4l0.3,0.3l0.1,0.4l0.1,0.9l0.1,0.9l-0.1,0.9l-0.1,0.8l-0.4,0.8l-0.1,0.3l-0.3,0.4l-0.3,0.3l-0.4,0.3l-0.3,0.1l-0.4,0.3l-0.4,0.1l-0.5,0.1H124.5z M124.5,98.1h0.4l0.3-0.1h0.4l0.1-0.3l0.3-0.1l0.1-0.1l0.3-0.5l0.1-0.4l0.1-0.5v-1.4l-0.1-0.4l-0.1-0.5l-0.3-0.4l-0.1-0.3l-0.3-0.1l-0.1-0.1l-0.4-0.1h-1l-0.4,0.1l-0.4,0.1l-0.3,0.4l-0.3,0.4l-0.3,0.4v0.6l-0.1,0.6l0.1,0.6l0.1,0.6l0.1,0.5l0.3,0.4l0.4,0.1l0.3,0.3l0.4,0.1H124.5z M133.1,91.3h4.4l0.5,0.1l0.5,0.1l0.5,0.3l0.4,0.4l0.3,0.5l0.3,0.5v1.2l-0.1,0.4l-0.1,0.4l-0.1,0.3l-0.1,0.3l-0.3,0.3L139,96l-0.3,0.1l-0.5,0.3l-0.5,0.1h-0.5l-0.4,0.1h-1.9v2.8h-1.8L133.1,91.3L133.1,91.3z M134.9,92.8L134.9,92.8V95h2.2l0.3-0.1l0.1-0.1l0.1-0.1l0.1-0.3l0.1-0.1V94l-0.1-0.4v-0.3l-0.3-0.3l-0.1-0.1h-0.3l-0.3-0.1H134.9z M145.9,96.5L145.9,96.5l3.3-5.3h1.9v8.2h-1.9v-5.4l-3.3,5.4H144v-8.2h1.9L145.9,96.5L145.9,96.5z M95.3,24.2l24.6,14.2v10.8L95.3,35V24.2z M93.8,35.8h1.4V49h-1.4V35.8z M141.9,0.4h1.3v13.3h-1.3V0.4z M71.1,53.6L71.1,53.6l1,0.4l1.3,0.4l1.8,0.5l2.2,0.5l2.4,0.5l1.4,0.3l1.5,0.1l1.5,0.3l1.5,0.1l2.7,0.3h2.7l2.6,0.1h2.7l2.4-0.1h2.6l5-0.4l4.9-0.5l4.9-0.5l4.7-0.6l4.9-0.5l4.9-0.5l2.3-0.3l2.4-0.1l2.6-0.3h2.4l2.6-0.1h2.4l2.6,0.1l2.7,0.1l2.7,0.1l2.6,0.3l2.7,0.4l2.8,0.5l2.8,0.5l2.9,0.6l0.5,0.1v9.6l-2.2-0.5l-1-0.3l-2.9-0.5l-2.2-0.4l-2.4-0.4l-2.8-0.4l-3.1-0.3l-2.1-0.1l-2.1-0.1h-2.2l-2.1-0.1l-4.1,0.1l-4.1,0.3l-4.1,0.3l-4.1,0.4l-8.1,1l-4.1,0.4l-4.1,0.5l-4.1,0.4l-4.1,0.3l-4.1,0.3h-2.1l-2.1,0.1l-4.2-0.1l-2.1-0.1L85.4,66l-3.5-0.4l-3.1-0.4l-2.7-0.6l-2.2-0.5L72,63.6l-1.4-0.4l-1-0.4L69,62.7v-9.5L71.1,53.6z M71.1,64.5L71.1,64.5l1,0.4l1.3,0.4l1.8,0.4l2.2,0.6l2.4,0.4l1.4,0.3l1.5,0.3l1.5,0.1l1.5,0.3l2.7,0.1l2.7,0.1l2.6,0.1l2.7-0.1H99l2.6-0.1l5-0.4l4.9-0.4l4.9-0.6l4.7-0.5l4.9-0.6l4.9-0.5l2.3-0.1l2.4-0.3l2.6-0.1l2.4-0.1h7.6l2.7,0.1l2.7,0.3l2.6,0.3l2.7,0.4l2.8,0.4l2.8,0.6l2.9,0.6l0.5,0.1v9.6l-2.2-0.6l-1-0.3l-2.9-0.5l-2.2-0.3l-2.4-0.4l-2.8-0.4l-3.1-0.3l-2.1-0.3l-2.1-0.1h-4.2l-4.1,0.1l-4.1,0.1l-4.1,0.4l-4.1,0.4l-8.1,0.9l-4.1,0.5l-4.1,0.4l-4.1,0.4l-4.1,0.4l-4.1,0.3h-8.3l-2.1-0.1l-2.1-0.1l-3.5-0.4L78.8,76l-2.7-0.5L74,75L72,74.5l-1.4-0.4l-1-0.4l-0.5-0.1V64L71.1,64.5z M167.8,0.4L167.8,0.4v10.8l-24.6,14.2V14.5L167.8,0.4z M117.2,0.4L117.2,0.4l24.7,14.1v10.9l-24.7-14.2V0.4z M141.9,26.9L141.9,26.9v10.8L95.3,10.9V0L141.9,26.9z M141.9,39L141.9,39v10.9L95.3,22.9V12.1L141.9,39z M93.8,0L93.8,0v10.9L69.2,25V14.2L93.8,0z M93.8,12.1L93.8,12.1v10.9L69.2,37.2V26.3L93.8,12.1z M93.8,24.2L93.8,24.2V35L69.2,49.2V38.5L93.8,24.2z M167.8,12.7L167.8,12.7v10.8l-24.6,14.2V26.9L167.8,12.7z M167.8,24.7L167.8,24.7v10.9l-24.6,14.2V39L167.8,24.7z M231.5,103.5l-0.6-0.5l-11.7,13.6l0.6,0.6l11.4-13.3L231.5,103.5z M214.1,117.6l-0.4-0.1l-0.8-0.1l-0.6-0.1h-0.4l-0.1,0.1l-0.6,0.8l-1.2,1.2l-2.7,2.6l-3.2,2.9l-3.2,2.8h0.1l-1.7,1.3l-1.4,1l-1.2,0.8l-0.4,0.1l-0.3,0.1h-0.3v-0.4l0.5-0.5l0.6-0.8l2.1-1.8H199l2.3-2.2l1.2-1.3l1.2-1.2l0.9-1.3l0.8-1.2l0.3-0.5l0.3-0.5l0.1-0.5V118l-0.1-0.3l-0.1-0.1l-0.3-0.1l-0.4-0.3h-0.9l-0.5,0.1l-0.5,0.3l-0.8,0.4l-0.5,0.4l-0.5,0.4l-0.9,0.8l-0.9,1l-1,0.8l-0.9,0.9l-1.4,1.4l-1.8,1.9l-2.1,1.9h0.1l-1.3,1l-1.3,0.9l-0.6,0.4l-0.5,0.3l-0.5,0.1h-0.6l-0.1-0.1l-0.1-0.3v-0.3l0.1-0.5l0.1-0.4l0.4-0.6l0.5-0.6h-0.1l1-1.3l1.3-1.4l2.9-2.8l2.4-2.4l0.8-0.8l0.1-0.1l0.1-0.3v-0.1l0,0l-0.1-0.1l-1.4,0.4l-1,0.1h-1.7l-0.3-0.1l-0.8-0.3l-0.5-0.5l-0.5-0.5l-1,1.5l-0.9,1.2l-1,1.5l-1.2,1.4l-1.2,1.4l-0.5,0.5l-0.5,0.5l-0.5,0.4l-0.5,0.4l-0.9,0.3l-0.8,0.3V126l0.9-1.5l0.5-0.9l0.4-0.9l0.4-0.9l0.4-0.9l0.1-0.9l0.1-0.8l-0.1-0.4l-0.1-0.5l-0.3-0.3l-0.1-0.3l-0.4-0.1l-0.3-0.1h-0.4l-0.5,0.1l-0.5,0.1l-0.6,0.3l-0.8,0.4l-0.8,0.4l-0.8,0.4l-0.8,0.5l-0.9,0.6l-0.9,0.6l-0.9,0.8l-0.9,0.9l-0.9,0.9l-0.8,1l-0.9,1l-0.6,1.2l-0.4,0.8h0.1l-0.4,0.9l-0.4,1l-0.4,1l-0.1,0.8v0.6l0.1,0.5l0.1,0.4l0.3,0.3l0.4,0.1l0.4,0.1h1.5l0.6-0.3l1-0.5l1.2-0.6l1.3-0.9l1.3-0.9l0.9-0.9l0.8-0.6l0.4-0.4l1.9-0.8h-0.1l0.9-0.4l0.9-0.4l0.8-0.5l0.8-0.5l1.2-0.9l0.9-1l0.9-0.9l1-1.2h1.2l0.6,0.1h0.4l0.3-0.1v0.5l-2.2,1.9l-1.5,1.7l-1.7,1.8h0.1l-0.9,1.2l-0.9,1.2l-0.3,0.5L184,131l-0.1,0.5v0.8l0.3,0.5l0.1,0.1l0.1,0.3h0.3l0.3,0.1l0.3-0.1h0.4l0.9-0.4l1-0.6l1-0.6l1.2-0.9l1.3-1l2.6-2.2h-0.1l2.9-2.7l2.6-2.4l1.2-0.9l0.9-0.8l0.6-0.5l0.3-0.1h0.1v0.3l-0.5,0.6l-0.6,0.8l-1.9,1.7l-1.9,2.1l-1,1l-1,1.2h0.3l-0.9,1.2l-0.4,0.5l-0.4,0.6l-0.3,0.6l-0.3,0.5l-0.1,0.6v1.2l0.1,0.1l0.1,0.1l0.3,0.1h0.5l0.4-0.1l0.8-0.4l1.2-0.5l1-0.6l1.9-1.3l1.2-0.6l0,0l-0.1,0.1l-0.1,0.3v0.1l-0.1,0.4l-0.1,0.5l-0.3,1.2l0.1,0.3v0.1l0.1,0.1l0.1,0.1l0.4,0.3h1l0.5-0.1l0.6-0.3l0.6-0.3l1.4-0.6l1.3-0.8l1.4-0.9l1.2-0.9l1-0.9l0.9-0.9h-0.1l0.4-0.5l0.4-0.5l-0.3-0.1l-0.3-0.1l-0.5,0.6l-0.9,0.8h0.1l-1.5,1.2l-1.7,1.2l-0.9,0.5l-0.8,0.5l-0.6,0.3H203l-0.1-0.1l-0.3-0.3l0.3-0.5l0.3-0.5l0.4-0.5l0.4-0.4l1.4-1.4h-0.1l2.9-2.8l3.1-2.9l1.2-1.3l1-1.2l0.6-0.8l0.3-0.3v-0.5L214.1,117.6z M178.6,128.2L178.6,128.2l-0.6,0.6l-0.8,0.8l-1,0.9l-1,0.6l-1.2,0.6l-0.9,0.4l-0.4,0.1H172l-0.3-0.1h-0.1l-0.1-0.1l-0.1-0.4v-0.3l0.1-0.5l0.1-0.4l0.1-0.4l0.3-0.4l0.5-0.8l0.5-0.6l0.6-0.9h-0.1l1.9-2.2l1.2-1.4l1.2-1.2l1.9-1.8l1-0.9l1-0.8l0.4-0.3l0.5-0.3l0.4-0.1l0.3-0.1l0.3,0.1h0.3l0.1,0.1v0.8h-0.3l-0.3,0.3L183,120l-0.3,0.3l-0.4,0.3l-0.5,0.6l-0.5,0.8l-0.6,0.8l-0.5,0.9l-0.5,1l-0.4,0.9l-0.3,1l-0.1,1h0.1v0.1L178.6,128.2z M47.6,126.7l1-0.8l1.9-1.8l1.8-1.8l1.8-1.9l3.3-3.7l1.8-1.8l1.7-1.8l1.9-1.7l0.6-0.6l0.5-0.5l0.4-0.5l0.1-0.1v-0.5l-0.1-0.1H64l-0.8,0.1l-0.8,0.3l-0.9,0.5l-1,0.5l-1,0.8l-1.2,0.9l-1.2,1l-1.3,1.3l-2.9,3.2l-3.2,3.5l-1.7,1.7l-1.7,1.7l-1.8,1.7l-1.7,1.5h0.1l-1.2,0.9l-0.8,0.5l-0.8,0.5l-1.8,1l-1.8,0.9l-1.9,0.8l-1.7,0.5l-1.5,0.5l-1.2,0.3l-0.8,0.1l-1.5,0.3h-2.3l-0.5-0.1l-1.2-0.1l-1.3-0.3l-1.5-0.4l-0.9-0.3l-0.6-0.3l-0.8-0.3l-0.6-0.4l-0.5-0.4l-0.4-0.4l-0.3-0.4v-0.4l-0.1-0.3l0.1-0.3v-0.3l0.4-0.5l0.3-0.5l0.1-0.3v-0.8h-0.3l-0.3-0.4l-0.3-0.3l-0.4-0.3h-1l-0.4,0.3l-0.4,0.3l-0.3,0.5h0.3l-0.1,0.3l-0.1,0.4v1.5L15,130l0.1,0.4l0.5,0.6l0.5,0.6l0.6,0.5l0.8,0.4l0.8,0.5l0.9,0.4l1.7,0.5l1.7,0.4l1.3,0.3h0.9l0.9,0.1h1.9l1.2-0.1H30l1.3-0.3l1-0.1l1.4-0.4l1.7-0.5l1.7-0.5l1.8-0.6l1.7-0.8l1.4-0.8l1.3-0.6l1-0.6l1.3-0.9l1.4-1h-0.3L47.6,126.7z M234.4,102.9l-11.8,13.6l0.6,0.6l11.5-13.3l0.3-0.4L234.4,102.9z M27.2,118.8l0.3,0.6l0.4,0.5l0.4,0.6l0.5,0.4l0.5,0.5l0.5,0.4l0.6,0.4l0.6,0.3l1.2,0.5l1.2,0.4h1.9l1.2-0.1l1.2-0.1L39,123l1.4-0.4l1.5-0.4l1.5-0.5l1.4-0.5l1.5-0.6l1.3-0.8L49,119l0.5-0.4l0.5-0.5l0.5-0.4l0.5-0.5l0.3-0.5l0.4-0.5l0.3-0.6l0.1-0.5l0.1-0.6v-1.4l-0.1-0.5L52,112l-0.5-0.8l-0.5-0.6l-0.8-0.6l-0.8-0.5l-0.4-0.1l-0.4-0.1l-0.5-0.1h-0.4l-2.2-0.1l-0.6,0.1l-0.8,0.1l-0.9,0.1l-1.5,0.4l-2.2,0.5l-1,0.4l-1.2,0.5l-1.2,0.5l-1.2,0.5l-1,0.6l-0.8,0.6l-0.8,0.6l-0.4,0.4l-0.3,0.4l-0.3,0.4l-0.1,0.4l-0.1,0.4v0.6l0.1,0.1l0.1,0.3l0.6-0.8l0.6-0.8l0.6-0.8l0.9-0.6l0.8-0.6l0.9-0.6l0.9-0.5l0.9-0.5l0.9-0.4l0.9-0.4l0.9-0.3l1-0.3l0.9-0.3l0.8-0.1L44,110h2.1l0.9,0.1l0.9,0.3l0.9,0.3l0.6,0.4l0.3,0.3l0.1,0.3l0.4,0.5l0.1,0.5l0.1,0.8v1.3l-0.1,0.5l-0.1,0.4l-0.1,0.5l-0.4,0.5l-0.3,0.4l-0.4,0.4l-0.4,0.5l-0.9,0.8l-1.2,0.6l-1.2,0.6l-1.2,0.5l-1.3,0.5l-1.2,0.5l-1.3,0.4l-1.2,0.3l-1,0.3l-1,0.1l-0.8,0.1h-1.4l-0.6-0.1l-0.8-0.1l-0.6-0.1l-0.6-0.3l-0.5-0.4l-0.6-0.4l-0.5-0.4l-0.5-0.4l-0.4-0.5l-0.4-0.5l-0.4-0.6l-0.3-0.6l-0.1-0.8l-0.1-0.8v-1.4l0.1-0.6l0.3-0.6l0.3-0.6l0.3-0.6l0.4-0.5l0.5-0.5l0.5-0.5l0.5-0.5l0.6-0.5l1.3-0.8l1.4-0.8l1.5-0.8l1.5-0.5l1.5-0.5l1.4-0.5l1.5-0.4l2.4-0.4l1.8-0.3l0.8-0.1h1.5l2.2,0.3l2.1,0.3l17.6,3.6l0.9,0.3l1.5,0.1h2.3l0.6-0.1l0.9-0.3l0.9-0.4l0.9-0.6l1-0.5l0.9-0.8l0.9-0.8l0.9-0.6l0.5-0.6l-0.4-0.4l-0.9,0.6l-0.6,0.5l-0.9,0.5l-0.9,0.6l-0.9,0.4l-1,0.4l-0.5,0.1h-1.4l-1-0.1l-0.9-0.3l-2.2-0.4l-3.6-0.9l-4.6-1l-2.4-0.4l-2.4-0.4l-1.9-0.4l-1.8-0.1h-6.9l-0.9,0.1l-1.2,0.3l-1.5,0.3l-1.7,0.4l-1.8,0.6l-1.8,0.5l-1.9,0.8l-1.9,0.9l-1.8,0.9l-0.9,0.5l-0.8,0.5l-0.8,0.6l-0.8,0.5l-0.6,0.6l-0.5,0.6l-0.6,0.6l-0.4,0.6l-0.4,0.8l-0.3,0.8l-0.1,0.8l-0.1,0.8v1.4l0.1,0.6L27.2,118.8z M122.6,118.5l-0.3-0.4l-0.4-0.3l-0.3-0.1l-0.3-0.1l-0.8,0.1l-0.9,0.1l-0.9,0.3l-0.8,0.4l-0.9,0.4l-0.8,0.5l-0.8,0.5l-0.8,0.5l-0.6,0.6l-0.8,0.6l-1.2,1.2l-1,1.2l-0.8,0.9l-0.6,1l-0.4,0.8l-0.5,0.9h0.3l-0.4,0.8l-0.3,0.8l-0.3,0.8l-0.1,1.2L108,132v0.9l0.1,0.4l0.1,0.3l0.3,0.3l0.4,0.3h0.9l0.6-0.1l0.6-0.3l0.6-0.4l1.4-0.8l1.4-1l1.4-1l1-0.9l0.8-0.8l0.1-0.3l0.1-0.3v-0.1l-0.1-0.1l-0.1-0.3h-0.3l-0.9,0.8l-0.9,0.8l-1,0.9l-1.2,0.9l-1.3,0.8l-0.6,0.3l-0.5,0.3l-0.5,0.1l-0.5,0.1l0,0l-0.3-0.1l-0.1-0.1v-0.9l0.3-0.5l0.4-0.8l0.4-0.6l0.4-0.6l0.5-0.5l0.4-0.5l0.4-0.4h-0.1l1.5-0.5l1.2-0.3l0.9-0.4l0.8-0.4l1-0.6l1-0.8l1.2-0.9l1.2-1l0.4-0.5l0.4-0.5l0.4-0.5l0.3-0.4l0.3-0.5v-1.3L122.6,118.5z M121.1,119.7L121.1,119.7l-0.3,0.5l-0.3,0.5l-0.3,0.4l-0.4,0.5l-0.5,0.5l-1,1l-1,0.8l-0.9,0.8l-0.9,0.5l-0.5,0.3l-0.3,0.1l-0.5,0.3h-0.8l0.8-0.9l1-1.4l0.9-1l0.9-1l1-1l1-0.9l0.4-0.4l0.4-0.3l0.4-0.1l0.3-0.1h0.3v0.1l0.3,0.1V119.7z M15.3,120.8l0.4-0.4l-0.8-0.5l-6.5,7.7h0.1l-5.1,5.9l0.8,0.5l5.6-6.5H9.6L15.3,120.8z M169.7,127.4l0.6-0.6l-0.4-0.6l-0.5,0.4l-1,1h0.1l-1.8,1.4l-1,0.9l-1,0.8l-1,0.6l-0.9,0.6l-0.9,0.3l-0.3,0.1H161l-0.1-0.1l-0.1-0.3v-0.3l0.1-0.3l0.1-0.3l0.6-1l1.8-2.7h-0.1l2.6-3.3l0.6-0.8l0.8-1l1.9-2.4l1.9-2.1l0.6-0.6l0.4-0.3l0.8-0.4l0.8-0.4l1.5-0.6l1.7-0.5l1.7-0.6l0.9-0.4l0.6-0.3l1.4-0.8l1.7-0.9l1.5-1.2l0.8-0.6l0.8-0.6l0.6-0.6l0.6-0.6l0.6-0.6l0.5-0.8l0.4-0.8l0.3-0.8l0.3-0.8v-1.3l-0.3-0.4l-0.1-0.3l-0.1-0.1l-0.3-0.1l-0.4-0.1l-0.5,0.1h-0.5l-0.6,0.3l-0.6,0.1l-1.3,0.5l-1.4,0.8l-1.4,0.9l-1.4,1l-1.5,1l-1.4,1.2l-1.5,1.2l-1.3,1.3l-2.7,2.3l-4,3.7l-0.4,0.1l-0.6,0.3l-1.7,0.4l-1.7,0.4l-0.9,0.3h-0.4l-0.1-0.1l-0.1-0.1l-0.1-0.1v-0.1l0.1-0.3l0.4-0.5l1.5-1.8l2.2-2.3l2.6-2.6l6.7-6.8v-0.3h-1.4l-0.6,0.1l-0.8,0.4l-0.8,0.3l-0.8,0.5l-0.8,0.4l-1.7,1.2l-1.5,1l-1.5,0.9l-0.8,0.4l-0.6,0.3l-0.8,0.3h-1l-0.4-0.1l-0.3-0.1l-0.3-0.1l-0.3-0.1l-0.1-0.4l-0.1-0.4l0.1-0.4l0.1-0.5l0.3-0.5l0.1-0.4l-0.1-0.3l-0.1-0.4l-0.1-0.3l-0.1-0.3l-0.5-0.4l-0.5-0.5l-0.6-0.3l-0.6-0.3l-0.5-0.1h-5.9l-1,0.1l-1.3,0.3l-1.5,0.4l-1.5,0.5l-1.7,0.6l-1.7,0.6l-1.7,0.8l-1.7,0.9l-1.5,0.9l-1.4,1l-0.6,0.5l-0.5,0.6l-0.6,0.5l-0.5,0.6l-0.4,0.6l-0.4,0.6l-0.3,0.6l-0.3,0.6l-0.1,0.8v2.8l0.3,0.6l0.3,0.5l0.3,0.6l0.4,0.4l0.5,0.4l0.5,0.5l0.6,0.3l0.5,0.3l0.6,0.3l1.2,0.4l1.2,0.3l1,0.1h2.6l0.6-0.1h0.9l0.9-0.3l1.2-0.3l1.3-0.4l1.2-0.4l1.4-0.4l1.3-0.6l1.3-0.5l1.2-0.8l1.2-0.8l0.9-0.8l0.4-0.5l0.4-0.5l0.4-0.4l0.3-0.5l0.3-0.5l0.1-0.6l0.1-0.5v-1l-0.1-0.6l-0.3-0.4l-0.3-0.5l-0.4-0.3l-0.4-0.4l-0.5-0.3l-0.4-0.4l-1-0.4l-1-0.3l-0.8-0.1l-0.8-0.1h-2.3l-0.4,0.1h-0.6l-1.7,0.5l-2.1,0.6l-1.2,0.4l-1,0.5l-1.2,0.5l-1,0.5l-1,0.6l-0.8,0.6l-0.8,0.6l-0.5,0.6l-0.3,0.4l-0.1,0.4l-0.1,0.4v0.6l0.1,0.1l0.4-0.4l0.4-0.5l0.5-0.5l0.5-0.5l0.8-0.6l0.8-0.5l1.8-1.2l0.9-0.5l1-0.5l0.9-0.4l1-0.4l1-0.4l0.9-0.3l0.9-0.1h0.9l1.5-0.1h0.8l0.9,0.1l0.8,0.3l0.8,0.4l0.4,0.3l0.3,0.3l0.3,0.4l0.3,0.4l0.3,0.4l0.1,0.5l0.1,0.5v1l-0.1,0.5l-0.1,0.5l-0.3,0.4l-0.3,0.5l-0.3,0.4l-0.5,0.5l-0.4,0.4l-0.9,0.6l-1,0.8l-1.2,0.5l-1.2,0.5l-1.3,0.5l-1.2,0.4l-2.4,0.5l-1.8,0.4l-1.3,0.1l-1-0.1l-1.2-0.3l-1.3-0.4l-0.6-0.3l-0.6-0.3l-0.5-0.4l-0.6-0.4l-0.5-0.5l-0.4-0.4l-0.4-0.6l-0.3-0.5l-0.1-0.6l-0.1-0.8l0.1-0.8v-0.6l0.3-0.8l0.3-0.6l0.3-0.6l0.4-0.6l0.4-0.5l0.5-0.6l0.5-0.5l0.5-0.5l1.2-1l1.3-0.8l1.4-0.8l1.4-0.6l1.4-0.6l1.4-0.5l1.4-0.4l1.2-0.4l1.2-0.3l1.7-0.3l2.3-0.3l1-0.1h1.4l0.6,0.1l0.6,0.1l0.5,0.3l0.3,0.1l0.1,0.3l0.1,0.3v0.3l-0.3,1.2l-0.1,1.2v0.4l0.3,0.4l0.4,0.4l0.4,0.4l0.5,0.3l0.5,0.3l0.5,0.1h1.5l1-0.3l1-0.3l0.9-0.4l1.4-0.8l0.6-0.1l0.4-0.1h0.1v0.3l-1.2,1l-1.3,1l-1,0.9l-1.2,1l-1.3,1.3l-1.2,1.3l-2.6,2.7l-1.3,1.3l-1.3,1.2l-1.4,1l-0.8,0.5l-0.6,0.4l-1.8,0.9l-1.8,1l-0.1,0.1v0.3l0.1,0.1l0.3,0.1l1.3-0.4l1.4-0.8l2.2-1l-1.3,1.5l-1.4,1.4l-1.4,1.4l-1.5,1.4h0.1l-1.5,1l-1.5,1l-1.7,1l-1.7,0.8l-1.7,0.6l-1.7,0.5l-1.7,0.4l-0.8,0.1l-0.9,0.1l-2.3,0.1h-0.5l-0.6-0.1h-1l-1.3-0.1l-1.4-0.3l-0.8-0.3l-0.6-0.1l-0.6-0.3l-0.6-0.4l-0.5-0.3l-0.3-0.4l-0.3-0.5l-0.1-0.3v-0.3l0.1-0.4l0.1-0.3l0.1-0.4l0.3-0.4l0.5-0.5l0.1-0.4l0.1-0.3v-0.1h-0.3l-0.1-0.3l-0.3-0.1l-0.3-0.3l-0.3-0.3l-0.8-0.3l-0.5-0.1l-0.4,0.3l-0.3,0.3l-0.3,0.4l-0.3,0.5h0.3l-0.1,0.3v1.2l0.3,0.6l0.3,0.6l0.4,0.6l0.5,0.5l0.6,0.5l0.6,0.4l0.6,0.4l0.8,0.3l0.8,0.3l1.4,0.5l1.4,0.3h5.3l0.9-0.1l1-0.1l1-0.1l1.2-0.3l1.2-0.4l2.2-0.8l1.2-0.4l1.2-0.6l1.2-0.5l1.2-0.5l2.3-1.3l2.2-1.4h-0.1l1.2-0.9l1.3-0.9l1.2-1l1.2-0.9l1-1l0.9-1l0.9-1.2l0.8-1l0.6-0.3l1.5-0.4l1.8-0.4l0.6-0.1h0.5l0.1,0.1v0.4l-0.1,0.3l-0.5,0.6l-1.8,2.2l-1,1.3l-1,1.4l-1,1.4l-0.9,1.5h0.1l-0.4,0.8l-0.4,0.9l-0.3,0.9l-0.1,0.8v1.2l0.1,0.4l0.1,0.5l0.1,0.1l0.3,0.1l0.1,0.1l0.3,0.1l0.6,0.1h0.5l0.6-0.1l0.8-0.1l0.6-0.4l0.8-0.4l0.6-0.4l0.8-0.5l1.4-1l1.3-1.2l1.2-1l0.9-1L169.7,127.4L169.7,127.4z M173.6,115.3L173.6,115.3l0.1-0.1l0.3-0.4l0.5-0.8l1.7-1.4l1.8-1.8l2.1-1.7l2.1-1.8l1.9-1.5l1.8-1.2l1.3-0.9l0.5-0.3h0.6l0.3,0.1l0.3,0.1v0.8l-0.1,0.4l-0.4,0.6l-0.4,0.8l-0.8,0.8l-0.8,0.8l-0.9,0.9l-1,0.8l-1,0.8l-2.2,1.4l-2.2,1.3l-1.9,1l-1.4,0.8L173.6,115.3L173.6,115.3z M108.3,129v-0.1l-0.1-0.1l-0.3-0.3l-1.3,1.2L105,131l-0.9,0.6l-0.8,0.5l-0.8,0.4h-0.3l-0.3,0.1l-0.1-0.1l-0.3-0.1l-0.1-0.3v-0.5l0.3-0.3l0.8-1l2.4-2.9h-0.3l2.6-3.1l0.8-0.9l1.3-1.7l0.8-0.9l0.5-0.9l0.4-0.6l0.1-0.4v-0.4l-0.1-0.3l-0.1-0.1l-0.5-0.1h-1.2l-0.5,0.1l-1.9,2.3l-2.2,2.7l-1.2,1.3l-1,1.3l-1,1l-0.9,0.8h0.1l-0.6,0.3l-0.3,0.1h-0.8v-0.3l0.1-0.3h-0.3l1.3-2.2l0.6-1.3l0.3-0.5v-0.8l-0.1-0.3l-0.3-0.1l-0.3-0.1l-0.4,0.1h-0.3l-0.3,0.3l-0.4,0.3l-0.5,0.5l-0.6,0.8l-0.6,0.8l-0.5,0.9l-1,1.8H96l-0.8,1.4l-0.4,0.8l-0.9,0.8l-1,0.8l-1,0.6l-1,0.4l-0.3-0.3v-0.5l0.1-0.4l0.6-0.9l0.9-1.3l1.2-1.5h-0.1l1.9-2.3l1.9-2.4l2.9-3.7l0.1-0.8h-1.5l-1.4,0.1l-3.5,3.7l-2.4,2.6l-1.4,1.4l-1.5,1.5h0.1l-1.5,1.3l-1.8,1.5l-0.8,0.6l-0.6,0.4l-0.5,0.4l-0.4,0.1h-0.8v-0.6l0.3-0.4l0.8-0.9l2.3-2.6h-0.1l1.7-1.9l0.8-1l0.9-1l0.6-1l0.5-0.9l0.4-0.9l0.1-0.4l0.1-0.4l-0.1-0.4l-0.1-0.4l-0.3-0.5l-0.1-0.3l-0.1-0.1l-0.4-0.1l-0.5-0.1l-0.8-0.1h-0.6l-0.6,0.3l-0.8,0.4l-0.8,0.5l-0.6,0.5l-0.8,0.6l-0.8,0.8l-0.8,0.8l-1.4,1.7l-1.3,1.5l-2.1,2.7h0.1l-0.6,0.8l-1.4,1.4l1.2-2.1v-0.3h-0.3l0.3-0.5l0.1-0.4v-0.3l-0.1-0.3v-0.1l-0.1-0.1h-0.6l-0.3,0.1l-0.8,0.4l-0.9,0.5l-1.2,0.8H73l-5,3.2l-1.2,0.8l-1,0.6l-0.9,0.4h-0.3l-0.3,0.1l-0.3-0.1l-0.1-0.1v-0.9l0.3-0.4l0.4-0.9l0.5-1l0.6-0.9l1-0.3l2.1-0.6l0,0l0.8-0.3l1.3-0.5l1.2-0.5l1.2-0.6l1-0.8l0.4-0.4l0.5-0.4l0.4-0.5l0.4-0.5l0.3-0.5l0.3-0.6l0.3-0.6l0.1-0.8L77,120l-0.1-0.4l-0.1-0.4l-0.3-0.5l-0.4-0.3l-0.5-0.3l-0.6-0.1l-0.6,0.1l-1.2,0.3l-1.2,0.5l-1.2,0.5l-0.9,0.6l-1,0.8l-0.8,0.8l-1.7,1.7l-1.2,1.3l-1,1.2l-0.6,1l-0.5,0.8l-1.4,0.1l0.1-0.3h-0.1l0.5-0.8l0.4-0.6l0.4-0.8l0.1-0.5l0.3-0.6l0.1-0.5l0.1-0.6v-1.3l-0.1-0.6l-0.3-0.6l-0.3-0.4l-0.1-0.3l-0.5-0.5l-0.5-0.5l-0.6-0.3l-0.6-0.3L60,118h-1.7l-0.8,0.3l-0.6,0.3l-0.9,0.5l0.3,0.4l0.1,0.1h0.1l0.5-0.4l0.5-0.3l0.6-0.3h1.4l0.5,0.3l0.4,0.4l0.3,0.4l0.4,0.5l0.1,0.5l0.1,0.5l0.1,0.6l-0.1,0.5l-0.1,0.6l-0.4,0.6l-0.4,0.6l-0.4,0.8l-0.6,0.8l-0.6,0.8l-0.6,0.9h0.1l-1,1l-1.2,1.2l-1.2,1l-1.3,0.9l-1.2,0.8l-1,0.5l-0.6,0.3l-0.4,0.1l-0.5,0.1h-0.8l-0.3-0.1l-0.4-0.3l-0.3-0.1l-0.3-0.4l-0.1-0.3l-0.1-0.3v-0.3l-0.1-0.8l0.1-0.5l0.1-0.5l0.1-0.4l0.3-0.5l0.4-0.4l0.4-0.5l0.4-0.4l0.5-0.4h-0.1l0.5-0.4l0.6-0.4l1.3-0.8l1.4-0.6l1.4-0.6l2.2-0.8l1.2-0.4l-0.3-0.4h-0.3l-0.1-0.1l-0.8,0.1l-1,0.3l-1.2,0.4l-1.3,0.5l-1.4,0.6l-1.3,0.8l-0.6,0.4l-0.6,0.5l-0.5,0.4l-0.5,0.6h0.1l-0.4,0.4l-0.4,0.4l-0.4,0.5l-0.3,0.5l-0.1,0.5l-0.3,0.5v0.6l-0.1,0.5v0.4l0.1,0.4l0.1,0.4l0.1,0.4l0.1,0.3l0.1,0.3l0.3,0.1l0.3,0.1l0.5,0.4l0.6,0.1l0.6,0.1h0.8l0.9-0.1l1-0.1l0.9-0.4l0.9-0.3l0.9-0.5l0.8-0.5l0.9-0.4l0.8-0.6l1.3-1l1.2-0.9l0.9-0.9l0.9-0.1h0.8l-0.3,0.5l-0.3,0.5l-0.3,0.6l-0.3,1.2v1l0.1,0.5l0.1,0.3l0.1,0.4l0.3,0.3l0.4,0.1l0.4,0.3h0.9l0.5-0.1l0.4-0.1l0.5-0.3l1-0.4l0.9-0.6l1.9-1.3l0.8-0.5l0.9-0.5v0.1l-0.1,0.3l-0.1,0.1v0.1l-0.3,0.6l-0.3,0.6v1l0.1,0.3l0.1,0.3l0.3,0.1l0.4,0.3l0.5,0.1h0.4l0.5-0.1l0.5-0.1l0.6-0.3l0.5-0.4l0.5-0.5l0.6-0.6l3.8-4.9h-0.1l2.6-2.9l1.2-1.4l1.3-1.3l1.2-1.2l1-0.9l0.9-0.6l0.4-0.3l0.5-0.3l0.1,0.3l0.1,0.4v0.3l-0.1,0.4l-0.3,0.4l-0.3,0.4l-0.8,1l-0.9,1l-2.1,2.3l-1.2,1.3l-1,1.3h0.1l-0.9,1.3l-0.5,0.6l-0.3,0.6l-0.4,0.6l-0.3,0.6l-0.1,0.6v0.9l0.1,0.4l0.1,0.3l0.1,0.3l0.3,0.1h0.9l0.6-0.1l0.8-0.3l0.6-0.4l0.8-0.4l0.8-0.4l1.3-1l1.3-1l1.2-0.9l1.4-1.3l-0.4,0.6l-0.4,0.6l-0.3,0.9l-0.3,0.8v1.8l0.3,0.5l0.1,0.3l0.1,0.3l0.3,0.1h0.9l0.6-0.3l0.6-0.1l0.5-0.4l0.6-0.4l0.6-0.4l1.2-0.9l1.2-0.9l1.3-0.8l0.5-0.4l0.6-0.3l0.5-0.1l0.6-0.1l0.9,0.1h0.3l-0.1,0.4l-0.3,0.6l-0.3,1l-0.1,0.5v0.5l0.1,0.5l0.1,0.4l0.1,0.3l0.3,0.3l0.3,0.3l0.4,0.3h0.8l0.4-0.3l0.5-0.3l0.5-0.3l1.2-0.8l1.3-1l2.1-1.7l1-0.9L108.3,129L108.3,129z M67.4,126.4l0.8-0.9l2.6-2.6l1.4-1.4l1.3-1.3l1-0.9l0.3-0.1l0.3-0.1l0.3-0.1h0.1l0.1,0.1l0.1,0.1l0,0v0.8l-0.1,0.6l-0.1,0.5l-0.4,0.6l-0.3,0.5l-0.5,0.6l-0.5,0.5l-0.5,0.5l-0.9,0.6l-1,0.5l-0.9,0.5l-0.9,0.4l-1.5,0.5l-0.8,0.3L67.4,126.4z"/>
</svg>
