<svg width="50" height="50" xmlns="http://www.w3.org/2000/svg" viewBox="0 0 50 50">
	<style type="text/css">
		.st0{fill:none;stroke:#FFFFFF;stroke-linecap:round;stroke-linejoin:round;stroke-miterlimit:10;}
	</style>
	<g>
		<path class="st0" d="M16.5,3.7c-3.2,0-5.8,3.5-5.8,7.8v4.4c0,3.1,1.3,5.8,3.3,7v23.6h4.9V22.9c1.9-1.3,3.3-3.9,3.3-7v-4.4C22.3,7.2,19.7,3.7,16.5,3.7z"/>
		<path class="st0" d="M27.9,3.5v12.4c0,3.1,1.3,5.8,3.3,7v23.6H36V22.9c1.9-1.3,3.3-3.9,3.3-7V3.5"/>
		<line class="st0" x1="28.4" y1="12.6" x2="39" y2="12.6"/>
		<line class="st0" x1="31.7" y1="11.8" x2="31.7" y2="3.6"/>
		<line class="st0" x1="35.6" y1="11.8" x2="35.6" y2="3.6"/>
	</g>
</svg>
