<svg width="50" height="50" xmlns="http://www.w3.org/2000/svg" viewBox="0 0 50 50">
	<style type="text/css">
		.st0{fill:#FFFFFF;}
	</style>
	<g>
		<path class="st0" d="M4.8,29.7c5.4,5.4,19,15.2,19.6,15.6c0.3,0.2,0.8,0.2,1.1,0c0.6-0.4,14.2-10.3,19.6-15.6c5.8-5.8,5.8-15.1,0-20.9C42.3,6,38.5,4.5,34.7,4.5c-3.5,0-6.9,1.2-9.6,3.5L25,8.1L24.9,8c-2.7-2.3-6.1-3.5-9.6-3.5C11.3,4.5,7.6,6,4.8,8.8C-1,14.6-1,23.9,4.8,29.7z M6.1,10.1c2.4-2.4,5.7-3.8,9.1-3.8s6.6,1.3,9,3.7c0.4,0.4,0.9,0.4,1.3,0c2.4-2.4,5.6-3.7,9-3.7s6.7,1.3,9.1,3.8c2.4,2.4,3.8,5.7,3.8,9.1s-1.3,6.7-3.8,9.1c-4.5,4.5-15.5,12.6-18.7,15l0,0.1l-0.1-0.1c-3.2-2.4-14.1-10.4-18.7-15C1.1,23.4,1.1,15.2,6.1,10.1z"/>
		<path class="st0" d="M12.8,26.8h3.8c0.5,0,0.9-0.4,0.9-0.9v-3.7h3.7c0.5,0,0.9-0.4,0.9-0.9v-3.8c0-0.5-0.4-0.9-0.9-0.9h-3.7v-3.9c0-0.5-0.4-0.9-0.9-0.9h-3.8c-0.5,0-0.9,0.4-0.9,0.9v3.7H8.1c-0.5,0-0.9,0.4-0.9,0.9v3.8c0,0.5,0.4,0.9,0.9,0.9h3.7v3.7C11.8,26.4,12.3,26.8,12.8,26.8z M9.1,20.3v-2h3.7c0.5,0,0.9-0.4,0.9-0.9v-3.8h2v3.7c0,0.5,0.4,0.9,0.9,0.9h3.7v2h-3.7c-0.5,0-0.9,0.4-0.9,0.9v3.7h-2v-3.7c0-0.5-0.4-0.9-0.9-0.9H9.1V20.3z"/>
	</g>
</svg>
