<svg width="49" height="45" xmlns="http://www.w3.org/2000/svg" viewBox="0 0 49 45">
	<style type="text/css">
		.st0{fill:none;stroke:#fff;stroke-miterlimit:10;}
	</style>
	<g>
		<line class="st0" x1="36.6" y1="44" x2="45.4" y2="44"/>
		<path class="st0" d="M36.8,27.1c0-2.5-2.1-4.6-4.6-4.6s-4.6,2.1-4.6,4.6V44h6.1c0,0,0-7.2,0-9.2C33.7,32.7,36.8,29.6,36.8,27.1z"/>
		<path class="st0" d="M1,27.1c0-2.5,2.1-4.6,4.6-4.6s4.6,2.1,4.6,4.6V44H4.1c0,0,0-7.2,0-9.2C4.1,32.7,1,29.6,1,27.1z"/>
		<path class="st0" d="M31.7,22.5v-3.1c0-3.4-5.5-6.1-12.3-6.1S7.1,16,7.1,19.4v3.1"/>
		<path class="st0" d="M10.2,31.7c0-1.7,3.9-3.1,8.7-3.1s8.7,1.4,8.7,3.1"/>
		<line class="st0" x1="10.2" y1="40.9" x2="27.6" y2="40.9"/>
		<line class="st0" x1="40.8" y1="44" x2="40.8" y2="13.3"/>
		<polygon class="st0" points="48,13.3 33.7,13.3 33.7,12.3 37.8,1 43.9,1 48,12.3"/>
		<line class="st0" x1="44.9" y1="13.3" x2="44.9" y2="21.5"/>
	</g>
</svg>
