<svg width="30" height="44" xmlns="http://www.w3.org/2000/svg" viewBox="0 0 30 44">
	<style type="text/css">
		.st0{fill:none;stroke:#fff;stroke-linecap:round;stroke-linejoin:round;stroke-miterlimit:10;}
	</style>
	<g>
		<path class="st0" d="M6.4,0.7c-3.2,0-5.8,3.5-5.8,7.8v4.4c0,3.1,1.3,5.8,3.3,7v23.6h4.9V19.9c1.9-1.3,3.3-3.9,3.3-7V8.5C12.2,4.2,9.6,0.7,6.4,0.7z"/>
		<g>
			<path class="st0" d="M17.8,0.5v12.4c0,3.1,1.3,5.8,3.3,7v23.6h4.9V19.9c1.9-1.3,3.3-3.9,3.3-7V0.5"/>
			<line class="st0" x1="18.3" y1="9.6" x2="28.9" y2="9.6"/>
			<g>
				<line class="st0" x1="21.6" y1="8.8" x2="21.6" y2="0.6"/>
				<line class="st0" x1="25.5" y1="8.8" x2="25.5" y2="0.6"/>
			</g>
		</g>
	</g>
</svg>
