<svg width="50" height="50" xmlns="http://www.w3.org/2000/svg" viewBox="0 0 50 50">
	<style type="text/css">
		.st0{fill:none;stroke:#FFFFFF;stroke-miterlimit:10;}
	</style>
	<g>
		<line class="st0" x1="37.1" y1="46.5" x2="45.9" y2="46.5"/>
		<path class="st0" d="M37.3,29.6c0-2.5-2.1-4.6-4.6-4.6s-4.6,2.1-4.6,4.6v16.9h6.1c0,0,0-7.2,0-9.2C34.2,35.2,37.3,32.1,37.3,29.6z"/>
		<path class="st0" d="M1.5,29.6c0-2.5,2.1-4.6,4.6-4.6s4.6,2.1,4.6,4.6v16.9H4.6c0,0,0-7.2,0-9.2C4.6,35.2,1.5,32.1,1.5,29.6z"/>
		<path class="st0" d="M32.2,25v-3.1c0-3.4-5.5-6.1-12.3-6.1S7.6,18.5,7.6,21.9V25"/>
		<path class="st0" d="M10.7,34.2c0-1.7,3.9-3.1,8.7-3.1s8.7,1.4,8.7,3.1"/>
		<line class="st0" x1="10.7" y1="43.4" x2="28.1" y2="43.4"/>
		<line class="st0" x1="41.3" y1="46.5" x2="41.3" y2="15.8"/>
		<polygon class="st0" points="48.5,15.8 34.2,15.8 34.2,14.8 38.3,3.5 44.4,3.5 48.5,14.8"/>
		<line class="st0" x1="45.4" y1="15.8" x2="45.4" y2="24"/>
	</g>
</svg>
