<svg width="50" height="50" xmlns="http://www.w3.org/2000/svg" viewBox="0 0 50 50">
	<g fill="#ffffff">
		<path d="M10.8,33.5c-0.5,0-0.9-0.4-0.9-0.9V10.3c0-2.5,2-4.5,4.5-4.5c2.5,0,4.5,2,4.5,4.5v0.5c0,0.5-0.4,0.9-0.9,0.9s-0.9-0.4-0.9-0.9v-0.5c0-1.5-1.2-2.8-2.8-2.8s-2.8,1.2-2.8,2.8v22.4C11.7,33.1,11.3,33.5,10.8,33.5z"/>
		<path d="M29.7,33.5c-0.5,0-0.9-0.4-0.9-0.9V10.3c0-2.5,2-4.5,4.5-4.5c2.5,0,4.5,2,4.5,4.5v0.5c0,0.5-0.4,0.9-0.9,0.9s-0.9-0.4-0.9-0.9v-0.5c0-1.5-1.2-2.8-2.8-2.8c-1.5,0-2.8,1.2-2.8,2.8v22.4C30.6,33.1,30.2,33.5,29.7,33.5z"/>
		<path d="M29.7,15.6H10.8c-0.5,0-0.9-0.4-0.9-0.9c0-0.5,0.4-0.9,0.9-0.9h18.9c0.5,0,0.9,0.4,0.9,0.9C30.6,15.2,30.2,15.6,29.7,15.6z"/>
		<path d="M29.7,21.6H10.8c-0.5,0-0.9-0.4-0.9-0.9c0-0.5,0.4-0.9,0.9-0.9h18.9c0.5,0,0.9,0.4,0.9,0.9C30.6,21.2,30.2,21.6,29.7,21.6z"/>
		<path d="M29.7,27.6H10.8c-0.5,0-0.9-0.4-0.9-0.9c0-0.5,0.4-0.9,0.9-0.9h18.9c0.5,0,0.9,0.4,0.9,0.9C30.6,27.2,30.2,27.6,29.7,27.6z"/>
		<path d="M34.5,36.2c-1.8,0-3.5-0.8-4.7-2.1c-1.2,1.3-2.9,2.1-4.7,2.1c-1.8,0-3.5-0.8-4.7-2.1c-1.2,1.3-2.9,2.1-4.7,2.1c-1.8,0-3.5-0.8-4.7-2.1c-1.2,1.3-2.9,2.1-4.7,2.1c-2.2,0-4.3-1.1-5.5-3c-0.3-0.4-0.1-1,0.3-1.2c0.4-0.3,1-0.1,1.2,0.3c0.9,1.4,2.4,2.2,4,2.2c1.6,0,3.1-0.8,4-2.2c0.2-0.3,0.4-0.4,0.8-0.4l0,0c0.3,0,0.6,0.2,0.8,0.4c0.9,1.4,2.4,2.2,4,2.2s3.1-0.8,4-2.2c0.2-0.3,0.4-0.4,0.8-0.4l0,0c0.3,0,0.6,0.2,0.8,0.4c0.9,1.4,2.4,2.2,4,2.2s3.1-0.8,4-2.2c0.3-0.5,1.2-0.5,1.5,0c0.9,1.4,2.4,2.2,4,2.2c1.6,0,3.1-0.8,4-2.2c0.3-0.4,0.8-0.5,1.2-0.3c0.4,0.3,0.5,0.8,0.3,1.2C38.7,35,36.7,36.2,34.5,36.2z"/>
		<path d="M43.9,44.3c-1.8,0-3.5-0.8-4.7-2.1c-1.2,1.3-2.9,2.1-4.7,2.1c-1.8,0-3.5-0.8-4.7-2.1c-1.2,1.3-2.9,2.1-4.7,2.1s-3.5-0.8-4.7-2.1c-1.2,1.3-2.9,2.1-4.7,2.1c-2.2,0-4.3-1.1-5.5-3c-0.3-0.4-0.1-1,0.3-1.2c0.4-0.3,1-0.1,1.2,0.3c0.9,1.4,2.4,2.2,4,2.2c1.6,0,3.1-0.8,4-2.2c0.2-0.3,0.4-0.4,0.8-0.4l0,0c0.3,0,0.6,0.2,0.8,0.4c0.9,1.4,2.4,2.2,4,2.2s3.1-0.8,4-2.2c0.3-0.5,1.2-0.5,1.5,0c0.9,1.4,2.4,2.2,4,2.2s3.1-0.8,4-2.2c0.3-0.5,1.2-0.5,1.5,0c0.9,1.4,2.4,2.2,4,2.2c1.6,0,3.1-0.8,4-2.2c0.3-0.4,0.8-0.5,1.2-0.3c0.4,0.3,0.5,0.8,0.3,1.2C48.2,43.1,46.1,44.3,43.9,44.3z"/>
	</g>
</svg>
