<svg width="50" height="41" xmlns="http://www.w3.org/2000/svg" viewBox="0 0 50 41">
	<style type="text/css">
		.st0{fill:#fff;}
	</style>
	<g>
		<path class="st0" d="M4.9,25.2c5.4,5.4,19,15.2,19.6,15.6c0.3,0.2,0.8,0.2,1.1,0c0.6-0.4,14.2-10.3,19.6-15.6c5.8-5.8,5.8-15.1,0-20.9C42.3,1.5,38.6,0,34.7,0c-3.5,0-6.9,1.2-9.6,3.5L25,3.6l-0.1-0.1C22.2,1.2,18.8,0,15.3,0C11.4,0,7.7,1.5,4.9,4.3C-0.9,10.1-0.9,19.4,4.9,25.2z M6.2,5.6c2.4-2.4,5.7-3.8,9.1-3.8c3.4,0,6.6,1.3,9,3.7c0.4,0.4,0.9,0.4,1.3,0c2.4-2.4,5.6-3.7,9-3.7c3.4,0,6.7,1.3,9.1,3.8c2.4,2.4,3.8,5.7,3.8,9.1s-1.3,6.7-3.8,9.1c-4.5,4.5-15.5,12.6-18.7,15L25,38.9l-0.1-0.1c-3.2-2.4-14.1-10.4-18.7-15C1.2,18.9,1.2,10.7,6.2,5.6z"/>
		<path class="st0" d="M12.8,22.3h3.8c0.5,0,0.9-0.4,0.9-0.9v-3.7h3.7c0.5,0,0.9-0.4,0.9-0.9v-3.8c0-0.5-0.4-0.9-0.9-0.9h-3.7V8.2c0-0.5-0.4-0.9-0.9-0.9h-3.8c-0.5,0-0.9,0.4-0.9,0.9v3.7H8.2c-0.5,0-0.9,0.4-0.9,0.9v3.8c0,0.5,0.4,0.9,0.9,0.9h3.7v3.7C11.9,21.9,12.3,22.3,12.8,22.3z M9.1,15.8v-2h3.7c0.5,0,0.9-0.4,0.9-0.9V9.1h2v3.7c0,0.5,0.4,0.9,0.9,0.9h3.7v2h-3.7c-0.5,0-0.9,0.4-0.9,0.9v3.7h-2v-3.7c0-0.5-0.4-0.9-0.9-0.9H9.1z"/>
	</g>
</svg>
