<svg xmlns="http://www.w3.org/2000/svg" viewBox="0 0 36 36">
<g>
	<rect y="32.5" width="36" height="1.5"/>
	<path d="M26.3,28.5H9.7c-0.2,0-0.5-0.1-0.6-0.3S8.9,27.7,9,27.5l8.3-24.9C17.4,2.3,17.7,2,18,2c0.3,0,0.6,0.2,0.7,0.5L27,27.5c0.1,0.2,0,0.5-0.1,0.7S26.5,28.5,26.3,28.5z M10.7,27h14.5L18,5.2L10.7,27z"/>
	<path d="M34.6,28.5h-8.7V27h7.7L27.7,9.3L24,20.3l-1.4-0.5L27,6.7c0.1-0.3,0.4-0.5,0.7-0.5c0,0,0,0,0,0c0.3,0,0.6,0.2,0.7,0.5l6.9,20.8c0.1,0.2,0,0.5-0.1,0.7C35.1,28.3,34.8,28.5,34.6,28.5z"/>
	<path d="M10.1,28.5H1.4c-0.2,0-0.5-0.1-0.6-0.3c-0.1-0.2-0.2-0.4-0.1-0.7L7.6,6.7C7.7,6.4,8,6.1,8.3,6.1h0c0.3,0,0.6,0.2,0.7,0.5l4.4,13.2L12,20.3L8.3,9.3L2.4,27h7.7V28.5z"/>
	<rect x="17.3" y="27.7" width="1.5" height="5.5"/>
	<rect x="27" y="27.7" width="1.5" height="5.5"/>
	<rect x="7.5" y="27.7" width="1.5" height="5.5"/>
</g>
</svg>
