<svg xmlns="http://www.w3.org/2000/svg" viewBox="0 0 36 36">
	<path d="M2,31.5H34c0.6,0,1-0.5,1-1v-0.3c0-2-1.4-3.6-3.2-4c-0.4-5.9-4.5-10.9-10.3-12.4v-2.6c0-0.6-0.5-1-1-1H19V6.6h1.5c0.6,0,1-0.5,1-1c0-0.6-0.5-1-1-1h-5c-0.6,0-1,0.5-1,1c0,0.6,0.5,1,1,1H17V10h-1.5c-0.6,0-1,0.5-1,1v2.6C8.8,15.1,4.6,20.1,4.2,26c-1.8,0.4-3.2,2.1-3.2,4v0.3C1,31,1.5,31.5,2,31.5z M16.5,12.1h2.9v1.1c0,0-0.1,0-0.1,0c0,0,0,0-0.1,0c-0.4,0-0.9-0.1-1.3-0.1c-0.4,0-0.9,0-1.3,0.1c0,0,0,0-0.1,0c0,0-0.1,0-0.1,0V12.1z M15.7,15.4c1.1-0.2,2.3-0.3,3.4-0.2c0.4,0,0.8,0.1,1.1,0.2c5.1,1,9,5.3,9.4,10.5H6.3C6.8,20.8,10.6,16.5,15.7,15.4z M5.1,28L5.1,28h25.6h0.1c0.9,0,1.7,0.6,1.9,1.4H3.2C3.5,28.6,4.2,28,5.1,28z"/>
</svg>
