<svg xmlns="http://www.w3.org/2000/svg" viewBox="0 0 36 36">
<g>
	<path d="M34.3,34.3H30v-2H6v2H1.8V23.3h32.5V34.3z M31.5,32.8h1.2v-7.9H3.3v7.9h1.2v-2h27.1V32.8z"/>
	<polygon points="6,24.1 4.5,24.1 4.5,8.5 7.9,8.5 7.9,10 6,10"/>
	<rect x="16.7" y="8.5" width="2.6" height="1.5"/>
	<polygon points="31.5,24.1 30,24.1 30,10 28.1,10 28.1,8.5 31.5,8.5"/>
	<path d="M14.7,13.4H9.9c-1.5,0-2.8-1.2-2.8-2.8V9.2c0-1.5,1.2-2.8,2.8-2.8h4.8c1.5,0,2.8,1.2,2.8,2.8v1.4C17.5,12.1,16.2,13.4,14.7,13.4z M9.9,8C9.2,8,8.6,8.5,8.6,9.2v1.4c0,0.7,0.6,1.3,1.3,1.3h4.8c0.7,0,1.3-0.6,1.3-1.3V9.2C16,8.5,15.4,8,14.7,8H9.9z"/>
	<path d="M26.1,13.4h-4.8c-1.5,0-2.8-1.2-2.8-2.8V9.2c0-1.5,1.2-2.8,2.8-2.8h4.8c1.5,0,2.8,1.2,2.8,2.8v1.4C28.8,12.1,27.6,13.4,26.1,13.4z M21.3,8C20.6,8,20,8.5,20,9.2v1.4c0,0.7,0.6,1.3,1.3,1.3h4.8c0.7,0,1.3-0.6,1.3-1.3V9.2c0-0.7-0.6-1.3-1.3-1.3H21.3z"/>
	<polygon points="34.3,16 30.8,16 30.8,14.5 32.8,14.5 32.8,3.3 3.3,3.3 3.3,14.5 5.2,14.5 5.2,16 1.8,16 1.8,1.8 34.3,1.8"/>
	<rect x="7.2" y="14.5" width="21.6" height="1.5"/>
</g>
</svg>
