<svg xmlns="http://www.w3.org/2000/svg" viewBox="0 0 36 36">
	<path d="M27.1,33.8c-0.4,0-0.8-0.1-1.1-0.4l-8-5.8l-8,5.8c-0.3,0.2-0.7,0.4-1.1,0.4c-0.4,0-0.7-0.1-1-0.4c-0.3-0.2-0.5-0.5-0.6-0.9c-0.1-0.4-0.1-0.8,0-1.2l3.1-9.4l-8-5.8c-0.3-0.2-0.6-0.6-0.7-1c-0.1-0.4-0.1-0.7,0-1.1c0.1-0.4,0.3-0.7,0.6-0.9c0.3-0.2,0.7-0.4,1.1-0.4l9.9,0l3-9.4c0.1-0.4,0.4-0.7,0.7-0.9c0.3-0.2,0.7-0.3,1-0.3s0.7,0.1,1,0.3c0.3,0.2,0.6,0.6,0.7,0.9l3,9.4l9.9,0c0.4,0,0.8,0.1,1.1,0.4c0.3,0.2,0.5,0.5,0.6,0.9c0.1,0.4,0.1,0.7,0,1.1c-0.1,0.4-0.3,0.7-0.7,1l-8,5.8l3.1,9.4c0.1,0.4,0.1,0.8,0,1.2c-0.1,0.3-0.3,0.6-0.6,0.9C27.8,33.6,27.5,33.8,27.1,33.8C27.1,33.8,27.1,33.8,27.1,33.8z M18,25.6c0.4,0,0.8,0.1,1.1,0.4l7.7,5.6l-3-9.1c-0.2-0.8,0-1.6,0.7-2l7.7-5.6l-9.5,0c0,0,0,0,0,0c-0.8,0-1.5-0.5-1.7-1.3L18,4.6l-2.9,9.1c-0.2,0.8-0.9,1.3-1.7,1.3c0,0,0,0,0,0l-9.5,0l7.7,5.6c0.6,0.5,0.9,1.3,0.7,2l-3,9.1l7.7-5.6C17.2,25.7,17.6,25.6,18,25.6z"/>
</svg>
