<svg width="100" height="100" xmlns="http://www.w3.org/2000/svg"><path d="M50 2A48 48 0 112 50 48.05 48.05 0 0150 2m0-2a50 50 0 1050 50A50 50 0 0050 0z" fill="#40b7ae"/><path d="M70.57 38.85L57 44.27l-2.29-.92a1.41 1.41 0 00-1 2.61l1.93.77V69l-11.25-4.5V42.23l.88.35a1.41 1.41 0 001-2.61l-2.79-1.11a1.4 1.4 0 00-1 0l-14 5.61a1.41 1.41 0 00-.88 1.31v25.31a1.41 1.41 0 001.93 1.31L43 67l13.51 5.41a1.4 1.4 0 001 0l14-5.61a1.41 1.41 0 00.88-1.31V40.16a1.41 1.41 0 00-1.82-1.31zm-40.26 7.88l11.25-4.5v22.29L30.31 69V46.73zm39.38 17.79L58.44 69V46.73l11.25-4.5v22.29z" fill="#23447d"/><path d="M48.59 38.55v14.26a1.41 1.41 0 002.81 0V38.55a5.63 5.63 0 10-2.81 0zM50 30.31a2.81 2.81 0 11-2.81 2.81A2.82 2.82 0 0150 30.31z" fill="#23447d"/></svg>