<svg width="100" height="100" xmlns="http://www.w3.org/2000/svg" viewBox="0 0 100 100">
<style type="text/css">
	.st0{fill:#40B7AE;}
	.st1{fill:#23447d;stroke:#23447d;stroke-linecap:round;stroke-linejoin:round;stroke-miterlimit:10;}
	.st2{fill:#23447d;stroke:#23447d;stroke-miterlimit:10;}
</style>
<path class="st0" d="M50,2c26.5,0,48,21.5,48,48S76.5,98,50,98S2,76.5,2,50C2,23.5,23.5,2,50,2 M50,0C22.4,0,0,22.4,0,50s22.4,50,50,50s50-22.4,50-50S77.6,0,50,0L50,0z"/>
<path class="st1" d="M69.4,28.6h-2.6v-5.1c0-0.7-0.3-1.3-0.8-1.8c-0.5-0.5-1.2-0.7-1.9-0.6l-34.1,7.2c-1.2,0.2-2.1,1.2-2.1,2.4v45.5c0,1.4,1.2,2.6,2.6,2.6h38.8c1.4,0,2.6-1.2,2.6-2.6V31.2C72,29.8,70.8,28.6,69.4,28.6z M64.3,22.2c0.1,0,0.1,0,0.2,0c0.3,0,0.6,0.1,0.9,0.3c0.3,0.3,0.5,0.6,0.5,1v5.1H35.2L64.3,22.2z M71,76.3c0,0.9-0.7,1.5-1.5,1.5H30.6c-0.9,0-1.5-0.7-1.5-1.5V31.2c0-0.9,0.7-1.5,1.5-1.5h38.8c0.9,0,1.5,0.7,1.5,1.5V76.3z"/>
<path class="st2" d="M61.9,53.9c0.3-1,0.4-2,0.3-3c-0.1-1.4-0.6-2.6-1.4-3.6c-1.4-1.7-3.3-2.5-5.5-2.5c-2.5,0-4.4,2-5.3,3.4c-0.9-1.3-2.7-3.4-5.3-3.4c-2.2,0-4.1,0.9-5.5,2.5c-0.8,1-1.3,2.2-1.4,3.6c-0.1,1,0,2,0.3,3c0.5,1.7,1.6,3.3,3.5,5c2.1,1.8,4.4,3.6,7.1,5.4c0.8,0.5,1,0.7,1.2,0.7c0,0,0,0,0,0c0,0,0,0,0,0c0,0,0,0,0.1,0c0,0,0,0,0,0c0,0,0,0,0,0c0,0,0,0,0,0l0,0c0,0,0,0,0,0c0,0,0,0,0,0l0,0l0,0c0,0,0,0,0,0c0,0,0,0,0,0l0,0c0,0,0,0,0,0c0,0,0,0,0,0c0,0,0,0,0,0c0,0,0,0,0.1,0c0,0,0,0,0,0c0,0,0,0,0,0c0.1,0,0.4-0.1,1.2-0.7c2.7-1.8,5-3.6,7.1-5.4C60.2,57.3,61.4,55.7,61.9,53.9z M50.8,63.6c-0.4,0.3-0.7,0.4-0.8,0.5c-0.1-0.1-0.4-0.2-0.8-0.5c-2.7-1.8-5-3.6-7-5.3c-1.7-1.5-2.8-3-3.2-4.5c-0.3-0.9-0.4-1.8-0.3-2.7c0.1-1.2,0.5-2.2,1.2-3.1c1.2-1.5,2.8-2.2,4.8-2.2c2.6,0,4.4,2.7,4.9,3.5c0,0,0,0,0,0c0,0,0,0,0,0c0,0,0,0,0,0c0,0,0,0,0,0c0,0,0,0,0,0c0,0,0,0,0,0c0,0,0,0,0,0c0,0,0,0,0,0c0,0,0,0,0,0c0,0,0,0,0,0c0,0,0,0,0,0c0,0,0,0,0,0c0,0,0,0,0,0c0,0,0,0,0,0c0,0,0,0,0,0c0,0,0,0,0,0c0,0,0,0,0,0c0,0,0,0,0,0c0,0,0,0,0,0c0,0,0,0,0,0c0,0,0,0,0,0c0,0,0,0,0,0c0,0,0,0,0,0c0,0,0,0,0,0c0.5-0.8,2.3-3.5,4.9-3.5c2,0,3.6,0.7,4.8,2.2c0.7,0.9,1.1,1.9,1.2,3.1c0.1,0.9,0,1.8-0.3,2.7c-0.4,1.5-1.5,3-3.2,4.5C55.8,60,53.5,61.7,50.8,63.6z"/>
</svg>
