<svg width="100" height="100" xmlns="http://www.w3.org/2000/svg" viewBox="0 0 100 100">
<style type="text/css">
	.st0{fill:#40B7AE;}
	.st1{fill:#23447d;stroke:#23447d;stroke-miterlimit:10;}
</style>
<path class="st0" d="M50,2c26.5,0,48,21.5,48,48S76.5,98,50,98S2,76.5,2,50C2,23.5,23.5,2,50,2 M50,0C22.4,0,0,22.4,0,50s22.4,50,50,50s50-22.4,50-50S77.6,0,50,0L50,0z"/>
<path class="st1" d="M79.6,46.1h-3.2v-5.6c0-1.2-1-2.2-2.2-2.2h-3.6c-0.2,0-0.3,0-0.4,0v-1.6c0-1.3-1-2.3-2.3-2.3H64c-1.3,0-2.3,1-2.3,2.3v9.4H38.3v-9.4c0-1.3-1-2.3-2.3-2.3h-3.8c-1.3,0-2.3,1-2.3,2.3v1.6c-0.1,0-0.3,0-0.4,0h-3.6c-1.2,0-2.2,1-2.2,2.2v5.6h-3.2c-0.5,0-0.9,0.4-0.9,0.9v6c0,0.5,0.4,0.9,0.9,0.9h3.2v5.6c0,1.2,1,2.2,2.2,2.2h3.6c0.2,0,0.3,0,0.4,0v1.6c0,1.3,1,2.3,2.3,2.3H36c1.3,0,2.3-1,2.3-2.3v-9.4h23.4v9.4c0,1.3,1,2.3,2.3,2.3h3.8c1.3,0,2.3-1,2.3-2.3v-1.6c0.1,0,0.3,0,0.4,0h3.6c1.2,0,2.2-1,2.2-2.2v-5.6h3.2c0.5,0,0.9-0.4,0.9-0.9v-6C80.5,46.5,80.1,46.1,79.6,46.1z M21.3,52.1v-4.3h2.3v4.3H21.3z M36.5,63.3c0,0.3-0.2,0.5-0.5,0.5h-3.8c-0.3,0-0.5-0.2-0.5-0.5v-6c0-0.5-0.4-0.9-0.9-0.9s-0.9,0.4-0.9,0.9v2.2c0,0.2-0.2,0.4-0.4,0.4h-3.6c-0.2,0-0.4-0.2-0.4-0.4V40.5c0-0.2,0.2-0.4,0.4-0.4h3.6c0.2,0,0.4,0.2,0.4,0.4v2.4v10.8c0,0.5,0.4,0.9,0.9,0.9s0.9-0.4,0.9-0.9V42.9v-2.4v-3.8c0-0.3,0.2-0.5,0.5-0.5H36c0.3,0,0.5,0.2,0.5,0.5V63.3z M38.3,52.1v-4.3h23.4v4.3H38.3z M74.6,59.5c0,0.2-0.2,0.4-0.4,0.4h-3.6c-0.2,0-0.4-0.2-0.4-0.4v-2.2c0-0.5-0.4-0.9-0.9-0.9s-0.9,0.4-0.9,0.9v6c0,0.3-0.2,0.5-0.5,0.5H64c-0.3,0-0.5-0.2-0.5-0.5V36.7c0-0.3,0.2-0.5,0.5-0.5h3.8c0.3,0,0.5,0.2,0.5,0.5v17c0,0.5,0.4,0.9,0.9,0.9s0.9-0.4,0.9-0.9V40.5c0-0.2,0.2-0.4,0.4-0.4h3.6c0.2,0,0.4,0.2,0.4,0.4V59.5z M78.7,52.1h-2.3v-4.3h2.3V52.1z"/>
</svg>
