<svg width="100" height="100" xmlns="http://www.w3.org/2000/svg"><path d="M50 2A48 48 0 112 50 48.05 48.05 0 0150 2m0-2a50 50 0 1050 50A50 50 0 0050 0z" fill="#40b7ae"/><path fill="#23447d" d="M28 67.35h44v2.54H28zm32.15-4.23h-20.3a1.27 1.27 0 01-1.2-1.67L48.8 31a1.27 1.27 0 012.41 0l10.15 30.44a1.27 1.27 0 01-1.21 1.68zm-18.54-2.54h16.78L50 35.4z"/><path d="M70.31 63.12H59.6v-2.54h9l-6.7-20.1-4.21 12.46-2.41-.8 5.36-16.08a1.27 1.27 0 011.2-.87 1.27 1.27 0 011.2.87l8.46 25.38a1.27 1.27 0 01-1.19 1.68zm-29.91 0H29.69a1.27 1.27 0 01-1.2-1.67l8.46-25.38a1.27 1.27 0 012.41 0l5.36 16.08-2.41.8-4.16-12.48-6.7 20.1h9v2.54zm8.33-1.27h2.54v6.77h-2.54z" fill="#23447d"/><path fill="#23447d" d="M60.58 61.85h2.54v6.77h-2.54zm-23.7 0h2.54v6.77h-2.54z"/></svg>