<svg width="100" height="100" xmlns="http://www.w3.org/2000/svg"><path d="M50 2A48 48 0 112 50 48.05 48.05 0 0150 2m0-2a50 50 0 1050 50A50 50 0 0050 0z" fill="#fff"/><path d="M45 58.64l-1.08-1.06c-1.31-1.29-2.94-2.89-3.81-3.56a24 24 0 01-4-4.46c-1.93-3.11-4-3.4-5.24-2.63a2.79 2.79 0 00-1.3 1.83v.13a19 19 0 01-.32-2.59c.81-6.9.31-10.81-1.53-12a1.76 1.76 0 00-1.72-.14 3.28 3.28 0 00-1.57 2.23 1.13 1.13 0 000 .13C23.83 41.28 23 48.55 22.87 49a5.93 5.93 0 00.5 2.71c1 2.52 2.66 6.5 2.87 7.11a11.46 11.46 0 002.27 3.07L38 71.9c.7.73.6 3.34.56 4.46v.8a1.13 1.13 0 102.26 0v-.72c.09-2.37.07-4.8-1.19-6.11l-9.46-10a10.79 10.79 0 01-1.75-2.21c-.29-.89-2.66-6.61-2.92-7.26a4.71 4.71 0 01-.37-1.46c.13-.71 1.36-11 1.54-12.58l.06-.19c.38.85.94 3.23.2 9.45a1.13 1.13 0 000 .19c.05 1 .25 3.44.87 4.41l.09.12 7.7 9 1.06 1.2a1.13 1.13 0 001.78-1.37l-1.15-1.84-5.28-7.6a1.33 1.33 0 01-.25-1 .52.52 0 01.25-.33c.25-.15 1.13.25 2.15 1.89a26.14 26.14 0 004.59 5.07c.76.58 2.4 2.19 3.6 3.37l1.11 1.08c1.2 1.15 2.32 4 2.65 5a10.07 10.07 0 01.58 2.73v9.13a1.13 1.13 0 102.26 0V68a12.1 12.1 0 00-.75-3.53C48 64 46.77 60.36 45 58.64zM77.13 49c-.09-.5-1-7.76-1.53-12.52a1.12 1.12 0 000-.13 3.28 3.28 0 00-1.6-2.19 1.75 1.75 0 00-1.63.17c-1.84 1.16-2.34 5.07-1.53 12a19 19 0 01-.32 2.59v-.14a2.79 2.79 0 00-1.3-1.83 2.72 2.72 0 00-2.88.12A7.35 7.35 0 0064 49.56a24 24 0 01-4 4.46c-.87.67-2.5 2.27-3.81 3.56L55 58.64c-1.77 1.72-3 5.36-3.19 5.87a12.1 12.1 0 00-.75 3.49v9.13a1.13 1.13 0 102.26 0V68a10.07 10.07 0 01.61-2.76c.33-1 1.44-3.81 2.65-5l1.11-1.08c1.2-1.18 2.84-2.79 3.6-3.37a26.15 26.15 0 004.59-5.07c1-1.64 1.9-2 2.15-1.89a.52.52 0 01.26.36 1.33 1.33 0 01-.25 1l-5.31 7.59-1.15 1.84A1.13 1.13 0 0063.35 61l1.07-1.15 7.7-9 .09-.12c.63-1 .82-3.41.87-4.41a1.13 1.13 0 000-.19c-.74-6.23-.18-8.61.2-9.45l.06.19c.18 1.54 1.41 11.87 1.54 12.57a4.65 4.65 0 01-.37 1.46c-.27.65-2.63 6.38-2.92 7.26a10.59 10.59 0 01-1.75 2.22l-9.46 10c-1.26 1.31-1.28 3.74-1.19 6.11v.72a1.13 1.13 0 102.26 0v-.8c0-1.12-.14-3.73.56-4.46l9.46-10a11.46 11.46 0 002.27-3.07c.2-.61 1.83-4.59 2.87-7.12a5.92 5.92 0 00.52-2.76zM61.15 32.97h-7.26v-7.26h-7.78v7.26h-7.26v7.77h7.26V48h7.78v-7.26h7.26v-7.77z" fill="#fff"/></svg>