<svg width="100" height="100" xmlns="http://www.w3.org/2000/svg"><path d="M50 2A48 48 0 112 50 48.05 48.05 0 0150 2m0-2a50 50 0 1050 50A50 50 0 0050 0z" fill="#40b7ae"/><path d="M50 57.49a1.08 1.08 0 01-.48-.11l-26-12.86a1.08 1.08 0 010-1.93l26-12.86a1.08 1.08 0 011 0l26 12.86a1.08 1.08 0 010 1.93l-26 12.86a1.08 1.08 0 01-.52.11zM26.44 43.55L50 55.21l23.56-11.66L50 31.89z" fill="#23447d"/><path d="M50 57.6a1.2 1.2 0 01-.53-.12l-26-12.86a1.19 1.19 0 010-2.14l26-12.86a1.2 1.2 0 011.06 0l26 12.86a1.19 1.19 0 010 2.14l-26 12.86a1.2 1.2 0 01-.53.12zm0-27.87a1 1 0 00-.42.1l-26 12.86a1 1 0 000 1.72l26 12.86a1 1 0 00.85 0l26-12.86a1 1 0 000-1.71l-26-12.86a1 1 0 00-.43-.1zm0 25.61h-.05L26.17 43.55 50 31.76h.05l23.78 11.79zM26.71 43.55L50 55.08l23.29-11.53L50 32z" fill="#23447d"/><path d="M50 66a1.08 1.08 0 01-.71-1.88 36 36 0 018.88-5.71A20 20 0 0165 57v-1.22a13.9 13.9 0 00-1.24-6.07 1.07 1.07 0 011.89-1 15.88 15.88 0 011.5 7.05L67.2 58a1.07 1.07 0 01-.34.83 1.06 1.06 0 01-.85.28A16.56 16.56 0 0059 60.4a34.45 34.45 0 00-8.25 5.32A1.07 1.07 0 0150 66z" fill="#23447d"/><path d="M50 66.11a1.19 1.19 0 01-.79-2.11 36 36 0 018.92-5.73 20.05 20.05 0 016.76-1.45v-1.1a13.86 13.86 0 00-1.23-6 1.19 1.19 0 012.1-1.13 16 16 0 011.51 7.11l.05 2.3a1.19 1.19 0 01-.38.92 1.17 1.17 0 01-.95.31 16.36 16.36 0 00-7 1.26 34.25 34.25 0 00-8.21 5.3 1.19 1.19 0 01-.78.32zm14.67-17.92a1 1 0 00-.84 1.41 14 14 0 011.25 6.13l.05 1.34H65a19.74 19.74 0 00-6.8 1.43 35.79 35.79 0 00-8.85 5.69 1 1 0 101.27 1.43 34.51 34.51 0 018.28-5.34A16.63 16.63 0 0166 59a.94.94 0 00.76-.25 1 1 0 00.3-.74L67 55.7a15.79 15.79 0 00-1.48-7 1 1 0 00-.85-.51z" fill="#23447d"/><path d="M50 66a1.07 1.07 0 01-.71-.27A34.45 34.45 0 0041 60.4a16.36 16.36 0 00-7-1.27 1.06 1.06 0 01-.85-.28 1.08 1.08 0 01-.35-.85l.09-2.37a15.79 15.79 0 011.5-7 1.07 1.07 0 011.89 1 14 14 0 00-1.24 6L35 57a20 20 0 016.84 1.44 36 36 0 018.88 5.71A1.08 1.08 0 0150 66z" fill="#23447d"/><path d="M50 66.11a1.19 1.19 0 01-.79-.3 34.25 34.25 0 00-8.21-5.3 16.36 16.36 0 00-7-1.26A1.19 1.19 0 0132.68 58l.09-2.37a15.94 15.94 0 011.51-7.06 1.19 1.19 0 012.1 1.13 14 14 0 00-1.23 6v1.15a20.06 20.06 0 016.76 1.45 36 36 0 018.88 5.7 1.19 1.19 0 01-.79 2.11zM34.69 59a17.71 17.71 0 016.39 1.3 34.51 34.51 0 018.28 5.34 1 1 0 101.27-1.43 35.78 35.78 0 00-8.85-5.69A19.74 19.74 0 0035 57.08h-.14l.05-1.39a14.25 14.25 0 011.25-6.08 1 1 0 10-1.68-.91 15.7 15.7 0 00-1.48 7l-.09 2.3a1 1 0 00.3.74.94.94 0 00.79.26h.69zm27.07 1.64a1.07 1.07 0 01-1.07-1.07V51.2l-11.24-6.73a1.07 1.07 0 011.1-1.84l11.76 7a1.07 1.07 0 01.52.92v9a1.07 1.07 0 01-1.07 1.09z" fill="#23447d"/><path d="M61.76 60.76a1.19 1.19 0 01-1.19-1.19v-8.3l-11.18-6.69a1.19 1.19 0 111.23-2l11.76 7a1.2 1.2 0 01.58 1v9a1.19 1.19 0 01-1.2 1.18zM50 42.6h-.23a1 1 0 00-.26 1.75l11.3 6.76v8.44a1 1 0 101.91 0v-9a1 1 0 00-.47-.82l-11.76-7a1 1 0 00-.49-.13z" fill="#23447d"/><path d="M61.76 65.45A3.49 3.49 0 1165 62a3.36 3.36 0 01-3.24 3.45zm0-4.81A1.36 1.36 0 1062.84 62a1.23 1.23 0 00-1.08-1.37z" fill="#23447d"/><path d="M61.76 65.57A3.61 3.61 0 1165.11 62a3.48 3.48 0 01-3.35 3.57zm0-7A3.37 3.37 0 1064.87 62a3.25 3.25 0 00-3.11-3.4zm0 4.81A1.48 1.48 0 1163 62a1.34 1.34 0 01-1.24 1.42zm0-2.66a1.25 1.25 0 101 1.21 1.11 1.11 0 00-1-1.18z" fill="#23447d"/><path d="M61.76 76.38c-1.2 0-2.88-.13-3.76-1.25s-.53-2.71-.09-4.48a16 16 0 00.63-3.88 3.24 3.24 0 116.45 0 15.39 15.39 0 00.61 3.69c.44 1.76.86 3.42-.09 4.64-.69.9-1.87 1.28-3.75 1.28zm0-10.94a1.23 1.23 0 00-1.08 1.33 17.94 17.94 0 01-.69 4.4c-.27 1.07-.57 2.28-.3 2.63.08.1.46.42 2.07.42s1.94-.31 2-.45c.31-.39 0-1.67-.3-2.8a17.1 17.1 0 01-.67-4.21 1.23 1.23 0 00-1.03-1.31z" fill="#23447d"/><path d="M61.76 76.5c-1.22 0-2.95-.13-3.85-1.3s-.56-2.78-.11-4.58a15.86 15.86 0 00.62-3.85 3.35 3.35 0 116.69 0 15.31 15.31 0 00.6 3.66c.45 1.79.87 3.48-.11 4.75-.71.9-1.92 1.32-3.84 1.32zm0-13.09a3.25 3.25 0 00-3.11 3.36 16 16 0 01-.65 3.91c-.44 1.74-.81 3.25.07 4.38s2.5 1.21 3.67 1.21c1.84 0 3-.39 3.65-1.23.92-1.18.51-2.81.07-4.54a15.49 15.49 0 01-.61-3.72 3.25 3.25 0 00-3.09-3.36zm0 10.94c-1.62 0-2-.33-2.16-.47-.29-.37-.06-1.36.28-2.73a17.84 17.84 0 00.69-4.37 1.22 1.22 0 112.39 0 17 17 0 00.66 4.22c.31 1.22.62 2.47.28 2.91-.14.09-.61.44-2.14.44zm0-8.79a1.11 1.11 0 00-1 1.21 18 18 0 01-.69 4.42c-.24.94-.56 2.23-.32 2.53 0 0 .34.38 2 .38s1.88-.31 2-.4c.27-.35-.06-1.65-.32-2.7a17.2 17.2 0 01-.68-4.24 1.11 1.11 0 00-.99-1.19z" fill="#23447d"/></svg>