<svg width="100" height="100" xmlns="http://www.w3.org/2000/svg"><path d="M50 2A48 48 0 112 50 48.05 48.05 0 0150 2m0-2a50 50 0 1050 50A50 50 0 0050 0z" fill="#40b7ae"/><path d="M71.24 62.82l-1.06-2.58c1-.41 1.86-1.29 2.94-3a5.44 5.44 0 00-3.23-.15 8.36 8.36 0 00-4.82 4.28L62.65 60c1.69-3 3.94-4.9 6.52-5.59a8.52 8.52 0 016.62 1l1.21.67-.66 1.19c-1.52 2.73-2.95 4.67-5.1 5.55zm-7.55 7.9h-.38a9.59 9.59 0 01-6.11-3l-1-1 1-1A11.19 11.19 0 0164.39 62a9.08 9.08 0 017 2.69l1 1-1 1c-2.49 2.67-5.1 4.03-7.7 4.03zm-3.43-4a6 6 0 003.19 1.24 7 7 0 004.89-2.1 6.08 6.08 0 00-3.76-1 7.73 7.73 0 00-4.32 1.82zM68.22 54l-2.78-.18c.42-6.36 4.56-10.34 10.26-9.98l1.39.09-.09 1.39c-.27 4-1.58 6.86-3.91 8.47l-1.59-2.28c1.33-.92 2.18-2.55 2.55-4.86-3.36.41-5.55 3.1-5.83 7.35z" fill="#23447d"/><path d="M65.23 46.75c-1.95-6 .41-11.28 5.86-13l1.32-.43.43 1.32c1.23 3.83 1.06 7-.51 9.33L70 42.4c.9-1.35 1.09-3.18.58-5.47-3 1.62-4 4.93-2.72 9zM28.76 62.82c-2.14-.88-3.57-2.86-5.06-5.55l-.7-1.19 1.17-.69a8.51 8.51 0 016.62-1c2.62.67 4.87 2.61 6.56 5.61l-2.42 1.38a8.36 8.36 0 00-4.82-4.28 5.44 5.44 0 00-3.23.15c1.08 1.74 1.95 2.63 2.94 3zm7.55 7.9c-2.6 0-5.21-1.35-7.77-4l-1-1 1-1a9.08 9.08 0 017-2.69 11.19 11.19 0 017.24 3.74l1 1-1 1a9.59 9.59 0 01-6.11 3h-.36zm-4.65-4.89a7 7 0 004.89 2.1 6 6 0 003.19-1.24 7.73 7.73 0 00-4.32-1.87 6.1 6.1 0 00-3.76 1.01zM31.78 54c-.28-4.23-2.47-6.92-5.84-7.32.37 2.31 1.23 3.94 2.55 4.86l-1.58 2.26c-2.33-1.62-3.65-4.47-3.91-8.47l-.09-1.39 1.39-.09c5.72-.37 9.84 3.62 10.27 9.95z" fill="#23447d"/><path d="M34.77 46.75l-2.65-.85c1.3-4 .26-7.34-2.72-9-.51 2.29-.31 4.12.58 5.47l-2.32 1.54c-1.57-2.37-1.75-5.51-.51-9.33l.43-1.32 1.32.43c5.46 1.78 7.81 7.02 5.87 13.06zM42 62.42l1.53-8.58L37 47.07l9-.92 4-8.51 4 8.51 9 .92-6.48 6.77L58 62.39l-8-3.79zm1-13.16l3.52 3.68-.83 4.64L50 55.53l4.33 2-.83-4.59 3.5-3.68-4.86-.5L50 44.17l-2.16 4.59z" fill="#23447d"/></svg>