<svg width="100" height="100" xmlns="http://www.w3.org/2000/svg"><path d="M50 2A48 48 0 112 50 48.05 48.05 0 0150 2m0-2a50 50 0 1050 50A50 50 0 0050 0z" fill="#40b7ae"/><path d="M54 63.78l-4.7 4.74-13.11-13.1-1.92-1.92L32 51.25A9.39 9.39 0 0131.88 38a9.11 9.11 0 016.49-2.66 9.51 9.51 0 016.77 2.81l.44.44 1.85-2-.37-.37a12.2 12.2 0 00-8.68-3.6A11.8 11.8 0 0030 36.08a12.1 12.1 0 00.15 17.09l2.4 2.4 2 2 12.64 12.68.12.12a3.43 3.43 0 002 1 2.7 2.7 0 001.91-.92l.21-.21 4.37-4.37a13.25 13.25 0 01-1.8-2.09z" fill="#23447d"/><path d="M68.64 36.08a11.8 11.8 0 00-8.41-3.45 12.2 12.2 0 00-8.68 3.6l-1.88 1.87-.34.37-3.24 3.32a1.35 1.35 0 101.91 1.9l4.5-4.61.91-.91a9.51 9.51 0 016.77-2.81 9.07 9.07 0 019.14 8.8A13.1 13.1 0 0172 45.44a11.86 11.86 0 00-3.36-9.36zM63 51.46a5.46 5.46 0 00-3.46 5.06 1.16 1.16 0 002.32 0 3.12 3.12 0 012-2.89 1.16 1.16 0 00-.86-2.17z" fill="#23447d"/><path d="M75.22 67.85l-3.05-3.95A10.29 10.29 0 1070 65.52l3.08 4a1.35 1.35 0 102.14-1.67zM57.4 56.52a7.6 7.6 0 117.6 7.59 7.61 7.61 0 01-7.6-7.59z" fill="#23447d"/></svg>