<svg xmlns="http://www.w3.org/2000/svg" viewBox="0 0 23 23" width="23" height="23">
	<style type="text/css">
		.st0{fill:#1d3e79;}
	</style>
	<g>
		<path class="st0" d="M16.9,4.9c0.4,0,0.8-0.4,0.8-0.8v-3c0-0.4-0.4-0.8-0.8-0.8c-0.4,0-0.8,0.4-0.8,0.8v3C16.1,4.6,16.5,4.9,16.9,4.9z"/>
		<path class="st0" d="M20,1.8h-1.6v1.6H20c0.8,0,1.4,0.7,1.4,1.6v1.7H1.6V5.1c0-0.9,0.6-1.6,1.4-1.6h1.6V1.8H3c-1.7,0-3,1.4-3,3.2v14.4c0,1.8,1.4,3.2,3,3.2H20c1.7,0,3-1.4,3-3.2V5.1C23,3.3,21.6,1.8,20,1.8z M20,21.1H3c-0.8,0-1.4-0.7-1.4-1.6V8.4h19.8v11.1C21.4,20.3,20.7,21.1,20,21.1z"/>
		<rect x="7.5" y="1.8" class="st0" width="7.9" height="1.6"/>
		<path class="st0" d="M6.1,4.9c0.4,0,0.8-0.4,0.8-0.8v-3c0-0.4-0.4-0.8-0.8-0.8c-0.4,0-0.8,0.4-0.8,0.8v3C5.3,4.6,5.7,4.9,6.1,4.9z"/>
		<path class="st0" d="M12.9,10h-2.9c-0.4,0-0.7,0.3-0.7,0.7v2.8c0,0.4,0.3,0.7,0.7,0.7h2.9c0.4,0,0.7-0.3,0.7-0.7v-2.8C13.6,10.3,13.3,10,12.9,10z M12.3,12.9h-1.5v-1.5h1.5V12.9z"/>
		<path class="st0" d="M18.6,10h-2.9c-0.4,0-0.7,0.3-0.7,0.7v2.8c0,0.4,0.3,0.7,0.7,0.7h2.9c0.4,0,0.7-0.3,0.7-0.7v-2.8C19.3,10.3,19,10,18.6,10z M17.9,12.9h-1.5v-1.5h1.5V12.9z"/>
		<path class="st0" d="M7.3,10H4.4c-0.4,0-0.7,0.3-0.7,0.7v2.8c0,0.4,0.3,0.7,0.7,0.7h2.9c0.4,0,0.7-0.3,0.7-0.7v-2.8C8,10.3,7.7,10,7.3,10z M6.6,12.9H5.1v-1.5h1.5V12.9z"/>
		<path class="st0" d="M12.9,15.3h-2.9c-0.4,0-0.7,0.3-0.7,0.7v2.8c0,0.4,0.3,0.7,0.7,0.7h2.9c0.4,0,0.7-0.3,0.7-0.7V16C13.6,15.6,13.3,15.3,12.9,15.3z M12.3,18.2h-1.5v-1.5h1.5V18.2z"/>
		<path class="st0" d="M7.3,15.3H4.4c-0.4,0-0.7,0.3-0.7,0.7v2.8c0,0.4,0.3,0.7,0.7,0.7h2.9c0.4,0,0.7-0.3,0.7-0.7V16C8,15.6,7.7,15.3,7.3,15.3z M6.6,18.2H5.1v-1.5h1.5V18.2z"/>
	</g>
</svg>
