<svg xmlns="http://www.w3.org/2000/svg" viewBox="0 0 21 21">
	<g>
		<path d="M20.7,3.1L18,0.4c-0.2-0.2-0.4-0.3-0.6-0.3c0,0,0,0,0,0c-0.2,0-0.5,0.1-0.6,0.3l-2.2,2.2c0,0,0,0,0,0c0,0,0,0,0,0l-8.3,8.3l-0.8,4.7c0,0,0,0.1,0,0.1c0,0,0,0,0.1,0l4.7-0.8l8.3-8.3c0,0,0,0,0,0c0,0,0,0,0,0l2.2-2.2C21.1,4.1,21.1,3.5,20.7,3.1z M7.5,13.6L7.8,12l1.3,1.3L7.5,13.6z M10.4,12.4l-1.7-1.7l6.4-6.4L16.9,6L10.4,12.4z M18,4.8l-1.7-1.7l1.1-1.1l1.7,1.7L18,4.8z"/>
		<path d="M15.4,19.2H1.6V5.4h8V3.8H0.8C0.4,3.8,0,4.2,0,4.6V20c0,0.5,0.4,0.8,0.8,0.8h15.4c0.5,0,0.8-0.4,0.8-0.8v-8.4h-1.6V19.2z"/>
	</g>
</svg>
