<svg width="97" height="93" xmlns="http://www.w3.org/2000/svg" viewBox="0 0 97 93">
<style type="text/css">
	.st0{fill:#4FAFA6;}
	.st1{fill:#FFFFFF;}
	.st2{fill:#435077;}
</style>
<g>
	<path class="st0" d="M41.3,92.5c-0.7,0-1.2-0.5-1.2-1.2l-1.6-31.6c0,0,0,0,0-0.1V32.4c0.1-0.7,0.7-1.2,1.4-1.1
		c0.6,0.1,1,0.5,1.1,1.1v27.3l1.6,31.6C42.6,91.9,42.1,92.5,41.3,92.5L41.3,92.5z M57.5,92.5L57.5,92.5c-0.7,0-1.3-0.6-1.2-1.3
		l1.6-31.6V32.4c0-0.7,0.6-1.2,1.2-1.2c0.7,0,1.2,0.5,1.2,1.2v27.4c0,0,0,0,0,0.1l-1.6,31.5C58.6,92,58.1,92.5,57.5,92.5z
		 M49.4,92.5c-0.7,0-1.2-0.5-1.2-1.2l0,0V60.2c0-0.7,0.5-1.2,1.2-1.2c0.7,0,1.2,0.5,1.2,1.2c0,0,0,0,0,0v31.1
		C50.6,92,50.1,92.5,49.4,92.5C49.4,92.5,49.4,92.5,49.4,92.5z M33.3,61L33.3,61c-0.7,0-1.2-0.5-1.3-1.2c0,0,0,0,0-0.1l0.3-30.9
		c0-5.9,8.5-8.6,17-8.6l0,0c3.8-0.1,7.7,0.6,11.3,1.9c4.7,2,5.7,4.7,5.7,6.7l0.3,30.8c0,0.7-0.5,1.2-1.2,1.2l0,0
		c-0.7,0-1.2-0.5-1.3-1.2c0,0,0,0,0,0l-0.3-30.8c0-4-7.6-6.2-14.5-6.2l0,0c-7,0-14.5,2.2-14.5,6.2l-0.3,30.9
		C34.5,60.5,34,61,33.3,61L33.3,61z M49.4,18.7c-0.4,0-0.8-0.1-1.2-0.1h-0.1c-2.2-0.5-4.1-1.9-5.2-3.8c-1-1.9-1.4-6.3-1.2-8.1
		c0.4-4.2,4.3-6.1,7.8-6.1s7.4,1.9,7.8,6.1l0,0c0.2,1.8-0.2,6.2-1.2,8.1c-1.2,1.9-3,3.2-5.2,3.7h-0.1C50.2,18.6,49.8,18.7,49.4,18.7
		L49.4,18.7z M48.6,16.1c0.5,0.1,1.1,0.1,1.6,0c1.5-0.3,2.7-1.2,3.6-2.5c0.7-1.2,1.1-5.1,0.9-6.7C54.5,4.2,51.9,3,49.4,3
		s-5.1,1.2-5.3,3.9c-0.2,1.6,0.3,5.5,0.9,6.7C45.8,14.9,47.1,15.8,48.6,16.1L48.6,16.1z"/>
	<circle class="st1" cx="34.1" cy="24.2" r="3.9"/>
	<path class="st2" d="M34.1,29.2c-2.7,0-4.9-2.2-4.9-4.9s2.2-4.9,4.9-4.9c2.7,0,4.9,2.2,4.9,4.9C39,27,36.8,29.2,34.1,29.2z
		 M34.1,21.4c-1.6,0-2.8,1.3-2.8,2.8s1.3,2.8,2.8,2.8c1.6,0,2.8-1.3,2.8-2.8S35.6,21.4,34.1,21.4z"/>
	<circle class="st1" cx="62.9" cy="24.2" r="3.9"/>
	<path class="st2" d="M62.9,29.2c-2.7,0-4.9-2.2-4.9-4.9c0-2.7,2.2-4.9,4.9-4.9c2.7,0,4.9,2.2,4.9,4.9v0
		C67.8,27,65.6,29.2,62.9,29.2z M62.9,21.4c-1.6,0-2.8,1.3-2.8,2.8s1.3,2.8,2.8,2.8c1.6,0,2.8-1.3,2.8-2.8S64.5,21.4,62.9,21.4z"/>
	<circle class="st1" cx="43.6" cy="58.8" r="3.9"/>
	<path class="st2" d="M43.6,63.8c-2.7,0-4.9-2.2-4.9-4.9c0-2.7,2.2-4.9,4.9-4.9c2.7,0,4.9,2.2,4.9,4.9
		C48.5,61.5,46.3,63.7,43.6,63.8z M43.6,56c-1.6,0-2.8,1.3-2.8,2.8c0,1.6,1.3,2.8,2.8,2.8c1.6,0,2.8-1.3,2.8-2.8l0,0
		C46.5,57.2,45.2,56,43.6,56C43.6,56,43.6,56,43.6,56L43.6,56z"/>
	<circle class="st1" cx="43.6" cy="76.8" r="3.9"/>
	<path class="st2" d="M43.6,81.7c-2.7,0-4.9-2.2-4.9-4.9c0-2.7,2.2-4.9,4.9-4.9c2.7,0,4.9,2.2,4.9,4.9l0,0
		C48.5,79.5,46.3,81.7,43.6,81.7z M43.6,73.9c-1.6,0-2.8,1.3-2.8,2.8c0,1.6,1.3,2.8,2.8,2.8c1.6,0,2.8-1.3,2.8-2.8
		C46.5,75.2,45.2,73.9,43.6,73.9C43.6,73.9,43.6,73.9,43.6,73.9L43.6,73.9z"/>
	<circle class="st1" cx="54.4" cy="58.8" r="3.9"/>
	<path class="st2" d="M54.4,63.8c-2.7,0-4.9-2.2-4.9-4.9c0-2.7,2.2-4.9,4.9-4.9c2.7,0,4.9,2.2,4.9,4.9
		C59.3,61.6,57.1,63.8,54.4,63.8z M54.4,56c-1.6,0-2.8,1.3-2.8,2.8c0,1.6,1.3,2.8,2.8,2.8c1.6,0,2.8-1.3,2.8-2.8l0,0
		C57.2,57.2,55.9,56,54.4,56C54.4,56,54.4,56,54.4,56L54.4,56z"/>
	<circle class="st1" cx="62.1" cy="41.5" r="3.9"/>
	<path class="st2" d="M62.1,46.5c-2.7,0-4.9-2.2-4.9-4.9c0-2.7,2.2-4.9,4.9-4.9c2.7,0,4.9,2.2,4.9,4.9l0,0
		C67,44.3,64.8,46.5,62.1,46.5z M62.1,38.7c-1.6,0-2.8,1.3-2.8,2.8s1.3,2.8,2.8,2.8c1.6,0,2.8-1.3,2.8-2.8S63.7,38.7,62.1,38.7
		C62.1,38.7,62.1,38.7,62.1,38.7z"/>
	<circle class="st1" cx="35.8" cy="41.5" r="3.9"/>
	<path class="st2" d="M35.8,46.5c-2.7,0-4.9-2.2-4.9-4.9s2.2-4.9,4.9-4.9c2.7,0,4.9,2.2,4.9,4.9C40.8,44.3,38.6,46.5,35.8,46.5z
		 M35.8,38.7c-1.6,0-2.8,1.3-2.8,2.8s1.3,2.8,2.8,2.8c1.6,0,2.8-1.3,2.8-2.8C38.7,39.9,37.4,38.7,35.8,38.7
		C35.8,38.7,35.8,38.7,35.8,38.7z"/>
	<circle class="st1" cx="54.4" cy="76.8" r="3.9"/>
	<path class="st2" d="M54.4,81.7c-2.7,0-4.9-2.2-4.9-4.9c0-2.7,2.2-4.9,4.9-4.9c2.7,0,4.9,2.2,4.9,4.9l0,0
		C59.3,79.5,57.1,81.7,54.4,81.7z M54.4,73.9c-1.6,0-2.8,1.3-2.8,2.8c0,1.6,1.3,2.8,2.8,2.8c1.6,0,2.8-1.3,2.8-2.8
		C57.2,75.2,55.9,73.9,54.4,73.9C54.4,73.9,54.4,73.9,54.4,73.9L54.4,73.9z"/>
</g>
</svg>
