<svg width="97" height="93" xmlns="http://www.w3.org/2000/svg" viewBox="0 0 97 93">
<style type="text/css">
	.st0{fill:#424E75;}
	.st1{fill:#4FAFA6;}
</style>
<g>
	<path class="st0" d="M36.9,69.3c-1.8,0-3.5-1.1-4.3-2.7c-2.4-0.3-4.2-2.4-4.2-4.8c-0.1-1,0.1-2.1,0.7-3c-3.2-1.3-4.8-4.9-3.5-8.1
		c0.2-0.4,0.4-0.8,0.6-1.2c-2.3-2-2.8-5.4-1.1-8c-1.4-1.8-1.3-4.3,0.1-6c-1.3-2.3-0.4-5.2,1.9-6.5c0.4-0.2,0.8-0.4,1.3-0.5
		c0-0.2,0-0.5,0-0.7c0.1-2.7,2.4-4.7,5-4.6c2.5,0.1,4.4,2.1,4.6,4.6c0,0.3,0,0.5-0.1,0.8c1.4,0.9,2.2,2.4,2.2,4c0,0.2,0,0.5,0,0.7
		c0.6,0.5,1,1.1,1.3,1.8c2.3-0.7,4.8,0,6.5,1.8c1.3-0.6,2.7-0.6,3.9,0c1.3-0.8,2.8-1.1,4.3-0.9c0.2-0.3,0.5-0.6,0.7-0.9
		c-0.9-2.1-0.2-4.7,1.8-5.9c0-0.1,0-0.2,0-0.3c0.4-2.6,2.8-4.5,5.4-4.1c2,0.3,3.6,1.7,4,3.7c2.6,0.6,4.2,3.1,3.7,5.7
		c-0.2,0.7-0.5,1.4-1,2c2.4,2,3,5.4,1.4,8.1c1.3,2.1,1.2,4.9-0.3,6.9c0.7,0.8,1.1,1.9,1.1,3c0,2.2-1.5,4.1-3.6,4.7
		c0,0.2,0,0.3,0,0.5c0,2.6-1.6,4.9-4,5.8c-1.3,2.3-4.3,3.1-6.6,1.7c-1.7-1-2.6-2.9-2.3-4.9c-0.4-0.2-0.7-0.5-1-0.9h-0.2
		c-1.6,0-3.2-0.9-4-2.2c-1.6,0.4-3.4,0.2-4.8-0.7c-1,0.6-2,0.9-3.2,0.9c-0.6,1-1.4,1.9-2.5,2.5c1.6,2.1,1.2,5.1-1,6.7
		C38.9,69,37.9,69.3,36.9,69.3z M33.3,64.4c0.5,0,0.9,0.3,1.1,0.8c0.4,1.4,1.9,2.1,3.3,1.7c1.4-0.4,2.1-1.9,1.7-3.3
		c-0.2-0.6-0.6-1.2-1.2-1.5c-0.5-0.3-0.7-1-0.4-1.5c0.2-0.3,0.4-0.4,0.7-0.5c1.4-0.2,2.5-1.2,3-2.4c0.2-0.5,0.7-0.8,1.2-0.7h0.5
		c0.9,0,1.8-0.3,2.5-0.9c0.4-0.3,1-0.3,1.4,0c0.7,0.6,1.6,0.9,2.5,0.9c0.6,0,1.1-0.1,1.6-0.4c0.6-0.2,1.2,0,1.5,0.6c0,0,0,0,0,0
		c0.4,1,1.3,1.7,2.4,1.7c0.2,0,0.3,0,0.5,0c0.4-0.1,0.9,0.1,1.1,0.5c0.3,0.5,0.8,0.8,1.3,1c0.6,0.2,0.9,0.9,0.6,1.4c0,0,0,0,0,0
		c-0.1,0.3-0.2,0.6-0.2,1c0,1.4,1.2,2.6,2.6,2.6c1,0,1.9-0.6,2.4-1.5c0.1-0.3,0.4-0.6,0.7-0.6c2.1-0.6,3.3-2.8,2.7-5c0,0,0,0,0-0.1
		c-0.2-0.6,0.2-1.2,0.8-1.4c0.1,0,0.2,0,0.3,0h0.1c1.4,0,2.6-1.2,2.6-2.6c0-0.8-0.4-1.6-1-2.1c-0.5-0.4-0.6-1.1-0.2-1.6
		c0,0,0.1-0.1,0.1-0.1c1.5-1.4,1.7-3.8,0.4-5.4c-0.3-0.4-0.3-1,0-1.4c1.4-1.7,1.2-4.2-0.5-5.6c-0.3-0.2-0.6-0.4-0.9-0.6
		c-0.6-0.3-0.8-0.9-0.5-1.5c0.1-0.2,0.2-0.4,0.4-0.5c1.2-0.7,1.7-2.3,0.9-3.6c-0.5-0.8-1.3-1.3-2.2-1.3l0,0c-0.6,0-1.2-0.4-1.2-1
		c0-0.1,0-0.2,0-0.3c0-0.1,0-0.3,0-0.4c0-1.4-1.2-2.6-2.6-2.6c-1.4,0-2.6,1.2-2.6,2.6c0,0.2,0,0.4,0.1,0.6c0.1,0.5-0.1,1.1-0.6,1.3
		c-1,0.4-1.6,1.3-1.6,2.4c0,0.6,0.2,1.1,0.5,1.5c0.4,0.5,0.3,1.2-0.2,1.6c0,0,0,0-0.1,0c-0.5,0.3-0.9,0.8-1.1,1.3
		c-0.2,0.6-0.8,0.8-1.4,0.7c-0.4-0.1-0.8-0.2-1.2-0.2c-0.9,0-1.8,0.3-2.5,0.9c-0.4,0.3-0.9,0.3-1.3,0.1c-0.4-0.3-0.9-0.4-1.4-0.4
		c-0.6,0-1.2,0.2-1.6,0.6c-0.5,0.4-1.2,0.3-1.6-0.2c0,0,0,0-0.1-0.1c-1.2-1.8-3.6-2.4-5.4-1.4c-0.5,0.3-1.2,0.1-1.5-0.4
		c-0.1-0.1-0.1-0.3-0.1-0.4c-0.1-0.8-0.5-1.6-1.2-2c-0.4-0.3-0.6-0.8-0.5-1.3c0.1-0.3,0.1-0.5,0.1-0.8c0-1.1-0.6-2-1.6-2.4
		c-0.6-0.2-0.9-0.9-0.6-1.4c0.1-0.3,0.2-0.6,0.2-1c0-1.4-1.2-2.6-2.6-2.6c-1.4,0-2.6,1.2-2.6,2.6c0,0,0,0,0,0c0,0.4,0.1,0.8,0.3,1.2
		c0.3,0.6,0,1.2-0.5,1.5c-0.2,0.1-0.4,0.1-0.6,0.1h-0.3c-1.4,0-2.6,1.2-2.6,2.6c0,0.6,0.2,1.2,0.6,1.7c0.4,0.5,0.3,1.2-0.2,1.6
		c0,0,0,0,0,0c-1.1,0.9-1.4,2.5-0.5,3.6c0.1,0.2,0.3,0.3,0.4,0.4c0.5,0.4,0.5,1.1,0.1,1.6c-1.5,1.7-1.4,4.2,0.3,5.7
		c0.2,0.2,0.4,0.4,0.7,0.5c0.5,0.3,0.7,1,0.4,1.5c0,0.1-0.1,0.1-0.2,0.2c-1.6,1.6-1.6,4.1,0,5.7c0.7,0.8,1.8,1.2,2.8,1.2
		c0.6,0,1.1,0.5,1.1,1.2c0,0.3-0.2,0.6-0.4,0.8c-1.3,1-1.5,1.3-1.5,2.8c0,1.4,1.1,2.6,2.6,2.6c0,0,0,0,0,0H33.3z M33.1,64.4
		L33.1,64.4z M67,30.7L67,30.7z"/>
	<path class="st1" d="M37.3,87.6c-0.6,0-1.1-0.5-1.1-1.1V74.3c0-0.6,0.5-1.1,1.1-1.1s1.1,0.5,1.1,1.1v12.2
		C38.4,87.1,37.9,87.6,37.3,87.6z"/>
	<path class="st1" d="M59.9,87.6c-0.6,0-1.1-0.5-1.1-1.1V74.3c0-0.6,0.5-1.1,1.1-1.1s1.1,0.5,1.1,1.1v12.2
		C61,87.1,60.5,87.6,59.9,87.6z"/>
	<path class="st1" d="M32.3,19.5c-0.4,0-0.8-0.2-1-0.6L29.9,16c-0.2-0.4-0.4-0.9-0.4-1.5c0.1-0.7,0.3-1.4,0.8-2
		c2.9-3.6,6.9-6.2,11.4-7.2c0.3-0.1,0.7,0,1,0.3h0.1C43,5.8,43.1,6,43.3,6.2c0.5,1,0.9,2,1.2,3c0.5,1.5,1.1,3,1.8,4.5
		c0.9,1.7,1.4,1.7,1.5,1.7l0,0c0.6,0,1.1,0.5,1.1,1.1c0,0.6-0.5,1.1-1.1,1.1h0c-2.6,0-4.1-4.1-5.4-7.6c-0.3-0.9-0.6-1.7-0.9-2.2
		c-3.7,1-7.1,3.2-9.5,6.2c-0.2,0.2-0.3,0.4-0.4,0.6c0,0.2,0.1,0.3,0.2,0.5l1.3,2.9c0.2,0.6-0.1,1.2-0.7,1.4
		C32.5,19.5,32.4,19.5,32.3,19.5z"/>
	<path class="st1" d="M64.3,19.5c-0.6,0-1.1-0.5-1.1-1.1c0-0.1,0-0.3,0.1-0.4l1.3-2.8c0.1-0.2,0.2-0.3,0.2-0.5
		c-0.1-0.2-0.2-0.4-0.4-0.6c-2.4-3-5.7-5.2-9.5-6.2c-0.2,0.5-0.5,1.1-0.9,1.9c-1.6,3.6-3.5,8-6,8c-0.2,0-0.3,0-0.5,0
		c-0.6-0.2-0.9-0.9-0.6-1.5c0.2-0.4,0.6-0.7,1.1-0.7c0,0,0.6,0,1.7-1.8c0.9-1.6,1.7-3.2,2.4-4.9c0.3-0.9,0.7-1.7,1.1-2.5
		c0.1-0.2,0.3-0.4,0.4-0.5h0.1c0.3-0.2,0.6-0.3,1-0.3c4.5,1,8.6,3.6,11.4,7.2c0.5,0.5,0.8,1.2,0.8,2c0,0.5-0.2,1-0.4,1.5l-1.3,2.7
		C65.1,19.3,64.7,19.5,64.3,19.5z"/>
	<path class="st1" d="M48.7,85.7c-2.3,0-4.7-0.3-6.9-1.1c-0.6-0.1-1-0.7-0.9-1.3c0.1-0.6,0.7-1,1.3-0.9c0.1,0,0.3,0.1,0.4,0.1
		c3.9,1.4,8.1,1.4,12,0c0.5-0.3,1.2-0.2,1.6,0.3c0.3,0.5,0.2,1.2-0.3,1.6c-0.1,0.1-0.2,0.1-0.4,0.2C53.3,85.4,51,85.8,48.7,85.7z"/>
	<path class="st1" d="M48.7,75.6c-2.3,0-4.7-0.3-6.9-1.1c-0.6-0.1-1-0.7-0.9-1.3c0.1-0.6,0.7-1,1.3-0.9c0.1,0,0.3,0.1,0.4,0.1
		c3.9,1.4,8.1,1.4,12,0c0.5-0.3,1.2-0.2,1.6,0.3c0.3,0.5,0.2,1.2-0.3,1.6c-0.1,0.1-0.2,0.1-0.4,0.2C53.3,75.3,51,75.7,48.7,75.6z"/>
	<path class="st1" d="M48.7,28.9c-2.3,0-4.7-0.3-6.9-1.1c-0.6-0.1-1-0.7-0.9-1.3c0.1-0.6,0.7-1,1.3-0.9c0.1,0,0.3,0.1,0.4,0.1
		c3.9,1.4,8.1,1.4,12,0c0.5-0.3,1.2-0.2,1.6,0.3c0.3,0.5,0.2,1.2-0.3,1.6c-0.1,0.1-0.2,0.1-0.4,0.2C53.3,28.5,51,28.9,48.7,28.9z"/>
</g>
</svg>
