<svg width="97" height="93" xmlns="http://www.w3.org/2000/svg" viewBox="0 0 97 93">
<style type="text/css">
	.st0{fill:#435077;}
	.st1{fill:#FFFFFF;}
	.st2{fill:#4FAFA6;}
</style>
<g>
	<path class="st0" d="M65.9,45.7c-0.6-0.7-1.3-1.3-2-1.8c-0.3-0.2-0.6-0.4-0.9-0.6c-4.4,0.2-6.7-0.5-8.1-1.2V16.1
		c0-1.4-1.2-1.7-2.6-1.7c-1.4,0-2.6,0.3-2.6,1.7v28.2c0.8,0.8,1.8,1.5,2.8,2.1c0.8,0.4,1.6,0.7,2.4,1v-2.5c2.2,0.7,4.6,1,6.9,1
		C63.1,45.9,64.5,45.8,65.9,45.7z"/>
	<path class="st1" d="M55.3,47.8l-0.5-0.2c-0.8-0.3-1.6-0.6-2.4-1c-1.1-0.6-2-1.3-2.9-2.1l-0.1-0.1V16.2c0-2.1,2.1-2.1,2.9-2.1
		s2.9,0,2.9,2.1v25.6c2.5,1,5.2,1.3,7.8,1.1h0.1l0.1,0.1c0.2,0.2,0.4,0.3,0.6,0.5l0.3,0.1c0.8,0.5,1.5,1.1,2.1,1.8l0.4,0.5L65.9,46
		c-1.5,0.1-2.9,0.2-4.1,0.2c-2.2,0-4.4-0.2-6.6-0.9L55.3,47.8L55.3,47.8z M50.1,44.1c0.8,0.8,1.7,1.4,2.6,1.9
		c0.6,0.3,1.2,0.6,1.9,0.8v-2.5l0.5,0.2c2.2,0.7,4.5,1,6.8,1c1,0,2.2,0,3.4-0.1c-0.5-0.4-0.9-0.8-1.5-1.2L63.5,44l-0.6-0.4
		c-3.5,0.1-6.2-0.3-8.2-1.3l-0.2-0.1V16.1c0-0.8-0.4-1.4-2.3-1.4c-1.9,0-2.3,0.6-2.3,1.4C50.1,16.1,50.1,44.1,50.1,44.1z"/>
	<path class="st0" d="M49.7,75.5v1.2c0,1.4,1.2,2,2.6,2c1.4,0,2.6-0.5,2.6-2V52.4c-1.8-0.3-3.5-0.8-5.2-1.5L49.7,75.5L49.7,75.5z"/>
	<path class="st1" d="M52.3,79c-2.6,0-2.9-1.4-2.9-2.3V50.4l0.5,0.1l0.4,0.2c1.5,0.6,3.1,1,4.7,1.3h0.3v24.7
		C55.3,77.6,54.9,79,52.3,79z M50.1,51.4v25.4c0,0.4,0,1.6,2.3,1.6c2.3,0,2.3-1.2,2.3-1.6V52.6C53,52.4,51.5,51.9,50.1,51.4z"/>
	<path class="st0" d="M30.5,43.9c0.7-0.5,1.3-1,1.9-1.5c4.7-3.1,6.1-9.4,3-14.2c-2.4-3.7-6.8-5.4-11.1-4.3
		c-5.5,1.3-12,6.3-15.5,14.7c-5.2,12.4,0.7,31,13.4,35.1c1.4,0.4,2.8,0.7,4.2,0.7c5.7-0.3,10-5.1,9.7-10.7c-0.1-2.4-1-4.6-2.6-6.4
		c-2.1-3-5.5-4.5-6-7C27.1,47.5,27.5,46,30.5,43.9z M24.1,50.9c0.5,2.6,2.4,4.3,4,5.7c0.9,0.8,1.8,1.7,2.5,2.6
		c0.1,0.1,0.2,0.2,0.3,0.3c2.5,2.8,2.3,7.1-0.6,9.6c-1.1,1-2.5,1.6-4,1.7c-1,0-1.9-0.2-2.9-0.4l-0.2-0.1c-4.3-1.4-7.9-5-10.3-10.2
		c-1.5-3.3-2.4-6.8-2.5-10.4c-0.2-3.4,0.3-6.8,1.6-10c3.3-7.8,9.1-11.7,13.1-12.7h0.1c3.7-0.8,7.3,1.5,8.2,5.1
		c0.6,2.7-0.5,5.6-2.8,7.2c-0.2,0.1-0.3,0.2-0.5,0.4c-0.5,0.4-1,0.9-1.6,1.3C24.6,43.9,23.3,46.6,24.1,50.9z"/>
	<path class="st1" d="M26.4,74.7L26.4,74.7c-1.5,0-2.9-0.2-4.3-0.7c-5.3-1.7-9.8-6-12.7-12.2c-3.5-7.6-3.9-16.6-1-23.4
		c1.6-3.9,4-7.3,7.1-10.2c2.5-2.3,5.4-3.9,8.6-4.8c5.7-1.5,11.5,1.9,13,7.5c1.2,4.5-0.7,9.2-4.6,11.7c-0.6,0.5-1.2,1-1.9,1.5l0,0
		c-3,2.1-3.3,3.5-2.8,6c0.2,1.3,1.4,2.4,2.8,3.6c1.1,1,2.2,2,3.1,3.2c3.9,4.3,3.6,11-0.8,15C31.1,73.6,28.8,74.5,26.4,74.7
		L26.4,74.7L26.4,74.7z M26.9,23.8c-0.9,0-1.7,0.1-2.5,0.3c-4.7,1.1-11.6,5.6-15.3,14.5c-2.8,6.7-2.4,15.4,1,22.8
		c2.8,6,7.1,10.2,12.2,11.8l0,0c1.3,0.4,2.7,0.6,4.1,0.6c5.5-0.3,9.7-4.9,9.4-10.4c-0.1-2.3-1-4.4-2.5-6.1l0,0
		c-0.9-1.2-1.9-2.2-3-3.2c-1.5-1.3-2.7-2.5-3-4c-0.6-3,0.2-4.6,3.1-6.7l0,0c0.6-0.5,1.3-0.9,1.9-1.5l0,0c4.7-2.9,6.1-9,3.2-13.6
		C33.6,25.6,30.4,23.8,26.9,23.8z M26.3,71.2L26.3,71.2c-1,0-2-0.2-3-0.5l-0.2-0.1c-4.4-1.4-8.1-5.1-10.6-10.3
		c-1.5-3.3-2.4-6.9-2.6-10.5c-0.2-3.4,0.3-6.9,1.6-10.1C15,31.8,20.9,27.8,25,26.9h0.1c3.8-1,7.7,1.2,8.7,5c0.8,3-0.4,6.2-3.1,7.9
		c-0.1,0.1-0.3,0.2-0.4,0.3c-0.5,0.5-1,0.9-1.6,1.3c-3.8,2.7-5,5.4-4.2,9.4c0.5,2.5,2.3,4.1,3.9,5.5c1,0.8,1.8,1.7,2.6,2.7
		c0.1,0.1,0.1,0.2,0.2,0.3c2.6,2.9,2.4,7.4-0.5,10.1C29.5,70.5,27.9,71.1,26.3,71.2L26.3,71.2L26.3,71.2z M26.9,27.3
		c-0.6,0-1.1,0.1-1.7,0.2h-0.1c-3.9,1-9.7,4.8-12.9,12.5c-1.2,3.1-1.8,6.5-1.5,9.8c0.2,3.5,1,7,2.5,10.2c2.4,5.1,5.9,8.6,10.1,10
		l0.2,0.1c0.9,0.3,1.8,0.4,2.7,0.4c3.5-0.2,6.2-3.3,6-6.8c-0.1-1.4-0.7-2.8-1.6-3.9c-0.1-0.1-0.2-0.2-0.3-0.3
		c-0.7-0.9-1.6-1.8-2.5-2.6c-1.7-1.5-3.6-3.2-4.1-5.9l0,0c-0.8-4.4,0.4-7.3,4.5-10.1c0.5-0.4,1.1-0.8,1.6-1.2
		c0.2-0.1,0.3-0.3,0.5-0.4c3-1.9,3.9-5.9,2.1-8.9C31.2,28.4,29.1,27.3,26.9,27.3L26.9,27.3z"/>
	<path class="st0" d="M88.2,38.5c-3.5-8.4-10-13.4-15.5-14.7c-5.5-1.4-11.1,1.9-12.4,7.4c-1.1,4.2,0.7,8.7,4.3,11.1
		c0.6,0.5,1.2,1,1.9,1.5c2.9,2.1,3.5,3.6,2.9,6.3c-0.5,2.5-3.8,4-5.9,7c-3.8,4.2-3.5,10.7,0.7,14.5c1.7,1.6,4,2.5,6.3,2.6
		c1.4,0,2.8-0.2,4.2-0.7C87.5,69.6,93.4,50.9,88.2,38.5z M86.6,49.8c-0.2,3.6-1,7.1-2.5,10.4C81.7,65.4,78,69,73.7,70.4l-0.2,0.1
		c-0.9,0.3-1.9,0.4-2.9,0.4c-3.8-0.3-6.6-3.5-6.3-7.3c0.1-1.5,0.7-2.9,1.7-4c0.1-0.1,0.2-0.2,0.3-0.3c0.7-1,1.6-1.8,2.5-2.6
		c1.7-1.5,3.5-3.2,4-5.7c0.8-4.3-0.4-7-4.3-9.8c-0.5-0.4-1.1-0.8-1.6-1.3c-0.1-0.1-0.3-0.2-0.5-0.4c-3.1-2.1-3.9-6.4-1.8-9.5
		c1.6-2.3,4.4-3.4,7.2-2.8h0.1c4,1,9.9,4.9,13.1,12.7C86.3,43,86.8,46.4,86.6,49.8z"/>
	<path class="st1" d="M70.6,74.7L70.6,74.7c-5.8-0.3-10.3-5.3-10-11.1c0.1-2.4,1.1-4.7,2.7-6.5c0.9-1.2,1.9-2.3,3.1-3.2
		c1.4-1.2,2.6-2.3,2.8-3.6c0.5-2.5,0.2-3.9-2.8-6c-0.7-0.5-1.3-1-1.9-1.5C59.5,39.5,58,33,61.2,28c2.5-3.9,7.2-5.8,11.7-4.6
		c3.2,0.9,6.2,2.5,8.6,4.8c3.1,2.8,5.5,6.3,7.1,10.2l0,0c2.9,6.8,2.5,15.8-1,23.4c-2.8,6.2-7.3,10.5-12.7,12.2
		C73.5,74.4,72.1,74.7,70.6,74.7z M70.1,23.8c-5.5,0-9.9,4.4-9.9,9.9c0,3.4,1.7,6.6,4.6,8.4l0,0c0.6,0.5,1.2,1,1.9,1.5
		c2.9,2.1,3.7,3.7,3.1,6.7c-0.3,1.5-1.6,2.7-3,4c-1.1,0.9-2.1,2-3,3.1l0,0c-3.7,4.1-3.3,10.3,0.7,14c1.7,1.5,3.8,2.4,6.1,2.5
		c1.4,0,2.7-0.2,4.1-0.6l0,0c5.1-1.6,9.5-5.9,12.2-11.8c3.4-7.4,3.8-16.2,1-22.8l0,0c-3.7-8.9-10.5-13.4-15.3-14.5
		C71.8,23.9,71,23.8,70.1,23.8z M70.7,71.2L70.7,71.2c-3.9-0.2-6.9-3.6-6.7-7.5c0.1-1.6,0.7-3.2,1.8-4.4c0.1-0.1,0.2-0.2,0.3-0.3
		c0.8-1,1.6-1.9,2.6-2.7c1.6-1.5,3.4-3.1,3.9-5.6c0.8-4.1-0.4-6.7-4.2-9.4c-0.6-0.4-1.1-0.8-1.6-1.3c-0.1-0.1-0.3-0.2-0.4-0.3
		c-3.3-2.1-4.3-6.5-2.2-9.8c1.7-2.6,4.8-3.9,7.8-3.1H72c4.1,1,10,5,13.4,12.9c1.3,3.2,1.8,6.7,1.6,10.1c-0.2,3.6-1,7.2-2.5,10.5
		c-2.4,5.3-6.2,8.9-10.6,10.3l-0.2,0.1C72.7,71,71.7,71.2,70.7,71.2L70.7,71.2L70.7,71.2z M70.1,27.3c-3.6,0-6.4,2.9-6.4,6.4
		c0,2.2,1.1,4.3,3,5.5c0.2,0.1,0.3,0.2,0.5,0.4c0.5,0.4,1,0.8,1.6,1.2c4,2.9,5.3,5.7,4.5,10.1c-0.5,2.7-2.4,4.4-4.1,5.9
		c-0.9,0.8-1.8,1.6-2.5,2.6c-0.1,0.1-0.2,0.2-0.3,0.3c-2.4,2.6-2.2,6.7,0.5,9.1c1.1,1,2.4,1.5,3.9,1.6c0.9,0,1.8-0.1,2.7-0.4
		l0.2-0.1c4.2-1.3,7.8-4.9,10.1-10c1.5-3.2,2.3-6.7,2.5-10.2l0,0c0.2-3.3-0.3-6.7-1.5-9.8c-3.2-7.7-9-11.5-12.9-12.5h-0.1
		C71.2,27.4,70.7,27.3,70.1,27.3L70.1,27.3z"/>
	<path class="st2" d="M49.9,48.1c-1-0.5-2-1.2-2.9-2.1V16.1c0-1.4-1.2-1.7-2.6-1.7s-2.6,0.3-2.6,1.7v28c-2.3,0.9-4.7,1.4-7.1,1.7
		c-1.4,0.2-2.7,0.3-4.1,0.3c-0.5,0.7-0.7,1.6-0.7,2.5l1.1,0.1c1.2,0,2.6-0.1,4-0.3c2.3-0.3,4.6-0.8,6.9-1.6v1.4
		c-3.6,2-8.2,2.3-11.7,2.3c0.4,1,1,1.9,1.9,2.6c3.4,0,6.7-0.7,9.9-2v25.5c0,1.4,1.2,2,2.6,2s2.6-0.5,2.6-2V49.4
		c0.8,0.5,1.7,1,2.6,1.4c3.2,1.4,6.8,2,10.3,1.8c1.7-0.1,3.7-0.1,5.7-0.4c0.6-0.6,1-1.3,1.1-2.1c0-0.2,0.1-0.5,0.1-0.7
		C57.9,50.8,52.8,49.5,49.9,48.1z"/>
	<path class="st1" d="M44.5,79c-2.6,0-2.9-1.4-2.9-2.3v-25c-3,1.2-6.3,1.8-9.5,1.8h-0.1l-0.1-0.1c-0.9-0.7-1.5-1.7-2-2.7l-0.1-0.5
		h0.4c3.2,0.1,7.8-0.3,11.4-2.1v-0.7c-2.1,0.7-4.3,1.2-6.5,1.4c-1.3,0.2-2.7,0.3-4,0.3l0,0L29.9,49h-0.3v-0.4c0-1,0.2-1.9,0.8-2.7
		l0.1-0.1h0.2c1.4,0,2.7-0.1,4-0.3c2.3-0.3,4.6-0.8,6.8-1.6V16.1c0-2.1,2.1-2.1,2.9-2.1s2.9,0,2.9,2.1v29.8c0.8,0.8,1.7,1.4,2.7,1.9
		c2.7,1.4,7.7,2.7,16.8,1.4l0.4-0.1l-0.1,0.4v0.2c0,0.2,0,0.3-0.1,0.5c-0.2,0.8-0.6,1.6-1.2,2.3l-0.1,0.1h-0.1
		c-1.6,0.2-3.2,0.3-4.6,0.3H60c-3.6,0.2-7.1-0.4-10.4-1.9c-0.7-0.3-1.5-0.7-2.1-1.1v26.8C47.4,77.6,47.1,79,44.5,79z M42.2,50.7v26
		c0,0.4,0,1.6,2.3,1.6c2.3,0,2.3-1.2,2.3-1.6V48.8l0.5,0.3l0.4,0.3c0.7,0.4,1.4,0.8,2.2,1.1c3.2,1.3,6.7,2,10.1,1.8h1.2
		c1.3,0,2.9-0.1,4.4-0.3c0.5-0.5,0.8-1.1,1-1.8c0-0.1,0-0.2,0-0.2c-9,1.2-14.1-0.2-16.8-1.6l0,0c-1.1-0.6-2.1-1.3-2.9-2.1l-0.1-0.1
		V16.1c0-0.8-0.4-1.4-2.3-1.4s-2.3,0.6-2.3,1.4v28.3L42,44.5c-2.3,0.9-4.7,1.4-7.2,1.7c-1.3,0.2-2.6,0.3-3.9,0.3
		c-0.3,0.6-0.5,1.2-0.5,1.9l0.7,0.1c1.3,0,2.6-0.1,3.9-0.3c2.3-0.3,4.6-0.8,6.8-1.5l0.5-0.2v2l-0.2,0.1c-3.5,1.9-7.9,2.3-11.2,2.3
		h-0.2c0.4,0.7,0.9,1.4,1.5,1.9c3.3,0,6.5-0.7,9.6-2L42.2,50.7z"/>
</g>
</svg>
