<svg width="97" height="93" xmlns="http://www.w3.org/2000/svg" viewBox="0 0 97 93">
<style type="text/css">
	.st0{fill:#424E75;}
	.st1{fill:#4FAFA6;}
</style>
<g>
	<path class="st0" d="M39.7,53.8c-0.1,0-0.2,0-0.3-0.1c-2-0.7-3.9-1.7-5.6-2.9c-2.5-1.7-4.6-3.9-6.3-6.5c-2.7-4.2-4.2-9.1-4.5-14.1
		c0-0.3,0.1-0.6,0.3-0.8c0.2-0.2,0.5-0.3,0.7-0.3c4.6,0.2,9,1.5,13,3.7c0-3.5,1.2-7,3.4-9.7c0.4-0.4,1-0.5,1.4-0.1
		c0.4,0.3,0.5,0.9,0.2,1.3c-4.2,5.5-2.8,10.2-2.7,10.2c0.2,0.5,0,1.1-0.5,1.3c-0.3,0.1-0.7,0.1-1-0.1c-3.7-2.6-8.1-4.2-12.6-4.6
		c0.4,4.3,1.8,8.4,4.1,12c1.5,2.3,3.5,4.3,5.7,5.9c1.6,1.1,3.3,2,5.1,2.6c0.5,0.2,0.8,0.8,0.6,1.3C40.5,53.6,40.1,53.8,39.7,53.8z"
		/>
	<path class="st0" d="M34.5,60.3c-4.5,0-8.9-1.3-12.7-3.6c-3-1.8-5.6-4.1-7.8-6.8c-0.3-0.4-0.3-1.1,0.2-1.4c0.1-0.1,0.3-0.2,0.5-0.2
		c0.2-0.1,1.7-0.8,2.9-1.5c1.9-1,4-2.1,5.2-2.5l0.6-0.2c-1-1.5-1.6-3.1-1.9-4.8c-0.1-0.5,0.3-1,0.8-1.1c0.5-0.1,1,0.3,1.1,0.8
		c0.4,1.9,1.2,3.6,2.4,5.1c0.3,0.4,0.2,1.1-0.2,1.4c-0.1,0.1-0.3,0.2-0.4,0.2c-0.6,0.1-1.1,0.2-1.6,0.4c-1.1,0.5-3.3,1.6-5.1,2.5
		l-2.1,1.1c1.8,2.1,4,3.9,6.4,5.3c3.5,2.2,7.5,3.3,11.7,3.4h0.3c3.8-0.1,7.5-1.1,10.8-2.9c0.8-0.5,1.6-1,2.3-1.6
		c0.4-0.4,1-0.4,1.4,0c0.4,0.4,0.4,1,0,1.4c0,0-0.1,0.1-0.1,0.1c-0.8,0.7-1.7,1.4-2.7,1.9c-3.6,2-7.7,3.1-11.8,3.2H34.5z"/>
	<path class="st0" d="M48.5,55.4c-0.3,0-0.6-0.1-0.8-0.3l-0.5-0.6l-0.1-0.1c-3.6-3.8-5.9-8.5-6.7-13.7c-0.1-1-0.2-2.1-0.2-3.1
		c0-6.6,2.5-12.9,6.9-17.8l0.6-0.7c0.2-0.2,0.5-0.4,0.8-0.4c0.3,0,0.6,0.2,0.8,0.3l0.7,0.8c4.4,4.9,6.8,11.2,6.9,17.8
		c0,1-0.1,2.1-0.2,3.1c-0.8,5.1-3.1,9.9-6.7,13.7l-0.1,0.1L49.3,55C49.1,55.2,48.8,55.4,48.5,55.4C48.5,55.4,48.5,55.4,48.5,55.4z
		 M48.5,21.2c-4,4.5-6.3,10.3-6.4,16.3c0,1,0.1,1.9,0.2,2.9c0.7,4.7,2.9,9,6.1,12.5c3.3-3.4,5.4-7.8,6.1-12.5
		c0.2-0.9,0.3-1.9,0.3-2.8l0,0C54.8,31.5,52.6,25.7,48.5,21.2z"/>
	<path class="st0" d="M57.4,53.8c-0.6,0-1-0.4-1-1c0-0.4,0.3-0.8,0.7-1c1.8-0.7,3.5-1.5,5.1-2.6c2.3-1.6,4.2-3.6,5.7-5.9
		c2.3-3.6,3.7-7.7,4.1-11.9c-4.5,0.4-8.9,1.9-12.6,4.6c-0.5,0.3-1.1,0.2-1.4-0.2c-0.2-0.3-0.2-0.6-0.1-0.9c0.1-0.2,1.5-4.8-2.7-10.2
		c-0.3-0.5-0.2-1.1,0.3-1.4c0.4-0.3,1-0.2,1.3,0.2c2.3,2.7,3.5,6.2,3.4,9.7c4-2.3,8.4-3.6,13-3.7c0.3,0,0.5,0.1,0.7,0.3
		c0.2,0.2,0.3,0.5,0.3,0.7c-0.3,5-1.8,9.8-4.5,14c-1.6,2.5-3.8,4.7-6.3,6.5c-1.7,1.2-3.6,2.2-5.6,2.9C57.6,53.8,57.5,53.8,57.4,53.8
		z"/>
	<path class="st0" d="M62.5,60.3h-0.2c-4.1-0.1-8.2-1.2-11.8-3.2c-0.9-0.6-1.8-1.2-2.6-1.9c-0.4-0.3-0.5-1-0.2-1.4
		c0.3-0.4,1-0.5,1.4-0.2c0,0,0.1,0,0.1,0.1c0.7,0.6,1.5,1.2,2.3,1.7c3.3,1.8,7,2.8,10.8,2.9h0.2c4.1,0,8.2-1.2,11.7-3.4
		c2.4-1.4,4.5-3.2,6.4-5.3l-2.1-1.1c-1.8-0.9-3.9-2-5.1-2.5c-0.5-0.2-1-0.3-1.6-0.4c-0.6-0.1-0.9-0.6-0.9-1.1c0-0.2,0.1-0.3,0.2-0.5
		c1.2-1.5,2-3.3,2.4-5.1c0.1-0.5,0.6-0.9,1.1-0.8c0.5,0.1,0.9,0.6,0.8,1.1c-0.3,1.7-1,3.3-1.9,4.8l0.6,0.2c1.2,0.5,3.3,1.6,5.2,2.5
		c1.2,0.6,2.7,1.4,3,1.5c0.3,0.1,0.6,0.3,0.7,0.6c0.1,0.3,0,0.7-0.2,1c-2.2,2.7-4.8,5-7.8,6.8C71.4,59,67,60.2,62.5,60.3z"/>
	<path class="st1" d="M44.8,65.2c-5,0-9.5-0.2-13.2-0.5c-7.4-0.7-8-1.7-8-2.7c0-0.6,0.4-1,1-1.1l0,0c0.4,0,0.8,0.3,0.9,0.6
		c1.4,0.8,9.9,1.8,23.2,1.6s21.8-1.5,23.2-2.4c0.2-0.4,0.5-0.6,0.9-0.7l0,0c0.5,0,1,0.4,1,1c0.1,3.2-15.6,3.9-25,4.1
		C47.4,65.1,46.1,65.2,44.8,65.2z M71.7,61L71.7,61z"/>
	<path class="st1" d="M43.3,69.3c-10.3,0-27.4-0.5-27.4-4c0-0.6,0.4-1,1-1.1c0.5,0,0.8,0.3,1,0.7c1.5,1.2,12.8,2.5,30.9,2.2
		s29.3-2.1,30.7-3.3c0.1-0.4,0.5-0.7,1-0.8l0,0c0.5,0,1,0.4,1,1c0.1,4.2-25,5-32.7,5.1C47.4,69.3,45.5,69.3,43.3,69.3z M79.5,64.2
		L79.5,64.2z"/>
	<path class="st1" d="M43.9,74.3c-18.9,0-43.3-1.9-43.4-7.7c0-1.6,1.3-4,12.7-6.2c0.5-0.2,1.1,0.1,1.3,0.6c0.2,0.5-0.1,1.1-0.6,1.3
		c-0.1,0-0.2,0.1-0.4,0.1c-9.1,1.8-11.1,3.7-11.1,4.2c0,2.3,15.9,6.2,46.1,5.7c11.1-0.1,22.1-1,33.1-2.8c10.6-1.9,12.9-3.9,12.9-4.5
		c0-0.6-2.1-2.4-11.3-3.8c-0.6,0.1-1-0.3-1.1-0.9s0.3-1,0.9-1.1c0.2,0,0.3,0,0.5,0.1c11.7,1.8,13,4.2,13,5.8c0,1,0.1,4-14.5,6.6
		c-11,1.8-22.2,2.7-33.4,2.8C47.1,74.3,45.6,74.3,43.9,74.3z"/>
	<path class="st0" d="M26.8,46.3c-0.1,0-0.2,0-0.3-0.1l-1.7-0.6c-0.5-0.2-0.8-0.8-0.5-1.3c0.2-0.5,0.7-0.7,1.2-0.6l1.7,0.7
		c0.5,0.2,0.7,0.8,0.5,1.3C27.5,46,27.1,46.3,26.8,46.3z"/>
	<path class="st0" d="M39,37.1c-0.3,0-0.6-0.2-0.8-0.4l-0.7-1c-0.4-0.4-0.3-1.1,0.1-1.4c0.4-0.4,1.1-0.3,1.4,0.1
		c0,0,0.1,0.1,0.1,0.1l0.7,1c0.3,0.4,0.2,1.1-0.2,1.4C39.4,37,39.2,37.1,39,37.1z"/>
	<path class="st0" d="M57.9,37.1c-0.6,0-1-0.4-1-1c0-0.2,0.1-0.5,0.2-0.6l0.8-1c0.3-0.5,1-0.6,1.4-0.2c0.5,0.3,0.6,1,0.2,1.4
		c0,0-0.1,0.1-0.1,0.1l-0.8,1C58.5,36.9,58.2,37.1,57.9,37.1z"/>
	<path class="st0" d="M70.4,46c-0.6,0-1-0.5-1-1c0-0.5,0.3-0.9,0.8-1l1.6-0.3c0.5-0.1,1.1,0.2,1.2,0.7c0.1,0.5-0.2,1.1-0.7,1.2
		c0,0-0.1,0-0.1,0L70.6,46L70.4,46z"/>
</g>
</svg>
