<svg width="97" height="93" xmlns="http://www.w3.org/2000/svg" viewBox="0 0 97 93">
<style type="text/css">
	.st0{fill:#4FAFA6;}
	.st1{fill:#435077;}
</style>
<g>
	<path class="st0" d="M61.9,20c0.3-0.9,0.8-1.7,1.5-2.4c-3-1.4-6.2-2.5-9.5-3.2c0.1,1,0,1.9-0.3,2.8C56.4,17.9,59.2,18.8,61.9,20z"
		/>
	<path class="st0" d="M22.1,49.7c0.7,0.7,1.2,1.5,1.6,2.4l10.8-6.3c-0.6-0.7-1.1-1.6-1.4-2.4L22.1,49.7z"/>
	<path class="st0" d="M21,61.1c-0.8,0.6-1.8,1-2.8,1.1c2.2,2.8,5.3,4.7,8.7,5.6c-0.1-1,0-2,0.4-2.8C24.9,64.3,22.7,62.9,21,61.1z"/>
	<path class="st0" d="M40.5,65.4c-0.3-0.4-0.8-0.5-1.3-0.4h0l-1.7,0.3c0.5,1.4,0.4,2.9-0.3,4.3l-3.6,13.3h3l4.3-16.2
		C41,66.2,40.9,65.7,40.5,65.4z"/>
	<path class="st0" d="M14.3,36.9c-1.2,3.8-1.6,7.7-1.2,11.6c0.9-0.5,1.8-0.8,2.8-0.9c-0.2-3.2,0.1-6.4,1-9.5
		C16,37.9,15.1,37.4,14.3,36.9z"/>
	<path class="st0" d="M52,65.2c3.1-0.9,6.6-1.9,9.3-5.1c-0.9-0.2-1.8-0.7-2.5-1.4l-0.1-0.1c-2.3,2.3-5.1,3.1-7.5,3.8
		c-3.6,1-6.7,1.9-7.8,5.9l-4,14.4h3l3.7-13.7C46.9,66.7,49.2,66,52,65.2z"/>
	<path class="st0" d="M23.2,22.9c0.8,0.5,1.6,1.1,2.2,1.8c4-3.6,8.8-6.2,14.1-7.4c-0.3-0.9-0.4-1.9-0.3-2.8
		C33.1,15.8,27.6,18.7,23.2,22.9z"/>
	<path class="st0" d="M65.2,50.1c0.6-2.8,1.2-5.7,1.8-8.1v-0.2h5.9c-0.2-0.9-0.2-1.9,0-2.8h-5.2l0.1-0.3c0.6-2.5,1.1-5,1.6-7.4
		c-1,0-1.9-0.2-2.8-0.6c-0.5,2.4-1,4.8-1.6,7.1L64.7,39H48.9c0.2,0.9,0.2,1.9,0,2.8h15.1L64,42.2c-0.4,2-1,4.7-1.6,7.4h0.2
		C63.5,49.5,64.4,49.7,65.2,50.1z"/>
	<path class="st0" d="M77.7,47.4c-1.6,3.4-4.7,5.3-9.8,5.9c0.3,0.9,0.3,1.9,0.1,2.8c6.6-0.7,10.8-3.6,12.7-8.4
		C79.6,47.8,78.6,47.7,77.7,47.4z"/>
	<path class="st0" d="M74.6,29.6c1,1.3,1.8,2.6,2.5,4c0.9-0.4,1.8-0.6,2.8-0.7c-0.9-2-2-3.8-3.3-5.5C76,28.3,75.3,29,74.6,29.6z"/>
	<path class="st0" d="M42.9,25.3L27,27.6c0.3,0.8,0.4,1.7,0.4,2.5c0,0.1,0,0.2,0,0.3l14.8-2.1l-0.9,3.8c1,0.1,1.9,0.3,2.8,0.6
		l1.2-4.9l16.5-2.3c-0.3-0.9-0.4-1.9-0.4-2.8l-15.4,2.2l0.6-2.5c-1,0-1.9-0.2-2.8-0.5L42.9,25.3z"/>
	<path class="st0" d="M37.2,56.3h20.2c-0.3-0.9-0.3-1.9,0-2.8H38.1l1.6-4.9c-0.9-0.1-1.9-0.4-2.7-0.9l-1.8,5.8h-11
		c0.2,0.9,0.2,1.9,0,2.8h10.1l-1.7,5.3c1,0,1.9,0.3,2.7,0.9L37.2,56.3z"/>
	<path class="st0" d="M58.8,51.1l0.3-0.3l-10.7-7.1c-0.4,0.9-0.9,1.7-1.6,2.4l10.7,7.1C57.8,52.4,58.2,51.7,58.8,51.1z"/>
	<path class="st0" d="M32.8,38.2c0.3-0.9,0.7-1.8,1.2-2.6l-7-3.3c-0.2,0.9-0.6,1.8-1.2,2.6L32.8,38.2z"/>
	<path class="st1" d="M46.5,12.1c1.6,0,2.8,1.3,2.8,2.8s-1.3,2.8-2.8,2.8c-1.6,0-2.8-1.3-2.8-2.8c0,0,0,0,0,0
		C43.7,13.4,44.9,12.2,46.5,12.1 M69.6,19.3c2,0,3.7,1.7,3.7,3.7s-1.7,3.7-3.7,3.7c-2,0-3.7-1.7-3.7-3.7S67.6,19.3,69.6,19.3
		 M19.1,26.4c2,0,3.7,1.7,3.7,3.7s-1.7,3.7-3.7,3.7s-3.7-1.7-3.7-3.7C15.4,28.1,17.1,26.4,19.1,26.4 M40.8,36.7c2,0,3.7,1.7,3.7,3.7
		s-1.7,3.7-3.7,3.7s-3.7-1.7-3.7-3.7l0,0C37.1,38.3,38.7,36.7,40.8,36.7 M80.2,37.5c1.6,0,2.8,1.3,2.8,2.8s-1.3,2.8-2.8,2.8
		c-1.6,0-2.8-1.3-2.8-2.8v0C77.3,38.8,78.6,37.5,80.2,37.5 M16.8,52.1c1.6,0,2.8,1.3,2.8,2.9c0,1.6-1.3,2.8-2.9,2.8
		c-1.6,0-2.8-1.3-2.8-2.9c0,0,0,0,0,0C14,53.3,15.3,52,16.8,52.1 M62.6,54c0.5,0,0.9,0.4,0.9,0.9c0,0.5-0.4,0.9-0.9,0.9
		c-0.5,0-0.9-0.4-0.9-0.9C61.8,54.4,62.2,54,62.6,54L62.6,54 M32.3,66.2c0.5,0,0.9,0.4,0.9,0.9s-0.4,0.9-0.9,0.9s-0.9-0.4-0.9-0.9
		S31.9,66.2,32.3,66.2L32.3,66.2 M46.5,10.1c-2.7,0-4.8,2.2-4.8,4.8s2.2,4.8,4.8,4.8c2.7,0,4.8-2.2,4.8-4.8c0,0,0,0,0,0
		C51.3,12.3,49.2,10.1,46.5,10.1L46.5,10.1z M69.6,17.3c-3.2,0-5.7,2.6-5.7,5.7s2.6,5.7,5.7,5.7s5.7-2.6,5.7-5.7
		S72.8,17.3,69.6,17.3C69.6,17.3,69.6,17.3,69.6,17.3z M19.1,24.4c-3.2,0-5.7,2.6-5.7,5.7s2.6,5.7,5.7,5.7s5.7-2.6,5.7-5.7
		S22.3,24.4,19.1,24.4C19.1,24.4,19.1,24.4,19.1,24.4z M40.8,34.7c-3.2,0-5.7,2.6-5.7,5.7s2.6,5.7,5.7,5.7s5.7-2.6,5.7-5.7l0,0
		C46.5,37.2,43.9,34.7,40.8,34.7L40.8,34.7z M80.2,35.5c-2.7,0-4.8,2.2-4.8,4.8s2.2,4.8,4.8,4.8c2.7,0,4.8-2.2,4.8-4.8v0
		C85,37.7,82.8,35.5,80.2,35.5L80.2,35.5z M16.8,50.1c-2.7,0-4.8,2.2-4.8,4.8s2.2,4.8,4.8,4.8s4.8-2.2,4.8-4.8c0,0,0,0,0,0
		C21.7,52.2,19.5,50,16.8,50.1L16.8,50.1L16.8,50.1z M62.7,52.1c-1.6,0-2.9,1.3-2.9,2.8c0,1.6,1.3,2.9,2.8,2.9
		c1.6,0,2.9-1.3,2.9-2.8c0,0,0,0,0-0.1C65.5,53.3,64.2,52,62.7,52.1L62.7,52.1L62.7,52.1z M32.3,64.2c-1.6,0-2.8,1.3-2.8,2.8
		c0,1.6,1.3,2.8,2.8,2.8c1.6,0,2.8-1.3,2.8-2.8l0,0C35.2,65.5,33.9,64.2,32.3,64.2L32.3,64.2z"/>
</g>
</svg>
