<svg width="97" height="93" xmlns="http://www.w3.org/2000/svg" viewBox="0 0 97 93">
<style type="text/css">
	.st0{fill:#4FAFA6;}
	.st1{fill:#FFFFFF;}
	.st2{fill:#435077;}
</style>
<g>
	<path class="st0" d="M55.2,45.7l-2-1c-1.2-0.7-1.9-1.9-1.9-3.3V14.6c0-1.6-1.2-1.8-2.9-1.8s-2.9,0.2-2.9,1.8v26.9
		c0,1.3-0.7,2.6-1.8,3.3l-1.9,1.2c-1.1,0.7-1.1,4.7-0.4,5.8l5.1-3.1c1.2-0.7,2.8-0.7,4,0l5.1,3.1h0.1C56,49.5,56,46.2,55.2,45.7z"/>
	<path class="st1" d="M55.9,52.3L55.5,52h0l-5.1-3.1c-1.1-0.7-2.5-0.7-3.7,0l-5.4,3.3l-0.2-0.3c-0.4-1-0.6-2.1-0.5-3.2
		c0-0.9,0.2-2.5,1-3l1.9-1.2c1-0.6,1.7-1.8,1.6-3V14.6c0-2.1,1.8-2.1,3.2-2.1s3.2,0,3.2,2.1v26.9c0,1.2,0.7,2.4,1.7,3l2,1
		c1.1,0.7,0.9,4.8,0.7,6.4L55.9,52.3z M48.5,13.2c-1.8,0-2.5,0.2-2.5,1.5v26.9c0,1.5-0.7,2.8-2,3.6L42,46.2
		c-0.5,0.7-0.8,1.6-0.7,2.5c-0.1,0.9,0,1.7,0.3,2.6l4.8-2.9c1.3-0.8,3-0.8,4.4,0l4.7,2.9c0.3-2.5,0.1-4.9-0.4-5.2l-2-1
		c-1.2-0.8-2-2.1-2-3.6V14.6C51,13.4,50.2,13.2,48.5,13.2z"/>
	<path class="st0" d="M56.9,52.1c-0.4,0-0.8-0.1-1.2-0.3c-0.1,0.7-0.2,1.4-0.5,2.1C54.7,54.6,57.7,52.1,56.9,52.1z"/>
	<path class="st0" d="M41.5,51.7c-0.4,0.2-0.8,0.4-1.2,0.3C39.4,52.1,41.9,52.5,41.5,51.7z"/>
	<path class="st0" d="M79.4,57.7c-0.6-0.3-1.4-0.4-2-0.1c-0.5,0.3-1,0.8-1.2,1.3c-0.3,0-0.7,0-1,0c-0.3,0.1-0.7,0.1-1,0.3
		c-0.1-1.3-0.8-2.5-1.9-3.2c-0.3-0.2-0.6-0.1-0.8,0.2c-0.2,0.3-0.1,0.6,0.2,0.8c0.2,0.1,2.1,1.5,1,3.4c-0.4,0.6-0.7,1.3-0.9,1.9
		c-0.4-0.3-1-0.5-1.5-0.5h-0.1l0,0c-0.2,0-0.4-0.1-0.5-0.3c-0.1-0.7,0-1.3,0.3-1.9c0.1-0.3-0.1-0.6-0.4-0.7c-0.2-0.1-0.4,0-0.6,0.2
		c-0.1,0.2-0.9,1.8-0.3,3c0.1,0.1,0.1,0.2,0.2,0.3c-0.5,0.3-0.9,0.8-1.2,1.3c-0.2,0.2-0.2,0.6,0.1,0.8c0.2,0.2,0.6,0.2,0.8-0.1
		c0.1-0.1,0.1-0.1,0.1-0.2c0.4-0.6,1-1.1,1.7-1.2c0.4,0,0.8,0.2,1,0.6c-0.1,0.3-0.1,0.6-0.1,0.9c0,1.8,1,3.4,2.5,4.3
		c0.3,0.2,0.6,0.1,0.8-0.2c0.2-0.3,0.1-0.6-0.2-0.8c-2.8-2-2.4-4.1-0.8-7c0.4-0.5,1-0.8,1.6-0.9c1.1-0.1,2.2,0.2,2.9,1
		c0.2,0.2,0.6,0.2,0.8,0c0.2-0.2,0.2-0.6,0-0.8l0,0c-0.5-0.5-1.1-0.8-1.7-1.1c0.1-0.2,0.3-0.4,0.5-0.5c0.3-0.1,0.7-0.1,1,0.1
		c0.2,0.2,0.6,0.2,0.8-0.1s0.2-0.6-0.1-0.8C79.5,57.7,79.5,57.7,79.4,57.7z"/>
	<path class="st0" d="M70.2,37.9c0.2-0.2,0.2-0.5,0-0.7c-0.4-0.4-1-0.8-1.5-1c0.1-0.2,0.3-0.4,0.5-0.5c0.3-0.1,0.6-0.1,0.9,0.1
		c0.2,0.2,0.5,0.2,0.7,0c0.2-0.2,0.2-0.5,0-0.7c-0.1-0.1-0.2-0.1-0.3-0.1c-0.6-0.3-1.2-0.3-1.8-0.1c-0.5,0.3-0.9,0.7-1.1,1.2
		c-0.3,0-0.6,0-0.9,0c-0.3,0-0.6,0.1-0.9,0.2c-0.1-1.2-0.7-2.2-1.7-2.8c-0.2-0.2-0.6-0.1-0.7,0.1c-0.2,0.2-0.1,0.6,0.1,0.7
		c1,0.6,1.5,1.9,0.9,3c-0.3,0.5-0.6,1.1-0.8,1.7c-0.4-0.3-0.8-0.4-1.3-0.4h-0.2c-0.2,0-0.4-0.1-0.4-0.3c-0.1-0.6,0-1.2,0.3-1.7
		c0.1-0.3,0-0.6-0.2-0.7c-0.3-0.1-0.6,0-0.7,0.2l0,0c-0.4,0.8-0.6,1.7-0.3,2.6c0.1,0.1,0.1,0.2,0.2,0.3c-0.5,0.3-0.8,0.7-1.1,1.2
		c-0.1,0.3,0,0.6,0.2,0.7s0.6,0,0.7-0.2c0.3-0.6,0.9-1,1.6-1.1c0.4,0,0.8,0.2,0.9,0.5c0,0.3-0.1,0.5-0.1,0.8c0,1.6,0.9,3.1,2.2,3.9
		c0.2,0.2,0.6,0.1,0.7-0.1c0.2-0.2,0.1-0.6-0.1-0.7l0,0c-2.5-1.8-2.1-3.6-0.7-6.2c0.4-0.4,0.9-0.7,1.5-0.8c1-0.1,1.9,0.2,2.6,0.9
		C69.7,38.2,70,38.2,70.2,37.9C70.2,37.9,70.2,37.9,70.2,37.9z"/>
	<path class="st0" d="M26.5,60.1c-0.3-0.2-0.7,0-0.8,0.3c-0.4,0.7-1.1,1.2-1.8,1.3c-0.5,0-0.9-0.2-1.1-0.6c0.2-0.7,0.2-1.4,0-2.2
		c-0.1-0.3-0.5-0.5-0.8-0.4c-0.3,0.1-0.5,0.4-0.4,0.7c0.4,1.5-0.4,3.1-1.2,4.7c-0.4,0.5-1.1,0.9-1.7,0.9c-1.1,0.1-2.3-0.3-3.1-1.1
		c-0.3-0.2-0.7-0.1-0.9,0.1c-0.2,0.2-0.1,0.6,0,0.8c0.5,0.5,1.2,0.9,1.8,1.1c-0.1,0.2-0.3,0.4-0.6,0.6c-0.4,0.1-0.8,0.1-1.1-0.1
		c-0.3-0.2-0.7-0.1-0.8,0.2c-0.2,0.3-0.1,0.7,0.2,0.8c0,0,0.1,0,0.1,0c0.4,0.2,0.8,0.3,1.2,0.3c0.3,0,0.6-0.1,0.9-0.2
		c0.6-0.3,1-0.8,1.3-1.4h0.4c0.2,0,0.4,0,0.7,0c0.3-0.1,0.7-0.2,1-0.3c0.1,1.4,0.8,2.6,2,3.4c0.3,0.1,0.7,0,0.8-0.4
		c0.1-0.2,0-0.5-0.1-0.6c-0.1-0.1-2.2-1.6-1.1-3.6c0.4-0.6,0.7-1.3,1-2c0.4,0.3,0.9,0.5,1.4,0.5h0.1H24l0,0c0.2,0,0.4,0.1,0.5,0.3
		c0.1,0.7,0,1.4-0.3,2c-0.1,0.3,0,0.7,0.3,0.8c0.3,0.1,0.6,0,0.7-0.2c0.1-0.2,0.9-1.9,0.3-3.1c-0.1-0.1-0.1-0.3-0.2-0.4
		c0.5-0.3,1-0.8,1.3-1.4C26.9,60.7,26.8,60.3,26.5,60.1C26.5,60.1,26.5,60.1,26.5,60.1z"/>
	<path class="st0" d="M37.5,34.5c-0.4-0.2-0.8-0.3-1.2-0.3c-0.3,0-0.6,0.1-0.9,0.2c-0.6,0.3-1,0.8-1.3,1.4h-0.4c-0.2,0-0.4,0-0.7,0
		c-0.3,0.1-0.7,0.2-1,0.3c-0.1-1.4-0.8-2.6-2-3.4c-0.3-0.1-0.7,0-0.8,0.4c-0.1,0.2,0,0.5,0.1,0.6c0.1,0.1,2.2,1.5,1.1,3.6
		c-0.4,0.6-0.7,1.3-1,2c-0.4-0.3-0.9-0.5-1.4-0.5h-0.2h-0.2l0,0c-0.2,0-0.4-0.1-0.5-0.3c-0.1-0.7,0-1.4,0.3-2c0.1-0.3,0-0.7-0.3-0.8
		c-0.3-0.1-0.6,0-0.7,0.2c-0.1,0.2-0.9,1.9-0.3,3.1c0.1,0.1,0.1,0.3,0.2,0.4c-0.5,0.3-1,0.8-1.3,1.4c-0.2,0.3-0.1,0.7,0.2,0.9
		c0.3,0.2,0.7,0.1,0.9-0.2c0,0,0-0.1,0.1-0.1c0.4-0.7,1.1-1.2,1.8-1.3c0.5,0,0.9,0.2,1.1,0.6c-0.2,0.7-0.2,1.4,0,2.2
		c0.1,0.3,0.5,0.5,0.8,0.4c0.3-0.1,0.5-0.4,0.4-0.7c-0.4-1.5,0.4-3.1,1.2-4.7c0.4-0.5,1.1-0.9,1.7-0.9c1.1-0.1,2.3,0.3,3.1,1.1
		c0.2,0.3,0.6,0.3,0.9,0c0.3-0.2,0.3-0.6,0-0.9c0,0-0.1-0.1-0.1-0.1c-0.5-0.5-1.2-0.9-1.8-1.1c0.1-0.2,0.3-0.4,0.6-0.5
		c0.4-0.1,0.8-0.1,1.1,0.1c0.3,0.2,0.7,0.1,0.9-0.2c0.2-0.3,0.1-0.7-0.2-0.9C37.6,34.6,37.5,34.6,37.5,34.5z"/>
	<path class="st0" d="M33.8,48.5c0.4-0.5,0.6-1.1,0.7-1.7c0.1-0.3-0.1-0.7-0.4-0.8c-0.3-0.1-0.7,0.1-0.8,0.4c0,0.1,0,0.1,0,0.2
		c-0.1,0.8-0.6,1.5-1.3,1.9c-0.4,0.2-0.9,0.1-1.3-0.2c-0.1-0.7-0.4-1.4-0.8-2c-0.2-0.2-0.6-0.2-0.9,0C29,46.5,28.9,46.8,29,47
		c0.9,1.3,0.7,3.1,0.5,4.8c-0.2,0.6-0.7,1.2-1.3,1.5c-1,0.5-2.2,0.5-3.3,0c-0.3-0.1-0.7,0.1-0.8,0.4c-0.1,0.3,0.1,0.6,0.3,0.7
		c0.7,0.3,1.4,0.4,2.1,0.4c0,0.3-0.1,0.5-0.3,0.7c-0.3,0.2-0.7,0.3-1.1,0.3c-0.3,0-0.6,0.3-0.6,0.6c0,0.3,0.2,0.6,0.5,0.6
		c0.4,0,0.9,0,1.3-0.1c0.3-0.1,0.6-0.3,0.8-0.5c0.4-0.5,0.7-1.1,0.7-1.7l0.3-0.2c0.2-0.1,0.4-0.2,0.6-0.3c0.3-0.2,0.6-0.4,0.9-0.6
		c0.6,1.2,1.7,2.2,3,2.5c0.3,0,0.6-0.2,0.7-0.5c0-0.3-0.1-0.6-0.4-0.7c-0.1,0-2.6-0.6-2.3-3c0.1-0.7,0.2-1.5,0.2-2.2
		c0.5,0.2,1,0.2,1.5,0l0.2,0l0.1-0.1l0,0c0.2-0.1,0.4,0,0.6,0.1c0.4,0.6,0.5,1.3,0.4,2c0,0.3,0.3,0.6,0.6,0.6c0.3,0,0.5-0.2,0.6-0.5
		c0-0.2,0.2-2.1-0.7-3C34,48.7,33.9,48.6,33.8,48.5z"/>
	<path class="st0" d="M68.2,47.7c1.4-0.3,3,0.3,4.4,1.1c0.5,0.4,0.8,1,0.9,1.6c0.1,1.1-0.2,2.2-1,2.9c-0.2,0.2-0.2,0.6,0,0.8
		s0.6,0.2,0.8,0c0.4-0.5,0.8-1.1,1-1.7c0.2,0.1,0.4,0.3,0.5,0.5c0.1,0.3,0.1,0.7-0.1,1c-0.1,0.3,0,0.6,0.3,0.8
		c0.3,0.1,0.6,0,0.8-0.3l0,0c0.2-0.4,0.3-0.8,0.3-1.2c0-0.3-0.1-0.6-0.2-0.8c-0.3-0.5-0.8-1-1.3-1.2c0-0.1,0-0.2,0-0.4
		c0-0.2,0-0.4,0-0.6c-0.1-0.3-0.1-0.7-0.3-1c1.3-0.1,2.4-0.8,3.1-1.9c0.2-0.3,0.1-0.6-0.2-0.8c-0.3-0.2-0.6-0.1-0.8,0.2l0,0
		c-0.1,0.1-1.4,2.1-3.4,1c-0.6-0.4-1.3-0.7-1.9-0.9c0.3-0.4,0.5-0.9,0.5-1.3c0,0,0-0.1,0-0.1c0,0,0-0.1,0-0.1l0,0
		c0-0.2,0.1-0.4,0.3-0.5c0.7-0.1,1.3,0,1.9,0.3c0.3,0.1,0.6-0.1,0.7-0.4c0.1-0.2,0-0.4-0.2-0.6c-0.2-0.1-1.8-0.9-3-0.3
		c-0.1,0.1-0.2,0.1-0.3,0.2c-0.3-0.5-0.8-0.9-1.3-1.2c-0.3-0.1-0.6,0.1-0.7,0.4c-0.1,0.2,0,0.4,0.2,0.6c0.7,0.3,1.2,1,1.3,1.8
		c0,0.4-0.2,0.8-0.6,1c-0.7-0.1-1.3-0.1-2,0c-0.3,0.1-0.5,0.4-0.5,0.7C67.6,47.6,67.9,47.8,68.2,47.7z"/>
	<path class="st2" d="M36.8,22.5c-1.9,0-4.3,1.1-7.3,3.3c-9.3,6.9-18.5,25.1-19.9,37.4c-1.1,10.2,2.1,17.1,5.3,17.1
		c0.7,0,1.4-0.3,1.8-0.9c3.5-3.5,17.9-10.9,21.5-13.7c2.5-1.8,3.9-4.8,3.7-7.9V32.3C41.9,25.9,40.2,22.5,36.8,22.5z M38.6,57.8
		c0,1.8,0,3.4-2.4,5.3c-1.3,1-4.8,3-8.1,5c-5.3,3-10.7,6.2-13.2,8.5c-0.7-1-1.2-2.1-1.4-3.2c-0.8-3.2-0.9-6.6-0.5-9.9
		c0.6-5.6,3-12.7,6.6-19.5s8-12.6,12-15.5c3.2-2.4,4.9-2.6,5.4-2.6v-0.1l0,0c0.3,0,0.5,0,0.9,0.8c0.4,0.8,0.9,2.3,0.9,5.9V57.8z"/>
	<path class="st1" d="M14.8,80.5c-1-0.1-2-0.6-2.6-1.4c-2-2.2-4-7.7-3-16.1c0.7-6,3.2-13.6,7-20.8c3.9-7.4,8.6-13.5,13-16.8
		c3-2.2,5.5-3.3,7.5-3.3l0,0c1.8,0,3.4,1,4.1,2.7c1,2.4,1.4,4.9,1.3,7.5v25.5c0.3,3.2-1.2,6.3-3.8,8.1c-1.5,1.2-4.9,3.2-8.5,5.3
		c-5.1,3-11,6.4-13,8.4C16.3,80.2,15.6,80.5,14.8,80.5z M36.8,22.8c-1.8,0-4.2,1.1-7.1,3.2c-4.3,3.2-9,9.2-12.8,16.6
		c-3.7,7.2-6.3,14.7-7,20.6c-0.9,8.1,1,13.5,2.9,15.6c0.5,0.7,1.3,1.1,2.1,1.2c0.6,0,1.2-0.3,1.6-0.8c2.1-2.1,7.9-5.5,13.1-8.5
		c3.6-2.1,7-4.1,8.5-5.2c2.5-1.7,3.8-4.6,3.6-7.6V32.3c0.1-2.5-0.3-4.9-1.2-7.2C39.7,23.7,38.3,22.8,36.8,22.8L36.8,22.8L36.8,22.8z
		 M14.8,77.1l-0.2-0.3c-0.7-1-1.3-2.1-1.6-3.3c-0.8-3.3-1-6.7-0.5-10c0.6-5.6,3.1-12.8,6.7-19.7s8.1-12.7,12.1-15.7
		c2.8-2.1,4.5-2.5,5.2-2.6v-0.2h0.3c0.6,0,1.1,0.4,1.2,1c0.3,0.7,0.9,2.4,0.9,6v25.5c0.3,2.2-0.7,4.3-2.5,5.5c-1.4,1.1-5,3.2-8.2,5
		c-5.2,3-10.6,6.2-13.2,8.5L14.8,77.1z M37,26.1h-0.3c-0.3,0-1.9,0.1-5.2,2.5c-3.9,2.9-8.2,8.5-11.9,15.4s-6,13.9-6.6,19.4
		c-0.4,3.3-0.2,6.6,0.5,9.8c0.2,1,0.6,2,1.2,2.9c2.7-2.3,8-5.4,13-8.3c3.2-1.8,6.8-3.9,8.1-5c2.3-1.8,2.3-3.2,2.3-5V32.3
		c0-3.7-0.6-5.2-0.9-5.7C37.3,26.4,37.2,26.2,37,26.1z"/>
	<path class="st2" d="M87.5,63.1c-1.4-12.2-10.6-30.5-20-37.4c-3-2.2-5.4-3.3-7.3-3.3c-3.4,0-5.2,3.4-5.2,9.8v25.5
		c-0.3,3.1,1.2,6.1,3.7,7.9c3.7,2.8,18.2,10.2,21.7,13.7c0.5,0.5,1.1,0.8,1.8,0.9C85.4,80.2,88.7,73.3,87.5,63.1z M83.7,73.4
		c-0.3,1.2-0.8,2.3-1.4,3.2c-2.6-2.3-8-5.5-13.2-8.5c-3.4-1.9-6.9-4-8.2-5c-1.8-1.2-2.7-3.2-2.5-5.3V32.3c0-3.5,0.6-5.2,1-5.8
		c0.1-0.4,0.5-0.8,1-0.7c0.5,0,2.2,0.2,5.4,2.6c4,2.9,8.3,8.6,12,15.6s6,14,6.6,19.5C84.8,66.8,84.6,70.1,83.7,73.4z"/>
	<path class="st1" d="M82.2,80.5c-0.8,0-1.5-0.4-2.1-1c-2-2-7.8-5.4-13-8.4c-2.9-1.6-5.8-3.4-8.6-5.3c-2.6-1.8-4.1-5-3.9-8.2V32.3
		c0-8.4,3-10.2,5.5-10.2c2,0,4.5,1.1,7.5,3.3c4.4,3.2,9.1,9.4,13,16.8c3.8,7.2,6.4,14.8,7,20.8l0,0c0.9,8.3-1,13.9-3,16.1
		C84.2,80,83.2,80.5,82.2,80.5z M60.3,22.8c-4,0-4.8,5.2-4.8,9.5v25.4c-0.2,3,1.1,5.9,3.6,7.7c1.5,1.2,4.9,3.1,8.5,5.2
		c5.2,3,11,6.4,13.1,8.5c0.4,0.5,1,0.7,1.6,0.8c0.8-0.1,1.6-0.5,2.1-1.2c1.9-2.1,3.8-7.5,2.9-15.6l0,0c-0.7-5.9-3.2-13.4-6.9-20.6
		c-3.9-7.3-8.5-13.4-12.8-16.6C64.5,23.9,62.1,22.8,60.3,22.8L60.3,22.8z M82.3,77.1l-0.3-0.2c-2.6-2.3-8-5.4-13.2-8.5L68.2,68
		c-3.2-1.9-6.3-3.7-7.6-4.6c-1.8-1.2-2.9-3.4-2.6-5.6V32.3c0-3.4,0.5-5.1,1-6c0.2-0.6,0.7-0.9,1.3-0.9c0.7,0,2.4,0.3,5.6,2.7
		c4,3,8.4,8.7,12.1,15.7s6,14,6.7,19.7c0.4,3.3,0.3,6.7-0.5,10l0,0c-0.3,1.2-0.8,2.4-1.5,3.4L82.3,77.1z M60.3,26.1
		c-0.2,0-0.4,0-0.7,0.6s-0.9,2.3-0.9,5.7v25.4c-0.3,2,0.7,4,2.3,5.1c1.2,1,4.4,2.8,7.5,4.6l0.7,0.4c5.1,3,10.3,6,13,8.3
		c0.5-0.9,0.9-1.8,1.2-2.9l0,0c0.8-3.2,1-6.5,0.5-9.8c-0.6-5.5-3-12.6-6.6-19.4s-8-12.5-11.8-15.4C62.3,26.3,60.7,26.1,60.3,26.1z"
		/>
</g>
</svg>
