<svg width="97" height="93" xmlns="http://www.w3.org/2000/svg" viewBox="0 0 97 93">
<style type="text/css">
	.st0{fill:#4FAFA6;}
	.st1{fill:#435077;}
	.st2{fill:#FFFFFF;}
</style>
<g>
	<path class="st0" d="M77.4,40c-0.8-0.9-2.2-0.9-3.1-0.1c-1.4,1.1-3,1.9-4.8,2.2c1,1.2,1.9,2.5,2.6,3.8c1.9-0.6,3.6-1.5,5.1-2.8
		C78.2,42.3,78.3,40.9,77.4,40C77.4,40,77.4,40,77.4,40z"/>
	<path class="st0" d="M79.8,48.9c-0.5-1.1-1.8-1.6-2.9-1.1c0,0,0,0,0,0c-1.1,0.4-2.4,0.7-3.6,0.6c0.6,1.4,1.1,2.8,1.5,4.3
		c1.3-0.1,2.6-0.4,3.8-1C79.8,51.2,80.3,49.9,79.8,48.9z"/>
	<path class="st0" d="M49.8,82c-1.4,0-5.6,0-5.6-4.1v-9.5l1.8,1c2.7,1.5,5.5,2.6,8.5,3.2l1,0.2V78C55.4,82,51.2,82,49.8,82z
		 M46.6,72.4V78c0,0.7,0,1.7,3.3,1.7s3.3-1,3.3-1.7v-3.3C50.9,74.2,48.7,73.4,46.6,72.4z"/>
	<path class="st0" d="M36.4,43.5c-1.5,0-2.3-1.3-2.3-3.9c0-1,0-2.1,0-3.2c0-0.5,0-1,0-1.4c0-0.5,0-0.7,0-1.1c0-3.6-1-6.3-2.7-8.2
		L31,25.3V15c0-4.1,4.2-4.1,5.6-4.1s5.6,0,5.6,4.1v11l-0.5,0.4c-0.9,0.7-1.6,1.5-2.1,2.5c-1.5,2.4-1.5,6.5-1.5,9.5
		c0,1.2,0,2.2-0.1,2.9C37.9,42.7,37.3,43.5,36.4,43.5z M33.3,24.4c1.7,2,2.7,4.6,2.9,7.2c0.2-1.4,0.7-2.8,1.4-4
		c0.6-1,1.4-1.9,2.2-2.7V15c0-0.7,0-1.7-3.3-1.7s-3.3,1-3.3,1.7V24.4z"/>
	<path class="st0" d="M36.6,82C35.2,82,31,82,31,78V48.6l1.7,1c0.2,0.1,0.4,0.3,0.5,0.4l0,0c0.6,0.5,1.2,1,1.9,1.3l0.6,0.3l0.1,0.6
		c0.2,2,0.6,3.9,1.2,5.8c0.9,3.1,2.6,5.9,4.9,8.2l0.4,0.4V78C42.2,82,38,82,36.6,82z M33.3,52.9V78c0,0.7,0,1.7,3.3,1.7
		c3.3,0,3.3-1,3.3-1.7V67.5c-2.4-2.5-4.2-5.5-5.2-8.8c-0.6-1.9-1-3.8-1.2-5.7L33.3,52.9z"/>
	<path class="st0" d="M66.5,60.9c-0.6-0.3-1.4-0.4-2-0.1c-0.5,0.3-1,0.8-1.2,1.3c-0.3,0-0.6,0-1,0c-0.3,0.1-0.6,0.1-1,0.3
		c-0.1-1.3-0.8-2.5-1.9-3.2c-0.3-0.1-0.6,0-0.8,0.3c-0.1,0.2-0.1,0.5,0.1,0.7c0.2,0.2,2.1,1.5,1,3.4c-0.4,0.6-0.7,1.3-1,1.9
		c-0.4-0.3-1-0.5-1.5-0.5h-0.2l0,0c-0.2,0-0.4-0.1-0.5-0.3c-0.1-0.7,0-1.3,0.3-1.9c0.1-0.3,0-0.6-0.3-0.8c-0.3-0.1-0.6,0-0.8,0.3
		l0,0c-0.1,0.2-0.9,1.8-0.3,2.9c0.1,0.1,0.1,0.2,0.2,0.4c-0.5,0.3-0.9,0.8-1.2,1.3c-0.2,0.3-0.1,0.6,0.2,0.8
		c0.3,0.2,0.6,0.1,0.8-0.2c0,0,0-0.1,0-0.1c0.4-0.7,1-1.1,1.7-1.2c0.4,0,0.8,0.2,1,0.6c-0.1,0.3-0.1,0.6-0.1,1c0,1.8,1,3.4,2.5,4.3
		c0.3,0.2,0.6,0.1,0.8-0.1c0.2-0.3,0.1-0.6-0.1-0.8l0,0c-2.8-2-2.4-4-0.8-6.9c0.4-0.5,1-0.8,1.6-0.9c1.1-0.1,2.2,0.2,2.9,1
		c0.3,0.2,0.6,0.2,0.8-0.1c0.2-0.2,0.2-0.6,0-0.8c-0.5-0.5-1.1-0.8-1.7-1.1c0.1-0.2,0.3-0.4,0.5-0.5c0.3-0.1,0.7-0.1,1,0.1
		c0.3,0.1,0.7,0,0.8-0.3C66.9,61.4,66.8,61,66.5,60.9z"/>
	<path class="st0" d="M55,41.4c0-0.3-0.3-0.6-0.6-0.5c-0.7,0-1.4,0.2-2,0.5c-0.1-0.2-0.1-0.5,0-0.8c0.2-0.3,0.5-0.6,0.8-0.7
		c0.3-0.2,0.4-0.5,0.2-0.8c-0.1-0.2-0.4-0.3-0.6-0.3c-0.4,0.1-0.7,0.3-1,0.6c-0.2,0.2-0.4,0.5-0.5,0.7c-0.2,0.6-0.2,1.2,0.1,1.8
		l-0.3,0.2c-0.1,0.1-0.3,0.3-0.4,0.5c-0.2,0.3-0.4,0.6-0.5,0.9c-1-0.9-2.3-1.2-3.6-1c-0.3,0.1-0.5,0.4-0.4,0.7
		c0.1,0.3,0.3,0.4,0.6,0.4c0.1,0,2.5-0.5,3.1,1.7c0.2,0.7,0.4,1.4,0.7,2c-0.5,0.1-0.9,0.3-1.3,0.6l-0.1,0.1l-0.1,0.1l0,0
		c-0.2,0.1-0.4,0.2-0.6,0.1c-0.6-0.4-1-0.9-1.1-1.6c-0.1-0.3-0.4-0.5-0.7-0.4s-0.5,0.4-0.4,0.7c0.1,0.2,0.6,1.9,1.9,2.3
		c0.1,0,0.3,0.1,0.4,0.1c-0.1,0.6-0.1,1.2,0.1,1.8c0.1,0.3,0.5,0.4,0.8,0.3c0.3-0.1,0.4-0.4,0.4-0.7c-0.2-0.7-0.1-1.5,0.4-2.1
		c0.3-0.3,0.7-0.4,1.1-0.3c0.4,0.6,0.9,1.1,1.5,1.4c0.3,0.1,0.6-0.1,0.7-0.4c0.1-0.2,0-0.4-0.1-0.6c-1.2-0.8-1.9-2.3-2.3-3.9
		c-0.1-0.6,0.1-1.3,0.5-1.8c0.7-0.9,1.7-1.4,2.8-1.4C54.8,42.1,55,41.8,55,41.4C55,41.5,55,41.5,55,41.4z"/>
	<path class="st1" d="M47.1,17.9c0.1,1.7,0.3,3.3,0.8,4.9c0.2,0.4,0.6,0.7,1,0.7H49c0.5,0,1-0.1,1.5-0.1c0.5,0,1-0.4,1-1
		c0.3-2.3,0.9-4.4,2-6.5c0.3-0.5,0.1-1.2-0.4-1.5c-0.5-0.3-1.2-0.1-1.5,0.4c-1,1.8-1.7,3.8-2,5.9c-0.2-1-0.3-2.1-0.4-3.1
		c-0.1-0.9-0.1-1.7-0.2-2.4c-0.1-0.6-0.6-1-1.2-0.9c-0.6,0.1-1,0.6-0.9,1.2C46.9,16.2,47,17,47.1,17.9z"/>
	<path class="st2" d="M48.8,23.8c-0.6,0-1.1-0.4-1.3-1c-0.5-1.6-0.7-3.3-0.8-4.9l0,0c-0.1-0.8-0.1-1.6-0.2-2.2
		c-0.2-0.7,0.3-1.5,1-1.7c0.7-0.2,1.5,0.3,1.7,1c0,0.1,0,0.1,0,0.2c0.1,0.7,0.2,1.5,0.2,2.4c0,0.5,0.1,1,0.1,1.5
		c0.4-1.5,0.9-3,1.7-4.4c0.4-0.7,1.2-0.9,1.9-0.6c0.7,0.4,0.9,1.2,0.6,1.9c0,0,0,0.1-0.1,0.1c-1,2-1.7,4.1-2,6.3
		c-0.1,0.6-0.7,1.1-1.3,1.1c-0.5,0-1,0.1-1.5,0.1L48.8,23.8L48.8,23.8z M47.3,17.8L47.3,17.8c0.1,1.6,0.3,3.3,0.8,4.8
		c0.1,0.3,0.5,0.6,0.8,0.5c0.5,0,1-0.1,1.5-0.1c0.4,0,0.7-0.3,0.8-0.7c0.3-2.3,1-4.5,2.1-6.5c0.2-0.4,0.1-0.9-0.3-1.1
		c-0.4-0.2-0.9-0.1-1.1,0.3c-1,1.8-1.7,3.8-2,5.8l-0.3,1.6l-0.3-1.5c-0.2-1-0.3-2.1-0.4-3.1c-0.1-0.9-0.1-1.7-0.2-2.4
		c-0.1-0.4-0.5-0.7-0.9-0.7c0,0,0,0-0.1,0c-0.4,0.1-0.7,0.5-0.7,0.9c0,0,0,0,0,0.1C47.2,16.3,47.2,17,47.3,17.8L47.3,17.8L47.3,17.8
		z"/>
	<path class="st1" d="M54.7,23.6c0.8,0.1,1.5,0.2,2.3,0.4h0.2c0.4,0,0.8-0.2,1-0.6c1.1-2,2.4-3.9,3.9-5.6c0.4-0.4,0.4-1.1,0-1.5
		c-0.4-0.4-1.1-0.4-1.5,0c-1.5,1.7-2.7,3.5-3.8,5.4l-0.4-0.1c0.6-1.9,1.3-3.8,2.2-5.6c0.3-0.5,0.1-1.2-0.4-1.5
		c-0.5-0.3-1.2-0.1-1.5,0.4c-1.2,2.4-2.1,4.8-2.8,7.4c-0.1,0.6,0.2,1.2,0.8,1.3C54.6,23.6,54.7,23.6,54.7,23.6z"/>
	<path class="st2" d="M57.2,24.2H57c-0.8-0.1-1.5-0.3-2.3-0.4c-0.8-0.1-1.3-0.8-1.2-1.5c0,0,0-0.1,0-0.1c0.7-2.6,1.6-5.1,2.9-7.5
		c0.4-0.7,1.2-0.9,1.9-0.6c0.7,0.4,0.9,1.2,0.6,1.9c0,0,0,0.1-0.1,0.1c-0.7,1.5-1.4,3.1-1.9,4.7c1-1.7,2.2-3.3,3.5-4.8
		c0.6-0.5,1.5-0.4,2,0.2c0.4,0.5,0.4,1.2,0,1.8c-1.5,1.7-2.8,3.5-3.8,5.5C58.2,24,57.7,24.3,57.2,24.2z M57.5,14.7
		c-0.3,0-0.5,0.1-0.7,0.4c-1.2,2.3-2.1,4.8-2.7,7.3c-0.1,0.4,0.2,0.9,0.6,0.9c0,0,0,0,0.1,0l0,0c0.8,0.1,1.5,0.2,2.3,0.4h0.1
		c0.3,0,0.6-0.2,0.7-0.4c1.1-2.1,2.4-4,4-5.7c0.3-0.3,0.3-0.8,0-1.1c-0.3-0.3-0.8-0.3-1.1,0c-1.5,1.6-2.7,3.4-3.8,5.3L56.8,22h-0.2
		l-0.5-0.1l-0.3,0l0.1-0.3c0.6-1.9,1.4-3.8,2.3-5.6c0.2-0.4,0.1-0.9-0.3-1.1C57.8,14.7,57.6,14.7,57.5,14.7L57.5,14.7z"/>
	<path class="st1" d="M18.5,30.6c-0.6,0.1-1,0.7-0.8,1.3c0.1,0.6,0.7,1,1.3,0.8l0,0c0.8-0.1,6.8-0.5,9.8,0.8c0.6,0.2,1.2,0,1.4-0.6
		c0.1-0.2,0.1-0.4,0.1-0.6c-0.2-1.4-0.8-3.8-2-4.8c-0.3-0.3-1.3-1-5.6-1.5c-1.4-0.2-2.8-0.2-4.2-0.2c-0.6,0.1-0.9,0.7-0.8,1.3
		c0.1,0.5,0.6,0.8,1.1,0.8l0,0c0.2,0,1.9,0,3.8,0.2c3.3,0.3,4.2,0.9,4.4,1c0.4,0.5,0.7,1,0.8,1.6C24.7,30.3,21.6,30.2,18.5,30.6z"/>
	<path class="st2" d="M29.2,33.9c-0.2,0-0.4,0-0.5-0.1c-3-1.2-8.9-1-9.7-0.8c-0.8,0.1-1.5-0.4-1.6-1.2c-0.1-0.7,0.3-1.3,1-1.5l0,0
		c3-0.3,5.9-0.3,8.9,0.2c-0.1-0.4-0.3-0.7-0.5-1c-0.1-0.1-1-0.6-4.2-1c-2-0.2-3.7-0.2-3.8-0.2l0,0c-0.8,0-1.4-0.6-1.4-1.4
		c0-0.6,0.4-1.2,1.1-1.3c1.4,0,2.8,0,4.3,0.2c4.4,0.4,5.4,1.3,5.8,1.5c1.3,1,1.9,3.5,2.1,4.9c0.1,0.8-0.4,1.5-1.1,1.6
		C29.4,33.9,29.3,33.9,29.2,33.9z M22,32.3c2.3-0.1,4.7,0.2,6.9,1c0.3,0.1,0.6,0.1,0.8-0.1c0.2-0.2,0.3-0.5,0.3-0.8
		c-0.2-1.3-0.8-3.7-1.9-4.6c-0.3-0.2-1.3-1-5.5-1.4c-1.3-0.1-2.7-0.2-4.1-0.2c-0.4,0.1-0.7,0.6-0.6,1c0.1,0.3,0.4,0.6,0.7,0.6l0,0
		c0.1,0,1.8,0,3.8,0.2c3.3,0.3,4.3,0.9,4.5,1.1c0.4,0.5,0.7,1.1,0.9,1.8l0.2,0.4l-0.5-0.1c-3-0.6-6.1-0.7-9.1-0.3
		c-0.4,0.1-0.7,0.5-0.6,1c0.1,0.4,0.5,0.7,1,0.6C19.9,32.3,21,32.2,22,32.3L22,32.3z"/>
	<path class="st1" d="M19,22.7c0.8-0.1,7.9-0.2,11.3,2.4c2.3,1.8,3.5,4.8,3.5,8.8c0,0.8,0,1.7,0,2.4v0.1c0,0.1,0,0.4,0,0.7
		c-0.1,3.2,0,5.1,1,6.1c0.4,0.4,0.9,0.6,1.5,0.6c1.6,0,2-1.6,2.2-2.5c0.1-1.1,0.2-2.2,0.2-3.4c0-2.9,0.1-6.7,1.4-8.8
		c1.2-1.9,3-3.4,5.2-4.2c0.7-0.3,1.1-1.1,0.8-1.9c0,0,0,0,0,0c-0.4-1.6-0.7-3.2-0.8-4.8c-0.2-1.2-0.3-2.3-0.4-2.9
		c-0.2-0.8-0.9-1.3-1.7-1.1s-1.3,0.9-1.1,1.7c0.1,0.6,0.3,1.6,0.4,2.7c0.2,1.7,0.4,3.1,0.6,4.1c-2.2,1.1-4.1,2.8-5.4,4.9
		c-0.5,0.8-0.8,1.7-1.1,2.5c-0.5-2.8-2-5.4-4.2-7.2c-1.9-1.5-4.6-2.4-8.2-2.9c-1.8-0.2-3.7-0.3-5.5-0.1c-0.8,0.2-1.3,1-1.1,1.8
		C17.5,22.3,18.2,22.8,19,22.7z"/>
	<path class="st2" d="M36.2,44c-0.6,0-1.3-0.3-1.7-0.7c-1-1.1-1.2-3.1-1-6.3c0-0.3,0-0.5,0-0.6v-0.1c0-0.8,0-1.6,0-2.4
		c0-3.9-1.1-6.8-3.3-8.5c-3.3-2.6-10.2-2.5-11.1-2.4c-0.9,0.2-1.9-0.5-2-1.4c-0.2-0.9,0.4-1.8,1.3-2c1.9-0.2,3.7-0.2,5.6,0.1
		c3.7,0.4,6.5,1.4,8.4,2.9c2,1.6,3.5,3.9,4.1,6.4c0.2-0.6,0.5-1.1,0.8-1.6c1.3-2.1,3.1-3.8,5.3-4.9c-0.2-1-0.4-2.4-0.6-3.9
		c-0.2-1.1-0.3-2.2-0.4-2.7c-0.2-0.9,0.3-1.9,1.3-2.1c0.9-0.2,1.9,0.3,2.1,1.3c0,0,0,0.1,0,0.1c0.1,0.7,0.3,1.7,0.4,2.9
		c0.2,1.6,0.4,3.2,0.8,4.8c0.3,0.9-0.1,1.9-1,2.2c-2.1,0.8-3.8,2.2-5,4.1c-1.3,2.1-1.3,5.9-1.4,8.7c0,1.1,0,2.3-0.2,3.4
		C38.4,43,37.5,44,36.2,44z M20.3,22.3c2.4,0,7.5,0.4,10.2,2.5c2.4,1.9,3.6,4.9,3.6,9c0,0.8,0,1.7,0,2.4v0.1c0,0.1,0,0.4,0,0.7
		c-0.1,3.1,0,4.9,0.9,5.9c0.3,0.4,0.8,0.6,1.3,0.6c1.3,0,1.7-1.2,1.9-2.3c0.1-1.1,0.2-2.2,0.2-3.3c0-2.9,0.1-6.8,1.4-9
		c1.2-2,3.1-3.5,5.3-4.3c0.6-0.2,0.9-0.9,0.7-1.5c-0.4-1.6-0.7-3.2-0.8-4.9c-0.2-1.2-0.3-2.3-0.4-2.9c-0.1-0.6-0.7-1-1.4-0.9
		s-1,0.7-0.9,1.4c0.1,0.6,0.3,1.6,0.4,2.7c0.2,1.6,0.4,3,0.6,4.1v0.2L43,22.9c-2.2,1.1-4,2.7-5.3,4.8c-0.5,0.8-0.8,1.6-1,2.5
		l-0.4,1.1l-0.2-1.2c-0.5-2.8-1.9-5.3-4.1-7.1c-1.8-1.4-4.6-2.4-8.1-2.8c-1.8-0.2-3.6-0.3-5.4-0.1c-0.6,0.2-1,0.8-0.8,1.4
		c0.2,0.6,0.7,1,1.3,0.8l0,0C19.4,22.3,19.9,22.3,20.3,22.3z"/>
	<path class="st1" d="M77.1,55.5c-1-4.8-3.7-13.4-10.1-17.6c-1.6-1-3.3-1.8-5.1-2.4c2.3-1.5,5-2.3,7.7-2.3c0.8,0.1,1.5-0.5,1.6-1.3
		s-0.5-1.5-1.3-1.6c-0.2,0-0.3,0-0.5,0c-11.3,0.5-13.4,8-13.4,8.3c-0.2,0.8,0.3,1.6,1.1,1.8c0.8,0.2,1.6-0.3,1.8-1.1
		c0.2-0.5,0.4-1,0.7-1.5c2,0.5,4,1.4,5.8,2.5c2.4,1.5,6.7,5.6,8.8,15.7c0.6,2.9,0.9,5.9,1,8.9c0.1,1.9-0.2,3.7-0.8,5.5
		c-0.2,0.3-1.2,1.3-4.5,2c-3.4,0.7-6.9,0.9-10.3,0.6c-4.7-0.3-9.4-1.7-13.5-4c-4.3-2.4-7.5-6.4-9-11.2c-0.6-1.9-1-3.8-1.2-5.8
		c0-0.5-0.3-0.9-0.8-1.2c-0.7-0.3-1.2-0.8-1.8-1.3c-1.6-1.6-2.6-3.7-2.7-9.5c0-0.1,0-0.2,0-0.3c-0.3-1.3-0.9-2.4-1.9-3.3
		c-0.6-0.5-1.8-1.1-5.7-1.3c-1.6-0.1-3.1,0-4.7,0.2c-0.8,0.2-1.3,1-1.1,1.7c0.2,0.8,1,1.3,1.7,1.1c1.3-0.1,2.7-0.2,4-0.1
		c3.3,0.1,4,0.6,4,0.6c0.5,0.4,0.8,1,1,1.6c0.1,4.9,0.7,8.6,3.5,11.3c0.5,0.5,1.1,1,1.7,1.4c0.2,1.9,0.7,3.8,1.2,5.6
		c1.6,5.4,5.3,10,10.2,12.8c4.5,2.5,9.6,4,14.7,4.3c1.1,0.1,2.2,0.1,3.2,0.1c2.7,0,5.3-0.3,7.9-0.8c2.4-0.6,5.6-1.6,6.5-3.6
		C78.5,68.8,78.5,62,77.1,55.5z"/>
	<path class="st2" d="M62.7,76.4c-1.1,0-2.2,0-3.3-0.1c-5.2-0.3-10.3-1.8-14.8-4.4c-5-2.8-8.7-7.5-10.4-13c-0.6-1.8-1-3.7-1.2-5.5
		c-0.6-0.4-1.2-0.9-1.7-1.4c-2.9-2.9-3.5-6.5-3.6-11.4c-0.1-0.5-0.4-1-0.8-1.4c-0.1,0-0.9-0.5-3.8-0.6c-1.3-0.1-2.6,0-3.9,0.1
		c-1,0.2-1.8-0.5-2-1.4c-0.1-0.9,0.4-1.7,1.3-2c1.6-0.2,3.2-0.2,4.8-0.2c4,0.2,5.3,0.8,5.9,1.3c1,0.9,1.8,2.1,2.1,3.4
		c0,0.1,0.1,0.3,0.1,0.4c0.1,5.7,1.1,7.8,2.6,9.3c0.5,0.5,1.1,0.9,1.7,1.2c0.5,0.3,0.9,0.8,1,1.4c0.2,1.9,0.6,3.9,1.2,5.7
		c1.4,4.7,4.6,8.6,8.8,11c4.1,2.3,8.7,3.6,13.4,3.9c3.4,0.3,6.9,0.1,10.2-0.6c3.2-0.7,4.2-1.6,4.3-1.9c0.6-1.7,0.8-3.5,0.8-5.3
		c0-3-0.3-5.9-1-8.9c-2.3-10.1-6.5-14.1-8.8-15.6c-1.7-1.1-3.6-1.9-5.5-2.4c-0.2,0.4-0.4,0.8-0.5,1.2c-0.3,0.9-1.3,1.4-2.2,1.1
		c-0.8-0.3-1.3-1.1-1.2-2c0.1-0.3,2.2-8.1,13.6-8.5c1-0.1,1.8,0.6,1.9,1.6c0.1,1-0.6,1.8-1.6,1.9c-0.1,0-0.1,0-0.2,0
		c-2.5,0-4.9,0.7-7.1,1.9c1.6,0.6,3.2,1.3,4.6,2.3c6.5,4.2,9.2,12.9,10.2,17.7c1.4,6.6,1.4,13.5-0.1,16.4c-1,2-4.2,3.1-6.7,3.7
		C68,76.1,65.3,76.4,62.7,76.4z M21.7,37.9h1.4c3.3,0.1,4.1,0.6,4.1,0.7c0.5,0.5,0.9,1.1,1,1.7v0.1c0.1,4.8,0.7,8.4,3.4,11.1
		c0.5,0.5,1.1,1,1.7,1.4l0.1,0.1v0.1c0.2,1.9,0.6,3.8,1.2,5.6c1.6,5.4,5.3,9.9,10.2,12.7c4.5,2.5,9.5,4,14.6,4.3
		c1.1,0.1,2.1,0.1,3.2,0.1c2.6,0,5.3-0.3,7.9-0.8c2.4-0.5,5.4-1.6,6.3-3.4c1.4-2.9,1.4-9.6,0-16.1l0,0c-1-4.8-3.7-13.3-10-17.4
		c-1.6-1-3.2-1.8-5-2.4l-0.5-0.2l0.5-0.3c2.3-1.5,5.1-2.4,7.9-2.4c0.6,0,1.1-0.6,1.1-1.2c0-0.6-0.6-1.1-1.2-1.1
		c-11.1,0.4-13.1,7.8-13.1,8.1c-0.2,0.6,0.1,1.3,0.7,1.5c0.6,0.2,1.3-0.1,1.5-0.7c0,0,0-0.1,0-0.1c0.2-0.5,0.4-1.1,0.7-1.5l0.1-0.2
		l0.2,0.1c2.1,0.5,4.1,1.4,5.9,2.5c2.4,1.6,6.7,5.7,8.9,15.9c0.6,3,0.9,6,1,9c0.1,1.9-0.2,3.8-0.8,5.6c-0.2,0.4-1.5,1.4-4.8,2.2
		c-3.4,0.7-6.9,0.9-10.4,0.6c-4.7-0.3-9.4-1.6-13.5-3.9c-4.4-2.5-7.6-6.5-9.1-11.4c-0.6-1.9-1-3.9-1.2-5.8c0-0.4-0.3-0.7-0.6-0.9
		c-0.7-0.4-1.3-0.8-1.8-1.4c-1.6-1.6-2.7-3.8-2.8-9.7c0-0.1,0-0.2,0-0.3c-0.3-1.2-0.9-2.3-1.9-3.1c-0.6-0.4-1.7-1.1-5.5-1.2
		c-1.5-0.1-3.1,0-4.6,0.2c-0.6,0.1-1.1,0.7-1,1.3c0.1,0.6,0.7,1.1,1.3,1c0,0,0.1,0,0.1,0C19.9,38,20.8,37.9,21.7,37.9z"/>
	<path class="st1" d="M43.7,31.2c-0.7,1.2-1.1,2.6-1.1,4c0,0.3,0,0.6-0.1,0.8c-0.1,0.8,0.5,1.5,1.3,1.6c0.2,0,0.3,0,0.5,0
		c2.8-0.6,5.7-0.9,8.6-0.9c0.7,0.2,1.4-0.2,1.7-0.8c0-0.1,2.6-6.2,14.1-7.1c0.8-0.2,1.3-1,1.1-1.7C69.6,26.5,69,26,68.4,26
		c-3.7,0.2-7.4,1.2-10.7,2.9C53.9,28.1,46.4,26.9,43.7,31.2z M46.2,32.8c1.2-1.9,4.9-2,8.4-1.5c-0.9,0.8-1.6,1.7-2.3,2.7
		c-2.3,0-4.5,0.2-6.8,0.6C45.6,33.9,45.8,33.3,46.2,32.8L46.2,32.8z"/>
	<path class="st2" d="M44,38.1c-1,0-1.7-0.8-1.7-1.7c0-0.1,0-0.1,0-0.2c0-0.3,0.1-0.6,0.1-0.8c0-1.5,0.4-2.9,1.1-4.2l0,0
		c2.7-4.4,10-3.5,14.2-2.5c3.3-1.8,7-2.8,10.7-3c1-0.1,1.8,0.6,1.9,1.6c0.1,1-0.6,1.8-1.6,1.9c-11.2,0.9-13.8,6.9-13.8,7
		c-0.3,0.8-1.1,1.2-2,1.1c-2.9,0-5.7,0.3-8.5,0.9C44.2,38.1,44.1,38.1,44,38.1z M44,31.4c-0.7,1.2-1,2.5-1.1,3.9
		c0,0.3,0,0.6-0.1,0.9c-0.1,0.6,0.4,1.2,1,1.3c0.1,0,0.3,0,0.4,0c2.9-0.7,5.8-1,8.7-0.9H53h0.3c0.5,0,0.9-0.3,1.1-0.7
		c0-0.1,2.7-6.4,14.3-7.3c0.6,0,1.1-0.6,1.1-1.2c0-0.6-0.6-1.1-1.2-1.1c0,0-0.1,0-0.1,0c-3.7,0.2-7.3,1.2-10.6,3l-0.1,0.1h-0.1
		C53.6,28.2,46.5,27.3,44,31.4L44,31.4L44,31.4z M45.3,34.9l0.1-0.4c0.1-0.7,0.3-1.3,0.6-1.9l0,0c1.4-2.3,6-2,8.6-1.6l0.6,0.1
		l-0.4,0.4c-0.8,0.8-1.6,1.6-2.2,2.6l-0.1,0.1h-0.3c-2.2,0-4.4,0.2-6.6,0.6L45.3,34.9z M46.4,32.9c-0.2,0.4-0.4,0.8-0.5,1.2
		c2.1-0.3,4.2-0.5,6.2-0.5c0.5-0.8,1.1-1.5,1.7-2.2C51.7,31.2,47.6,31,46.4,32.9L46.4,32.9z"/>
	<path class="st1" d="M60.3,24.5c0.2,0.4,0.5,0.7,1,0.8h0.1c1.2-0.3,2.4-0.6,3.6-0.8c-0.3-0.5-0.7-0.9-1.2-1.3
		c0.4-0.6,0.8-1.1,1.2-1.6c0.6-0.6,0.5-1.5,0-2.1c-0.6-0.6-1.5-0.5-2.1,0l0,0c-1,1.1-1.8,2.3-2.5,3.5C60.1,23.6,60.1,24.1,60.3,24.5
		z"/>
	<path class="st2" d="M61.3,25.7l-0.2-0.1c-0.9-0.3-1.4-1.3-1.1-2.2c0-0.1,0.1-0.2,0.1-0.3c0.7-1.3,1.5-2.5,2.5-3.6
		c0.7-0.7,1.8-0.6,2.5,0.1c0.6,0.7,0.6,1.7,0,2.4c-0.4,0.4-0.8,0.9-1.1,1.4c0.4,0.3,0.8,0.7,1.1,1.2l0.3,0.4L65,24.9
		c-1.2,0.2-2.4,0.4-3.5,0.8L61.3,25.7z M63.9,19.5c-0.3,0-0.6,0.1-0.8,0.4c-1,1.1-1.8,2.2-2.4,3.5c-0.2,0.3-0.2,0.6-0.1,1l0,0
		c0.1,0.3,0.4,0.6,0.7,0.7h0c1-0.3,2-0.5,3-0.7c-0.3-0.3-0.5-0.6-0.9-0.8l-0.2-0.2l0.2-0.2c0.4-0.6,0.8-1.1,1.3-1.6
		c0.4-0.5,0.4-1.2,0-1.6C64.5,19.6,64.2,19.5,63.9,19.5L63.9,19.5z"/>
</g>
</svg>
