<svg width="97" height="93" xmlns="http://www.w3.org/2000/svg" viewBox="0 0 97 93">
<style type="text/css">
	.st0{fill:#435077;}
	.st1{fill:#FFFFFF;}
	.st2{fill:#4FAFA6;}
	.st3{fill:#64AAA6;}
</style>
<g>
	<path class="st0" d="M76,27.1c-3.3-3.6-7.4-5.9-10.5-5.9c-1.9-2.5-3.3-5.3-4.1-8.3c-0.2-0.8-1-1.3-1.9-1.1c-0.8,0.2-1.3,1-1.1,1.9
		c1,3.7,2.8,7.1,5.2,10.1c0.3,0.4,0.8,0.6,1.4,0.6h0.2l0,0c1.5-0.1,5,1.1,8.5,4.9c3.5,3.8,9,12.5,6.1,28.1c-1,5.6-4.1,10.6-8.6,14
		c-4.5,3.5-9.8,5.7-15.4,6.5c-4.9,0.8-9.8,0.4-14.5-1.2c-4.1-1.3-7.6-4.2-9.6-8c-0.3-0.5-0.8-0.8-1.4-0.8c-1.4,0-2.7,0.1-4.1,0.3
		c-1.5,0.2-2.6,1.6-3.4,4.1c-0.5,1.7-0.8,3.4-0.9,5.2c0,0.9,0.7,1.6,1.5,1.6s1.6-0.7,1.6-1.5l0,0c0.1-1.4,0.3-2.7,0.6-4
		c0.2-0.8,0.5-1.6,1.1-2.3c0.9-0.1,1.7-0.2,2.6-0.2c2.5,4.1,6.3,7.1,10.8,8.7c3.4,1.2,7,1.8,10.6,1.8c1.8,0,3.6-0.1,5.4-0.4
		c6.2-0.9,12-3.3,16.9-7.1c5.1-3.9,8.6-9.6,9.8-15.9C85.9,41,79.9,31.4,76,27.1z"/>
	<path class="st1" d="M50.8,81.6c-3.6,0-7.3-0.6-10.7-1.8c-4.5-1.5-8.4-4.6-10.9-8.6c-0.6,0-1.5,0.1-2.3,0.2c-0.5,0.6-0.8,1.3-1,2.1
		c-0.4,1.3-0.6,2.6-0.6,3.9c0,1-0.9,1.8-1.9,1.8l0,0c-1,0-1.8-0.9-1.8-1.9c0.1-1.8,0.4-3.6,0.9-5.3c0.8-2.6,2.1-4,3.7-4.3
		c1.4-0.2,2.7-0.3,4.1-0.3c0.7,0,1.3,0.4,1.6,1c2,3.7,5.4,6.6,9.5,7.9c4.6,1.6,9.5,2,14.4,1.2c5.6-0.8,10.8-3,15.3-6.4
		c4.4-3.4,7.4-8.3,8.5-13.8c2.8-15.4-2.6-24.1-6-27.9c-3.5-3.8-6.8-4.9-8.3-4.8l0,0H65c-0.6,0.1-1.2-0.2-1.6-0.7
		c-2.4-3-4.2-6.5-5.3-10.2c-0.2-1,0.4-2,1.4-2.2c1-0.2,2,0.4,2.2,1.4c0.8,2.9,2.2,5.6,3.9,8.1c3.2,0.1,7.3,2.5,10.5,6
		c3.9,4.3,10.1,14.1,7,31.1c-1.2,6.4-4.7,12.1-9.8,16.1c-5,3.8-10.8,6.3-17,7.2C54.5,81.5,52.7,81.6,50.8,81.6z M29.5,70.6l0.1,0.2
		c2.4,4,6.2,7,10.7,8.5c3.4,1.2,6.9,1.8,10.5,1.7c1.8,0,3.6-0.1,5.4-0.4c6.1-0.9,11.9-3.3,16.7-7c5-3.9,8.5-9.5,9.6-15.8
		c3.1-16.7-3-26.3-6.8-30.5l0,0c-3.2-3.5-7.2-5.8-10.2-5.8h-0.1l-0.1-0.1c-1.9-2.5-3.3-5.4-4.2-8.4c-0.1-0.7-0.8-1.1-1.4-1
		c-0.7,0.1-1.1,0.8-1,1.4c0,0.1,0,0.1,0,0.2c1,3.7,2.8,7.1,5.1,10c0.3,0.3,0.7,0.5,1.1,0.4h0.2l0,0c1.6-0.1,5.2,1.1,8.8,5
		s9.1,12.7,6.3,28.4c-1.1,5.6-4.2,10.7-8.7,14.2c-4.5,3.5-9.9,5.7-15.6,6.5c-4.9,0.8-9.9,0.4-14.7-1.2c-4.2-1.4-7.7-4.3-9.8-8.2
		c-0.2-0.4-0.6-0.7-1.1-0.7c-1.3,0-2.7,0.1-4,0.3c-1.4,0.2-2.4,1.5-3.2,3.9c-0.5,1.7-0.8,3.4-0.9,5.1c0,0.7,0.6,1.2,1.3,1.2
		c0.6,0,1.1-0.5,1.2-1.1c0.1-1.4,0.3-2.7,0.6-4.1c0.2-0.9,0.6-1.8,1.2-2.5h0.1h0.1c0.9-0.1,1.8-0.2,2.6-0.2L29.5,70.6L29.5,70.6z"/>
	<path class="st0" d="M30.3,62.3c0.5,0,0.9-0.2,1.2-0.6c1-1.2,2.3-2.1,3.7-2.9c4.9-2.6,9.5-5.8,13.8-9.4c4.8-4.3,7.4-8.4,8-12.7
		c0.3-2.8,1-5.5,2.1-8.1c0.3-0.5,0.2-1.2-0.2-1.6c-2.9-3.6-4.9-7.7-6.1-12.1c-0.2-0.8-1-1.3-1.9-1.2c-0.8,0.2-1.3,1-1.2,1.9
		c1.2,4.6,3.3,8.9,6.2,12.6c-1,2.6-1.7,5.3-2,8.1c-1.2,8.2-12.1,15.2-20.2,19.8c-1.5,0.8-2.8,1.8-4,3c-1.6,0-3.2,0.1-4.8,0.4
		c-9,1.4-11.5,11.8-11.6,17.7c0,0.8,0.7,1.5,1.5,1.6c0,0,0,0,0,0l0,0c0.8,0,1.5-0.7,1.5-1.5c0-3.1,0.7-6.2,2-9
		c1.6-3.3,3.9-5.2,7-5.7C27,62.4,28.7,62.2,30.3,62.3z"/>
	<path class="st1" d="M14.8,79L14.8,79c-0.5,0-1-0.2-1.3-0.5c-0.4-0.4-0.5-0.8-0.5-1.3c0.1-6.1,2.7-16.6,11.9-18
		c1.6-0.2,3.1-0.4,4.7-0.4c1.2-1.2,2.5-2.2,4-3c8.1-4.6,18.9-11.6,20-19.6c0.3-2.7,1-5.4,2-8c-2.8-3.8-4.9-8.1-6.1-12.6
		c-0.2-1,0.4-2,1.4-2.2c1-0.2,2,0.4,2.2,1.4c1.2,4.4,3.2,8.5,6.1,12c0.4,0.6,0.5,1.3,0.2,2c-1.1,2.5-1.8,5.2-2.1,8
		c-0.6,4.4-3.2,8.6-8.1,12.9c-4.2,3.6-8.9,6.8-13.8,9.4c-1.4,0.7-2.6,1.7-3.6,2.8c-0.4,0.4-0.9,0.7-1.5,0.7c-1.6,0-3.3,0.1-4.9,0.3
		c-2.9,0.4-5.2,2.3-6.7,5.5c-1.3,2.8-1.9,5.8-2,8.9C16.7,78.2,15.8,79,14.8,79z M51.3,14c-0.1,0-0.2,0-0.3,0
		c-0.7,0.2-1.1,0.8-0.9,1.5c1.2,4.5,3.3,8.8,6.1,12.5l0.1,0.1l-0.1,0.2c-1,2.6-1.7,5.3-2,8c-1.1,8.3-12.1,15.4-20.3,20
		c-1.4,0.8-2.8,1.8-3.9,3l-0.1,0.1h-0.2c-1.6,0-3.2,0.1-4.7,0.4c-8.8,1.3-11.3,11.6-11.4,17.4c0,0.3,0.1,0.7,0.4,0.9
		c0.2,0.2,0.5,0.4,0.9,0.4l0,0c0.7,0,1.2-0.5,1.2-1.2c0-3.2,0.8-6.3,2.1-9.1c1.7-3.4,4.1-5.4,7.2-5.8c1.7-0.2,3.3-0.4,5-0.3l0,0
		c0.4,0,0.7-0.2,1-0.4c1.1-1.2,2.3-2.2,3.7-3c4.9-2.6,9.5-5.7,13.7-9.3c4.7-4.2,7.3-8.3,7.9-12.6c0.3-2.8,1-5.6,2.1-8.2
		c0.2-0.4,0.1-0.9-0.2-1.3c-2.9-3.6-5-7.8-6.2-12.2C52.3,14.4,51.8,14,51.3,14L51.3,14z"/>
	<path class="st2" d="M59.3,72.9c8.7-3.3,15.3-8.6,16.4-16.7c-4.7,1.5-9.9,3.4-16.8,1.1c-3.5-1.1-7.1-1.5-10.7-1.2
		c-4.5,2.9-8.7,4.8-10.2,6.3c0,0-3.1,3.4,1.5,7.1S50.5,76.2,59.3,72.9z"/>
	<path class="st3" d="M73.3,57.2c0,0.1,0,0.2-0.1,0.4C73.4,57.4,73.5,57.3,73.3,57.2z"/>
</g>
</svg>
