<svg width="60" height="50" fill="#ffffff" xmlns="http://www.w3.org/2000/svg" viewBox="0 0 60 50">
<g>
	<path d="M31.9,23.7h-0.5v-7.2c0-2.5-2-4.5-4.5-4.5H10.1c-2.5,0-4.5,2-4.5,4.5v7.2H5c-2.5,0-4.5,2-4.5,4.5v8.4v6.7v5c0,0.6,0.5,1.2,1.2,1.2c0.6,0,1.2-0.5,1.2-1.2v-3.9H34v3.9c0,0.6,0.5,1.2,1.2,1.2s1.2-0.5,1.2-1.2v-5v-6.7v-8.4C36.4,25.8,34.4,23.7,31.9,23.7z M31.9,26.1c1.2,0,2.2,1,2.2,2.2v7.2h-2.7v-9.4H31.9z M7.9,16.5c0-1.2,1-2.2,2.2-2.2h16.8c1.2,0,2.2,1,2.2,2.2v18.9H7.9V16.5z M5,26.1h0.5v9.4H2.8v-7.2C2.8,27.1,3.8,26.1,5,26.1z M2.8,42.2v-4.4h3.9h23.5H34v4.4H2.8z"/>
	<path d="M12.6,22h0.8v0.8c0,0.6,0.5,1.2,1.2,1.2c0.6,0,1.2-0.5,1.2-1.2V22h0.8c0.6,0,1.2-0.5,1.2-1.2c0-0.6-0.5-1.2-1.2-1.2h-0.8v-0.8c0-0.6-0.5-1.2-1.2-1.2c-0.6,0-1.2,0.5-1.2,1.2v0.8h-0.8c-0.6,0-1.2,0.5-1.2,1.2C11.4,21.5,12,22,12.6,22z"/>
	<path d="M20.4,22h0.8v0.8c0,0.6,0.5,1.2,1.2,1.2c0.6,0,1.2-0.5,1.2-1.2V22h0.8c0.6,0,1.2-0.5,1.2-1.2c0-0.6-0.5-1.2-1.2-1.2h-0.8v-0.8c0-0.6-0.5-1.2-1.2-1.2c-0.6,0-1.2,0.5-1.2,1.2v0.8h-0.8c-0.6,0-1.2,0.5-1.2,1.2C19.2,21.5,19.7,22,20.4,22z"/>
	<path d="M12.6,30.1h0.8v0.8c0,0.6,0.5,1.2,1.2,1.2c0.6,0,1.2-0.5,1.2-1.2v-0.8h0.8c0.6,0,1.2-0.5,1.2-1.2c0-0.6-0.5-1.2-1.2-1.2h-0.8V27c0-0.6-0.5-1.2-1.2-1.2c-0.6,0-1.2,0.5-1.2,1.2v0.8h-0.8c-0.6,0-1.2,0.5-1.2,1.2C11.4,29.6,12,30.1,12.6,30.1z"/>
	<path d="M20.4,30.1h0.8v0.8c0,0.6,0.5,1.2,1.2,1.2c0.6,0,1.2-0.5,1.2-1.2v-0.8h0.8c0.6,0,1.2-0.5,1.2-1.2c0-0.6-0.5-1.2-1.2-1.2h-0.8V27c0-0.6-0.5-1.2-1.2-1.2c-0.6,0-1.2,0.5-1.2,1.2v0.8h-0.8c-0.6,0-1.2,0.5-1.2,1.2C19.2,29.6,19.7,30.1,20.4,30.1z"/>
	<path d="M59.5,17.7L57.2,1.4c-0.1-0.6-0.6-1-1.2-1H41.4c-0.6,0-1.1,0.4-1.2,1L38,17.7c0,0.3,0.1,0.7,0.3,0.9c0.2,0.3,0.5,0.4,0.9,0.4h8.4v27.9h-6.4c-0.6,0-1.2,0.5-1.2,1.2c0,0.6,0.5,1.2,1.2,1.2h15.1c0.6,0,1.2-0.5,1.2-1.2c0-0.6-0.5-1.2-1.2-1.2h-6.4V19h8.4c0.3,0,0.7-0.1,0.9-0.4C59.4,18.3,59.5,18,59.5,17.7z M40.5,16.7l1.9-13.9H55L57,16.7H40.5z"/>
</g>
</svg>
