<svg width="52" height="60" fill="#ffffff" xmlns="http://www.w3.org/2000/svg" viewBox="0 0 52 60">
	<g>
		<path d="M26,32.9c-6.5,0-12.7-0.5-17.4-1.4C3.1,30.4,0.6,29,0.6,27c0-1,0.7-1.9,2.1-2.7C3.2,24,4,24.2,4.3,24.8c0.3,0.6,0.1,1.3-0.5,1.6C3.3,26.7,3.1,26.9,3,27c0.9,1.3,9.1,3.5,23,3.5s22-2.2,23-3.5c-0.1-0.1-0.3-0.3-0.9-0.6c-0.6-0.3-0.8-1-0.5-1.6c0.3-0.6,1-0.8,1.6-0.5c1.5,0.8,2.2,1.7,2.2,2.7c0,2-2.6,3.4-8.1,4.5C38.7,32.4,32.5,32.9,26,32.9z"/>
		<path d="M26,59.5c-5.5,0-11.1-1.8-11.1-5.3c0-0.4,0.1-0.9,0.4-1.5C6.2,48.2,0.5,38.4,0.5,27.4c0-0.7,0.5-1.2,1.2-1.2c0.7,0,1.2,0.5,1.2,1.2c0,10.5,6,20,14.8,23.7c0.4,0.2,0.7,0.5,0.7,1c0.1,0.4-0.1,0.8-0.4,1.1c-0.2,0.2-0.7,0.6-0.7,1c0,1.2,3.4,2.9,8.6,2.9s8.6-1.7,8.6-2.9c0-0.4-0.4-0.8-0.7-1c-0.3-0.3-0.5-0.7-0.4-1.1c0.1-0.4,0.3-0.8,0.7-1c8.9-3.8,14.8-13.3,14.8-23.7c0-0.7,0.5-1.2,1.2-1.2c0.7,0,1.2,0.5,1.2,1.2c0,11-5.8,20.8-14.8,25.3c0.3,0.6,0.4,1.1,0.4,1.5C37.1,57.7,31.5,59.5,26,59.5z"/>
		<path d="M30.8,32.8c0,0-0.1,0-0.1,0c-0.7-0.1-1.1-0.7-1.1-1.3c1.2-10.7,0.2-15.3-1-16c-0.8-0.4-1.2-0.3-1.5-0.2c-1.4,0.6-2.5,3.3-2.9,4.8c-0.1,0.5-0.5,0.9-1,0.9c-0.5,0.1-1-0.2-1.2-0.7c-0.1-0.1-1.6-3.1-5-2.6c-0.8,0.1-1.4,0.4-1.8,1c-0.8,1.1-0.8,2.8-0.7,3.4c0.1,0.4-0.1,0.8-0.4,1.1c-0.3,0.3-0.8,0.4-1.2,0.2c-1.5-0.5-3-0.3-3.8,0.4c-0.4,0.4-0.6,1-0.4,1.7c0.5,1.9,1.2,2.5,2.2,3.3c0.2,0.2,0.4,0.3,0.6,0.5c0.5,0.4,0.5,1.2,0.1,1.7c-0.4,0.5-1.2,0.5-1.7,0.1c-0.2-0.2-0.4-0.3-0.6-0.5c-1.1-0.9-2.3-1.9-3-4.5c-0.5-1.6-0.1-3.1,1-4.1c1.1-1.1,2.8-1.5,4.6-1.3c0.1-1.1,0.3-2.4,1.2-3.5c0.8-1.1,2-1.7,3.4-1.9c2.8-0.4,4.8,0.8,6,2c0.7-1.6,1.8-3.5,3.6-4.3c0.8-0.3,2.1-0.6,3.7,0.4c1,0.6,4,2.3,2.2,18.4C31.9,32.3,31.4,32.8,30.8,32.8z"/>
		<path d="M40.9,31.7c-0.3,0-0.6-0.1-0.8-0.3c-0.5-0.4-0.6-1.2-0.1-1.7c1.9-2.2,6.7-8.8,6.6-12.9c-0.1-2.6-2.1-4.4-4-4.9c-0.8-0.2-2.9-0.5-4.1,1.4c-1.6,2.5-4.1,7.3-5.9,10.9c-0.3,0.6-1,0.8-1.6,0.5c-0.6-0.3-0.8-1-0.5-1.6c1.8-3.6,4.3-8.5,6-11.1c1.4-2.3,4-3.2,6.8-2.5c3.3,0.9,5.7,3.8,5.8,7.1c0.2,5.9-6.9,14.3-7.2,14.6C41.6,31.5,41.2,31.7,40.9,31.7z"/>
		<path d="M44.9,11.8C44.9,11.8,44.9,11.8,44.9,11.8c-0.8,0-1.3-0.6-1.2-1.3l0.6-8.9c0-0.7,0.6-1.2,1.3-1.1c0.7,0,1.2,0.6,1.1,1.3l-0.6,8.9C46.1,11.3,45.6,11.8,44.9,11.8z"/>
		<path d="M45.1,12.9c-0.3,0-0.6-0.1-0.9-0.4c-0.5-0.5-0.4-1.3,0-1.7l4.3-4.1c0.5-0.5,1.3-0.4,1.7,0c0.5,0.5,0.4,1.3,0,1.7L46,12.5C45.7,12.7,45.4,12.9,45.1,12.9z"/>
		<path d="M40.4,20.2c-0.3,0-0.7-0.1-0.9-0.4c-0.5-0.6-2.3-2.1-3.5-1.6c-0.6,0.2-1.3-0.1-1.6-0.7c-0.2-0.6,0.1-1.3,0.7-1.6c3.1-1.2,6.1,2.1,6.2,2.3c0.4,0.5,0.4,1.3-0.1,1.7C40.9,20.1,40.6,20.2,40.4,20.2z"/>
		<path d="M42.1,28.4c-0.4,0-0.8-0.2-1-0.5c-1.3-1.9-2.7-1.7-2.7-1.7c-0.7,0.1-1.3-0.3-1.4-1c-0.1-0.7,0.3-1.3,1-1.4c0.1,0,3-0.5,5.1,2.7c0.4,0.6,0.2,1.3-0.3,1.7C42.6,28.3,42.4,28.4,42.1,28.4z"/>
		<path d="M18.1,32.2c-0.5,0-0.9-0.3-1.1-0.7l-2.3-4.9c-0.3-0.6,0-1.3,0.6-1.6c0.6-0.3,1.3,0,1.6,0.6l2.3,4.9c0.3,0.6,0,1.3-0.6,1.6C18.5,32.2,18.3,32.2,18.1,32.2z"/>
		<path d="M24.7,32c-0.6,0-1.1-0.4-1.2-1.1l-0.9-7c-0.1-0.7,0.4-1.3,1-1.4c0.7-0.1,1.3,0.4,1.4,1l0.9,7c0.1,0.7-0.4,1.3-1,1.4C24.8,32,24.8,32,24.7,32z"/>
		<path class="st0" d="M26.4,55.3c-5.4,0-9.5-1.8-9.8-1.9c-0.6-0.3-0.9-1-0.6-1.6c0.3-0.6,1-0.9,1.6-0.6c0.1,0,9.1,3.8,17.3-0.2c0.6-0.3,1.3-0.1,1.6,0.5c0.3,0.6,0.1,1.3-0.5,1.6C32.7,54.7,29.3,55.3,26.4,55.3z"/>
	</g>
</svg>
