<svg width="80" height="48" fill="#fff" xmlns="http://www.w3.org/2000/svg" viewBox="0 0 80 48">
<g>
	<path d="M27.8,48c-0.6,0-1.3-0.2-1.8-0.6c-0.9-0.7-1.4-1.8-1.2-3l2.1-12c0-0.1,0-0.2-0.1-0.3l-8.7-8.5c-0.8-0.8-1.1-2-0.8-3.1s1.3-1.9,2.5-2.1l12.1-1.8c0.1,0,0.2-0.1,0.2-0.2l5.4-10.9c0.5-1,1.6-1.7,2.7-1.7c1.2,0,2.2,0.6,2.7,1.7l0,0l5.4,10.9c0,0.1,0.1,0.2,0.2,0.2l12.1,1.8c1.2,0.2,2.1,1,2.5,2.1c0.4,1.1,0.1,2.3-0.8,3.1l-8.7,8.5c-0.1,0.1-0.1,0.2-0.1,0.3l2.1,12c0.2,1.1-0.3,2.3-1.2,3c-0.9,0.7-2.2,0.8-3.2,0.2l-10.8-5.7c-0.1,0-0.2,0-0.3,0l-10.8,5.7C28.8,47.8,28.3,48,27.8,48z M40.2,39.2c0.5,0,1,0.1,1.4,0.3l10.8,5.7c0.1,0.1,0.2,0.1,0.3,0c0.1-0.1,0.1-0.2,0.1-0.3l-2.1-12c-0.2-1,0.2-2,0.9-2.7l8.7-8.5c0.1-0.1,0.1-0.2,0.1-0.3c0-0.1-0.1-0.2-0.2-0.2l-12.1-1.8c-1-0.1-1.8-0.8-2.3-1.7L40.5,6.8c-0.1-0.2-0.4-0.2-0.6,0l-5.4,10.9c-0.4,0.9-1.3,1.5-2.3,1.7l-12.1,1.8c-0.1,0-0.2,0.1-0.2,0.2c0,0.1,0,0.2,0.1,0.3l8.7,8.5c0.7,0.7,1,1.7,0.9,2.7l-2.1,12c0,0.1,0,0.2,0.1,0.3c0.1,0.1,0.2,0.1,0.3,0l10.8-5.7C39.2,39.3,39.7,39.2,40.2,39.2z"/>
	<path d="M8.2,31.9c-0.6,0-1.3-0.2-1.8-0.6c-0.9-0.7-1.4-1.8-1.2-3l1.3-7.6c0-0.1,0-0.2-0.1-0.3l-5.5-5.4c-0.8-0.8-1.1-2-0.8-3.1c0.4-1.1,1.3-1.9,2.5-2.1l7.6-1.1c0.1,0,0.2-0.1,0.2-0.2l3.4-6.9c0.5-1,1.6-1.7,2.7-1.7c1.2,0,2.2,0.6,2.7,1.7l3.4,6.9c0,0.1,0.1,0.2,0.2,0.2l6.6,1l-0.4,2.7l-6.6-1c-1-0.1-1.8-0.8-2.3-1.7l-3.4-6.9c-0.1-0.2-0.4-0.2-0.6,0l-3.4,6.9c-0.4,0.9-1.3,1.5-2.3,1.7L3,12.6c-0.1,0-0.2,0.1-0.2,0.2c0,0.1,0,0.2,0.1,0.3l5.5,5.4c0.7,0.7,1,1.7,0.9,2.7l-1.3,7.6c0,0.1,0,0.2,0.1,0.3c0.1,0.1,0.2,0.1,0.3,0l7.6-4l1.3,2.4l-7.6,4C9.2,31.8,8.7,31.9,8.2,31.9z"/>
	<path d="M71.8,31.9c-0.5,0-1-0.1-1.4-0.4l-7.6-4l1.3-2.4l7.6,4c0.1,0.1,0.2,0.1,0.3,0c0.1-0.1,0.1-0.2,0.1-0.3l-1.3-7.6c-0.2-1,0.2-2,0.9-2.7l5.5-5.4c0.1-0.1,0.1-0.2,0.1-0.3c0-0.1-0.1-0.2-0.2-0.2l-7.6-1.1c-1-0.1-1.8-0.8-2.3-1.7l-3.4-6.9c-0.1-0.1-0.1-0.2-0.3-0.2l0,0c-0.1,0-0.2,0.1-0.3,0.2l-3.4,6.9c-0.4,0.9-1.3,1.5-2.3,1.7l-6.6,1l-0.4-2.7l6.6-1c0.1,0,0.2-0.1,0.2-0.2l3.4-6.9c0.5-1,1.6-1.7,2.7-1.7c0,0,0,0,0,0c1.2,0,2.2,0.6,2.7,1.7l3.4,6.9c0,0.1,0.1,0.2,0.2,0.2l7.6,1.1c1.2,0.2,2.1,1,2.5,2.1c0.4,1.1,0.1,2.3-0.8,3.1l-5.5,5.4c-0.1,0.1-0.1,0.2-0.1,0.3l1.3,7.6c0.2,1.1-0.3,2.3-1.2,3C73,31.7,72.4,31.9,71.8,31.9z"/>
</g>
</svg>
