<svg width="64" height="45" xmlns="http://www.w3.org/2000/svg" viewBox="0 0 64 45">
	<g>
		<path fill="#ffffff" d="M62.9,22.3c-0.1-0.4-0.3-0.6-0.7-0.8l-13.1-5.6c0,0-0.1,0-0.1,0c0,0,0,0-0.1,0c-0.1,0-0.2,0-0.3,0c0,0,0,0,0,0l-7.4,0c0.7-1.9,1.2-3.6,1.2-4.8c0-5.8-4.7-10.5-10.5-10.5c-5.8,0-10.5,4.7-10.5,10.5c0,0.2,0,0.3,0,0.5l-2.7-1.2c-0.5-0.2-1.1-0.1-1.4,0.4L1.3,31.4c-0.2,0.3-0.3,0.7-0.2,1c0.1,0.4,0.3,0.6,0.7,0.8l13.1,5.6c0,0,0.1,0,0.1,0c0,0,0.1,0,0.1,0c0.1,0,0.2,0,0.3,0c0,0,0,0,0,0l17.1,0l12.8,5.5c0.2,0.1,0.3,0.1,0.5,0.1c0.4,0,0.7-0.2,0.9-0.5l16.1-20.7C63,23,63,22.7,62.9,22.3z M46.3,18.2L32.1,36.6l-14.4,0l9.3-11.9c1.9,3.4,3.7,6.2,4.1,6.9c0.2,0.3,0.6,0.5,1,0.5c0.4,0,0.8-0.2,1-0.5c0.7-1,4.7-7.5,7.3-13.3L46.3,18.2z M32,2.9c4.5,0,8.1,3.7,8.1,8.1c0,3.5-5.2,12.8-8.1,17.6c-1.1-1.8-2.5-4.2-3.9-6.7c0,0,0,0,0,0c-1.7-3.1-3.2-6.4-3.9-8.8c0,0,0,0,0,0c-0.2-0.8-0.4-1.5-0.4-2C23.9,6.5,27.5,2.9,32,2.9z M18.7,12.9l3.5,1.5c0.8,2.4,2.1,5.3,3.6,8L14.9,36.3L4.1,31.6L18.7,12.9z M45.3,41.9l-10.8-4.6l14.6-18.8l10.8,4.6L45.3,41.9z"/>
			<path fill="#ffffff" d="M32,17c3.3,0,6-2.7,6-6c0-3.3-2.7-6-6-6c-3.3,0-6,2.7-6,6C26,14.3,28.7,17,32,17z M32,7.3c2,0,3.7,1.6,3.7,3.7c0,2-1.6,3.7-3.7,3.7c-2,0-3.7-1.6-3.7-3.7C28.3,9,30,7.3,32,7.3z"/>
	</g>
</svg>
