<svg width="97" height="93" xmlns="http://www.w3.org/2000/svg"><style>.st1{fill:#4fafa6}</style><path d="M36.9 69.3c-1.8 0-3.5-1.1-4.3-2.7-2.4-.3-4.2-2.4-4.2-4.8-.1-1 .1-2.1.7-3-3.2-1.3-4.8-4.9-3.5-8.1l.6-1.2c-2.3-2-2.8-5.4-1.1-8-1.4-1.8-1.3-4.3.1-6-1.3-2.3-.4-5.2 1.9-6.5.4-.2.8-.4 1.3-.5v-.7c.1-2.7 2.4-4.7 5-4.6 2.5.1 4.4 2.1 4.6 4.6 0 .3 0 .5-.1.8 1.4.9 2.2 2.4 2.2 4v.7c.6.5 1 1.1 1.3 1.8 2.3-.7 4.8 0 6.5 1.8 1.3-.6 2.7-.6 3.9 0a6.5 6.5 0 014.3-.9c.2-.3.5-.6.7-.9-.9-2.1-.2-4.7 1.8-5.9v-.3c.4-2.6 2.8-4.5 5.4-4.1 2 .3 3.6 1.7 4 3.7 2.6.6 4.2 3.1 3.7 5.7-.2.7-.5 1.4-1 2 2.4 2 3 5.4 1.4 8.1 1.3 2.1 1.2 4.9-.3 6.9.7.8 1.1 1.9 1.1 3 0 2.2-1.5 4.1-3.6 4.7v.5c0 2.6-1.6 4.9-4 5.8-1.3 2.3-4.3 3.1-6.6 1.7-1.7-1-2.6-2.9-2.3-4.9-.4-.2-.7-.5-1-.9h-.2c-1.6 0-3.2-.9-4-2.2-1.6.4-3.4.2-4.8-.7-1 .6-2 .9-3.2.9-.6 1-1.4 1.9-2.5 2.5 1.6 2.1 1.2 5.1-1 6.7-.8.7-1.8 1-2.8 1zm-3.6-4.9c.5 0 .9.3 1.1.8.4 1.4 1.9 2.1 3.3 1.7 1.4-.4 2.1-1.9 1.7-3.3-.2-.6-.6-1.2-1.2-1.5-.5-.3-.7-1-.4-1.5.2-.3.4-.4.7-.5 1.4-.2 2.5-1.2 3-2.4.2-.5.7-.8 1.2-.7h.5c.9 0 1.8-.3 2.5-.9.4-.3 1-.3 1.4 0 .7.6 1.6.9 2.5.9.6 0 1.1-.1 1.6-.4.6-.2 1.2 0 1.5.6.4 1 1.3 1.7 2.4 1.7h.5c.4-.1.9.1 1.1.5.3.5.8.8 1.3 1 .6.2.9.9.6 1.4-.1.3-.2.6-.2 1 0 1.4 1.2 2.6 2.6 2.6 1 0 1.9-.6 2.4-1.5.1-.3.4-.6.7-.6 2.1-.6 3.3-2.8 2.7-5v-.1c-.2-.6.2-1.2.8-1.4h.4c1.4 0 2.6-1.2 2.6-2.6 0-.8-.4-1.6-1-2.1-.5-.4-.6-1.1-.2-1.6l.1-.1c1.5-1.4 1.7-3.8.4-5.4-.3-.4-.3-1 0-1.4 1.4-1.7 1.2-4.2-.5-5.6l-.9-.6c-.6-.3-.8-.9-.5-1.5.1-.2.2-.4.4-.5 1.2-.7 1.7-2.3.9-3.6-.5-.8-1.3-1.3-2.2-1.3-.6 0-1.2-.4-1.2-1v-.7c0-1.4-1.2-2.6-2.6-2.6-1.4 0-2.6 1.2-2.6 2.6 0 .2 0 .4.1.6.1.5-.1 1.1-.6 1.3-1 .4-1.6 1.3-1.6 2.4 0 .6.2 1.1.5 1.5.4.5.3 1.2-.2 1.6h-.1c-.5.3-.9.8-1.1 1.3-.2.6-.8.8-1.4.7-.4-.1-.8-.2-1.2-.2-.9 0-1.8.3-2.5.9-.4.3-.9.3-1.3.1-.4-.3-.9-.4-1.4-.4-.6 0-1.2.2-1.6.6-.5.4-1.2.3-1.6-.2l-.1-.1c-1.2-1.8-3.6-2.4-5.4-1.4-.5.3-1.2.1-1.5-.4-.1-.1-.1-.3-.1-.4-.1-.8-.5-1.6-1.2-2-.4-.3-.6-.8-.5-1.3.1-.3.1-.5.1-.8 0-1.1-.6-2-1.6-2.4-.6-.2-.9-.9-.6-1.4.1-.3.2-.6.2-1 0-1.4-1.2-2.6-2.6-2.6-1.4 0-2.6 1.2-2.6 2.6 0 .4.1.8.3 1.2.3.6 0 1.2-.5 1.5-.2.1-.4.1-.6.1h-.3c-1.4 0-2.6 1.2-2.6 2.6 0 .6.2 1.2.6 1.7.4.5.3 1.2-.2 1.6-1.1.9-1.4 2.5-.5 3.6.1.2.3.3.4.4.5.4.5 1.1.1 1.6-1.5 1.7-1.4 4.2.3 5.7.2.2.4.4.7.5.5.3.7 1 .4 1.5 0 .1-.1.1-.2.2-1.6 1.6-1.6 4.1 0 5.7.7.8 1.8 1.2 2.8 1.2.6 0 1.1.5 1.1 1.2 0 .3-.2.6-.4.8-1.3 1-1.5 1.3-1.5 2.8 0 1.4 1.1 2.6 2.6 2.6zm-.2 0zM67 30.7z" fill="#424e75"/><path class="st1" d="M37.3 87.6c-.6 0-1.1-.5-1.1-1.1V74.3c0-.6.5-1.1 1.1-1.1s1.1.5 1.1 1.1v12.2c0 .6-.5 1.1-1.1 1.1zm22.6 0c-.6 0-1.1-.5-1.1-1.1V74.3c0-.6.5-1.1 1.1-1.1s1.1.5 1.1 1.1v12.2c0 .6-.5 1.1-1.1 1.1zM32.3 19.5c-.4 0-.8-.2-1-.6L29.9 16c-.2-.4-.4-.9-.4-1.5.1-.7.3-1.4.8-2 2.9-3.6 6.9-6.2 11.4-7.2.3-.1.7 0 1 .3h.1c.2.2.3.4.5.6.5 1 .9 2 1.2 3 .5 1.5 1.1 3 1.8 4.5.9 1.7 1.4 1.7 1.5 1.7.6 0 1.1.5 1.1 1.1 0 .6-.5 1.1-1.1 1.1-2.6 0-4.1-4.1-5.4-7.6-.3-.9-.6-1.7-.9-2.2-3.7 1-7.1 3.2-9.5 6.2-.2.2-.3.4-.4.6 0 .2.1.3.2.5l1.3 2.9c.2.6-.1 1.2-.7 1.4.1.1 0 .1-.1.1z"/><path class="st1" d="M64.3 19.5c-.6 0-1.1-.5-1.1-1.1 0-.1 0-.3.1-.4l1.3-2.8c.1-.2.2-.3.2-.5-.1-.2-.2-.4-.4-.6-2.4-3-5.7-5.2-9.5-6.2-.2.5-.5 1.1-.9 1.9-1.6 3.6-3.5 8-6 8h-.5c-.6-.2-.9-.9-.6-1.5.2-.4.6-.7 1.1-.7 0 0 .6 0 1.7-1.8.9-1.6 1.7-3.2 2.4-4.9.3-.9.7-1.7 1.1-2.5.1-.2.3-.4.4-.5h.1c.3-.2.6-.3 1-.3 4.5 1 8.6 3.6 11.4 7.2.5.5.8 1.2.8 2 0 .5-.2 1-.4 1.5L65.2 19c-.1.3-.5.5-.9.5zM48.7 85.7c-2.3 0-4.7-.3-6.9-1.1-.6-.1-1-.7-.9-1.3.1-.6.7-1 1.3-.9.1 0 .3.1.4.1 3.9 1.4 8.1 1.4 12 0 .5-.3 1.2-.2 1.6.3.3.5.2 1.2-.3 1.6-.1.1-.2.1-.4.2-2.2.8-4.5 1.2-6.8 1.1zm0-10.1c-2.3 0-4.7-.3-6.9-1.1-.6-.1-1-.7-.9-1.3.1-.6.7-1 1.3-.9.1 0 .3.1.4.1 3.9 1.4 8.1 1.4 12 0 .5-.3 1.2-.2 1.6.3.3.5.2 1.2-.3 1.6-.1.1-.2.1-.4.2-2.2.8-4.5 1.2-6.8 1.1zm0-46.7c-2.3 0-4.7-.3-6.9-1.1-.6-.1-1-.7-.9-1.3.1-.6.7-1 1.3-.9.1 0 .3.1.4.1 3.9 1.4 8.1 1.4 12 0 .5-.3 1.2-.2 1.6.3.3.5.2 1.2-.3 1.6-.1.1-.2.1-.4.2-2.2.7-4.5 1.1-6.8 1.1z"/></svg>