<svg width="97" height="93" xmlns="http://www.w3.org/2000/svg"><style>.st1{fill:#fff}.st2{fill:#435077}</style><path d="M41.3 92.5c-.7 0-1.2-.5-1.2-1.2l-1.6-31.6V32.4c.1-.7.7-1.2 1.4-1.1.6.1 1 .5 1.1 1.1v27.3l1.6 31.6c0 .6-.5 1.2-1.3 1.2zm16.2 0c-.7 0-1.3-.6-1.2-1.3l1.6-31.6V32.4c0-.7.6-1.2 1.2-1.2.7 0 1.2.5 1.2 1.2v27.5l-1.6 31.5c-.1.6-.6 1.1-1.2 1.1zm-8.1 0c-.7 0-1.2-.5-1.2-1.2V60.2c0-.7.5-1.2 1.2-1.2s1.2.5 1.2 1.2v31.1c0 .7-.5 1.2-1.2 1.2zM33.3 61c-.7 0-1.2-.5-1.3-1.2v-.1l.3-30.9c0-5.9 8.5-8.6 17-8.6 3.8-.1 7.7.6 11.3 1.9 4.7 2 5.7 4.7 5.7 6.7l.3 30.8c0 .7-.5 1.2-1.2 1.2s-1.2-.5-1.3-1.2l-.3-30.8c0-4-7.6-6.2-14.5-6.2-7 0-14.5 2.2-14.5 6.2l-.3 30.9c0 .8-.5 1.3-1.2 1.3zm16.1-42.3c-.4 0-.8-.1-1.2-.1h-.1c-2.2-.5-4.1-1.9-5.2-3.8-1-1.9-1.4-6.3-1.2-8.1.4-4.2 4.3-6.1 7.8-6.1s7.4 1.9 7.8 6.1c.2 1.8-.2 6.2-1.2 8.1-1.2 1.9-3 3.2-5.2 3.7h-.1c-.6.1-1 .2-1.4.2zm-.8-2.6c.5.1 1.1.1 1.6 0 1.5-.3 2.7-1.2 3.6-2.5.7-1.2 1.1-5.1.9-6.7-.2-2.7-2.8-3.9-5.3-3.9s-5.1 1.2-5.3 3.9c-.2 1.6.3 5.5.9 6.7.8 1.3 2.1 2.2 3.6 2.5z" fill="#4fafa6"/><circle class="st1" cx="34.1" cy="24.2" r="3.9"/><path class="st2" d="M34.1 29.2c-2.7 0-4.9-2.2-4.9-4.9s2.2-4.9 4.9-4.9 4.9 2.2 4.9 4.9-2.2 4.9-4.9 4.9zm0-7.8c-1.6 0-2.8 1.3-2.8 2.8s1.3 2.8 2.8 2.8c1.6 0 2.8-1.3 2.8-2.8s-1.3-2.8-2.8-2.8z"/><circle class="st1" cx="62.9" cy="24.2" r="3.9"/><path class="st2" d="M62.9 29.2c-2.7 0-4.9-2.2-4.9-4.9s2.2-4.9 4.9-4.9 4.9 2.2 4.9 4.9-2.2 4.9-4.9 4.9zm0-7.8c-1.6 0-2.8 1.3-2.8 2.8s1.3 2.8 2.8 2.8c1.6 0 2.8-1.3 2.8-2.8s-1.2-2.8-2.8-2.8z"/><circle class="st1" cx="43.6" cy="58.8" r="3.9"/><path class="st2" d="M43.6 63.8c-2.7 0-4.9-2.2-4.9-4.9s2.2-4.9 4.9-4.9 4.9 2.2 4.9 4.9c0 2.6-2.2 4.8-4.9 4.9zm0-7.8c-1.6 0-2.8 1.3-2.8 2.8 0 1.6 1.3 2.8 2.8 2.8 1.6 0 2.8-1.3 2.8-2.8.1-1.6-1.2-2.8-2.8-2.8z"/><circle class="st1" cx="43.6" cy="76.8" r="3.9"/><path class="st2" d="M43.6 81.7c-2.7 0-4.9-2.2-4.9-4.9s2.2-4.9 4.9-4.9 4.9 2.2 4.9 4.9-2.2 4.9-4.9 4.9zm0-7.8c-1.6 0-2.8 1.3-2.8 2.8 0 1.6 1.3 2.8 2.8 2.8 1.6 0 2.8-1.3 2.8-2.8.1-1.5-1.2-2.8-2.8-2.8z"/><circle class="st1" cx="54.4" cy="58.8" r="3.9"/><path class="st2" d="M54.4 63.8c-2.7 0-4.9-2.2-4.9-4.9s2.2-4.9 4.9-4.9 4.9 2.2 4.9 4.9-2.2 4.9-4.9 4.9zm0-7.8c-1.6 0-2.8 1.3-2.8 2.8 0 1.6 1.3 2.8 2.8 2.8 1.6 0 2.8-1.3 2.8-2.8 0-1.6-1.3-2.8-2.8-2.8z"/><circle class="st1" cx="62.1" cy="41.5" r="3.9"/><path class="st2" d="M62.1 46.5c-2.7 0-4.9-2.2-4.9-4.9s2.2-4.9 4.9-4.9 4.9 2.2 4.9 4.9-2.2 4.9-4.9 4.9zm0-7.8c-1.6 0-2.8 1.3-2.8 2.8s1.3 2.8 2.8 2.8c1.6 0 2.8-1.3 2.8-2.8s-1.2-2.8-2.8-2.8z"/><circle class="st1" cx="35.8" cy="41.5" r="3.9"/><path class="st2" d="M35.8 46.5c-2.7 0-4.9-2.2-4.9-4.9s2.2-4.9 4.9-4.9 4.9 2.2 4.9 4.9c.1 2.7-2.1 4.9-4.9 4.9zm0-7.8c-1.6 0-2.8 1.3-2.8 2.8s1.3 2.8 2.8 2.8c1.6 0 2.8-1.3 2.8-2.8.1-1.6-1.2-2.8-2.8-2.8z"/><circle class="st1" cx="54.4" cy="76.8" r="3.9"/><path class="st2" d="M54.4 81.7c-2.7 0-4.9-2.2-4.9-4.9s2.2-4.9 4.9-4.9 4.9 2.2 4.9 4.9-2.2 4.9-4.9 4.9zm0-7.8c-1.6 0-2.8 1.3-2.8 2.8 0 1.6 1.3 2.8 2.8 2.8 1.6 0 2.8-1.3 2.8-2.8 0-1.5-1.3-2.8-2.8-2.8z"/></svg>