<svg width="97" height="93" xmlns="http://www.w3.org/2000/svg"><path d="M61.9 20c.3-.9.8-1.7 1.5-2.4-3-1.4-6.2-2.5-9.5-3.2.1 1 0 1.9-.3 2.8 2.8.7 5.6 1.6 8.3 2.8zM22.1 49.7c.7.7 1.2 1.5 1.6 2.4l10.8-6.3c-.6-.7-1.1-1.6-1.4-2.4l-11 6.3zM21 61.1c-.8.6-1.8 1-2.8 1.1 2.2 2.8 5.3 4.7 8.7 5.6-.1-1 0-2 .4-2.8-2.4-.7-4.6-2.1-6.3-3.9zm19.5 4.3c-.3-.4-.8-.5-1.3-.4l-1.7.3c.5 1.4.4 2.9-.3 4.3l-3.6 13.3h3l4.3-16.2c.1-.5 0-1-.4-1.3zM14.3 36.9c-1.2 3.8-1.6 7.7-1.2 11.6.9-.5 1.8-.8 2.8-.9-.2-3.2.1-6.4 1-9.5-.9-.2-1.8-.7-2.6-1.2zM52 65.2c3.1-.9 6.6-1.9 9.3-5.1-.9-.2-1.8-.7-2.5-1.4l-.1-.1c-2.3 2.3-5.1 3.1-7.5 3.8-3.6 1-6.7 1.9-7.8 5.9l-4 14.4h3L46.1 69c.8-2.3 3.1-3 5.9-3.8zM23.2 22.9c.8.5 1.6 1.1 2.2 1.8 4-3.6 8.8-6.2 14.1-7.4-.3-.9-.4-1.9-.3-2.8-6.1 1.3-11.6 4.2-16 8.4zm42 27.2c.6-2.8 1.2-5.7 1.8-8.1v-.2h5.9c-.2-.9-.2-1.9 0-2.8h-5.2l.1-.3c.6-2.5 1.1-5 1.6-7.4-1 0-1.9-.2-2.8-.6-.5 2.4-1 4.8-1.6 7.1l-.3 1.2H48.9c.2.9.2 1.9 0 2.8H64v.4c-.4 2-1 4.7-1.6 7.4h.2c.9-.1 1.8.1 2.6.5zm12.5-2.7c-1.6 3.4-4.7 5.3-9.8 5.9.3.9.3 1.9.1 2.8 6.6-.7 10.8-3.6 12.7-8.4-1.1.1-2.1 0-3-.3zm-3.1-17.8c1 1.3 1.8 2.6 2.5 4 .9-.4 1.8-.6 2.8-.7-.9-2-2-3.8-3.3-5.5-.6.9-1.3 1.6-2 2.2zm-31.7-4.3L27 27.6c.3.8.4 1.7.4 2.5v.3l14.8-2.1-.9 3.8c1 .1 1.9.3 2.8.6l1.2-4.9 16.5-2.3c-.3-.9-.4-1.9-.4-2.8L46 24.9l.6-2.5c-1 0-1.9-.2-2.8-.5l-.9 3.4zm-5.7 31h20.2c-.3-.9-.3-1.9 0-2.8H38.1l1.6-4.9c-.9-.1-1.9-.4-2.7-.9l-1.8 5.8h-11c.2.9.2 1.9 0 2.8h10.1l-1.7 5.3c1 0 1.9.3 2.7.9l1.9-6.2zm21.6-5.2l.3-.3-10.7-7.1c-.4.9-.9 1.7-1.6 2.4l10.7 7.1c.3-.8.7-1.5 1.3-2.1zm-26-12.9c.3-.9.7-1.8 1.2-2.6l-7-3.3c-.2.9-.6 1.8-1.2 2.6l7 3.3z" fill="#4fafa6"/><path d="M46.5 12.1c1.6 0 2.8 1.3 2.8 2.8s-1.3 2.8-2.8 2.8c-1.6 0-2.8-1.3-2.8-2.8 0-1.5 1.2-2.7 2.8-2.8m23.1 7.2c2 0 3.7 1.7 3.7 3.7s-1.7 3.7-3.7 3.7-3.7-1.7-3.7-3.7 1.7-3.7 3.7-3.7m-50.5 7.1c2 0 3.7 1.7 3.7 3.7s-1.7 3.7-3.7 3.7-3.7-1.7-3.7-3.7 1.7-3.7 3.7-3.7m21.7 10.3c2 0 3.7 1.7 3.7 3.7s-1.7 3.7-3.7 3.7-3.7-1.7-3.7-3.7c0-2.1 1.6-3.7 3.7-3.7m39.4.8c1.6 0 2.8 1.3 2.8 2.8s-1.3 2.8-2.8 2.8c-1.6 0-2.8-1.3-2.8-2.8-.1-1.5 1.2-2.8 2.8-2.8M16.8 52.1c1.6 0 2.8 1.3 2.8 2.9 0 1.6-1.3 2.8-2.9 2.8-1.6 0-2.8-1.3-2.8-2.9.1-1.6 1.4-2.9 2.9-2.8M62.6 54c.5 0 .9.4.9.9s-.4.9-.9.9-.9-.4-.9-.9c.1-.5.5-.9.9-.9M32.3 66.2c.5 0 .9.4.9.9s-.4.9-.9.9-.9-.4-.9-.9.5-.9.9-.9m14.2-56.1c-2.7 0-4.8 2.2-4.8 4.8s2.2 4.8 4.8 4.8c2.7 0 4.8-2.2 4.8-4.8 0-2.6-2.1-4.8-4.8-4.8zm23.1 7.2c-3.2 0-5.7 2.6-5.7 5.7s2.6 5.7 5.7 5.7 5.7-2.6 5.7-5.7-2.5-5.7-5.7-5.7zm-50.5 7.1c-3.2 0-5.7 2.6-5.7 5.7s2.6 5.7 5.7 5.7 5.7-2.6 5.7-5.7-2.5-5.7-5.7-5.7zm21.7 10.3c-3.2 0-5.7 2.6-5.7 5.7s2.6 5.7 5.7 5.7 5.7-2.6 5.7-5.7c0-3.2-2.6-5.7-5.7-5.7zm39.4.8c-2.7 0-4.8 2.2-4.8 4.8s2.2 4.8 4.8 4.8c2.7 0 4.8-2.2 4.8-4.8 0-2.6-2.2-4.8-4.8-4.8zM16.8 50.1c-2.7 0-4.8 2.2-4.8 4.8s2.2 4.8 4.8 4.8 4.8-2.2 4.8-4.8c.1-2.7-2.1-4.9-4.8-4.8zm45.9 2c-1.6 0-2.9 1.3-2.9 2.8 0 1.6 1.3 2.9 2.8 2.9 1.6 0 2.9-1.3 2.9-2.8v-.1c0-1.6-1.3-2.9-2.8-2.8zM32.3 64.2c-1.6 0-2.8 1.3-2.8 2.8 0 1.6 1.3 2.8 2.8 2.8 1.6 0 2.8-1.3 2.8-2.8.1-1.5-1.2-2.8-2.8-2.8z" fill="#435077"/></svg>