<svg width="97" height="93" xmlns="http://www.w3.org/2000/svg"><style>.st0{fill:#4fafa6}.st1{fill:#fff}.st2{fill:#435077}</style><path class="st0" d="M55.2 45.7l-2-1c-1.2-.7-1.9-1.9-1.9-3.3V14.6c0-1.6-1.2-1.8-2.9-1.8s-2.9.2-2.9 1.8v26.9c0 1.3-.7 2.6-1.8 3.3L41.8 46c-1.1.7-1.1 4.7-.4 5.8l5.1-3.1c1.2-.7 2.8-.7 4 0l5.1 3.1h.1c.3-2.3.3-5.6-.5-6.1z"/><path class="st1" d="M55.9 52.3l-.4-.3-5.1-3.1c-1.1-.7-2.5-.7-3.7 0l-5.4 3.3-.2-.3c-.4-1-.6-2.1-.5-3.2 0-.9.2-2.5 1-3l1.9-1.2c1-.6 1.7-1.8 1.6-3V14.6c0-2.1 1.8-2.1 3.2-2.1s3.2 0 3.2 2.1v26.9c0 1.2.7 2.4 1.7 3l2 1c1.1.7.9 4.8.7 6.4v.4zm-7.4-39.1c-1.8 0-2.5.2-2.5 1.5v26.9c0 1.5-.7 2.8-2 3.6l-2 1c-.5.7-.8 1.6-.7 2.5-.1.9 0 1.7.3 2.6l4.8-2.9c1.3-.8 3-.8 4.4 0l4.7 2.9c.3-2.5.1-4.9-.4-5.2l-2-1c-1.2-.8-2-2.1-2-3.6V14.6c-.1-1.2-.9-1.4-2.6-1.4z"/><path class="st0" d="M56.9 52.1c-.4 0-.8-.1-1.2-.3-.1.7-.2 1.4-.5 2.1-.5.7 2.5-1.8 1.7-1.8zm-15.4-.4c-.4.2-.8.4-1.2.3-.9.1 1.6.5 1.2-.3zm37.9 6c-.6-.3-1.4-.4-2-.1-.5.3-1 .8-1.2 1.3h-1c-.3.1-.7.1-1 .3-.1-1.3-.8-2.5-1.9-3.2-.3-.2-.6-.1-.8.2-.2.3-.1.6.2.8.2.1 2.1 1.5 1 3.4-.4.6-.7 1.3-.9 1.9-.4-.3-1-.5-1.5-.5h-.1c-.2 0-.4-.1-.5-.3-.1-.7 0-1.3.3-1.9.1-.3-.1-.6-.4-.7-.2-.1-.4 0-.6.2-.1.2-.9 1.8-.3 3 .1.1.1.2.2.3-.5.3-.9.8-1.2 1.3-.2.2-.2.6.1.8.2.2.6.2.8-.1.1-.1.1-.1.1-.2.4-.6 1-1.1 1.7-1.2.4 0 .8.2 1 .6-.1.3-.1.6-.1.9 0 1.8 1 3.4 2.5 4.3.3.2.6.1.8-.2.2-.3.1-.6-.2-.8-2.8-2-2.4-4.1-.8-7 .4-.5 1-.8 1.6-.9 1.1-.1 2.2.2 2.9 1 .2.2.6.2.8 0 .2-.2.2-.6 0-.8-.5-.5-1.1-.8-1.7-1.1.1-.2.3-.4.5-.5.3-.1.7-.1 1 .1.2.2.6.2.8-.1s.2-.6-.1-.8c.1 0 .1 0 0 0zm-9.2-19.8c.2-.2.2-.5 0-.7-.4-.4-1-.8-1.5-1 .1-.2.3-.4.5-.5.3-.1.6-.1.9.1.2.2.5.2.7 0 .2-.2.2-.5 0-.7-.1-.1-.2-.1-.3-.1-.6-.3-1.2-.3-1.8-.1-.5.3-.9.7-1.1 1.2h-.9c-.3 0-.6.1-.9.2-.1-1.2-.7-2.2-1.7-2.8-.2-.2-.6-.1-.7.1-.2.2-.1.6.1.7 1 .6 1.5 1.9.9 3-.3.5-.6 1.1-.8 1.7-.4-.3-.8-.4-1.3-.4h-.2c-.2 0-.4-.1-.4-.3-.1-.6 0-1.2.3-1.7.1-.3 0-.6-.2-.7-.3-.1-.6 0-.7.2-.4.8-.6 1.7-.3 2.6.1.1.1.2.2.3-.5.3-.8.7-1.1 1.2-.1.3 0 .6.2.7s.6 0 .7-.2c.3-.6.9-1 1.6-1.1.4 0 .8.2.9.5 0 .3-.1.5-.1.8 0 1.6.9 3.1 2.2 3.9.2.2.6.1.7-.1.2-.2.1-.6-.1-.7-2.5-1.8-2.1-3.6-.7-6.2.4-.4.9-.7 1.5-.8 1-.1 1.9.2 2.6.9.3.3.6.3.8 0zM26.5 60.1c-.3-.2-.7 0-.8.3-.4.7-1.1 1.2-1.8 1.3-.5 0-.9-.2-1.1-.6.2-.7.2-1.4 0-2.2-.1-.3-.5-.5-.8-.4-.3.1-.5.4-.4.7.4 1.5-.4 3.1-1.2 4.7-.4.5-1.1.9-1.7.9-1.1.1-2.3-.3-3.1-1.1-.3-.2-.7-.1-.9.1-.2.2-.1.6 0 .8.5.5 1.2.9 1.8 1.1-.1.2-.3.4-.6.6-.4.1-.8.1-1.1-.1-.3-.2-.7-.1-.8.2-.2.3-.1.7.2.8h.1c.4.2.8.3 1.2.3.3 0 .6-.1.9-.2.6-.3 1-.8 1.3-1.4h1.1c.3-.1.7-.2 1-.3.1 1.4.8 2.6 2 3.4.3.1.7 0 .8-.4.1-.2 0-.5-.1-.6-.1-.1-2.2-1.6-1.1-3.6.4-.6.7-1.3 1-2 .4.3.9.5 1.4.5h.2c.2 0 .4.1.5.3.1.7 0 1.4-.3 2-.1.3 0 .7.3.8.3.1.6 0 .7-.2.1-.2.9-1.9.3-3.1-.1-.1-.1-.3-.2-.4.5-.3 1-.8 1.3-1.4.3-.2.2-.6-.1-.8zm11-25.6c-.4-.2-.8-.3-1.2-.3-.3 0-.6.1-.9.2-.6.3-1 .8-1.3 1.4H33c-.3.1-.7.2-1 .3-.1-1.4-.8-2.6-2-3.4-.3-.1-.7 0-.8.4-.1.2 0 .5.1.6.1.1 2.2 1.5 1.1 3.6-.4.6-.7 1.3-1 2-.4-.3-.9-.5-1.4-.5h-.4c-.2 0-.4-.1-.5-.3-.1-.7 0-1.4.3-2 .1-.3 0-.7-.3-.8-.3-.1-.6 0-.7.2-.1.2-.9 1.9-.3 3.1.1.1.1.3.2.4-.5.3-1 .8-1.3 1.4-.2.3-.1.7.2.9.3.2.7.1.9-.2 0 0 0-.1.1-.1.4-.7 1.1-1.2 1.8-1.3.5 0 .9.2 1.1.6-.2.7-.2 1.4 0 2.2.1.3.5.5.8.4.3-.1.5-.4.4-.7-.4-1.5.4-3.1 1.2-4.7.4-.5 1.1-.9 1.7-.9 1.1-.1 2.3.3 3.1 1.1.2.3.6.3.9 0 .3-.2.3-.6 0-.9l-.1-.1c-.5-.5-1.2-.9-1.8-1.1.1-.2.3-.4.6-.5.4-.1.8-.1 1.1.1.3.2.7.1.9-.2.2-.3.1-.7-.2-.9-.1.1-.2.1-.2 0zm-3.7 14c.4-.5.6-1.1.7-1.7.1-.3-.1-.7-.4-.8-.3-.1-.7.1-.8.4v.2c-.1.8-.6 1.5-1.3 1.9-.4.2-.9.1-1.3-.2-.1-.7-.4-1.4-.8-2-.2-.2-.6-.2-.9 0 0 .2-.1.5 0 .7.9 1.3.7 3.1.5 4.8-.2.6-.7 1.2-1.3 1.5-1 .5-2.2.5-3.3 0-.3-.1-.7.1-.8.4-.1.3.1.6.3.7.7.3 1.4.4 2.1.4 0 .3-.1.5-.3.7-.3.2-.7.3-1.1.3-.3 0-.6.3-.6.6s.2.6.5.6c.4 0 .9 0 1.3-.1.3-.1.6-.3.8-.5.4-.5.7-1.1.7-1.7l.3-.2.6-.3.9-.6c.6 1.2 1.7 2.2 3 2.5.3 0 .6-.2.7-.5 0-.3-.1-.6-.4-.7-.1 0-2.6-.6-2.3-3 .1-.7.2-1.5.2-2.2.5.2 1 .2 1.5 0h.2l.1-.1c.2-.1.4 0 .6.1.4.6.5 1.3.4 2 0 .3.3.6.6.6s.5-.2.6-.5c0-.2.2-2.1-.7-3l-.3-.3zm34.4-.8c1.4-.3 3 .3 4.4 1.1.5.4.8 1 .9 1.6.1 1.1-.2 2.2-1 2.9-.2.2-.2.6 0 .8s.6.2.8 0c.4-.5.8-1.1 1-1.7.2.1.4.3.5.5.1.3.1.7-.1 1-.1.3 0 .6.3.8.3.1.6 0 .8-.3.2-.4.3-.8.3-1.2 0-.3-.1-.6-.2-.8-.3-.5-.8-1-1.3-1.2v-1c-.1-.3-.1-.7-.3-1 1.3-.1 2.4-.8 3.1-1.9.2-.3.1-.6-.2-.8-.3-.2-.6-.1-.8.2-.1.1-1.4 2.1-3.4 1-.6-.4-1.3-.7-1.9-.9.3-.4.5-.9.5-1.3v-.2c0-.2.1-.4.3-.5.7-.1 1.3 0 1.9.3.3.1.6-.1.7-.4.1-.2 0-.4-.2-.6-.2-.1-1.8-.9-3-.3-.1.1-.2.1-.3.2-.3-.5-.8-.9-1.3-1.2-.3-.1-.6.1-.7.4-.1.2 0 .4.2.6.7.3 1.2 1 1.3 1.8 0 .4-.2.8-.6 1-.7-.1-1.3-.1-2 0-.3.1-.5.4-.5.7.2.3.5.5.8.4z"/><path class="st2" d="M36.8 22.5c-1.9 0-4.3 1.1-7.3 3.3C20.2 32.7 11 50.9 9.6 63.2c-1.1 10.2 2.1 17.1 5.3 17.1.7 0 1.4-.3 1.8-.9 3.5-3.5 17.9-10.9 21.5-13.7 2.5-1.8 3.9-4.8 3.7-7.9V32.3c0-6.4-1.7-9.8-5.1-9.8zm1.8 35.3c0 1.8 0 3.4-2.4 5.3-1.3 1-4.8 3-8.1 5-5.3 3-10.7 6.2-13.2 8.5-.7-1-1.2-2.1-1.4-3.2-.8-3.2-.9-6.6-.5-9.9.6-5.6 3-12.7 6.6-19.5s8-12.6 12-15.5c3.2-2.4 4.9-2.6 5.4-2.6v-.1c.3 0 .5 0 .9.8s.9 2.3.9 5.9v25.3z"/><path class="st1" d="M14.8 80.5c-1-.1-2-.6-2.6-1.4-2-2.2-4-7.7-3-16.1.7-6 3.2-13.6 7-20.8 3.9-7.4 8.6-13.5 13-16.8 3-2.2 5.5-3.3 7.5-3.3 1.8 0 3.4 1 4.1 2.7 1 2.4 1.4 4.9 1.3 7.5v25.5c.3 3.2-1.2 6.3-3.8 8.1-1.5 1.2-4.9 3.2-8.5 5.3-5.1 3-11 6.4-13 8.4-.5.6-1.2.9-2 .9zm22-57.7c-1.8 0-4.2 1.1-7.1 3.2-4.3 3.2-9 9.2-12.8 16.6-3.7 7.2-6.3 14.7-7 20.6-.9 8.1 1 13.5 2.9 15.6.5.7 1.3 1.1 2.1 1.2.6 0 1.2-.3 1.6-.8 2.1-2.1 7.9-5.5 13.1-8.5 3.6-2.1 7-4.1 8.5-5.2 2.5-1.7 3.8-4.6 3.6-7.6V32.3c.1-2.5-.3-4.9-1.2-7.2-.8-1.4-2.2-2.3-3.7-2.3zm-22 54.3l-.2-.3c-.7-1-1.3-2.1-1.6-3.3-.8-3.3-1-6.7-.5-10 .6-5.6 3.1-12.8 6.7-19.7s8.1-12.7 12.1-15.7c2.8-2.1 4.5-2.5 5.2-2.6v-.2h.3c.6 0 1.1.4 1.2 1 .3.7.9 2.4.9 6v25.5c.3 2.2-.7 4.3-2.5 5.5-1.4 1.1-5 3.2-8.2 5-5.2 3-10.6 6.2-13.2 8.5l-.2.3zm22.2-51h-.3c-.3 0-1.9.1-5.2 2.5-3.9 2.9-8.2 8.5-11.9 15.4s-6 13.9-6.6 19.4c-.4 3.3-.2 6.6.5 9.8.2 1 .6 2 1.2 2.9 2.7-2.3 8-5.4 13-8.3 3.2-1.8 6.8-3.9 8.1-5 2.3-1.8 2.3-3.2 2.3-5V32.3c0-3.7-.6-5.2-.9-5.7.1-.2 0-.4-.2-.5z"/><path class="st2" d="M87.5 63.1c-1.4-12.2-10.6-30.5-20-37.4-3-2.2-5.4-3.3-7.3-3.3-3.4 0-5.2 3.4-5.2 9.8v25.5c-.3 3.1 1.2 6.1 3.7 7.9 3.7 2.8 18.2 10.2 21.7 13.7.5.5 1.1.8 1.8.9 3.2 0 6.5-6.9 5.3-17.1zm-3.8 10.3c-.3 1.2-.8 2.3-1.4 3.2-2.6-2.3-8-5.5-13.2-8.5-3.4-1.9-6.9-4-8.2-5-1.8-1.2-2.7-3.2-2.5-5.3V32.3c0-3.5.6-5.2 1-5.8.1-.4.5-.8 1-.7.5 0 2.2.2 5.4 2.6 4 2.9 8.3 8.6 12 15.6s6 14 6.6 19.5c.4 3.3.2 6.6-.7 9.9z"/><path class="st1" d="M82.2 80.5c-.8 0-1.5-.4-2.1-1-2-2-7.8-5.4-13-8.4-2.9-1.6-5.8-3.4-8.6-5.3-2.6-1.8-4.1-5-3.9-8.2V32.3c0-8.4 3-10.2 5.5-10.2 2 0 4.5 1.1 7.5 3.3 4.4 3.2 9.1 9.4 13 16.8 3.8 7.2 6.4 14.8 7 20.8.9 8.3-1 13.9-3 16.1-.4.9-1.4 1.4-2.4 1.4zM60.3 22.8c-4 0-4.8 5.2-4.8 9.5v25.4c-.2 3 1.1 5.9 3.6 7.7 1.5 1.2 4.9 3.1 8.5 5.2 5.2 3 11 6.4 13.1 8.5.4.5 1 .7 1.6.8.8-.1 1.6-.5 2.1-1.2 1.9-2.1 3.8-7.5 2.9-15.6-.7-5.9-3.2-13.4-6.9-20.6-3.9-7.3-8.5-13.4-12.8-16.6-3.1-2-5.5-3.1-7.3-3.1zm22 54.3l-.3-.2c-2.6-2.3-8-5.4-13.2-8.5l-.6-.4c-3.2-1.9-6.3-3.7-7.6-4.6-1.8-1.2-2.9-3.4-2.6-5.6V32.3c0-3.4.5-5.1 1-6 .2-.6.7-.9 1.3-.9.7 0 2.4.3 5.6 2.7 4 3 8.4 8.7 12.1 15.7s6 14 6.7 19.7c.4 3.3.3 6.7-.5 10-.3 1.2-.8 2.4-1.5 3.4l-.4.2zm-22-51c-.2 0-.4 0-.7.6s-.9 2.3-.9 5.7v25.4c-.3 2 .7 4 2.3 5.1 1.2 1 4.4 2.8 7.5 4.6l.7.4c5.1 3 10.3 6 13 8.3.5-.9.9-1.8 1.2-2.9.8-3.2 1-6.5.5-9.8-.6-5.5-3-12.6-6.6-19.4s-8-12.5-11.8-15.4c-3.2-2.4-4.8-2.6-5.2-2.6z"/></svg>