<svg width="97" height="93" xmlns="http://www.w3.org/2000/svg"><style>.st0{fill:#424e75}.st1{fill:#4fafa6}</style><path class="st0" d="M39.7 53.8c-.1 0-.2 0-.3-.1-2-.7-3.9-1.7-5.6-2.9-2.5-1.7-4.6-3.9-6.3-6.5-2.7-4.2-4.2-9.1-4.5-14.1 0-.3.1-.6.3-.8.2-.2.5-.3.7-.3 4.6.2 9 1.5 13 3.7 0-3.5 1.2-7 3.4-9.7.4-.4 1-.5 1.4-.1.4.3.5.9.2 1.3-4.2 5.5-2.8 10.2-2.7 10.2.2.5 0 1.1-.5 1.3-.3.1-.7.1-1-.1-3.7-2.6-8.1-4.2-12.6-4.6.4 4.3 1.8 8.4 4.1 12 1.5 2.3 3.5 4.3 5.7 5.9 1.6 1.1 3.3 2 5.1 2.6.5.2.8.8.6 1.3-.2.7-.6.9-1 .9z"/><path class="st0" d="M34.5 60.3c-4.5 0-8.9-1.3-12.7-3.6-3-1.8-5.6-4.1-7.8-6.8-.3-.4-.3-1.1.2-1.4.1-.1.3-.2.5-.2.2-.1 1.7-.8 2.9-1.5 1.9-1 4-2.1 5.2-2.5l.6-.2c-1-1.5-1.6-3.1-1.9-4.8-.1-.5.3-1 .8-1.1.5-.1 1 .3 1.1.8.4 1.9 1.2 3.6 2.4 5.1.3.4.2 1.1-.2 1.4-.1.1-.3.2-.4.2-.6.1-1.1.2-1.6.4-1.1.5-3.3 1.6-5.1 2.5l-2.1 1.1c1.8 2.1 4 3.9 6.4 5.3 3.5 2.2 7.5 3.3 11.7 3.4h.3c3.8-.1 7.5-1.1 10.8-2.9.8-.5 1.6-1 2.3-1.6.4-.4 1-.4 1.4 0 .4.4.4 1 0 1.4l-.1.1c-.8.7-1.7 1.4-2.7 1.9-3.6 2-7.7 3.1-11.8 3.2h-.2z"/><path class="st0" d="M48.5 55.4c-.3 0-.6-.1-.8-.3l-.5-.6-.1-.1c-3.6-3.8-5.9-8.5-6.7-13.7-.1-1-.2-2.1-.2-3.1 0-6.6 2.5-12.9 6.9-17.8l.6-.7c.2-.2.5-.4.8-.4.3 0 .6.2.8.3l.7.8c4.4 4.9 6.8 11.2 6.9 17.8 0 1-.1 2.1-.2 3.1-.8 5.1-3.1 9.9-6.7 13.7l-.1.1-.6.5c-.2.2-.5.4-.8.4zm0-34.2c-4 4.5-6.3 10.3-6.4 16.3 0 1 .1 1.9.2 2.9.7 4.7 2.9 9 6.1 12.5 3.3-3.4 5.4-7.8 6.1-12.5.2-.9.3-1.9.3-2.8 0-6.1-2.2-11.9-6.3-16.4z"/><path class="st0" d="M57.4 53.8c-.6 0-1-.4-1-1 0-.4.3-.8.7-1 1.8-.7 3.5-1.5 5.1-2.6 2.3-1.6 4.2-3.6 5.7-5.9 2.3-3.6 3.7-7.7 4.1-11.9-4.5.4-8.9 1.9-12.6 4.6-.5.3-1.1.2-1.4-.2-.2-.3-.2-.6-.1-.9.1-.2 1.5-4.8-2.7-10.2-.3-.5-.2-1.1.3-1.4.4-.3 1-.2 1.3.2 2.3 2.7 3.5 6.2 3.4 9.7 4-2.3 8.4-3.6 13-3.7.3 0 .5.1.7.3.2.2.3.5.3.7-.3 5-1.8 9.8-4.5 14-1.6 2.5-3.8 4.7-6.3 6.5-1.7 1.2-3.6 2.2-5.6 2.9-.2-.1-.3-.1-.4-.1z"/><path class="st0" d="M62.5 60.3h-.2c-4.1-.1-8.2-1.2-11.8-3.2-.9-.6-1.8-1.2-2.6-1.9-.4-.3-.5-1-.2-1.4.3-.4 1-.5 1.4-.2 0 0 .1 0 .1.1.7.6 1.5 1.2 2.3 1.7 3.3 1.8 7 2.8 10.8 2.9h.2c4.1 0 8.2-1.2 11.7-3.4 2.4-1.4 4.5-3.2 6.4-5.3l-2.1-1.1c-1.8-.9-3.9-2-5.1-2.5-.5-.2-1-.3-1.6-.4-.6-.1-.9-.6-.9-1.1 0-.2.1-.3.2-.5 1.2-1.5 2-3.3 2.4-5.1.1-.5.6-.9 1.1-.8.5.1.9.6.8 1.1-.3 1.7-1 3.3-1.9 4.8l.6.2c1.2.5 3.3 1.6 5.2 2.5 1.2.6 2.7 1.4 3 1.5.3.1.6.3.7.6.1.3 0 .7-.2 1-2.2 2.7-4.8 5-7.8 6.8-3.6 2.4-8 3.6-12.5 3.7z"/><path class="st1" d="M44.8 65.2c-5 0-9.5-.2-13.2-.5-7.4-.7-8-1.7-8-2.7 0-.6.4-1 1-1.1.4 0 .8.3.9.6 1.4.8 9.9 1.8 23.2 1.6s21.8-1.5 23.2-2.4c.2-.4.5-.6.9-.7.5 0 1 .4 1 1 .1 3.2-15.6 3.9-25 4.1-1.4 0-2.7.1-4 .1zM71.7 61z"/><path class="st1" d="M43.3 69.3c-10.3 0-27.4-.5-27.4-4 0-.6.4-1 1-1.1.5 0 .8.3 1 .7 1.5 1.2 12.8 2.5 30.9 2.2s29.3-2.1 30.7-3.3c.1-.4.5-.7 1-.8.5 0 1 .4 1 1 .1 4.2-25 5-32.7 5.1-1.4.2-3.3.2-5.5.2zm36.2-5.1z"/><path class="st1" d="M43.9 74.3C25 74.3.6 72.4.5 66.6c0-1.6 1.3-4 12.7-6.2.5-.2 1.1.1 1.3.6.2.5-.1 1.1-.6 1.3-.1 0-.2.1-.4.1-9.1 1.8-11.1 3.7-11.1 4.2 0 2.3 15.9 6.2 46.1 5.7 11.1-.1 22.1-1 33.1-2.8 10.6-1.9 12.9-3.9 12.9-4.5 0-.6-2.1-2.4-11.3-3.8-.6.1-1-.3-1.1-.9s.3-1 .9-1.1c.2 0 .3 0 .5.1 11.7 1.8 13 4.2 13 5.8 0 1 .1 4-14.5 6.6-11 1.8-22.2 2.7-33.4 2.8-1.5-.2-3-.2-4.7-.2z"/><path class="st0" d="M26.8 46.3c-.1 0-.2 0-.3-.1l-1.7-.6c-.5-.2-.8-.8-.5-1.3.2-.5.7-.7 1.2-.6l1.7.7c.5.2.7.8.5 1.3-.2.3-.6.6-.9.6zM39 37.1c-.3 0-.6-.2-.8-.4l-.7-1c-.4-.4-.3-1.1.1-1.4.4-.4 1.1-.3 1.4.1l.1.1.7 1c.3.4.2 1.1-.2 1.4-.2.1-.4.2-.6.2zm18.9 0c-.6 0-1-.4-1-1 0-.2.1-.5.2-.6l.8-1c.3-.5 1-.6 1.4-.2.5.3.6 1 .2 1.4l-.1.1-.8 1c-.1.1-.4.3-.7.3zM70.4 46c-.6 0-1-.5-1-1s.3-.9.8-1l1.6-.3c.5-.1 1.1.2 1.2.7.1.5-.2 1.1-.7 1.2h-.1l-1.6.4h-.2z"/></svg>