<svg width="97" height="93" xmlns="http://www.w3.org/2000/svg"><style>.st0{fill:#435077}.st1{fill:#fff}</style><path class="st0" d="M76 27.1c-3.3-3.6-7.4-5.9-10.5-5.9-1.9-2.5-3.3-5.3-4.1-8.3-.2-.8-1-1.3-1.9-1.1-.8.2-1.3 1-1.1 1.9 1 3.7 2.8 7.1 5.2 10.1.3.4.8.6 1.4.6h.2c1.5-.1 5 1.1 8.5 4.9 3.5 3.8 9 12.5 6.1 28.1-1 5.6-4.1 10.6-8.6 14-4.5 3.5-9.8 5.7-15.4 6.5-4.9.8-9.8.4-14.5-1.2-4.1-1.3-7.6-4.2-9.6-8-.3-.5-.8-.8-1.4-.8-1.4 0-2.7.1-4.1.3-1.5.2-2.6 1.6-3.4 4.1-.5 1.7-.8 3.4-.9 5.2 0 .9.7 1.6 1.5 1.6s1.6-.7 1.6-1.5c.1-1.4.3-2.7.6-4 .2-.8.5-1.6 1.1-2.3.9-.1 1.7-.2 2.6-.2 2.5 4.1 6.3 7.1 10.8 8.7 3.4 1.2 7 1.8 10.6 1.8 1.8 0 3.6-.1 5.4-.4 6.2-.9 12-3.3 16.9-7.1 5.1-3.9 8.6-9.6 9.8-15.9C85.9 41 79.9 31.4 76 27.1z"/><path class="st1" d="M50.8 81.6c-3.6 0-7.3-.6-10.7-1.8-4.5-1.5-8.4-4.6-10.9-8.6-.6 0-1.5.1-2.3.2-.5.6-.8 1.3-1 2.1-.4 1.3-.6 2.6-.6 3.9 0 1-.9 1.8-1.9 1.8-1 0-1.8-.9-1.8-1.9.1-1.8.4-3.6.9-5.3.8-2.6 2.1-4 3.7-4.3 1.4-.2 2.7-.3 4.1-.3.7 0 1.3.4 1.6 1 2 3.7 5.4 6.6 9.5 7.9 4.6 1.6 9.5 2 14.4 1.2 5.6-.8 10.8-3 15.3-6.4 4.4-3.4 7.4-8.3 8.5-13.8 2.8-15.4-2.6-24.1-6-27.9-3.5-3.8-6.8-4.9-8.3-4.8H65c-.6.1-1.2-.2-1.6-.7-2.4-3-4.2-6.5-5.3-10.2-.2-1 .4-2 1.4-2.2 1-.2 2 .4 2.2 1.4.8 2.9 2.2 5.6 3.9 8.1 3.2.1 7.3 2.5 10.5 6 3.9 4.3 10.1 14.1 7 31.1-1.2 6.4-4.7 12.1-9.8 16.1-5 3.8-10.8 6.3-17 7.2-1.8.1-3.6.2-5.5.2zm-21.3-11l.1.2c2.4 4 6.2 7 10.7 8.5 3.4 1.2 6.9 1.8 10.5 1.7 1.8 0 3.6-.1 5.4-.4 6.1-.9 11.9-3.3 16.7-7 5-3.9 8.5-9.5 9.6-15.8 3.1-16.7-3-26.3-6.8-30.5-3.2-3.5-7.2-5.8-10.2-5.8h-.1l-.1-.1C63.4 18.9 62 16 61.1 13c-.1-.7-.8-1.1-1.4-1-.7.1-1.1.8-1 1.4v.2c1 3.7 2.8 7.1 5.1 10 .3.3.7.5 1.1.4h.2c1.6-.1 5.2 1.1 8.8 5s9.1 12.7 6.3 28.4C79.1 63 76 68.1 71.5 71.6c-4.5 3.5-9.9 5.7-15.6 6.5-4.9.8-9.9.4-14.7-1.2-4.2-1.4-7.7-4.3-9.8-8.2-.2-.4-.6-.7-1.1-.7-1.3 0-2.7.1-4 .3-1.4.2-2.4 1.5-3.2 3.9-.5 1.7-.8 3.4-.9 5.1 0 .7.6 1.2 1.3 1.2.6 0 1.1-.5 1.2-1.1.1-1.4.3-2.7.6-4.1.2-.9.6-1.8 1.2-2.5h.2c.9-.1 1.8-.2 2.6-.2h.2z"/><path class="st0" d="M30.3 62.3c.5 0 .9-.2 1.2-.6 1-1.2 2.3-2.1 3.7-2.9 4.9-2.6 9.5-5.8 13.8-9.4 4.8-4.3 7.4-8.4 8-12.7.3-2.8 1-5.5 2.1-8.1.3-.5.2-1.2-.2-1.6-2.9-3.6-4.9-7.7-6.1-12.1-.2-.8-1-1.3-1.9-1.2-.8.2-1.3 1-1.2 1.9 1.2 4.6 3.3 8.9 6.2 12.6-1 2.6-1.7 5.3-2 8.1-1.2 8.2-12.1 15.2-20.2 19.8-1.5.8-2.8 1.8-4 3-1.6 0-3.2.1-4.8.4-9 1.4-11.5 11.8-11.6 17.7 0 .8.7 1.5 1.5 1.6.8 0 1.5-.7 1.5-1.5 0-3.1.7-6.2 2-9 1.6-3.3 3.9-5.2 7-5.7 1.7-.2 3.4-.4 5-.3z"/><path class="st1" d="M14.8 79c-.5 0-1-.2-1.3-.5-.4-.4-.5-.8-.5-1.3.1-6.1 2.7-16.6 11.9-18 1.6-.2 3.1-.4 4.7-.4 1.2-1.2 2.5-2.2 4-3 8.1-4.6 18.9-11.6 20-19.6.3-2.7 1-5.4 2-8-2.8-3.8-4.9-8.1-6.1-12.6-.2-1 .4-2 1.4-2.2 1-.2 2 .4 2.2 1.4 1.2 4.4 3.2 8.5 6.1 12 .4.6.5 1.3.2 2-1.1 2.5-1.8 5.2-2.1 8-.6 4.4-3.2 8.6-8.1 12.9-4.2 3.6-8.9 6.8-13.8 9.4-1.4.7-2.6 1.7-3.6 2.8-.4.4-.9.7-1.5.7-1.6 0-3.3.1-4.9.3-2.9.4-5.2 2.3-6.7 5.5-1.3 2.8-1.9 5.8-2 8.9 0 .9-.9 1.7-1.9 1.7zm36.5-65H51c-.7.2-1.1.8-.9 1.5 1.2 4.5 3.3 8.8 6.1 12.5l.1.1-.1.2c-1 2.6-1.7 5.3-2 8-1.1 8.3-12.1 15.4-20.3 20-1.4.8-2.8 1.8-3.9 3l-.1.1h-.2c-1.6 0-3.2.1-4.7.4-8.8 1.3-11.3 11.6-11.4 17.4 0 .3.1.7.4.9.2.2.5.4.9.4.7 0 1.2-.5 1.2-1.2 0-3.2.8-6.3 2.1-9.1 1.7-3.4 4.1-5.4 7.2-5.8 1.7-.2 3.3-.4 5-.3.4 0 .7-.2 1-.4 1.1-1.2 2.3-2.2 3.7-3 4.9-2.6 9.5-5.7 13.7-9.3 4.7-4.2 7.3-8.3 7.9-12.6.3-2.8 1-5.6 2.1-8.2.2-.4.1-.9-.2-1.3-2.9-3.6-5-7.8-6.2-12.2-.1-.7-.6-1.1-1.1-1.1z"/><path d="M59.3 72.9c8.7-3.3 15.3-8.6 16.4-16.7-4.7 1.5-9.9 3.4-16.8 1.1-3.5-1.1-7.1-1.5-10.7-1.2-4.5 2.9-8.7 4.8-10.2 6.3 0 0-3.1 3.4 1.5 7.1s11 6.7 19.8 3.4z" fill="#4fafa6"/><path d="M73.3 57.2c0 .1 0 .2-.1.4.2-.2.3-.3.1-.4z" fill="#64aaa6"/></svg>