<svg width="100" height="100" xmlns="http://www.w3.org/2000/svg" viewBox="0 0 100 100">
	<style type="text/css">
		.st0{fill:#40B7AE;}
		.st1{fill:none;stroke:#23447d;stroke-width:2;stroke-linecap:round;stroke-linejoin:round;stroke-miterlimit:10;}
	</style>
	<path class="st0" d="M50,2c26.5,0,48,21.5,48,48S76.5,98,50,98S2,76.5,2,50C2,23.5,23.5,2,50,2 M50,0C22.4,0,0,22.4,0,50
		s22.4,50,50,50s50-22.4,50-50S77.6,0,50,0L50,0z"/>
	<path class="st1" d="M66.5,30.4v11.3c0,2.8,1.2,5.3,3,6.4v21.5H74V48.1c1.8-1.2,3-3.6,3-6.4V30.4"/>
	<line class="st1" x1="66.9" y1="38.7" x2="76.6" y2="38.7"/>
	<line class="st1" x1="70" y1="38" x2="70" y2="30.4"/>
	<line class="st1" x1="73.5" y1="38" x2="73.5" y2="30.4"/>
	<circle class="st1" cx="42.6" cy="50" r="19.6"/>
	<path class="st1" d="M42.6,62.2c6.7,0,12.2-5.5,12.2-12.2s-5.5-12.2-12.2-12.2S30.4,43.3,30.4,50"/>
</svg>
