<svg width="100" height="100" xmlns="http://www.w3.org/2000/svg" viewBox="0 0 100 100"><path d="M50,2A48,48,0,1,1,2,50,48.05,48.05,0,0,1,50,2m0-2a50,50,0,1,0,50,50A50,50,0,0,0,50,0h0Z" style="fill:#40b7ae"/><path d="M71.24,62.82l-1.06-2.58c1-.41,1.86-1.29,2.94-3a5.44,5.44,0,0,0-3.23-.15,8.36,8.36,0,0,0-4.82,4.28L62.65,60c1.69-3,3.94-4.9,6.52-5.59a8.52,8.52,0,0,1,6.62,1L77,56.08l-0.66,1.19C74.82,60,73.39,61.94,71.24,62.82Z" style="fill:#23447d"/><path d="M63.69,70.72H63.31a9.59,9.59,0,0,1-6.11-3l-1-1,1-1A11.19,11.19,0,0,1,64.39,62a9.08,9.08,0,0,1,7,2.69l1,1-1,1C68.9,69.36,66.29,70.72,63.69,70.72Zm-3.43-4a6,6,0,0,0,3.19,1.24,7,7,0,0,0,4.89-2.1,6.08,6.08,0,0,0-3.76-1A7.73,7.73,0,0,0,60.26,66.68Z" style="fill:#23447d"/><path d="M68.22,54l-2.78-.18C65.86,47.46,70,43.48,75.7,43.84l1.39,0.09L77,45.32c-0.27,4-1.58,6.86-3.91,8.47L71.5,51.51c1.33-.92,2.18-2.55,2.55-4.86C70.69,47.06,68.5,49.75,68.22,54Z" style="fill:#23447d"/><path d="M65.23,46.75c-1.95-6,.41-11.28,5.86-13l1.32-.43,0.43,1.32c1.23,3.83,1.06,7-.51,9.33L70,42.4c0.9-1.35,1.09-3.18.58-5.47-3,1.62-4,4.93-2.72,9Z" style="fill:#23447d"/><path d="M28.76,62.82c-2.14-.88-3.57-2.86-5.06-5.55L23,56.08l1.17-.69a8.51,8.51,0,0,1,6.62-1C33.41,55.06,35.66,57,37.35,60l-2.42,1.38a8.36,8.36,0,0,0-4.82-4.28,5.44,5.44,0,0,0-3.23.15c1.08,1.74,1.95,2.63,2.94,3Z" style="fill:#23447d"/><path d="M36.31,70.72c-2.6,0-5.21-1.35-7.77-4l-1-1,1-1a9.08,9.08,0,0,1,7-2.69,11.19,11.19,0,0,1,7.24,3.74l1,1-1,1a9.59,9.59,0,0,1-6.11,3H36.31Zm-4.65-4.89a7,7,0,0,0,4.89,2.1,6,6,0,0,0,3.19-1.24,7.73,7.73,0,0,0-4.32-1.87A6.1,6.1,0,0,0,31.66,65.83Z" style="fill:#23447d"/><path d="M31.78,54c-0.28-4.23-2.47-6.92-5.84-7.32,0.37,2.31,1.23,3.94,2.55,4.86L26.91,53.8c-2.33-1.62-3.65-4.47-3.91-8.47l-0.09-1.39,1.39-.09c5.72-.37,9.84,3.62,10.27,9.95Z" style="fill:#23447d"/><path d="M34.77,46.75l-2.65-.85c1.3-4,.26-7.34-2.72-9-0.51,2.29-.31,4.12.58,5.47l-2.32,1.54c-1.57-2.37-1.75-5.51-.51-9.33l0.43-1.32,1.32,0.43C34.36,35.47,36.71,40.71,34.77,46.75Z" style="fill:#23447d"/><path d="M42,62.42l1.53-8.58L37,47.07l9-.92,4-8.51,4,8.51,9,0.92-6.48,6.77L58,62.39l-8-3.79Zm1-13.16,3.52,3.68-0.83,4.64L50,55.53l4.33,2L53.5,52.94,57,49.26l-4.86-.5L50,44.17l-2.16,4.59Z" style="fill:#23447d"/></svg>
