<svg width="100" height="100" xmlns="http://www.w3.org/2000/svg" viewBox="0 0 100 100"><path d="M50,2A48,48,0,1,1,2,50,48.05,48.05,0,0,1,50,2m0-2a50,50,0,1,0,50,50A50,50,0,0,0,50,0h0Z" style="fill:#fff"/><path d="M45,58.64l-1.08-1.06c-1.31-1.29-2.94-2.89-3.81-3.56a24,24,0,0,1-4-4.46c-1.93-3.11-4-3.4-5.24-2.63a2.79,2.79,0,0,0-1.3,1.83l0,0.13a19,19,0,0,1-.32-2.59c0.81-6.9.31-10.81-1.53-12A1.76,1.76,0,0,0,26,34.16a3.28,3.28,0,0,0-1.57,2.23,1.13,1.13,0,0,0,0,.13C23.83,41.28,23,48.55,22.87,49a5.93,5.93,0,0,0,.5,2.71c1,2.52,2.66,6.5,2.87,7.11a11.46,11.46,0,0,0,2.27,3.07L38,71.9c0.7,0.73.6,3.34,0.56,4.46,0,0.31,0,.58,0,0.8a1.13,1.13,0,1,0,2.26,0c0-.18,0-0.43,0-0.72,0.09-2.37.07-4.8-1.19-6.11l-9.46-10h0a10.79,10.79,0,0,1-1.75-2.21c-0.29-.89-2.66-6.61-2.92-7.26a4.71,4.71,0,0,1-.37-1.46c0.13-.71,1.36-11,1.54-12.58l0.06-.19c0.38,0.85.94,3.23,0.2,9.45a1.13,1.13,0,0,0,0,.19c0.05,1,.25,3.44.87,4.41l0.09,0.12,7.7,9,0,0L36.65,61a1.13,1.13,0,0,0,1.78-1.37l-1.15-1.84,0,0L32,50.19a1.33,1.33,0,0,1-.25-1A0.52,0.52,0,0,1,32,48.86c0.25-.15,1.13.25,2.15,1.89a26.14,26.14,0,0,0,4.59,5.07c0.76,0.58,2.4,2.19,3.6,3.37l1.11,1.08c1.2,1.15,2.32,4,2.65,5v0A10.07,10.07,0,0,1,46.68,68v9.13a1.13,1.13,0,1,0,2.26,0V68a12.1,12.1,0,0,0-.75-3.53C48,64,46.77,60.36,45,58.64Z" style="fill:#fff"/><path d="M77.13,49c-0.09-.5-1-7.76-1.53-12.52a1.12,1.12,0,0,0,0-.13A3.28,3.28,0,0,0,74,34.16a1.75,1.75,0,0,0-1.63.17c-1.84,1.16-2.34,5.07-1.53,12a19,19,0,0,1-.32,2.59l0-.14a2.79,2.79,0,0,0-1.3-1.83,2.72,2.72,0,0,0-2.88.12A7.35,7.35,0,0,0,64,49.56a24,24,0,0,1-4,4.46c-0.87.67-2.5,2.27-3.81,3.56L55,58.64C53.23,60.36,52,64,51.81,64.51A12.1,12.1,0,0,0,51.06,68v9.13a1.13,1.13,0,1,0,2.26,0V68a10.07,10.07,0,0,1,.61-2.76v0c0.33-1,1.44-3.81,2.65-5l1.11-1.08c1.2-1.18,2.84-2.79,3.6-3.37a26.15,26.15,0,0,0,4.59-5.07c1-1.64,1.9-2,2.15-1.89a0.52,0.52,0,0,1,.26.36,1.33,1.33,0,0,1-.25,1l-5.31,7.59,0,0-1.15,1.84A1.13,1.13,0,0,0,63.35,61l1.07-1.15,0,0,7.7-9,0.09-.12c0.63-1,.82-3.41.87-4.41a1.13,1.13,0,0,0,0-.19c-0.74-6.23-.18-8.61.2-9.45l0.06,0.19c0.18,1.54,1.41,11.87,1.54,12.57a4.65,4.65,0,0,1-.37,1.46c-0.27.65-2.63,6.38-2.92,7.26a10.59,10.59,0,0,1-1.75,2.22h0l-9.46,10c-1.26,1.31-1.28,3.74-1.19,6.11,0,0.29,0,.54,0,0.72a1.13,1.13,0,1,0,2.26,0c0-.22,0-0.49,0-0.8,0-1.12-.14-3.73.56-4.46l9.46-10a11.46,11.46,0,0,0,2.27-3.07c0.2-.61,1.83-4.59,2.87-7.12A5.92,5.92,0,0,0,77.13,49Z" style="fill:#fff"/><polygon points="61.15 32.97 53.89 32.97 53.89 25.71 46.11 25.71 46.11 32.97 38.85 32.97 38.85 40.74 46.11 40.74 46.11 48 53.89 48 53.89 40.74 61.15 40.74 61.15 32.97" style="fill:#fff"/></svg>
