<svg width="100" height="100" xmlns="http://www.w3.org/2000/svg" viewBox="0 0 100 100"><path d="M50,2A48,48,0,1,1,2,50,48.05,48.05,0,0,1,50,2m0-2a50,50,0,1,0,50,50A50,50,0,0,0,50,0h0Z" style="fill:#40b7ae"/><path d="M50,57.49a1.08,1.08,0,0,1-.48-0.11l-26-12.86a1.08,1.08,0,0,1,0-1.93l26-12.86a1.08,1.08,0,0,1,1,0l26,12.86a1.08,1.08,0,0,1,0,1.93l-26,12.86A1.08,1.08,0,0,1,50,57.49ZM26.44,43.55L50,55.21,73.56,43.55,50,31.89Z" style="fill:#23447d"/><path d="M50,57.6a1.2,1.2,0,0,1-.53-0.12l-26-12.86a1.19,1.19,0,0,1,0-2.14l26-12.86a1.2,1.2,0,0,1,1.06,0l26,12.86a1.19,1.19,0,0,1,0,2.14l-26,12.86A1.2,1.2,0,0,1,50,57.6Zm0-27.87a1,1,0,0,0-.42.1l-26,12.86a1,1,0,0,0,0,1.72l26,12.86a1,1,0,0,0,.85,0l26-12.86a1,1,0,0,0,0-1.71l-26-12.86A1,1,0,0,0,50,29.74Zm0,25.61-0.05,0L26.17,43.55,50,31.76l0.05,0L73.83,43.55ZM26.71,43.55L50,55.08,73.29,43.55,50,32Z" style="fill:#23447d"/><path d="M50,66a1.08,1.08,0,0,1-.71-1.88,36,36,0,0,1,8.88-5.71A20,20,0,0,1,65,57l0-1.22a13.9,13.9,0,0,0-1.24-6.07,1.07,1.07,0,0,1,1.89-1,15.88,15.88,0,0,1,1.5,7.05L67.2,58a1.07,1.07,0,0,1-.34.83,1.06,1.06,0,0,1-.85.28A16.56,16.56,0,0,0,59,60.4a34.45,34.45,0,0,0-8.25,5.32A1.07,1.07,0,0,1,50,66Z" style="fill:#23447d"/><path d="M50,66.11A1.19,1.19,0,0,1,49.21,64a36,36,0,0,1,8.92-5.73,20.05,20.05,0,0,1,6.76-1.45l0-1.1a13.86,13.86,0,0,0-1.23-6,1.19,1.19,0,0,1,2.1-1.13,16,16,0,0,1,1.51,7.11L67.32,58a1.19,1.19,0,0,1-.38.92,1.17,1.17,0,0,1-.95.31,16.36,16.36,0,0,0-7,1.26,34.25,34.25,0,0,0-8.21,5.3A1.19,1.19,0,0,1,50,66.11ZM64.67,48.19a1,1,0,0,0-.84,1.41,14,14,0,0,1,1.25,6.13l0.05,1.34H65a19.74,19.74,0,0,0-6.8,1.43,35.79,35.79,0,0,0-8.85,5.69,1,1,0,1,0,1.27,1.43,34.51,34.51,0,0,1,8.28-5.34A16.63,16.63,0,0,1,66,59a0.94,0.94,0,0,0,.76-0.25,1,1,0,0,0,.3-0.74L67,55.7a15.79,15.79,0,0,0-1.48-7A1,1,0,0,0,64.67,48.19Z" style="fill:#23447d"/><path d="M50,66a1.07,1.07,0,0,1-.71-0.27A34.45,34.45,0,0,0,41,60.4,16.36,16.36,0,0,0,34,59.13a1.06,1.06,0,0,1-.85-0.28A1.08,1.08,0,0,1,32.8,58l0.09-2.37a15.79,15.79,0,0,1,1.5-7,1.07,1.07,0,0,1,1.89,1,14,14,0,0,0-1.24,6L35,57a20,20,0,0,1,6.84,1.44,36,36,0,0,1,8.88,5.71A1.08,1.08,0,0,1,50,66Z" style="fill:#23447d"/><path d="M50,66.11a1.19,1.19,0,0,1-.79-0.3A34.25,34.25,0,0,0,41,60.51a16.36,16.36,0,0,0-7-1.26A1.19,1.19,0,0,1,32.68,58l0.09-2.37a15.94,15.94,0,0,1,1.51-7.06,1.19,1.19,0,0,1,2.1,1.13,14,14,0,0,0-1.23,6l0,1.15a20.06,20.06,0,0,1,6.76,1.45A36,36,0,0,1,50.79,64,1.19,1.19,0,0,1,50,66.11ZM34.69,59a17.71,17.71,0,0,1,6.39,1.3,34.51,34.51,0,0,1,8.28,5.34,1,1,0,1,0,1.27-1.43,35.78,35.78,0,0,0-8.85-5.69A19.74,19.74,0,0,0,35,57.08H34.86l0.05-1.39a14.25,14.25,0,0,1,1.25-6.08,1,1,0,1,0-1.68-.91,15.7,15.7,0,0,0-1.48,7L32.91,58a1,1,0,0,0,.3.74A0.94,0.94,0,0,0,34,59C34.06,59,34.31,59,34.69,59Z" style="fill:#23447d"/><path d="M61.76,60.64a1.07,1.07,0,0,1-1.07-1.07V51.2L49.45,44.47a1.07,1.07,0,0,1,1.1-1.84l11.76,7a1.07,1.07,0,0,1,.52.92v9A1.07,1.07,0,0,1,61.76,60.64Z" style="fill:#23447d"/><path d="M61.76,60.76a1.19,1.19,0,0,1-1.19-1.19v-8.3L49.39,44.58a1.19,1.19,0,1,1,1.23-2l11.76,7a1.2,1.2,0,0,1,.58,1v9A1.19,1.19,0,0,1,61.76,60.76ZM50,42.6l-0.23,0a1,1,0,0,0-.26,1.75l11.3,6.76v8.44a1,1,0,1,0,1.91,0v-9a1,1,0,0,0-.47-0.82l-11.76-7A1,1,0,0,0,50,42.6Z" style="fill:#23447d"/><path d="M61.76,65.45A3.49,3.49,0,1,1,65,62,3.36,3.36,0,0,1,61.76,65.45Zm0-4.81A1.36,1.36,0,1,0,62.84,62,1.23,1.23,0,0,0,61.76,60.63Z" style="fill:#23447d"/><path d="M61.76,65.57A3.61,3.61,0,1,1,65.11,62,3.48,3.48,0,0,1,61.76,65.57Zm0-7A3.37,3.37,0,1,0,64.87,62,3.25,3.25,0,0,0,61.76,58.6Zm0,4.81A1.48,1.48,0,1,1,63,62,1.34,1.34,0,0,1,61.76,63.42Zm0-2.66a1.25,1.25,0,1,0,1,1.21A1.11,1.11,0,0,0,61.76,60.75Z" style="fill:#23447d"/><path d="M61.76,76.38c-1.2,0-2.88-.13-3.76-1.25s-0.53-2.71-.09-4.48a16,16,0,0,0,.63-3.88,3.24,3.24,0,1,1,6.45,0,15.39,15.39,0,0,0,.61,3.69c0.44,1.76.86,3.42-.09,4.64C64.82,76,63.64,76.38,61.76,76.38Zm0-10.94a1.23,1.23,0,0,0-1.08,1.33,17.94,17.94,0,0,1-.69,4.4c-0.27,1.07-.57,2.28-0.3,2.63,0.08,0.1.46,0.42,2.07,0.42s1.94-.31,2-0.45c0.31-.39,0-1.67-0.3-2.8a17.1,17.1,0,0,1-.67-4.21A1.23,1.23,0,0,0,61.76,65.45Z" style="fill:#23447d"/><path d="M61.76,76.5c-1.22,0-2.95-.13-3.85-1.3s-0.56-2.78-.11-4.58a15.86,15.86,0,0,0,.62-3.85,3.35,3.35,0,1,1,6.69,0,15.31,15.31,0,0,0,.6,3.66c0.45,1.79.87,3.48-.11,4.75C64.89,76.08,63.68,76.5,61.76,76.5Zm0-13.09a3.25,3.25,0,0,0-3.11,3.36A16,16,0,0,1,58,70.68c-0.44,1.74-.81,3.25.07,4.38s2.5,1.21,3.67,1.21c1.84,0,3-.39,3.65-1.23,0.92-1.18.51-2.81,0.07-4.54a15.49,15.49,0,0,1-.61-3.72A3.25,3.25,0,0,0,61.76,63.42Zm0,10.94c-1.62,0-2-.33-2.16-0.47-0.29-.37-0.06-1.36.28-2.73a17.84,17.84,0,0,0,.69-4.37,1.22,1.22,0,1,1,2.39,0A17,17,0,0,0,63.62,71c0.31,1.22.62,2.47,0.28,2.91C63.76,74,63.29,74.35,61.76,74.35Zm0-8.79a1.11,1.11,0,0,0-1,1.21,18,18,0,0,1-.69,4.42c-0.24.94-.56,2.23-0.32,2.53,0,0,.34.38,2,0.38s1.88-.31,2-0.4c0.27-.35-0.06-1.65-0.32-2.7a17.2,17.2,0,0,1-.68-4.24A1.11,1.11,0,0,0,61.76,65.57Z" style="fill:#23447d"/></svg>
