<svg width="100" height="100" xmlns="http://www.w3.org/2000/svg" viewBox="0 0 100 100"><path d="M50,2A48,48,0,1,1,2,50,48.05,48.05,0,0,1,50,2m0-2a50,50,0,1,0,50,50A50,50,0,0,0,50,0h0Z" style="fill:#40b7ae"/><path d="M70.57,38.85L57,44.27l-2.29-.92a1.41,1.41,0,0,0-1,2.61l1.93,0.77V69l-11.25-4.5V42.23l0.88,0.35a1.41,1.41,0,0,0,1-2.61l-2.79-1.11h0a1.4,1.4,0,0,0-1,0h0l-14,5.61a1.41,1.41,0,0,0-.88,1.31V71.09a1.41,1.41,0,0,0,1.93,1.31L43,67l13.51,5.41h0a1.4,1.4,0,0,0,1,0h0l14-5.61a1.41,1.41,0,0,0,.88-1.31V40.16A1.41,1.41,0,0,0,70.57,38.85ZM30.31,46.73l11.25-4.5V64.52L30.31,69V46.73ZM69.69,64.52L58.44,69V46.73l11.25-4.5V64.52Z" style="fill:#23447d"/><path d="M48.59,38.55V52.81a1.41,1.41,0,0,0,2.81,0V38.55A5.63,5.63,0,1,0,48.59,38.55ZM50,30.31a2.81,2.81,0,1,1-2.81,2.81A2.82,2.82,0,0,1,50,30.31Z" style="fill:#23447d"/></svg>
