<svg width="100" height="100" xmlns="http://www.w3.org/2000/svg" viewBox="0 0 100 100"><path d="M50,2A48,48,0,1,1,2,50,48.05,48.05,0,0,1,50,2m0-2a50,50,0,1,0,50,50A50,50,0,0,0,50,0h0Z" style="fill:#40b7ae"/><rect x="28" y="67.35" width="44" height="2.54" style="fill:#23447d"/><path d="M60.15,63.12H39.85a1.27,1.27,0,0,1-1.2-1.67L48.8,31a1.27,1.27,0,0,1,2.41,0L61.36,61.44A1.27,1.27,0,0,1,60.15,63.12ZM41.61,60.58H58.39L50,35.4Z" style="fill:#23447d"/><path d="M70.31,63.12H59.6V60.58h9l-6.7-20.1L57.69,52.94l-2.41-.8,5.36-16.08a1.27,1.27,0,0,1,1.2-.87h0a1.27,1.27,0,0,1,1.2.87l8.46,25.38A1.27,1.27,0,0,1,70.31,63.12Z" style="fill:#23447d"/><path d="M40.4,63.12H29.69a1.27,1.27,0,0,1-1.2-1.67l8.46-25.38a1.27,1.27,0,0,1,2.41,0l5.36,16.08-2.41.8L38.15,40.47l-6.7,20.1h9v2.54Z" style="fill:#23447d"/><rect x="48.73" y="61.85" width="2.54" height="6.77" style="fill:#23447d"/><rect x="60.58" y="61.85" width="2.54" height="6.77" style="fill:#23447d"/><rect x="36.88" y="61.85" width="2.54" height="6.77" style="fill:#23447d"/></svg>
