<svg width="100" height="100" xmlns="http://www.w3.org/2000/svg" viewBox="0 0 100 100"><path d="M50,2A48,48,0,1,1,2,50,48.05,48.05,0,0,1,50,2m0-2a50,50,0,1,0,50,50A50,50,0,0,0,50,0h0Z" style="fill:#40b7ae"/><path d="M54,63.78L49.3,68.52,36.19,55.42,34.27,53.5,32,51.25A9.39,9.39,0,0,1,31.88,38a9.11,9.11,0,0,1,6.49-2.66,9.51,9.51,0,0,1,6.77,2.81l0.44,0.44,1.85-2-0.37-.37a12.2,12.2,0,0,0-8.68-3.6A11.8,11.8,0,0,0,30,36.08a12.1,12.1,0,0,0,.15,17.09l2.4,2.4,2,2L47.19,70.25l0.12,0.12a3.43,3.43,0,0,0,2,1,2.7,2.7,0,0,0,1.91-.92l0.21-.21,4.37-4.37A13.25,13.25,0,0,1,54,63.78Z" style="fill:#23447d"/><path d="M68.64,36.08a11.8,11.8,0,0,0-8.41-3.45,12.2,12.2,0,0,0-8.68,3.6L49.67,38.1l-0.34.37-3.24,3.32A1.35,1.35,0,1,0,48,43.69l4.5-4.61,0,0,0.91-.91a9.51,9.51,0,0,1,6.77-2.81,9.07,9.07,0,0,1,9.14,8.8A13.1,13.1,0,0,1,72,45.44,11.86,11.86,0,0,0,68.64,36.08Z" style="fill:#23447d"/><path d="M63,51.46a5.46,5.46,0,0,0-3.46,5.06,1.16,1.16,0,0,0,2.32,0,3.12,3.12,0,0,1,2-2.89A1.16,1.16,0,0,0,63,51.46Z" style="fill:#23447d"/><path d="M75.22,67.85L72.17,63.9A10.29,10.29,0,1,0,70,65.52l3.08,4A1.35,1.35,0,1,0,75.22,67.85ZM57.4,56.52A7.6,7.6,0,1,1,65,64.11,7.61,7.61,0,0,1,57.4,56.52Z" style="fill:#23447d"/></svg>
