<svg width="95" height="108" xmlns="http://www.w3.org/2000/svg"><style>.st1{fill:#fff}</style><path d="M59.9 93.3l-11.4 13.9c-.8 1-2.2 1-3 0L33.8 93C14.2 87.1 0 69 0 47.5 0 21.3 21.3 0 47.5 0S95 21.3 95 47.5c0 21.9-14.9 40.4-35.1 45.8z" fill="#1d3f7a"/><path class="st1" d="M35.5 41.6l12.7 7.3v5.6l-12.7-7.4zm-.7 5.9h.7v6.9h-.7zm24.8-18.2h.7v6.9h-.7zM23.1 56.7l.5.2.7.2.9.3 1.1.3 1.3.2.7.2h.8l.8.2h.8l1.4.2h6.7l2.5-.2 2.6-.3 2.5-.3 2.4-.3 2.5-.3 2.6-.2 1.2-.2h1.2l1.3-.1h1.3l1.3-.1h1.3l1.3.1h1.4l1.4.1 1.3.1 1.4.2 1.5.3 1.4.2 1.5.4h.3v5l-1.1-.3-.6-.1-1.5-.3-1.1-.2-1.3-.2-1.4-.1-1.6-.2h-1.1l-1-.1h-1.2l-1-.1-2.1.1-2.2.1-2.1.2-2.1.1-4.2.6-2.1.2-2.1.2-2.1.2-2.1.2-2.2.1h-1l-1.1.1-2.2-.1-1-.1h-1.1l-1.8-.2-1.6-.2-1.4-.4-1.1-.2-1-.3-.7-.2-.5-.2H22v-4.9z"/><path class="st1" d="M23.1 62.4l.5.2.7.2.9.2 1.1.3 1.3.2.7.1.8.2h.8l.8.2h1.4l1.4.1 1.3.1 1.4-.1h1.2l1.4-.1 2.5-.2 2.6-.2 2.5-.3 2.4-.3 2.5-.3 2.6-.3h1.2l1.2-.2h1.3l1.3-.1h3.9l1.4.1 1.4.1 1.3.1 1.4.2 1.5.2 1.4.4 1.5.3.3.1v4.9l-1.1-.3-.6-.1-1.5-.3-1.1-.1-1.3-.2-1.4-.2-1.6-.2-1.1-.1-1-.1h-2.2L58 67l-2.2.1-2.1.2-2.1.2-4.2.4-2.1.3-2.1.2-2.1.2-2.1.2-2.2.1h-5.3l-1.1-.1-1.8-.2-1.6-.3-1.4-.2-1.1-.3-1-.3-.7-.2-.5-.2H22v-5zM73 29.3v5.5l-12.7 7.4v-5.7zm-26.2 0l12.8 7.2v5.7l-12.8-7.4zM59.6 43v5.5L35.5 34.7v-5.6zm0 6.2v5.6L35.5 40.9v-5.6zM34.8 29.1v5.6L22.1 42v-5.6zm0 6.2v5.6l-12.7 7.4v-5.7zm0 6.3v5.5l-12.7 7.4v-5.6zm38.2-6v5.6l-12.7 7.3V43zm0 6.2v5.7l-12.7 7.3v-5.6z"/></svg>