<svg width="74" height="114" xmlns="http://www.w3.org/2000/svg" viewBox="0 0 74 113.5"><path fill="#fff" d="M57.3 0h16.6v15.2H57.3V0zM0 0h46.5v15.2H35.7c-3 0-5.4 2.4-5.4 5.4s2.4 5.4 5.4 5.4h10.8v10.8c0 3 2.4 5.4 5.4 5.4 3 0 5.4-2.4 5.4-5.4V26h16.6v55.6H0V0zm3.1 85.4c-.6 0-1.7 0-2.4.6-.7.7-.7 1.9-.7 2.4v5.8c0 .5 0 1.7.7 2.4.7.6 1.8.6 2.4.6h6.5c.6 0 1.7 0 2.4-.6.7-.7.7-1.9.7-2.4v-1.7H9.4v1.8h-6v-6.1h6.1v1.7h3.4v-1.5c0-.5 0-1.7-.7-2.4-.7-.6-1.8-.6-2.4-.6H3.1zm24.1 8.9h-7.6v-6.1h7.6v6.1zm-7.8-8.9c-.6 0-1.7 0-2.4.6-.7.7-.7 1.9-.7 2.4v5.8c0 .5 0 1.7.7 2.4.7.6 1.8.6 2.4.6h8.1c.6 0 1.7 0 2.4-.6.7-.7.7-1.9.7-2.4v-5.8c0-.5 0-1.7-.7-2.4-.7-.6-1.8-.6-2.4-.6h-8.1zm25.7 0H34.4v11.8h3.4v-9h7.8v-2.8h-.5zm6.4 3.4c.4.8 1.3 2.4 1.7 3.2h-3.5c.4-.8 1.3-2.4 1.8-3.2zm1.3-3.4h-2.7l-6.7 11.8H47s1.1-2 1.2-2.4h6.5c.2.4 1.3 2.4 1.3 2.4h3.8L53 85.4h-.2zm11.6 0c-.6 0-1.5.1-2 .5-.7.6-.7 1.6-.7 1.9v2.1h3V88h5.2c.3 0 .4.1.4.1s.1.1.1.4v.9c0 .3-.1.3-.1.3-.1.1-.2.1-.4.1h-4v2.6H70c.3 0 .4.1.5.1 0 0 .1.1.1.4v1c0 .2 0 .3-.1.4 0 0-.1.1-.5.1h-5.5v-1.8h-3.1v2.2c0 .6.1 1.4.6 1.9.5.6 1.5.6 2.3.6h6c1.3 0 2.3-.2 2.8-.7.5-.4.8-1.1.8-1.8v-1.4c0-.9-.3-1.4-.6-1.7-.2-.2-.4-.3-.6-.5.2-.1.3-.2.5-.4.5-.5.5-1 .5-1.4v-1.3c0-.6-.1-1.3-.6-1.9-.5-.4-1.2-.7-2.2-.7h-6.5zM2.6 101.9l1.8 4.3 1.7-4.3h2.1v5.8H7v-4.9l-2 4.9H3.8l-2-4.8v4.8H.6v-5.8h2zm10.8 2.4h3v.9h-3v1.6h3.2v.9h-4.4v-5.8h4.4v.9h-3.2v1.5zm7 2.4c.5-.5.7-1.1.7-2.4v-2.4h4.7v4.8h.6v2.3h-1.2v-1.3h-4.1v1.3h-1.2v-2.3h.5zm1.9-3.8v1.5c0 1.2-.1 1.9-.6 2.4h2.8v-3.9h-2.2zm13.3-1v5.8h-1.2v-3.8c0-.3 0-.7.1-1l-2.7 4.8H30v-5.8h1.2v3.8c0 .2 0 .6-.1 1l2.7-4.8h1.8zm8.2 4.8v-4.8H45v4.8h.6v2.3h-1.2v-1.3h-4.9v-5.8h1.2v4.8h3.1zm11.1-4.8v5.8h-1.2v-3.8c0-.2 0-.6.1-1l-2.7 4.8h-1.8v-5.8h1.2v3.8c0 .2 0 .6-.1 1l2.7-4.8h1.8zm5.1 2.4h3v-2.4h1.2v5.8H63v-2.5h-3v2.5h-1.2v-5.8H60v2.4zm9.5 2.3l-.4 1.1h-1.3l2.2-5.8h1.8l2.2 5.8h-1.3l-.4-1.1h-2.8zm1.4-3.8l-1.1 3H72l-1.1-3zm3 10.7H0v-1.4h73.9v1.4z"/></svg>