<svg width="235" height="134.8" xmlns="http://www.w3.org/2000/svg"><path fill="#fff" d="M6.2 127.4l5.8-6.7.3-.4-.6-.5-6.7 7.8h.1L0 133.5l.6.5 5.6-6.5v-.1zM157 89.2h1.3l.1.4.1.3h.1l.4.1.4.1.5-.1.3-.1.3-.3v-.4h1.3v.3l-.1.3-.3.4-.3.3-.4.3-.4.1-.4.1h-1.2l-.3-.1-.4-.1-.4-.3-.4-.3-.1-.4-.1-.6zm.8 7.3l3.2-5.3h1.9v8.2H161V94l-3.2 5.4h-1.9v-8.2h1.9v5.3zm-84.8 0h1.9l-.1.5-.1.5-.3.5-.4.6-.1.1-.4.3-.3.3-.2.1-.4.1-.5.1h-1.7l-.8-.1-.6-.3-.4-.2-.3-.3-.3-.3-.3-.3V98l-.3-.5-.1-.4-.1-.5v-1.8l.1-.6.1-.6.3-.5.1-.4.4-.4.3-.3.4-.3.3-.3.4-.1.6-.1.5-.1h.9l.5.1h.4l.4.1.4.3.3.1.4.3.4.5.1.5.3.5v.5h-1.9l-.1-.5-.1-.4-.3-.3H72l-.3-.1h-1.2l-.3.1-.2.1-.3.4-.3.5-.3.6V96l.1.5.1.4.3.4.3.4.4.3h.4l.4.1h.5l.4-.1.3-.3.3-.1.1-.3.1-.3.2-.5zm8-5.2h2l3.1 8.2H84l-.5-1.5h-2.9l-.6 1.5h-2.1l3.1-8.2zm-.1 5.2h2.2l-1-3.1-1.2 3.1zm10.8-.6v3.6h-1.9v-8.2h1.9v3.1h2.9v-3.1h1.9v8.2h-1.9v-3.6h-2.9zm11.6-4.6h1.9l3.1 8.2h-2.1l-.5-1.5h-2.9l-.5 1.5h-2.1l3.1-8.2zm-.1 5.2h2.2l-1-3.1-1.2 3.1zm9.9-3.7h-2.4v-1.5h6.8v1.5H115v6.7h-1.9v-6.7zm11.4 6.8h-1l-.5-.1-.4-.3-.4-.3-.4-.3-.3-.3-.3-.3-.3-.3-.1-.4-.3-.8-.1-.8-.1-.6.1-.8.1-.8.3-.6.4-.8.3-.3.3-.3.4-.3.4-.3.4-.1.5-.1.5.3h1l.5.1.5.1.4.1.4.1.3.3.4.1.3.4.3.3.1.4.3.3.1.4.1.9.1.9-.1.9-.1.8-.4.8-.1.3-.3.4-.3.3-.4.3-.3.1-.4.3-.4.1-.5.1h-1zm0-1.5h.4l.3-.1h.4l.1-.3.3-.1.1-.1.3-.5.1-.4.1-.5v-1.4l-.1-.4-.1-.5-.3-.4-.1-.3-.3-.1-.1-.1-.4-.1h-1l-.4.1-.4.1-.3.4-.3.4-.3.4v.6l-.1.6.1.6.1.6.1.5.3.4.4.1.3.3.4.1h.4zm8.6-6.8h4.4l.5.1.5.1.5.3.4.4.3.5.3.5v1.2l-.1.4-.1.4-.1.3-.1.3-.3.3-.3-.1-.3.1-.5.3-.5.1h-.5l-.4.1h-1.9v2.8h-1.8v-8.1zm1.8 1.5V95h2.2l.3-.1.1-.1.1-.1.1-.3.1-.1V94l-.1-.4v-.3l-.3-.3-.1-.1h-.3l-.3-.1h-1.8zm11 3.7l3.3-5.3h1.9v8.2h-1.9V94l-3.3 5.4H144v-8.2h1.9v5.3zM95.3 24.2l24.6 14.2v10.8L95.3 35V24.2zm-1.5 11.6h1.4V49h-1.4V35.8zM141.9.4h1.3v13.3h-1.3V.4zM71.1 53.6l1 .4 1.3.4 1.8.5 2.2.5 2.4.5 1.4.3 1.5.1 1.5.3 1.5.1 2.7.3h2.7l2.6.1h2.7l2.4-.1h2.6l5-.4 4.9-.5 4.9-.5 4.7-.6 4.9-.5 4.9-.5 2.3-.3 2.4-.1 2.6-.3h2.4l2.6-.1h2.4l2.6.1 2.7.1 2.7.1 2.6.3 2.7.4 2.8.5 2.8.5 2.9.6.5.1v9.6l-2.2-.5-1-.3-2.9-.5-2.2-.4-2.4-.4-2.8-.4-3.1-.3-2.1-.1-2.1-.1h-2.2l-2.1-.1-4.1.1-4.1.3-4.1.3-4.1.4-8.1 1-4.1.4-4.1.5-4.1.4-4.1.3-4.1.3h-2.1l-2.1.1-4.2-.1-2.1-.1-1.7-.3-3.5-.4-3.1-.4-2.7-.6-2.2-.5-1.9-.5-1.4-.4-1-.4-.6-.1v-9.5l2.1.4zm0 10.9l1 .4 1.3.4 1.8.4 2.2.6 2.4.4 1.4.3 1.5.3 1.5.1 1.5.3 2.7.1 2.7.1 2.6.1 2.7-.1H99l2.6-.1 5-.4 4.9-.4 4.9-.6 4.7-.5 4.9-.6 4.9-.5 2.3-.1 2.4-.3 2.6-.1 2.4-.1h7.6l2.7.1 2.7.3 2.6.3 2.7.4 2.8.4 2.8.6 2.9.6.5.1v9.6l-2.2-.6-1-.3-2.9-.5-2.2-.3-2.4-.4-2.8-.4-3.1-.3-2.1-.3-2.1-.1h-4.2l-4.1.1-4.1.1-4.1.4-4.1.4-8.1.9-4.1.5-4.1.4-4.1.4-4.1.4-4.1.3h-8.3l-2.1-.1-2.1-.1-3.5-.4-3.1-.7-2.7-.5L74 75l-2-.5-1.4-.4-1-.4-.5-.1V64l2 .5zM167.8.4v10.8l-24.6 14.2V14.5L167.8.4zm-50.6 0l24.7 14.1v10.9l-24.7-14.2V.4zm24.7 26.5v10.8L95.3 10.9V0l46.6 26.9zm0 12.1v10.9l-46.6-27V12.1L141.9 39zM93.8 0v10.9L69.2 25V14.2L93.8 0zm0 12.1V23L69.2 37.2V26.3l24.6-14.2zm0 12.1V35L69.2 49.2V38.5l24.6-14.3zm74-11.5v10.8l-24.6 14.2V26.9l24.6-14.2zm0 12v10.9l-24.6 14.2V39l24.6-14.3zm63.7 78.8l-.6-.5-11.7 13.6.6.6 11.4-13.3.3-.4zm-17.4 14.1l-.4-.1-.8-.1-.6-.1h-.4l-.1.1-.6.8-1.2 1.2-2.7 2.6-3.2 2.9-3.2 2.8h.1l-1.7 1.3-1.4 1-1.2.8-.4.1-.3.1h-.3v-.4l.5-.5.6-.8 2.1-1.8h.1l2.3-2.2 1.2-1.3 1.2-1.2.9-1.3.8-1.2.3-.5.3-.5.1-.5v-.8l-.1-.3-.1-.1-.3-.1-.4-.3h-.9l-.5.1-.5.3-.8.4-.5.4-.5.4-.9.8-.9 1-1 .8-.9.9-1.4 1.4-1.8 1.9-2.1 1.9h.1l-1.3 1-1.3.9-.6.4-.5.3-.5.1h-.6l-.1-.1-.1-.3v-.3l.1-.5.1-.4.4-.6.5-.6h-.1l1-1.3 1.3-1.4 2.9-2.8 2.4-2.4.8-.8.1-.1.1-.3v-.1l-.1-.1-1.4.4-1 .1H193l-.3-.1-.8-.3-.5-.5-.5-.5-1 1.5-.9 1.2-1 1.5-1.2 1.4-1.2 1.4-.5.5-.5.5-.5.4-.5.4-.9.3-.8.3v-.6l.9-1.5.5-.9.4-.9.4-.9.4-.9.1-.9.1-.8-.1-.4-.1-.5-.3-.3-.1-.3-.4-.1-.3-.1h-.4l-.5.1-.5.1-.6.3-.8.4-.8.4-.8.4-.8.5-.9.6-.9.6-.9.8-.9.9-.9.9-.8 1-.9 1-.6 1.2-.4.8h.1l-.4.9-.4 1-.4 1-.1.8v.6l.1.5.1.4.3.3.4.1.4.1h1.5l.6-.3 1-.5 1.2-.6 1.3-.9 1.3-.9.9-.9.8-.6.4-.4 1.9-.8h-.1l.9-.4.9-.4.8-.5.8-.5 1.2-.9.9-1 .9-.9 1-1.2h1.2l.6.1h.4l.3-.1v.5l-2.2 1.9-1.5 1.7-1.7 1.8h.1l-.9 1.2-.9 1.2-.3.5-.4.7-.1.5v.8l.3.5.1.1.1.3h.3l.3.1.3-.1h.4l.9-.4 1-.6 1-.6 1.2-.9 1.3-1 2.6-2.2h-.1l2.9-2.7 2.6-2.4 1.2-.9.9-.8.6-.5.3-.1h.1v.3l-.5.6-.6.8-1.9 1.7-1.9 2.1-1 1-1 1.2h.3l-.9 1.2-.4.5-.4.6-.3.6-.3.5-.1.6v1.2l.1.1.1.1.3.1h.5l.4-.1.8-.4 1.2-.5 1-.6 1.9-1.3 1.2-.6-.1.1-.1.3v.1l-.1.4-.1.5-.3 1.2.1.3v.1l.1.1.1.1.4.3h1l.5-.1.6-.3.6-.3 1.4-.6 1.3-.8 1.4-.9 1.2-.9 1-.9.9-.9h-.1l.4-.5.4-.5-.3-.1-.3-.1-.5.6-.9.8h.1l-1.5 1.2-1.7 1.2-.9.5-.8.5-.6.3h-.9l-.1-.1-.3-.3.3-.5.3-.5.4-.5.4-.4 1.4-1.4h-.1l2.9-2.8 3.1-2.9 1.2-1.3 1-1.2.6-.8.3-.3v-.5l-.3-.4zm-35.5 10.6l-.6.6-.8.8-1 .9-1 .6-1.2.6-.9.4-.4.1h-.7l-.3-.1h-.1l-.1-.1-.1-.4v-.3l.1-.5.1-.4.1-.4.3-.4.5-.8.5-.6.6-.9h-.1l1.9-2.2 1.2-1.4 1.2-1.2 1.9-1.8 1-.9 1-.8.4-.3.5-.3.4-.1.3-.1.3.1h.3l.1.1v.8h-.3l-.3.3-.4.5-.3.3-.4.3-.5.6-.5.8-.6.8-.5.9-.5 1-.4.9-.3 1-.1 1h.1v.1l-.4.5zm-131-1.5l1-.8 1.9-1.8 1.8-1.8 1.8-1.9 3.3-3.7 1.8-1.8 1.7-1.8 1.9-1.7.6-.6.5-.5.4-.5.1-.1v-.5l-.1-.1H64l-.8.1-.8.3-.9.5-1 .5-1 .8-1.2.9-1.2 1-1.3 1.3-2.9 3.2-3.2 3.5-1.7 1.7-1.7 1.7-1.8 1.7-1.7 1.5h.1l-1.2.9-.8.5-.8.5-1.8 1-1.8.9-1.9.8-1.7.5-1.5.5-1.2.3-.8.1-1.5.3h-2.3l-.5-.1-1.2-.1-1.3-.3-1.5-.4-.9-.3-.6-.3-.8-.3-.6-.4-.5-.4-.4-.4-.3-.4v-.4l-.1-.3.1-.3v-.3l.4-.5.3-.5.1-.3v-.8h-.3l-.3-.4-.3-.3-.4-.3h-1l-.4.3-.4.3-.3.5h.3l-.1.3-.1.4v1.5l.5.4.1.4.5.6.5.6.6.5.8.4.8.5.9.4 1.7.5 1.7.4 1.3.3h.9l.9.1h1.9l1.2-.1H30l1.3-.3 1-.1 1.4-.4 1.7-.5 1.7-.5 1.8-.6 1.7-.8 1.4-.8 1.3-.6 1-.6 1.3-.9 1.4-1h-.3l.9-.8zm186.8-23.8l-11.8 13.6.6.6 11.5-13.3.3-.4-.6-.5zM27.2 118.8l.3.6.4.5.4.6.5.4.5.5.5.4.6.4.6.3 1.2.5 1.2.4h1.9l1.2-.1 1.2-.1 1.3-.2 1.4-.4 1.5-.4 1.5-.5 1.4-.5 1.5-.6 1.3-.8 1.4-.8.5-.4.5-.5.5-.4.5-.5.3-.5.4-.5.3-.6.1-.5.1-.6v-1.4l-.1-.5-.1-.6-.5-.8-.5-.6-.8-.6-.8-.5-.4-.1-.4-.1-.5-.1h-.4l-2.2-.1-.6.1-.8.1-.9.1-1.5.4-2.2.5-1 .4-1.2.5-1.2.5-1.2.5-1 .6-.8.6-.8.6-.4.4-.3.4-.3.4-.1.4-.1.4v.6l.1.1.1.3.6-.8.6-.8.6-.8.9-.6.8-.6.9-.6.9-.5.9-.5.9-.4.9-.4.9-.3 1-.3.9-.3.8-.1h3.2l.9.1.9.3.9.3.6.4.3.3.1.3.4.5.1.5.1.8v1.3l-.1.5-.1.4-.1.5-.4.5-.3.4-.4.4-.4.5-.9.8-1.2.6-1.2.6-1.2.5-1.3.5-1.2.5-1.3.4-1.2.3-1 .3-1 .1-.8.1h-1.4l-.6-.1-.8-.1-.6-.1-.6-.3-.5-.4-.6-.4-.5-.4-.5-.4-.4-.5-.4-.5-.4-.6-.3-.6-.1-.8-.1-.8v-1.4l.1-.6.3-.6.3-.6.3-.6.4-.5.5-.5.5-.5.5-.5.6-.5 1.3-.8 1.4-.8 1.5-.8 1.5-.5 1.5-.5 1.4-.5 1.5-.4 2.4-.4 1.8-.3.8-.1h1.5l2.2.3 2.1.3 17.6 3.6.9.3 1.5.1h2.3l.6-.1.9-.3.9-.4.9-.6 1-.5.9-.8.9-.8.9-.6.5-.6-.4-.4-.9.6-.6.5-.9.5-.9.6-.9.4-1 .4-.5.1h-1.4l-1-.1-.9-.3-2.2-.4-3.6-.9-4.6-1-2.4-.4-2.4-.4-1.9-.4-1.8-.1h-6.9l-.9.1-1.2.3-1.5.3-1.7.4-1.8.6-1.8.5-1.9.8-1.9.9-1.8.9-.9.5-.8.5-.8.6-.8.5-.6.6-.5.6-.6.6-.4.6-.4.8-.3.8-.1.8-.1.8v1.4l.1.6.4.4zm95.4-.3l-.3-.4-.4-.3-.3-.1-.3-.1-.8.1-.9.1-.9.3-.8.4-.9.4-.8.5-.8.5-.8.5-.6.6-.8.6-1.2 1.2-1 1.2-.8.9-.6 1-.4.8-.5.9h.3l-.4.8-.3.8-.3.8-.1 1.2.1.8v.9l.1.4.1.3.3.3.4.3h.9l.6-.1.6-.3.6-.4 1.4-.8 1.4-1 1.4-1 1-.9.8-.8.1-.3.1-.3v-.1l-.1-.1-.1-.3h-.3l-.9.8-.9.8-1 .9-1.2.9-1.3.8-.6.3-.5.3-.5.1-.5.1-.3-.1-.1-.1v-.9l.3-.5.4-.8.4-.6.4-.6.5-.5.4-.5.4-.4h-.1l1.5-.5 1.2-.3.9-.4.8-.4 1-.6 1-.8 1.2-.9 1.2-1 .4-.5.4-.5.4-.5.3-.4.3-.5v-1.3l-.2-.7zm-1.5 1.2l-.3.5-.3.5-.3.4-.4.5-.5.5-1 1-1 .8-.9.8-.9.5-.5.3-.3.1-.5.3h-.8l.8-.9 1-1.4.9-1 .9-1 1-1 1-.9.4-.4.4-.3.4-.1.3-.1h.3v.1l.3.1v.7zm-105.8 1.1l.4-.4-.8-.5-6.5 7.7h.1l-5.1 5.9.8.5 5.6-6.5h-.2l5.7-6.7zm154.4 6.6l.6-.6-.4-.6-.5.4-1 1h.1l-1.8 1.4-1 .9-1 .8-1 .6-.9.6-.9.3-.3.1h-.6l-.1-.1-.1-.3v-.3l.1-.3.1-.3.6-1 1.8-2.7h-.1l2.6-3.3.6-.8.8-1 1.9-2.4 1.9-2.1.6-.6.4-.3.8-.4.8-.4 1.5-.6 1.7-.5 1.7-.6.9-.4.6-.3 1.4-.8 1.7-.9 1.5-1.2.8-.6.8-.6.6-.6.6-.6.6-.6.5-.8.4-.8.3-.8.3-.8v-1.3l-.3-.4-.1-.3-.1-.1-.3-.1-.4-.1-.5.1h-.5l-.6.3-.6.1-1.3.5-1.4.8-1.4.9-1.4 1-1.5 1-1.4 1.2-1.5 1.2-1.3 1.3-2.7 2.3-4 3.7-.4.1-.6.3-1.7.4-1.7.4-.9.3h-.4l-.1-.1-.1-.1-.1-.1v-.1l.1-.3.4-.5 1.5-1.8 2.2-2.3 2.6-2.6 6.7-6.8v-.3h-1.4l-.6.1-.8.4-.8.3-.8.5-.8.4-1.7 1.2-1.5 1-1.5.9-.8.4-.6.3-.8.3h-1l-.4-.1-.3-.1-.3-.1-.3-.1-.1-.4-.1-.4.1-.4.1-.5.3-.5.1-.4-.1-.3-.1-.4-.1-.3-.1-.3-.5-.4-.5-.5-.6-.3-.6-.3-.5-.1h-5.9l-1 .1-1.3.3-1.5.4-1.5.5-1.7.6-1.7.6-1.7.8-1.7.9-1.5.9-1.4 1-.6.5-.5.6-.6.5-.5.6-.4.6-.4.6-.3.6-.3.6-.1.8v2.8l.3.6.3.5.3.6.4.4.5.4.5.5.6.3.5.3.6.3 1.2.4 1.2.3 1 .1h2.6l.6-.1h.9l.9-.3 1.2-.3 1.3-.4 1.2-.4 1.4-.4 1.3-.6 1.3-.5 1.2-.8 1.2-.8.9-.8.4-.5.4-.5.4-.4.3-.5.3-.5.1-.6.1-.5v-1l-.1-.6-.3-.4-.3-.5-.4-.3-.4-.4-.5-.3-.4-.4-1-.4-1-.3-.8-.1-.8-.1h-2.3l-.4.1h-.6l-1.7.5-2.1.6-1.2.4-1 .5-1.2.5-1 .5-1 .6-.8.6-.8.6-.5.6-.3.4-.1.4-.1.4v.6l.1.1.4-.4.4-.5.5-.5.5-.5.8-.6.8-.5 1.8-1.2.9-.5 1-.5.9-.4 1-.4 1-.4.9-.3.9-.1h.9l1.5-.1h.8l.9.1.8.3.8.4.4.3.3.3.3.4.3.4.3.4.1.5.1.5v1l-.1.5-.1.5-.3.4-.3.5-.3.4-.5.5-.4.4-.9.6-1 .8-1.2.5-1.2.5-1.3.5-1.2.4-2.4.5-1.8.4-1.3.1-1-.1-1.2-.3-1.3-.4-.6-.3-.6-.3-.5-.4-.6-.4-.5-.5-.4-.4-.4-.6-.3-.5-.1-.6-.1-.8.1-.8v-.6l.3-.8.3-.6.3-.6.4-.6.4-.5.5-.6.5-.5.5-.5 1.2-1 1.3-.8 1.4-.8 1.4-.6 1.4-.6 1.4-.5 1.4-.4 1.2-.4 1.2-.3 1.7-.3 2.3-.3 1-.1h1.4l.6.1.6.1.5.3.3.1.1.3.1.3v.3l-.3 1.2-.1 1.2v.4l.3.4.4.4.4.4.5.3.5.3.5.1h1.5l1-.3 1-.3.9-.4 1.4-.8.6-.1.4-.1h.1v.3l-1.2 1-1.3 1-1 .9-1.2 1-1.3 1.3-1.2 1.3-2.6 2.7-1.3 1.3-1.3 1.2-1.4 1-.8.5-.6.4-1.8.9-1.8 1-.1.1v.3l.1.1.3.1 1.3-.4 1.4-.8 2.2-1-1.3 1.5-1.4 1.4-1.4 1.4-1.5 1.4h.1l-1.5 1-1.5 1-1.7 1-1.7.8-1.7.6-1.7.5-1.7.4-.8.1-.9.1-2.3.1h-.5l-.6-.1h-1l-1.3-.1-1.4-.3-.8-.3-.6-.1-.6-.3-.6-.4-.5-.3-.3-.4-.3-.5-.1-.3v-.3l.1-.4.1-.3.1-.4.3-.4.5-.5.1-.4.1-.3v-.1h-.3l-.1-.3-.3-.1-.3-.3-.3-.3-.8-.3-.5-.1-.4.3-.3.3-.3.4-.3.5h.3l-.1.3v1.2l.3.6.3.6.4.6.5.5.6.5.6.4.6.4.8.3.8.3 1.4.5 1.4.3h5.3l.9-.1 1-.1 1-.1 1.2-.3 1.2-.4 2.2-.8 1.2-.4 1.2-.6 1.2-.5 1.2-.5 2.3-1.3 2.2-1.4h-.1l1.2-.9 1.3-.9 1.2-1 1.2-.9 1-1 .9-1 .9-1.2.8-1 .6-.3 1.5-.4 1.8-.4.6-.1h.5l.1.1v.4l-.1.3-.5.6-1.8 2.2-1 1.3-1 1.4-1 1.4-.9 1.5h.1l-.4.8-.4.9-.3.9-.1.8v1.2l.1.4.1.5.1.1.3.1.1.1.3.1.6.1h.5l.6-.1.8-.1.6-.4.8-.4.6-.4.8-.5 1.4-1 1.3-1.2 1.2-1 .9-1-.5.7zm3.9-12.1l.1-.1.3-.4.5-.8 1.7-1.4 1.8-1.8 2.1-1.7 2.1-1.8 1.9-1.5 1.8-1.2 1.3-.9.5-.3h.6l.3.1.3.1v.8l-.1.4-.4.6-.4.8-.8.8-.8.8-.9.9-1 .8-1 .8-2.2 1.4-2.2 1.3-1.9 1-1.4.8-2.2.5zM108.3 129v-.1l-.1-.1-.3-.3-1.3 1.2-1.6 1.3-.9.6-.8.5-.8.4h-.3l-.3.1-.1-.1-.3-.1-.1-.3v-.5l.3-.3.8-1 2.4-2.9h-.3l2.6-3.1.8-.9 1.3-1.7.8-.9.5-.9.4-.6.1-.4v-.4l-.1-.3-.1-.1-.5-.1h-1.2l-.5.1-1.9 2.3-2.2 2.7-1.2 1.3-1 1.3-1 1-.9.8h.1l-.6.3-.3.1h-.8v-.3l.1-.3h-.3l1.3-2.2.6-1.3.3-.5v-.8l-.1-.3-.3-.1-.3-.1-.4.1h-.3l-.3.3-.4.3-.5.5-.6.8-.6.8-.5.9-1 1.8h.4l-.8 1.4-.4.8-.9.8-1 .8-1 .6-1 .4-.3-.3v-.5l.1-.4.6-.9.9-1.3 1.2-1.5h-.1l1.9-2.3 1.9-2.4 2.9-3.7.1-.8h-1.5l-1.4.1-3.5 3.7-2.4 2.6-1.4 1.4-1.5 1.5h.1l-1.5 1.3-1.8 1.5-.8.6-.6.4-.5.4-.4.1h-.8v-.6l.3-.4.8-.9 2.3-2.6h-.1l1.7-1.9.8-1 .9-1 .6-1 .5-.9.4-.9.1-.4.1-.4-.1-.4-.1-.4-.3-.5-.1-.3-.1-.1-.4-.1-.5-.1-.8-.1h-.6l-.6.3-.8.4-.8.5-.6.5-.8.6-.8.8-.8.8-1.4 1.7-1.3 1.5-2.1 2.7h.1l-.6.8-1.4 1.4 1.2-2.1v-.3h-.3l.3-.5.1-.4v-.3l-.1-.3v-.1l-.1-.1h-.6l-.3.1-.8.4-.9.5-1.2.8h.1l-5 3.2-1.2.8-1 .6-.9.4h-.3l-.3.1-.3-.1-.1-.1v-.9l.3-.4.4-.9.5-1 .6-.9 1-.3 2.1-.6.8-.3 1.3-.5 1.2-.5 1.2-.6 1-.8.4-.4.5-.4.4-.5.4-.5.3-.5.3-.6.3-.6.1-.8v-.4l-.1-.4-.1-.4-.3-.5-.4-.3-.5-.3-.6-.1-.6.1-1.2.3-1.2.5-1.2.5-.9.6-1 .8-.8.8-1.7 1.7-1.2 1.3-1 1.2-.6 1-.5.8-1.4.1.1-.3h-.1l.5-.8.4-.6.4-.8.1-.5.3-.6.1-.5.1-.6v-1.3l-.1-.6-.3-.6-.3-.4-.1-.3-.5-.5-.5-.5-.6-.3-.6-.3-.6-.2h-1.7l-.8.3-.6.3-.9.5.3.4.1.1h.1l.5-.4.5-.3.6-.3h1.4l.5.3.4.4.3.4.4.5.1.5.1.5.1.6-.1.5-.1.6-.4.6-.4.6-.4.8-.6.8-.6.8-.6.9h.1l-1 1-1.2 1.2-1.2 1-1.3.9-1.2.8-1 .5-.6.3-.4.1-.5.1h-.8l-.3-.1-.4-.3-.3-.1-.3-.4-.1-.3-.1-.3v-.3l-.1-.8.1-.5.1-.5.1-.4.3-.5.4-.4.4-.5.4-.4.5-.4h-.1l.5-.4.6-.4 1.3-.8 1.4-.6 1.4-.6 2.2-.8 1.2-.4-.3-.4h-.3l-.1-.1-.8.1-1 .3-1.2.4-1.3.5-1.4.6-1.3.8-.6.4-.6.5-.5.4-.5.6h.1l-.4.4-.4.4-.4.5-.3.5-.1.5-.3.5v.6l-.1.5v.4l.1.4.1.4.1.4.1.3.1.3.3.1.3.1.5.4.6.1.6.1h.8l.9-.1 1-.1.9-.4.9-.3.9-.5.8-.5.9-.4.8-.6 1.3-1 1.2-.9.9-.9.9-.1h.8l-.3.5-.3.5-.3.6-.3 1.2v1l.1.5.1.3.1.4.3.3.4.1.4.3h.9l.5-.1.4-.1.5-.3 1-.4.9-.6 1.9-1.3.8-.5.9-.5v.1l-.1.3-.1.1v.1l-.3.6-.3.6v1l.1.3.1.3.3.1.4.3.5.1h.4l.5-.1.5-.1.6-.3.5-.4.5-.5.6-.6 3.8-4.9h-.1l2.6-2.9 1.2-1.4 1.3-1.3 1.2-1.2 1-.9.9-.6.4-.3.5-.3.1.3.1.4v.3l-.1.4-.3.4-.3.4-.8 1-.9 1-2.1 2.3-1.2 1.3-1 1.3h.1l-.9 1.3-.5.6-.3.6-.4.6-.3.6-.1.6v.9l.1.4.1.3.1.3.3.1h.9l.6-.1.8-.3.6-.4.8-.4.8-.4 1.3-1 1.3-1 1.2-.9 1.4-1.3-.4.6-.4.6-.3.9-.3.8v1.8l.3.5.1.3.1.3.3.1h.9l.6-.3.6-.1.5-.4.6-.4.6-.4 1.2-.9 1.2-.9 1.3-.8.5-.4.6-.3.5-.1.6-.1.9.1h.3l-.1.4-.3.6-.3 1-.1.5v.5l.1.5.1.4.1.3.3.3.3.3.4.3h.8l.4-.3.5-.3.5-.3 1.2-.8 1.3-1 2.1-1.7 1-.9 1 .4zm-40.9-2.6l.8-.9 2.6-2.6 1.4-1.4 1.3-1.3 1-.9.3-.1.3-.1.3-.1h.1l.1.1.1.1v.8l-.1.6-.1.5-.4.6-.3.5-.5.6-.5.5-.5.5-.9.6-1 .5-.9.5-.9.4-1.5.5-.8.3.1-.2z"/></svg>